<svg width="305" height="799" viewBox="0 0 305 799" fill="none" xmlns="http://www.w3.org/2000/svg">
<path d="M240.141 -2.99039e-06C242.332 -2.79886e-06 244.348 1.19418 245.402 3.11524L304.261 110.459C304.746 111.343 305 112.335 305 113.343L305 757.206C305 759.258 303.952 761.167 302.221 762.268L245.974 798.062C245.011 798.675 243.894 799 242.753 799L6.00003 799C2.68631 799 2.62272e-05 796.314 2.6372e-05 793L5.85797e-05 56.1738C5.86541e-05 54.4719 0.722807 52.8501 1.98834 51.7122L57.7887 1.53836C58.8902 0.547936 60.3192 -1.87109e-05 61.8005 -1.85814e-05L240.141 -2.99039e-06Z" fill="#673DE6"/>
</svg>
