<svg width="305" height="799" viewBox="0 0 305 799" fill="none" xmlns="http://www.w3.org/2000/svg">
<path d="M64.8589 799C62.668 799 60.6513 797.806 59.5979 795.885L0.738502 688.541C0.253666 687.657 -0.000492771 686.665 -0.000492012 685.657L-7.36639e-06 41.7936C-5.82229e-06 39.7422 1.04804 37.8331 2.77872 36.7317L59.0255 0.938047C59.9882 0.325376 61.1056 -2.67104e-06 62.2468 -2.72092e-06L299 -1.30697e-05C302.313 -1.32146e-05 305 2.68627 305 5.99999L305 742.826C305 744.528 304.277 746.15 303.011 747.288L247.211 797.462C246.109 798.452 244.68 799 243.199 799L64.8589 799Z" fill="#673DE6"/>
</svg>
