<svg width="1531" height="917" viewBox="0 0 1531 917" fill="none" xmlns="http://www.w3.org/2000/svg">
<rect width="1531" height="917" />
<path d="M905.946 218.749C907.61 217.61 909.579 217 911.596 217H1463C1468.52 217 1473 221.477 1473 227V646.352C1473 648.401 1472.37 650.401 1471.2 652.08L1443.45 691.783C1441.6 694.429 1438.58 696.02 1435.35 696.053L872.604 701.895C867.041 701.953 862.5 697.459 862.5 691.896V253.772C862.5 250.473 864.128 247.385 866.85 245.521L905.946 218.749Z" fill="#9C51F1"/>
<path d="M1119.05 804.251C1117.39 805.39 1115.42 806 1113.4 806L562 806C556.477 806 552 801.523 552 796L552 376.648C552 374.599 552.63 372.599 553.804 370.92L581.552 331.217C583.402 328.571 586.416 326.98 589.645 326.947L1152.4 321.105C1157.96 321.047 1162.5 325.541 1162.5 331.104L1162.5 769.228C1162.5 772.527 1160.87 775.615 1158.15 777.479L1119.05 804.251Z" fill="#9C51F1"/>
<path d="M46 280.256C46 274.983 48.1913 269.947 52.0496 266.353L99.5605 222.097C103.077 218.821 107.705 217 112.511 217H451C461.493 217 470 225.507 470 236V750C470 760.493 461.493 769 451 769H65C54.5066 769 46 760.493 46 750V280.256Z" fill="#9C51F1"/>
</svg>
