<svg width="710" height="622" viewBox="0 0 710 622" fill="none" xmlns="http://www.w3.org/2000/svg">
<g clip-path="url(#clip0_278_127)">
<path d="M533.321 1.20264V526.188L421.571 620.789H167.507V115.038L229.622 58.1206L291.737 1.20264H533.313M533.705 0.801758H291.58L167.108 114.854V621.198H421.704L533.705 526.38V0.801758Z" fill="#D9B8FF"/>
<path opacity="0.74" d="M666.291 290.467H566.95V92.8937L615.519 48.3872H710V253.473L666.291 290.467Z" fill="#B3A4FF"/>
<path opacity="0.74" d="M100.972 564.433H1.62263V366.851L50.1997 322.353H144.673V527.439L100.972 564.433Z" fill="#B3A4FF"/>
<path opacity="0.44" d="M668.102 83.4648H388.962C386.139 83.4648 383.851 85.8053 383.851 88.6924V504.612C383.851 507.5 386.139 509.84 388.962 509.84H668.102C670.924 509.84 673.213 507.5 673.213 504.612V88.6924C673.213 85.8053 670.924 83.4648 668.102 83.4648Z" fill="#B3A4FF"/>
<path d="M683.521 67.6777H404.381C401.558 67.6777 399.27 70.0182 399.27 72.9053V488.825C399.27 491.712 401.558 494.053 404.381 494.053H683.521C686.343 494.053 688.631 491.712 688.631 488.825V72.9053C688.631 70.0182 686.343 67.6777 683.521 67.6777Z" fill="white" stroke="black" stroke-miterlimit="10"/>
<path d="M688.106 96.4292H399.27V202.36H688.106V96.4292Z" fill="#7E57FF"/>
<path d="M497.435 234.823H425.483C423.4 234.823 421.712 236.55 421.712 238.68V302.164C421.712 304.294 423.4 306.021 425.483 306.021H497.435C499.517 306.021 501.206 304.294 501.206 302.164V238.68C501.206 236.55 499.517 234.823 497.435 234.823Z" fill="#7E57FF"/>
<path d="M662.418 221.049H600.547C598.464 221.049 596.776 222.775 596.776 224.905V261.242C596.776 263.372 598.464 265.098 600.547 265.098H662.418C664.501 265.098 666.189 263.372 666.189 261.242V224.905C666.189 222.775 664.501 221.049 662.418 221.049Z" fill="#7E57FF"/>
<path d="M579.437 223.583H514.383C513.179 223.583 512.203 224.58 512.203 225.811V226.341C512.203 227.572 513.179 228.57 514.383 228.57H579.437C580.64 228.57 581.616 227.572 581.616 226.341V225.811C581.616 224.58 580.64 223.583 579.437 223.583Z" fill="#7E57FF"/>
<path d="M471.183 223.583H423.891C422.688 223.583 421.712 224.58 421.712 225.811V226.341C421.712 227.572 422.688 228.57 423.891 228.57H471.183C472.386 228.57 473.362 227.572 473.362 226.341V225.811C473.362 224.58 472.386 223.583 471.183 223.583Z" fill="#7E57FF"/>
<path d="M583.019 239.947H513.991C513.004 239.947 512.203 240.765 512.203 241.775V242.208C512.203 243.217 513.004 244.036 513.991 244.036H583.019C584.006 244.036 584.806 243.217 584.806 242.208V241.775C584.806 240.765 584.006 239.947 583.019 239.947Z" fill="#7E57FF"/>
<path d="M583.019 247.532H513.991C513.004 247.532 512.203 248.35 512.203 249.36V249.793C512.203 250.802 513.004 251.621 513.991 251.621H583.019C584.006 251.621 584.806 250.802 584.806 249.793V249.36C584.806 248.35 584.006 247.532 583.019 247.532Z" fill="#7E57FF"/>
<path d="M583.019 255.125H513.991C513.004 255.125 512.203 255.943 512.203 256.953V257.385C512.203 258.395 513.004 259.214 513.991 259.214H583.019C584.006 259.214 584.806 258.395 584.806 257.385V256.953C584.806 255.943 584.006 255.125 583.019 255.125Z" fill="#7E57FF"/>
<path d="M583.019 262.709H513.991C513.004 262.709 512.203 263.527 512.203 264.537V264.97C512.203 265.98 513.004 266.798 513.991 266.798H583.019C584.006 266.798 584.806 265.98 584.806 264.97V264.537C584.806 263.527 584.006 262.709 583.019 262.709Z" fill="#7E57FF"/>
<path d="M583.019 279.338H513.991C513.004 279.338 512.203 280.156 512.203 281.166V281.599C512.203 282.608 513.004 283.427 513.991 283.427H583.019C584.006 283.427 584.806 282.608 584.806 281.599V281.166C584.806 280.156 584.006 279.338 583.019 279.338Z" fill="#7E57FF"/>
<path d="M583.019 287.228H513.991C513.004 287.228 512.203 288.046 512.203 289.056V289.489C512.203 290.498 513.004 291.317 513.991 291.317H583.019C584.006 291.317 584.806 290.498 584.806 289.489V289.056C584.806 288.046 584.006 287.228 583.019 287.228Z" fill="#7E57FF"/>
<path d="M583.019 295.109H513.991C513.004 295.109 512.203 295.927 512.203 296.937V297.37C512.203 298.379 513.004 299.198 513.991 299.198H583.019C584.006 299.198 584.806 298.379 584.806 297.37V296.937C584.806 295.927 584.006 295.109 583.019 295.109Z" fill="#7E57FF"/>
<path d="M562.137 302.998H513.991C513.004 302.998 512.203 303.816 512.203 304.826V305.259C512.203 306.269 513.004 307.087 513.991 307.087H562.137C563.124 307.087 563.924 306.269 563.924 305.259V304.826C563.924 303.816 563.124 302.998 562.137 302.998Z" fill="#7E57FF"/>
<path d="M478.214 326.747H424.409C423.422 326.747 422.622 327.566 422.622 328.575V329.008C422.622 330.018 423.422 330.836 424.409 330.836H478.214C479.201 330.836 480.002 330.018 480.002 329.008V328.575C480.002 327.566 479.201 326.747 478.214 326.747Z" fill="#7E57FF"/>
<path d="M579.696 340.121H424.409C423.422 340.121 422.622 340.939 422.622 341.949V342.382C422.622 343.391 423.422 344.21 424.409 344.21H579.696C580.683 344.21 581.483 343.391 581.483 342.382V341.949C581.483 340.939 580.683 340.121 579.696 340.121Z" fill="#7E57FF"/>
<path d="M579.696 475.46H424.409C423.422 475.46 422.622 476.278 422.622 477.288V477.721C422.622 478.731 423.422 479.549 424.409 479.549H579.696C580.683 479.549 581.483 478.731 581.483 477.721V477.288C581.483 476.278 580.683 475.46 579.696 475.46Z" fill="#7E57FF"/>
<path d="M664.402 475.46H598.564C597.577 475.46 596.776 476.278 596.776 477.288V477.721C596.776 478.731 597.577 479.549 598.564 479.549H664.402C665.389 479.549 666.189 478.731 666.189 477.721V477.288C666.189 476.278 665.389 475.46 664.402 475.46Z" fill="#7E57FF"/>
<path d="M664.402 484.448H598.564C597.577 484.448 596.776 485.266 596.776 486.276V486.709C596.776 487.718 597.577 488.537 598.564 488.537H664.402C665.389 488.537 666.189 487.718 666.189 486.709V486.276C666.189 485.266 665.389 484.448 664.402 484.448Z" fill="#7E57FF"/>
<path d="M558.617 484.448H424.409C423.422 484.448 422.622 485.266 422.622 486.276V486.709C422.622 487.718 423.422 488.537 424.409 488.537H558.617C559.604 488.537 560.404 487.718 560.404 486.709V486.276C560.404 485.266 559.604 484.448 558.617 484.448Z" fill="#7E57FF"/>
<path d="M579.696 349.108H424.409C423.422 349.108 422.622 349.927 422.622 350.936V351.369C422.622 352.379 423.422 353.197 424.409 353.197H579.696C580.683 353.197 581.483 352.379 581.483 351.369V350.936C581.483 349.927 580.683 349.108 579.696 349.108Z" fill="#7E57FF"/>
<path d="M563.109 358.088H424.409C423.422 358.088 422.622 358.907 422.622 359.916V360.349C422.622 361.359 423.422 362.177 424.409 362.177H563.109C564.096 362.177 564.896 361.359 564.896 360.349V359.916C564.896 358.907 564.096 358.088 563.109 358.088Z" fill="#7E57FF"/>
<path d="M662.418 330.844H600.547C598.464 330.844 596.776 332.57 596.776 334.7V378.621C596.776 380.751 598.464 382.478 600.547 382.478H662.418C664.501 382.478 666.189 380.751 666.189 378.621V334.7C666.189 332.57 664.501 330.844 662.418 330.844Z" fill="#7E57FF"/>
<path d="M662.418 398.313H600.547C598.464 398.313 596.776 400.04 596.776 402.17V453.876C596.776 456.006 598.464 457.732 600.547 457.732H662.418C664.501 457.732 666.189 456.006 666.189 453.876V402.17C666.189 400.04 664.501 398.313 662.418 398.313Z" fill="#7E57FF"/>
<path d="M577.712 382.478H426.949C424.866 382.478 423.178 384.205 423.178 386.335V453.876C423.178 456.006 424.866 457.733 426.949 457.733H577.712C579.795 457.733 581.483 456.006 581.483 453.876V386.335C581.483 384.205 579.795 382.478 577.712 382.478Z" fill="#7E57FF"/>
<path d="M662.418 279.338H600.547C598.464 279.338 596.776 281.065 596.776 283.194V311.144C596.776 313.274 598.464 315.001 600.547 315.001H662.418C664.501 315.001 666.189 313.274 666.189 311.144V283.194C666.189 281.065 664.501 279.338 662.418 279.338Z" fill="#7E57FF"/>
<path opacity="0.74" d="M662.881 115.055H424.503C422.065 115.055 420.09 117.076 420.09 119.569V197.838C420.09 200.331 422.065 202.352 424.503 202.352H662.881C665.318 202.352 667.294 200.331 667.294 197.838V119.569C667.294 117.076 665.318 115.055 662.881 115.055Z" fill="#B3A4FF"/>
<path d="M521.876 185.194L512.525 146.62L532.404 165.903L545.557 137.945L558.131 166.945L577.422 147.214L568.071 185.186C568.071 185.186 544.977 180.936 521.884 185.186L521.876 185.194Z" fill="white"/>
<path d="M410.573 82.4626C412.166 82.4626 413.458 81.1416 413.458 79.5121C413.458 77.8825 412.166 76.5615 410.573 76.5615C408.98 76.5615 407.689 77.8825 407.689 79.5121C407.689 81.1416 408.98 82.4626 410.573 82.4626Z" stroke="#662D91" stroke-miterlimit="10"/>
<path d="M421.32 82.4626C422.913 82.4626 424.205 81.1416 424.205 79.5121C424.205 77.8825 422.913 76.5615 421.32 76.5615C419.727 76.5615 418.435 77.8825 418.435 79.5121C418.435 81.1416 419.727 82.4626 421.32 82.4626Z" stroke="#662D91" stroke-miterlimit="10"/>
<path d="M432.067 82.4626C433.66 82.4626 434.952 81.1416 434.952 79.5121C434.952 77.8825 433.66 76.5615 432.067 76.5615C430.474 76.5615 429.182 77.8825 429.182 79.5121C429.182 81.1416 430.474 82.4626 432.067 82.4626Z" stroke="#662D91" stroke-miterlimit="10"/>
<path d="M442.814 82.4626C444.407 82.4626 445.699 81.1416 445.699 79.5121C445.699 77.8825 444.407 76.5615 442.814 76.5615C441.221 76.5615 439.93 77.8825 439.93 79.5121C439.93 81.1416 441.221 82.4626 442.814 82.4626Z" stroke="#662D91" stroke-miterlimit="10"/>
<path opacity="0.32" d="M563.751 77.2588H475.62C474.529 77.2588 473.644 78.1634 473.644 79.2793V80.3216C473.644 81.4374 474.529 82.342 475.62 82.342H563.751C564.842 82.342 565.727 81.4374 565.727 80.3216V79.2793C565.727 78.1634 564.842 77.2588 563.751 77.2588Z" fill="#5321FC"/>
<path opacity="0.32" d="M680.228 73.9634H657.605C656.748 73.9634 656.053 74.6741 656.053 75.5509V82.839C656.053 83.7158 656.748 84.4265 657.605 84.4265H680.228C681.085 84.4265 681.78 83.7158 681.78 82.839V75.5509C681.78 74.6741 681.085 73.9634 680.228 73.9634Z" fill="#501BFD" stroke="#333333" stroke-miterlimit="10"/>
<path opacity="0.32" d="M592.982 76.5454H577.454C576.445 76.5454 575.627 77.3818 575.627 78.4135V80.9552C575.627 81.9869 576.445 82.8233 577.454 82.8233H592.982C593.991 82.8233 594.809 81.9869 594.809 80.9552V78.4135C594.809 77.3818 593.991 76.5454 592.982 76.5454Z" fill="#4D1EF6"/>
<path opacity="0.32" d="M618.09 76.5454H602.561C601.553 76.5454 600.735 77.3818 600.735 78.4135V80.9552C600.735 81.9869 601.553 82.8233 602.561 82.8233H618.09C619.099 82.8233 619.916 81.9869 619.916 80.9552V78.4135C619.916 77.3818 619.099 76.5454 618.09 76.5454Z" fill="#501EF9"/>
<path opacity="0.32" d="M643.19 76.5454H627.661C626.652 76.5454 625.835 77.3818 625.835 78.4135V80.9552C625.835 81.9869 626.652 82.8233 627.661 82.8233H643.19C644.199 82.8233 645.016 81.9869 645.016 80.9552V78.4135C645.016 77.3818 644.199 76.5454 643.19 76.5454Z" fill="#501EF1"/>
<path d="M491.383 0.801758H533.713V45.1639" stroke="#F2F2F2" stroke-width="2" stroke-miterlimit="10"/>
<path d="M209.445 621.198H167.116V576.828" stroke="#F2F2F2" stroke-width="2" stroke-miterlimit="10"/>
<path opacity="0.44" d="M333.91 162.079C334.004 160.964 334.309 156.474 333.306 154.831C332.452 153.436 329.575 153.291 325.601 153.243C324.582 153.227 323.61 153.219 323.022 153.155C322.41 153.083 321.446 152.81 320.317 152.497C317.534 151.712 313.717 150.637 310.574 151.279C306.435 152.129 292.356 152.698 288.609 152.698H286.806C279.963 152.714 261.777 152.746 254.244 152.313C251.171 152.137 248.216 151.944 245.441 151.752C240.542 151.423 236.309 151.142 232.828 151.07C230.39 151.03 226.988 151.535 223.383 152.081C218.765 152.778 213.537 153.572 209.226 153.355C203.503 153.075 189.762 151.992 179.72 151.207C176.036 150.918 172.775 150.661 170.424 150.485C163.518 149.964 150.536 150.701 141.052 151.239C138.198 151.399 135.651 151.543 133.66 151.632L132.006 151.704C121.376 152.177 89.0175 153.628 80.2772 153.355C75.1115 153.195 66.3085 152.971 59.23 152.794C53.6488 152.658 48.8201 152.53 47.7462 152.489C45.2926 152.401 37.3519 153.099 37.0149 153.131C37.007 153.131 36.9913 153.131 36.9835 153.131C36.521 153.187 32.4527 153.78 31.5434 156.242C31.222 157.116 30.8379 158.423 30.4616 159.689C29.9756 161.341 29.419 163.209 29.082 163.819C28.3765 165.109 26.5108 168.549 27.8199 171.363C28.5097 172.846 28.0473 174.867 27.5142 177.208C27.2869 178.194 27.0596 179.221 26.8793 180.311C26.1973 184.512 26.55 195.208 28.4157 200.804C28.5411 201.189 28.69 201.614 28.8468 202.071C30.979 208.341 35.4157 221.378 35.9958 243.643C36.6151 267.4 36.8659 294.884 36.8738 295.189C36.8738 295.285 37.2108 304.73 34.5378 312.908C31.8569 321.126 32.0921 330.243 35.1806 337.932C37.932 344.787 38.1201 369.506 37.6263 372.368C37.5322 372.937 37.2265 374.003 36.8346 375.358C35.2433 380.891 32.2881 391.201 32.9935 402.362C33.409 408.985 34.091 413.627 34.6946 417.724C35.3922 422.455 35.988 426.544 36.1212 432.629C36.3642 443.966 34.5378 477.849 33.7539 484.809C33.3071 488.753 33.3385 498.88 33.3698 507.018C33.3855 512.486 33.4012 517.649 33.2601 518.812C32.8838 521.778 31.8648 527.984 30.5165 534.607C29.1368 541.39 29.1212 551.612 29.1212 552.045C29.1212 552.502 29.4739 552.879 29.9207 552.903C31.0417 552.967 54.221 554.274 65.1954 554.274C66.818 554.274 68.1741 554.242 69.154 554.178C77.565 553.617 122.544 550.722 133.369 550.602C139.155 550.53 151.367 550.65 162.138 550.746C171.827 550.835 180.975 550.923 183.883 550.859C186.752 550.795 194.544 550.33 202.79 549.832C212.095 549.271 221.721 548.686 224.496 548.686C227.498 548.686 243.191 549.872 257.027 550.915C267.17 551.676 275.934 552.342 277.854 552.398C282.299 552.526 333.714 554.266 334.231 554.282C334.498 554.298 334.709 554.194 334.874 554.01C335.038 553.833 335.125 553.585 335.101 553.336C335.062 552.871 330.853 506.673 330.853 501.02C330.853 499.585 330.9 496.346 330.962 491.872C331.158 478.37 331.48 455.76 331.103 443.573C330.61 427.498 331.856 396.549 332.35 390.736C332.632 387.385 332.021 381.965 331.378 376.232C330.868 371.71 330.335 367.028 330.225 363.147C329.975 354.256 330.233 340.241 331.221 330.652C331.346 329.433 331.48 328.23 331.621 327.028C332.577 318.609 333.565 309.902 330.586 297.17C329.865 292.872 329.716 265.05 330.351 254.018C330.61 249.488 331.174 244.693 331.762 239.618C332.569 232.675 333.408 225.491 333.479 218.684C333.541 212.558 334.129 205.286 334.6 199.441C335.109 193.163 335.336 190.109 335.07 189.155C334.748 188 334.474 186.132 334.325 185.041L335.846 184.881C336.073 184.857 336.277 184.737 336.418 184.56C336.559 184.376 336.622 184.143 336.591 183.919L333.886 162.047L333.91 162.079Z" fill="#B3A4FF"/>
<path d="M322.261 152.73C322.355 151.616 322.661 147.126 321.658 145.482C320.803 144.087 317.926 143.943 313.952 143.894C312.933 143.878 311.961 143.87 311.373 143.806C310.762 143.734 309.798 143.462 308.669 143.149C305.886 142.363 302.068 141.289 298.925 141.93C294.786 142.78 280.708 143.349 276.961 143.349H275.158C268.315 143.365 250.129 143.397 242.595 142.964C239.523 142.788 236.567 142.596 233.792 142.403C228.893 142.074 224.66 141.794 221.18 141.722C218.742 141.682 215.34 142.187 211.734 142.732C207.117 143.429 201.889 144.223 197.577 144.007C191.855 143.726 178.113 142.644 168.072 141.858C164.388 141.569 161.127 141.313 158.775 141.136C151.869 140.615 138.888 141.353 129.403 141.89C126.55 142.05 124.002 142.195 122.011 142.283L120.357 142.355C109.728 142.828 77.369 144.279 68.6288 144.007C63.463 143.846 54.66 143.622 47.5816 143.445C42.0003 143.309 37.1716 143.181 36.0977 143.141C33.6442 143.053 25.7035 143.75 25.3664 143.782C25.3585 143.782 25.3429 143.782 25.335 143.782C24.8725 143.838 20.8042 144.432 19.8949 146.893C19.5735 147.767 19.1894 149.074 18.8131 150.341C18.3271 151.992 17.7706 153.861 17.4335 154.47C16.728 155.761 14.8624 159.2 16.1715 162.015C16.8613 163.498 16.3988 165.518 15.8657 167.859C15.6384 168.846 15.4111 169.872 15.2308 170.962C14.5488 175.164 14.9016 185.859 16.7672 191.456C16.8926 191.841 17.0416 192.265 17.1983 192.722C19.3305 198.992 23.7673 212.029 24.3473 234.294C24.9666 258.051 25.2174 285.536 25.2253 285.84C25.2253 285.937 25.5624 295.382 22.8893 303.56C20.2084 311.778 20.4436 320.894 23.5321 328.583C26.2835 335.438 26.4717 360.157 25.9778 363.019C25.8837 363.588 25.578 364.655 25.1861 366.01C23.5948 371.542 20.6396 381.853 21.3451 393.014C21.7605 399.636 22.4425 404.279 23.0461 408.376C23.7438 413.106 24.3395 417.195 24.4728 423.281C24.7158 434.618 22.8893 468.501 22.1054 475.46C21.6586 479.405 21.69 489.531 21.7213 497.669C21.737 503.137 21.7527 508.301 21.6116 509.463C21.2353 512.43 20.2163 518.635 18.868 525.258C17.4884 532.041 17.4727 542.264 17.4727 542.697C17.4727 543.154 17.8254 543.531 18.2723 543.555C19.3932 543.619 42.5726 544.926 53.5469 544.926C55.1695 544.926 56.5256 544.894 57.5055 544.829C65.9165 544.268 110.896 541.374 121.721 541.254C127.506 541.181 139.719 541.302 150.489 541.398C160.178 541.486 169.326 541.574 172.234 541.51C175.103 541.446 182.895 540.981 191.141 540.484C200.446 539.923 210.072 539.337 212.847 539.337C215.849 539.337 231.543 540.524 245.378 541.566C255.522 542.328 264.285 542.993 266.206 543.049C270.651 543.178 322.065 544.918 322.583 544.934C322.849 544.95 323.061 544.845 323.225 544.661C323.39 544.485 323.476 544.236 323.453 543.988C323.414 543.523 319.204 497.324 319.204 491.672C319.204 490.237 319.251 486.997 319.314 482.524C319.51 469.022 319.831 446.412 319.455 434.225C318.961 418.149 320.207 387.201 320.701 381.388C320.984 378.036 320.372 372.616 319.729 366.884C319.22 362.362 318.687 357.679 318.577 353.799C318.326 344.907 318.585 330.892 319.573 321.303C319.698 320.084 319.831 318.882 319.972 317.679C320.929 309.26 321.916 300.553 318.938 287.821C318.216 283.523 318.067 255.702 318.702 244.669C318.961 240.139 319.525 235.345 320.113 230.27C320.921 223.326 321.76 216.142 321.83 209.335C321.893 203.21 322.481 195.938 322.951 190.093C323.461 183.815 323.688 180.76 323.421 179.806C323.1 178.651 322.826 176.783 322.677 175.693L324.197 175.532C324.425 175.508 324.629 175.388 324.77 175.212C324.911 175.027 324.973 174.795 324.942 174.57L322.238 152.698L322.261 152.73Z" fill="#F9F8F7"/>
<mask id="mask0_278_127" style="mask-type:luminance" maskUnits="userSpaceOnUse" x="14" y="140" width="311" height="405">
<path d="M322.01 152.602C322.104 151.487 322.41 146.997 321.407 145.354C320.552 143.958 317.676 143.814 313.701 143.766C312.682 143.75 311.71 143.742 311.122 143.678C310.511 143.606 309.547 143.333 308.418 143.02C305.635 142.235 301.818 141.16 298.674 141.802C294.535 142.652 280.457 143.221 276.71 143.221H274.907C268.064 143.237 249.878 143.269 242.345 142.836C239.272 142.66 236.317 142.467 233.542 142.275C228.642 141.946 224.409 141.665 220.929 141.593C218.491 141.553 215.089 142.058 211.483 142.603C206.866 143.301 201.638 144.095 197.326 143.878C191.604 143.598 177.863 142.515 167.821 141.73C164.137 141.441 160.876 141.184 158.524 141.008C151.618 140.487 138.637 141.224 129.152 141.762C126.299 141.922 123.751 142.066 121.76 142.155L120.106 142.227C109.477 142.7 77.1182 144.151 68.3779 143.878C63.2122 143.718 54.4092 143.493 47.3307 143.317C41.7495 143.181 36.9208 143.052 35.8469 143.012C33.3933 142.924 25.4526 143.622 25.1155 143.654C25.1077 143.654 25.092 143.654 25.0842 143.654C24.6217 143.71 20.5534 144.303 19.6441 146.765C19.3227 147.639 18.9386 148.946 18.5623 150.212C18.0763 151.864 17.5197 153.732 17.1827 154.341C16.4772 155.632 14.6115 159.072 15.9206 161.886C16.6104 163.369 16.1479 165.39 15.6149 167.731C15.3876 168.717 15.1603 169.744 14.98 170.834C14.298 175.035 14.6507 185.731 16.5164 191.327C16.6418 191.712 16.7907 192.137 16.9475 192.594C19.0797 198.864 23.5164 211.901 24.0965 234.166C24.7158 257.923 24.9666 285.407 24.9744 285.712C24.9744 285.808 25.3115 295.253 22.6385 303.431C19.9576 311.649 20.1928 320.766 23.2813 328.455C26.0327 335.31 26.2208 360.028 25.727 362.891C25.6329 363.46 25.3272 364.526 24.9353 365.881C23.344 371.414 20.3887 381.724 21.0942 392.885C21.5097 399.508 22.1917 404.15 22.7953 408.247C23.4929 412.978 24.0887 417.067 24.2219 423.152C24.4649 434.489 22.6385 468.372 21.8546 475.332C21.4078 479.276 21.4391 489.403 21.4705 497.541C21.4862 503.009 21.5019 508.172 21.3608 509.335C20.9845 512.301 19.9654 518.507 18.6172 525.13C17.2375 531.913 17.2219 542.135 17.2219 542.568C17.2219 543.025 17.5746 543.402 18.0214 543.426C19.1424 543.49 42.3217 544.797 53.2961 544.797C54.9187 544.797 56.2748 544.765 57.2547 544.701C65.6657 544.14 110.645 541.245 121.47 541.125C127.255 541.053 139.468 541.173 150.239 541.269C159.927 541.358 169.075 541.446 171.983 541.382C174.852 541.317 182.644 540.852 190.891 540.355C200.195 539.794 209.821 539.209 212.596 539.209C215.599 539.209 231.292 540.395 245.127 541.438C255.271 542.199 264.035 542.865 265.955 542.921C270.4 543.049 321.814 544.789 322.332 544.805C322.598 544.821 322.81 544.717 322.975 544.533C323.139 544.356 323.225 544.108 323.202 543.859C323.163 543.394 318.953 497.196 318.953 491.543C318.953 490.108 319 486.869 319.063 482.395C319.259 468.893 319.58 446.283 319.204 434.096C318.71 418.021 319.957 387.072 320.45 381.259C320.733 377.908 320.121 372.488 319.478 366.755C318.969 362.233 318.436 357.551 318.326 353.67C318.075 344.779 318.334 330.764 319.322 321.174C319.447 319.956 319.58 318.753 319.721 317.55C320.678 309.132 321.665 300.425 318.687 287.692C317.966 283.395 317.817 255.573 318.452 244.541C318.71 240.011 319.275 235.216 319.863 230.141C320.67 223.198 321.509 216.014 321.579 209.207C321.642 203.081 322.23 195.809 322.7 189.964C323.21 183.686 323.437 180.632 323.171 179.678C322.849 178.523 322.575 176.655 322.426 175.564L323.947 175.404C324.174 175.38 324.378 175.26 324.519 175.083C324.66 174.899 324.723 174.666 324.691 174.442L321.987 152.57L322.01 152.602Z" fill="white"/>
</mask>
<g mask="url(#mask0_278_127)">
<path opacity="0.74" d="M343.559 140.839H0V398.233H343.559V140.839Z" fill="#B3A4FF"/>
</g>
<path d="M15.8187 178.98C15.8187 178.98 102.704 177.585 123.336 180.271C143.968 182.957 207.728 178.932 216.351 177.777C224.974 176.622 322.151 177.777 322.151 177.777L321.187 174.321L323.97 173.359L322.504 169.334H298.878C289.503 169.334 218.24 170.296 218.24 170.296C218.24 170.296 164.231 172.02 155.796 169.334C147.362 166.648 65.7049 171.635 57.8661 171.058C50.0273 170.481 20.8355 171.371 16.3909 168.156C15.4346 175.877 15.8344 178.972 15.8344 178.972L15.8187 178.98Z" fill="#7E57FF"/>
<path d="M213.968 340.922H59.3555C55.4808 340.922 52.3397 344.135 52.3397 348.098V382.999C52.3397 386.963 55.4808 390.175 59.3555 390.175H213.968C217.843 390.175 220.984 386.963 220.984 382.999V348.098C220.984 344.135 217.843 340.922 213.968 340.922Z" fill="#7E57FF"/>
<path opacity="0.74" d="M291.165 484.8H207.948C204.065 484.8 200.917 488.02 200.917 491.992V500.627C200.917 504.599 204.065 507.819 207.948 507.819H291.165C295.048 507.819 298.196 504.599 298.196 500.627V491.992C298.196 488.02 295.048 484.8 291.165 484.8Z" fill="#B3A4FF"/>
<path d="M121.447 155.528H90.648C89.1587 155.528 87.9514 156.763 87.9514 158.286V159.673C87.9514 161.196 89.1587 162.431 90.648 162.431H121.447C122.936 162.431 124.143 161.196 124.143 159.673V158.286C124.143 156.763 122.936 155.528 121.447 155.528Z" fill="#7E57FF"/>
<path d="M167.296 155.528H136.497C135.008 155.528 133.801 156.763 133.801 158.286V159.673C133.801 161.196 135.008 162.431 136.497 162.431H167.296C168.785 162.431 169.992 161.196 169.992 159.673V158.286C169.992 156.763 168.785 155.528 167.296 155.528Z" fill="#7E57FF"/>
<path d="M213.153 155.528H182.354C180.865 155.528 179.658 156.763 179.658 158.286V159.673C179.658 161.196 180.865 162.431 182.354 162.431H213.153C214.642 162.431 215.849 161.196 215.849 159.673V158.286C215.849 156.763 214.642 155.528 213.153 155.528Z" fill="#7E57FF"/>
<path d="M70.6433 179.132H44.8693C41.2154 179.132 38.2534 182.162 38.2534 185.899V229.965C38.2534 233.702 41.2154 236.732 44.8693 236.732H70.6433C74.2972 236.732 77.2593 233.702 77.2593 229.965V185.899C77.2593 182.162 74.2972 179.132 70.6433 179.132Z" fill="#FFF1AE"/>
<path d="M65.5716 195.328H50.38V222.372H65.5716V195.328Z" fill="#F9F8F7"/>
<path d="M290.679 186.981H248.866V196.955H290.679V186.981Z" fill="#7E57FF"/>
<path d="M283.389 214.346H251.735V246.088H283.389V214.346Z" fill="#7E57FF"/>
<path opacity="0.74" d="M292.678 416.393H206.411V479.886H292.678V416.393Z" fill="#B3A4FF"/>
<path d="M220.756 260.256L209.414 262.364C209.414 262.364 208.128 296.311 208.677 296.311C209.226 296.311 220.843 296.504 220.984 296.311C221.125 296.119 220.756 260.248 220.756 260.248V260.256Z" fill="#7E57FF"/>
<path d="M31.6296 162.431C33.7682 162.431 35.502 160.658 35.502 158.471C35.502 156.283 33.7682 154.51 31.6296 154.51C29.4909 154.51 27.7572 156.283 27.7572 158.471C27.7572 160.658 29.4909 162.431 31.6296 162.431Z" fill="#474747"/>
<path d="M43.0272 162.431C45.1659 162.431 46.8996 160.658 46.8996 158.471C46.8996 156.283 45.1659 154.51 43.0272 154.51C40.8886 154.51 39.1548 156.283 39.1548 158.471C39.1548 160.658 40.8886 162.431 43.0272 162.431Z" fill="#474747"/>
<path d="M54.4248 162.431C56.5635 162.431 58.2972 160.658 58.2972 158.471C58.2972 156.283 56.5635 154.51 54.4248 154.51C52.2862 154.51 50.5525 156.283 50.5525 158.471C50.5525 160.658 52.2862 162.431 54.4248 162.431Z" fill="#474747"/>
<path d="M61.6365 418.887L61.4484 480.84H119.189L122.019 418.117L61.6365 418.887Z" fill="#B0C6B0"/>
<path d="M241.859 317.799L242.98 383.969H297.992L298.188 321.824L297.922 319.33L295.249 316.404L241.859 317.799Z" fill="#B0C6B0"/>
<path d="M270.494 284.421L270.933 308.723L294.551 308.402L294.927 284.036L270.494 284.421Z" fill="#B0C6B0"/>
<path d="M25.4526 144.656C25.4526 144.656 21.4548 145.169 20.7023 147.213C19.9498 149.258 18.8288 153.732 18.2017 154.886C17.5746 156.041 15.8265 159.232 16.9553 161.661C18.0841 164.091 16.7045 167.29 16.0774 171.122C15.4503 174.955 15.7011 185.57 17.5746 191.199C19.4481 196.827 24.5747 210.249 25.2018 234.294C25.8289 258.331 26.0797 285.824 26.0797 285.824C26.0797 285.824 26.456 295.413 23.7045 303.856C20.9531 312.299 21.4548 321.118 24.3317 328.278C27.2085 335.438 27.3339 360.245 26.8322 363.187C26.3305 366.13 21.3294 379.046 22.2073 392.981C23.0853 406.916 25.0842 411.654 25.335 423.288C25.5859 434.922 23.7124 468.941 22.9599 475.588C22.2073 482.235 22.8344 506.665 22.4582 509.599C22.0819 512.534 21.0864 518.675 19.7068 525.458C18.3271 532.241 18.335 542.72 18.335 542.72C18.335 542.72 49.8391 544.508 57.4663 543.995C65.0935 543.482 110.723 540.54 121.729 540.411C132.735 540.283 166.112 540.796 172.234 540.668C178.356 540.54 207.619 538.495 212.863 538.495C218.107 538.495 261.746 542.079 266.245 542.207C270.745 542.336 322.63 544.091 322.63 544.091C322.63 544.091 318.381 497.452 318.381 491.696C318.381 485.939 319.134 450.516 318.632 434.281C318.13 418.045 319.384 387.224 319.878 381.339C320.38 375.454 318.005 362.666 317.754 353.847C317.503 345.027 317.754 330.956 318.757 321.238C319.761 311.521 321.509 302.445 318.13 287.989C317.378 283.515 317.252 255.509 317.879 244.637C318.506 233.765 320.882 220.977 321.007 209.343C321.132 197.709 323.131 181.85 322.63 180.062C322.128 178.274 321.752 174.947 321.752 174.947L324.127 174.69L321.407 152.73C321.407 152.73 321.877 147.454 320.936 145.923C319.996 144.391 313.529 144.896 311.279 144.648C309.029 144.399 303.307 141.898 299.09 142.764C294.872 143.63 280.896 144.199 276.961 144.199C273.026 144.199 250.991 144.295 242.548 143.814C234.106 143.333 226.612 142.683 221.172 142.579C215.732 142.475 205.322 145.257 197.546 144.872C189.762 144.487 167.633 142.667 158.728 141.994C149.823 141.32 130.689 142.764 122.066 143.148C113.443 143.533 77.9021 145.161 68.6209 144.872C59.3398 144.584 38.5199 144.103 36.082 144.006C33.6442 143.91 25.4526 144.648 25.4526 144.648V144.656Z" stroke="#4D4D4D" stroke-width="3" stroke-linecap="round" stroke-linejoin="round"/>
<path d="M15.8187 174.025C15.8187 174.025 51.2736 174.129 55.585 174.041C59.8963 173.953 105.377 174.137 105.377 174.137C105.377 174.137 140.072 175.572 145.041 175.668C150.011 175.765 178.231 175.356 186.485 174.842C194.74 174.329 224.456 172.982 234.96 173.463C245.464 173.944 275.84 174.145 288.688 174.522C301.535 174.899 311.381 174.81 316.069 174.522C320.756 174.233 324.135 173.944 324.135 173.944" stroke="#4D4D4D" stroke-width="3" stroke-linecap="round" stroke-linejoin="round"/>
<path d="M259.613 153.515V162.72H308.841V153.034L259.613 153.515Z" stroke="#4D4D4D" stroke-width="3" stroke-linecap="round" stroke-linejoin="round"/>
<path d="M290.835 154.566V161.95" stroke="#4D4D4D" stroke-width="3" stroke-linecap="round" stroke-linejoin="round"/>
<path d="M300.681 154.566V161.95" stroke="#4D4D4D" stroke-width="3" stroke-linecap="round" stroke-linejoin="round"/>
<path d="M248.866 187.238V197.34L290.835 196.827V187.238H248.866Z" stroke="#4D4D4D" stroke-width="3" stroke-linecap="round" stroke-linejoin="round"/>
<path d="M251.61 214.346V247.467C251.61 247.467 266.613 245.551 271.865 245.551C277.117 245.551 284.227 246.578 284.227 246.578L284.87 214.354H251.618L251.61 214.346Z" stroke="#4D4D4D" stroke-width="3" stroke-linecap="round" stroke-linejoin="round"/>
<path d="M208.857 261.915C208.857 261.915 207.728 296.696 208.857 296.696H220.984V260.127L208.857 261.915Z" stroke="#4D4D4D" stroke-width="3" stroke-linecap="round" stroke-linejoin="round"/>
<path d="M203.48 257.698V296.696" stroke="#4D4D4D" stroke-width="3" stroke-linecap="round" stroke-linejoin="round"/>
<path d="M270.494 283.908C270.494 284.293 270.619 308.715 271.246 308.715H295.249V283.908H270.494Z" stroke="#4D4D4D" stroke-width="3" stroke-linecap="round" stroke-linejoin="round"/>
<path d="M241.859 317.157C241.859 317.157 242.862 385.06 243.23 385.06C243.599 385.06 297.992 384.418 297.992 384.418V320.605C297.992 320.605 299.866 316.772 291.988 316.516C284.11 316.259 253.609 316.516 253.609 316.516L241.859 317.157Z" stroke="#4D4D4D" stroke-width="3" stroke-linecap="round" stroke-linejoin="round"/>
<path d="M251.242 330.331H286.116" stroke="#4D4D4D" stroke-width="3" stroke-linecap="round" stroke-linejoin="round"/>
<path d="M251.242 340.561H290.624" stroke="#4D4D4D" stroke-width="3" stroke-linecap="round" stroke-linejoin="round"/>
<path d="M251.242 350.736C252.245 351.177 290.624 350.736 290.624 350.736" stroke="#4D4D4D" stroke-width="3" stroke-linecap="round" stroke-linejoin="round"/>
<path d="M252.864 362.169H290.616" stroke="#4D4D4D" stroke-width="3" stroke-linecap="round" stroke-linejoin="round"/>
<path d="M252.864 372.399H290.122" stroke="#4D4D4D" stroke-width="3" stroke-linecap="round" stroke-linejoin="round"/>
<path d="M49.8313 194.783C49.8313 195.681 49.3296 222.789 49.8313 222.789C50.333 222.789 66.0812 223.43 66.0812 223.43V194.783H49.8313Z" stroke="#4D4D4D" stroke-width="3" stroke-linecap="round" stroke-linejoin="round"/>
<path d="M58.8302 250.795C60.8291 250.667 181.602 250.795 181.602 250.795" stroke="#4D4D4D" stroke-width="3" stroke-linecap="round" stroke-linejoin="round"/>
<path d="M57.8426 261.787L181.602 260.897" stroke="#4D4D4D" stroke-width="3" stroke-linecap="round" stroke-linejoin="round"/>
<path d="M57.8426 283.403C60.4529 283.274 180.598 283.403 180.598 283.403" stroke="#4D4D4D" stroke-width="3" stroke-linecap="round" stroke-linejoin="round"/>
<path d="M57.8426 294.395C58.8302 294.395 180.598 293.882 180.598 293.882" stroke="#4D4D4D" stroke-width="3" stroke-linecap="round" stroke-linejoin="round"/>
<path d="M57.8426 305.395L180.598 304.754" stroke="#4D4D4D" stroke-width="3" stroke-linecap="round" stroke-linejoin="round"/>
<path d="M57.8426 315.626H180.598" stroke="#4D4D4D" stroke-width="3" stroke-linecap="round" stroke-linejoin="round"/>
<path d="M68.3309 351.425H131.347" stroke="#4D4D4D" stroke-width="3" stroke-linecap="round" stroke-linejoin="round"/>
<path d="M68.3309 362.041H131.347" stroke="#4D4D4D" stroke-width="3" stroke-linecap="round" stroke-linejoin="round"/>
<path d="M68.3309 371.381H131.347" stroke="#4D4D4D" stroke-width="3" stroke-linecap="round" stroke-linejoin="round"/>
<path d="M68.3309 381.604H131.347" stroke="#4D4D4D" stroke-width="3" stroke-linecap="round" stroke-linejoin="round"/>
<path d="M147.722 351.425H201.481" stroke="#4D4D4D" stroke-width="3" stroke-linecap="round" stroke-linejoin="round"/>
<path d="M147.722 362.041H201.481" stroke="#4D4D4D" stroke-width="3" stroke-linecap="round" stroke-linejoin="round"/>
<path d="M147.722 371.381H201.481" stroke="#4D4D4D" stroke-width="3" stroke-linecap="round" stroke-linejoin="round"/>
<path d="M206.357 416.2C206.357 416.2 206.168 413.707 206.357 423.681C206.545 433.655 206.357 479.885 206.357 479.885H292.058C292.058 479.885 294.12 470.104 293.555 465.117C292.991 460.13 294.128 439.989 293.65 437.496C293.171 435.002 292.05 416.778 292.05 416.778L206.349 416.2H206.357Z" stroke="#4D4D4D" stroke-width="3" stroke-linecap="round" stroke-linejoin="round"/>
<path d="M212.73 491.583H282.119" stroke="#4D4D4D" stroke-width="3" stroke-linecap="round" stroke-linejoin="round"/>
<path d="M212.73 501.365L282.119 500.595" stroke="#4D4D4D" stroke-width="3" stroke-linecap="round" stroke-linejoin="round"/>
<path d="M61.3935 504.62H165.477" stroke="#4D4D4D" stroke-width="3" stroke-linecap="round" stroke-linejoin="round"/>
<path d="M168.103 511.908H61.3935" stroke="#4D4D4D" stroke-width="3" stroke-linecap="round" stroke-linejoin="round"/>
<path d="M61.3935 521.121L165.477 519.774" stroke="#4D4D4D" stroke-width="3" stroke-linecap="round" stroke-linejoin="round"/>
<path d="M172.603 417.347C172.038 417.732 61.3935 418.686 61.3935 418.686V481.601H119.15L121.776 419.456" stroke="#4D4D4D" stroke-width="3" stroke-linecap="round" stroke-linejoin="round"/>
<path d="M134.906 440.751H187.975" stroke="#4D4D4D" stroke-width="3" stroke-linecap="round" stroke-linejoin="round"/>
<path d="M134.906 451.495H186.666" stroke="#4D4D4D" stroke-width="3" stroke-linecap="round" stroke-linejoin="round"/>
<path d="M134.906 462.038C135.094 462.038 187.975 460.314 187.975 460.314" stroke="#4D4D4D" stroke-width="3" stroke-linecap="round" stroke-linejoin="round"/>
</g>
<defs>
<clipPath id="clip0_278_127">
<rect width="710" height="622" fill="white"/>
</clipPath>
</defs>
</svg>
