<svg width="848" height="545" viewBox="0 0 848 545" fill="none" xmlns="http://www.w3.org/2000/svg">
<g clip-path="url(#clip0_386_40720)">
<path d="M610 103V78.0735L620 78V103H610Z" fill="#C591FF"/>
<path d="M669 172V147.074L679 147V172H669Z" fill="#C591FF"/>
<path d="M155 134V40.2764L165 40V134H155Z" fill="#C591FF"/>
<path d="M291 185.5L266.414 195L265 43L291 43L291 185.5Z" fill="#C591FF"/>
<path d="M566 504L515.864 555L323.215 555L279 507.586L566 504Z" fill="#C591FF"/>
<path d="M469 117L480.385 493.5L557.5 514C561.469 514 604.5 473.5 604.5 473.5L604.5 179.5L469 117Z" fill="#C591FF"/>
<g filter="url(#filter0_d_386_40720)">
<rect x="278" y="31" width="287" height="505.316" rx="10" fill="white"/>
<rect x="278.5" y="31.5" width="286" height="504.316" rx="9.5" stroke="#B7C1E7"/>
</g>
<circle cx="421.5" cy="511.786" r="11.765" fill="#673DE6" stroke="#9C51F1"/>
<circle cx="304.5" cy="380.5" r="7" fill="#673DE6" stroke="#9C51F1"/>
<circle cx="437.5" cy="383.5" r="7" fill="#673DE6" stroke="#9C51F1"/>
<circle cx="321.5" cy="380.5" r="7" fill="#E522D3" stroke="#9C51F1"/>
<circle cx="454.5" cy="383.5" r="7" fill="#E522D3" stroke="#9C51F1"/>
<circle cx="339.5" cy="380.5" r="7" fill="#C491FF" stroke="#9C51F1"/>
<circle cx="472.5" cy="383.5" r="7" fill="#C491FF" stroke="#9C51F1"/>
<path d="M565 74H278V195H565V74Z" fill="#7E57FF"/>
<line x1="422" y1="512.5" x2="-113" y2="512.5" stroke="#E521D2"/>
<path d="M382 329.5L99.5 329.5" stroke="#9C51F1"/>
<line x1="702" y1="195.5" x2="317" y2="195.5" stroke="#9C51F1"/>
<line x1="781" y1="57.5" x2="589" y2="57.5" stroke="#9C51F1"/>
<line x1="767" y1="328.5" x2="382" y2="328.5" stroke="#9C51F1"/>
<line x1="781" y1="113.5" x2="396" y2="113.5" stroke="#9C51F1"/>
<line x1="649.5" y1="370" x2="649.5" y2="32" stroke="#9C51F1"/>
<line x1="203.5" y1="103" x2="203.5" y2="12" stroke="#9C51F1"/>
<line x1="369.5" y1="103" x2="369.5" y2="12" stroke="#9C51F1"/>
<path d="M686 478H530" stroke="#E521D2"/>
<line x1="242.5" y1="9" x2="242.5" y2="391" stroke="#9C51F1"/>
<line x1="183.5" y1="328" x2="183.5" y2="710" stroke="#9C51F1"/>
<line x1="145.5" y1="328" x2="145.5" y2="710" stroke="#9C51F1"/>
<path d="M620 304V225.232L630 225V304H620Z" fill="#C591FF"/>
<path d="M680 436V357.232L690 357V436H680Z" fill="#C591FF"/>
<path d="M228 443V304.409L238 304V443H228Z" fill="#C591FF"/>
<circle cx="726" cy="495" r="17" fill="#C491FF"/>
<circle cx="183" cy="393" r="12" fill="#C491FF"/>
<circle cx="243" cy="39" r="7" fill="#C491FF"/>
<circle cx="242" cy="129" r="7" fill="#C491FF"/>
<circle cx="183" cy="329" r="7" fill="#C491FF"/>
<circle cx="145" cy="329" r="7" fill="#C491FF"/>
<path d="M409.356 236H301.644C298.527 236 296 238.813 296 242.283V345.717C296 349.187 298.527 352 301.644 352H409.356C412.473 352 415 349.187 415 345.717V242.283C415 238.813 412.473 236 409.356 236Z" fill="#7E57FF"/>
<path d="M410.356 406H302.644C299.527 406 297 408.158 297 410.821V490.179C297 492.842 299.527 495 302.644 495H410.356C413.473 495 416 492.842 416 490.179V410.821C416 408.158 413.473 406 410.356 406Z" fill="#7E57FF"/>
<path d="M542.356 236H434.644C431.527 236 429 238.813 429 242.283V345.717C429 349.187 431.527 352 434.644 352H542.356C545.473 352 548 349.187 548 345.717V242.283C548 238.813 545.473 236 542.356 236Z" fill="#7E57FF"/>
<path d="M543.356 406H435.644C432.527 406 430 408.158 430 410.821V490.179C430 492.842 432.527 495 435.644 495H543.356C546.473 495 549 492.842 549 490.179V410.821C549 408.158 546.473 406 543.356 406Z" fill="#7E57FF"/>
<path d="M372.277 203H305.723C304.772 203 304 206.803 304 211.494V213.506C304 218.197 304.772 222 305.723 222H372.277C373.229 222 374 218.197 374 213.506V211.494C374 206.803 373.229 203 372.277 203Z" fill="#7E57FF"/>
<path d="M438.769 203H391.231C390.551 203 390 206.803 390 211.494V213.506C390 218.197 390.551 222 391.231 222H438.769C439.449 222 440 218.197 440 213.506V211.494C440 206.803 439.449 203 438.769 203Z" fill="#7E57FF"/>
<path d="M516.375 203H453.625C452.727 203 452 206.803 452 211.494V213.506C452 218.197 452.727 222 453.625 222H516.375C517.273 222 518 218.197 518 213.506V211.494C518 206.803 517.273 203 516.375 203Z" fill="#7E57FF"/>
<path d="M550.532 203H532.468C532.209 203 532 206.803 532 211.494V213.506C532 218.197 532.209 222 532.468 222H550.532C550.791 222 551 218.197 551 213.506V211.494C551 206.803 550.791 203 550.532 203Z" fill="#7E57FF"/>
<rect x="111.5" y="188.5" width="253" height="48" rx="9.5" fill="white" stroke="#B7C1E7"/>
<path d="M157.024 216L160.864 207.6H161.74L165.58 216H164.644L161.116 208.116H161.476L157.948 216H157.024ZM158.536 213.756L158.8 213.036H163.684L163.948 213.756H158.536ZM170.042 216.06C169.498 216.06 169.006 215.936 168.566 215.688C168.126 215.432 167.774 215.068 167.51 214.596C167.254 214.116 167.126 213.532 167.126 212.844C167.126 212.156 167.254 211.576 167.51 211.104C167.766 210.624 168.114 210.26 168.554 210.012C168.994 209.764 169.49 209.64 170.042 209.64C170.642 209.64 171.178 209.776 171.65 210.048C172.13 210.312 172.506 210.688 172.778 211.176C173.05 211.656 173.186 212.212 173.186 212.844C173.186 213.484 173.05 214.044 172.778 214.524C172.506 215.004 172.13 215.38 171.65 215.652C171.178 215.924 170.642 216.06 170.042 216.06ZM166.79 218.328V209.7H167.606V211.596L167.522 212.856L167.642 214.128V218.328H166.79ZM169.982 215.304C170.43 215.304 170.83 215.204 171.182 215.004C171.534 214.796 171.814 214.508 172.022 214.14C172.23 213.764 172.334 213.332 172.334 212.844C172.334 212.356 172.23 211.928 172.022 211.56C171.814 211.192 171.534 210.904 171.182 210.696C170.83 210.488 170.43 210.384 169.982 210.384C169.534 210.384 169.13 210.488 168.77 210.696C168.418 210.904 168.138 211.192 167.93 211.56C167.73 211.928 167.63 212.356 167.63 212.844C167.63 213.332 167.73 213.764 167.93 214.14C168.138 214.508 168.418 214.796 168.77 215.004C169.13 215.204 169.534 215.304 169.982 215.304ZM178.174 216.06C177.63 216.06 177.138 215.936 176.698 215.688C176.258 215.432 175.906 215.068 175.642 214.596C175.386 214.116 175.258 213.532 175.258 212.844C175.258 212.156 175.386 211.576 175.642 211.104C175.898 210.624 176.246 210.26 176.686 210.012C177.126 209.764 177.622 209.64 178.174 209.64C178.774 209.64 179.31 209.776 179.782 210.048C180.262 210.312 180.638 210.688 180.91 211.176C181.182 211.656 181.318 212.212 181.318 212.844C181.318 213.484 181.182 214.044 180.91 214.524C180.638 215.004 180.262 215.38 179.782 215.652C179.31 215.924 178.774 216.06 178.174 216.06ZM174.922 218.328V209.7H175.738V211.596L175.654 212.856L175.774 214.128V218.328H174.922ZM178.114 215.304C178.562 215.304 178.962 215.204 179.314 215.004C179.666 214.796 179.946 214.508 180.154 214.14C180.362 213.764 180.466 213.332 180.466 212.844C180.466 212.356 180.362 211.928 180.154 211.56C179.946 211.192 179.666 210.904 179.314 210.696C178.962 210.488 178.562 210.384 178.114 210.384C177.666 210.384 177.262 210.488 176.902 210.696C176.55 210.904 176.27 211.192 176.062 211.56C175.862 211.928 175.762 212.356 175.762 212.844C175.762 213.332 175.862 213.764 176.062 214.14C176.27 214.508 176.55 214.796 176.902 215.004C177.262 215.204 177.666 215.304 178.114 215.304ZM183.055 216V207.096H183.907V216H183.055ZM186.278 216V209.7H187.13V216H186.278ZM186.71 208.308C186.534 208.308 186.386 208.248 186.266 208.128C186.146 208.008 186.086 207.864 186.086 207.696C186.086 207.528 186.146 207.388 186.266 207.276C186.386 207.156 186.534 207.096 186.71 207.096C186.886 207.096 187.034 207.152 187.154 207.264C187.274 207.376 187.334 207.516 187.334 207.684C187.334 207.86 187.274 208.008 187.154 208.128C187.042 208.248 186.894 208.308 186.71 208.308ZM192.117 216.06C191.493 216.06 190.933 215.924 190.437 215.652C189.949 215.372 189.565 214.992 189.285 214.512C189.005 214.024 188.865 213.468 188.865 212.844C188.865 212.212 189.005 211.656 189.285 211.176C189.565 210.696 189.949 210.32 190.437 210.048C190.933 209.776 191.493 209.64 192.117 209.64C192.653 209.64 193.137 209.744 193.569 209.952C194.001 210.16 194.341 210.472 194.589 210.888L193.953 211.32C193.737 211 193.469 210.764 193.149 210.612C192.829 210.46 192.481 210.384 192.105 210.384C191.657 210.384 191.253 210.488 190.893 210.696C190.533 210.896 190.249 211.18 190.041 211.548C189.833 211.916 189.729 212.348 189.729 212.844C189.729 213.34 189.833 213.772 190.041 214.14C190.249 214.508 190.533 214.796 190.893 215.004C191.253 215.204 191.657 215.304 192.105 215.304C192.481 215.304 192.829 215.228 193.149 215.076C193.469 214.924 193.737 214.692 193.953 214.38L194.589 214.812C194.341 215.22 194.001 215.532 193.569 215.748C193.137 215.956 192.653 216.06 192.117 216.06ZM200.21 216V214.608L200.174 214.38V212.052C200.174 211.516 200.022 211.104 199.718 210.816C199.422 210.528 198.978 210.384 198.386 210.384C197.978 210.384 197.59 210.452 197.222 210.588C196.854 210.724 196.542 210.904 196.286 211.128L195.902 210.492C196.222 210.22 196.606 210.012 197.054 209.868C197.502 209.716 197.974 209.64 198.47 209.64C199.286 209.64 199.914 209.844 200.354 210.252C200.802 210.652 201.026 211.264 201.026 212.088V216H200.21ZM198.038 216.06C197.566 216.06 197.154 215.984 196.802 215.832C196.458 215.672 196.194 215.456 196.01 215.184C195.826 214.904 195.734 214.584 195.734 214.224C195.734 213.896 195.81 213.6 195.962 213.336C196.122 213.064 196.378 212.848 196.73 212.688C197.09 212.52 197.57 212.436 198.17 212.436H200.342V213.072H198.194C197.586 213.072 197.162 213.18 196.922 213.396C196.69 213.612 196.574 213.88 196.574 214.2C196.574 214.56 196.714 214.848 196.994 215.064C197.274 215.28 197.666 215.388 198.17 215.388C198.65 215.388 199.062 215.28 199.406 215.064C199.758 214.84 200.014 214.52 200.174 214.104L200.366 214.692C200.206 215.108 199.926 215.44 199.526 215.688C199.134 215.936 198.638 216.06 198.038 216.06ZM205.332 216.06C204.74 216.06 204.284 215.9 203.964 215.58C203.644 215.26 203.484 214.808 203.484 214.224V208.308H204.336V214.176C204.336 214.544 204.428 214.828 204.612 215.028C204.804 215.228 205.076 215.328 205.428 215.328C205.804 215.328 206.116 215.22 206.364 215.004L206.664 215.616C206.496 215.768 206.292 215.88 206.052 215.952C205.82 216.024 205.58 216.06 205.332 216.06ZM202.356 210.408V209.7H206.256V210.408H202.356ZM208.215 216V209.7H209.067V216H208.215ZM208.647 208.308C208.471 208.308 208.323 208.248 208.203 208.128C208.083 208.008 208.023 207.864 208.023 207.696C208.023 207.528 208.083 207.388 208.203 207.276C208.323 207.156 208.471 207.096 208.647 207.096C208.823 207.096 208.971 207.152 209.091 207.264C209.211 207.376 209.271 207.516 209.271 207.684C209.271 207.86 209.211 208.008 209.091 208.128C208.979 208.248 208.831 208.308 208.647 208.308ZM214.006 216.06C213.398 216.06 212.85 215.924 212.362 215.652C211.882 215.372 211.502 214.992 211.222 214.512C210.942 214.024 210.802 213.468 210.802 212.844C210.802 212.212 210.942 211.656 211.222 211.176C211.502 210.696 211.882 210.32 212.362 210.048C212.842 209.776 213.39 209.64 214.006 209.64C214.63 209.64 215.182 209.776 215.662 210.048C216.15 210.32 216.53 210.696 216.802 211.176C217.082 211.656 217.222 212.212 217.222 212.844C217.222 213.468 217.082 214.024 216.802 214.512C216.53 214.992 216.15 215.372 215.662 215.652C215.174 215.924 214.622 216.06 214.006 216.06ZM214.006 215.304C214.462 215.304 214.866 215.204 215.218 215.004C215.57 214.796 215.846 214.508 216.046 214.14C216.254 213.764 216.358 213.332 216.358 212.844C216.358 212.348 216.254 211.916 216.046 211.548C215.846 211.18 215.57 210.896 215.218 210.696C214.866 210.488 214.466 210.384 214.018 210.384C213.57 210.384 213.17 210.488 212.818 210.696C212.466 210.896 212.186 211.18 211.978 211.548C211.77 211.916 211.666 212.348 211.666 212.844C211.666 213.332 211.77 213.764 211.978 214.14C212.186 214.508 212.466 214.796 212.818 215.004C213.17 215.204 213.566 215.304 214.006 215.304ZM222.177 209.64C222.689 209.64 223.137 209.74 223.521 209.94C223.913 210.132 224.217 210.428 224.433 210.828C224.657 211.228 224.769 211.732 224.769 212.34V216H223.917V212.424C223.917 211.76 223.749 211.26 223.413 210.924C223.085 210.58 222.621 210.408 222.021 210.408C221.573 210.408 221.181 210.5 220.845 210.684C220.517 210.86 220.261 211.12 220.077 211.464C219.901 211.8 219.813 212.208 219.813 212.688V216H218.961V209.7H219.777V211.428L219.645 211.104C219.845 210.648 220.165 210.292 220.605 210.036C221.045 209.772 221.569 209.64 222.177 209.64ZM228.763 216.06C228.243 216.06 227.751 215.988 227.287 215.844C226.823 215.692 226.459 215.504 226.195 215.28L226.579 214.608C226.835 214.8 227.163 214.968 227.563 215.112C227.963 215.248 228.383 215.316 228.823 215.316C229.423 215.316 229.855 215.224 230.119 215.04C230.383 214.848 230.515 214.596 230.515 214.284C230.515 214.052 230.439 213.872 230.287 213.744C230.143 213.608 229.951 213.508 229.711 213.444C229.471 213.372 229.203 213.312 228.907 213.264C228.611 213.216 228.315 213.16 228.019 213.096C227.731 213.032 227.467 212.94 227.227 212.82C226.987 212.692 226.791 212.52 226.639 212.304C226.495 212.088 226.423 211.8 226.423 211.44C226.423 211.096 226.519 210.788 226.711 210.516C226.903 210.244 227.183 210.032 227.551 209.88C227.927 209.72 228.383 209.64 228.919 209.64C229.327 209.64 229.735 209.696 230.143 209.808C230.551 209.912 230.887 210.052 231.151 210.228L230.779 210.912C230.499 210.72 230.199 210.584 229.879 210.504C229.559 210.416 229.239 210.372 228.919 210.372C228.351 210.372 227.931 210.472 227.659 210.672C227.395 210.864 227.263 211.112 227.263 211.416C227.263 211.656 227.335 211.844 227.479 211.98C227.631 212.116 227.827 212.224 228.067 212.304C228.315 212.376 228.583 212.436 228.871 212.484C229.167 212.532 229.459 212.592 229.747 212.664C230.043 212.728 230.311 212.82 230.551 212.94C230.799 213.052 230.995 213.216 231.139 213.432C231.291 213.64 231.367 213.916 231.367 214.26C231.367 214.628 231.263 214.948 231.055 215.22C230.855 215.484 230.559 215.692 230.167 215.844C229.783 215.988 229.315 216.06 228.763 216.06ZM243.943 209.64C244.455 209.64 244.899 209.74 245.275 209.94C245.659 210.132 245.955 210.428 246.163 210.828C246.379 211.228 246.487 211.732 246.487 212.34V216H245.635V212.424C245.635 211.76 245.475 211.26 245.155 210.924C244.843 210.58 244.399 210.408 243.823 210.408C243.391 210.408 243.015 210.5 242.695 210.684C242.383 210.86 242.139 211.12 241.963 211.464C241.795 211.8 241.711 212.208 241.711 212.688V216H240.859V212.424C240.859 211.76 240.699 211.26 240.379 210.924C240.059 210.58 239.611 210.408 239.035 210.408C238.611 210.408 238.239 210.5 237.919 210.684C237.599 210.86 237.351 211.12 237.175 211.464C237.007 211.8 236.923 212.208 236.923 212.688V216H236.071V209.7H236.887V211.404L236.755 211.104C236.947 210.648 237.255 210.292 237.679 210.036C238.111 209.772 238.619 209.64 239.203 209.64C239.819 209.64 240.343 209.796 240.775 210.108C241.207 210.412 241.487 210.872 241.615 211.488L241.279 211.356C241.463 210.844 241.787 210.432 242.251 210.12C242.723 209.8 243.287 209.64 243.943 209.64ZM251.365 216.06C250.757 216.06 250.209 215.924 249.721 215.652C249.241 215.372 248.861 214.992 248.581 214.512C248.301 214.024 248.161 213.468 248.161 212.844C248.161 212.212 248.301 211.656 248.581 211.176C248.861 210.696 249.241 210.32 249.721 210.048C250.201 209.776 250.749 209.64 251.365 209.64C251.989 209.64 252.541 209.776 253.021 210.048C253.509 210.32 253.889 210.696 254.161 211.176C254.441 211.656 254.581 212.212 254.581 212.844C254.581 213.468 254.441 214.024 254.161 214.512C253.889 214.992 253.509 215.372 253.021 215.652C252.533 215.924 251.981 216.06 251.365 216.06ZM251.365 215.304C251.821 215.304 252.225 215.204 252.577 215.004C252.929 214.796 253.205 214.508 253.405 214.14C253.613 213.764 253.717 213.332 253.717 212.844C253.717 212.348 253.613 211.916 253.405 211.548C253.205 211.18 252.929 210.896 252.577 210.696C252.225 210.488 251.825 210.384 251.377 210.384C250.929 210.384 250.529 210.488 250.177 210.696C249.825 210.896 249.545 211.18 249.337 211.548C249.129 211.916 249.025 212.348 249.025 212.844C249.025 213.332 249.129 213.764 249.337 214.14C249.545 214.508 249.825 214.796 250.177 215.004C250.529 215.204 250.925 215.304 251.365 215.304ZM259.573 216.06C259.021 216.06 258.525 215.936 258.085 215.688C257.645 215.432 257.297 215.064 257.041 214.584C256.785 214.104 256.657 213.524 256.657 212.844C256.657 212.156 256.785 211.576 257.041 211.104C257.305 210.624 257.657 210.26 258.097 210.012C258.537 209.764 259.029 209.64 259.573 209.64C260.173 209.64 260.709 209.776 261.181 210.048C261.661 210.312 262.037 210.684 262.309 211.164C262.581 211.644 262.717 212.204 262.717 212.844C262.717 213.476 262.581 214.036 262.309 214.524C262.037 215.004 261.661 215.38 261.181 215.652C260.709 215.924 260.173 216.06 259.573 216.06ZM256.321 216V207.096H257.173V211.56L257.053 212.832L257.137 214.104V216H256.321ZM259.513 215.304C259.961 215.304 260.361 215.204 260.713 215.004C261.065 214.796 261.345 214.508 261.553 214.14C261.761 213.764 261.865 213.332 261.865 212.844C261.865 212.348 261.761 211.916 261.553 211.548C261.345 211.18 261.065 210.896 260.713 210.696C260.361 210.488 259.961 210.384 259.513 210.384C259.065 210.384 258.661 210.488 258.301 210.696C257.949 210.896 257.669 211.18 257.461 211.548C257.261 211.916 257.161 212.348 257.161 212.844C257.161 213.332 257.261 213.764 257.461 214.14C257.669 214.508 257.949 214.796 258.301 215.004C258.661 215.204 259.065 215.304 259.513 215.304ZM264.454 216V209.7H265.306V216H264.454ZM264.886 208.308C264.71 208.308 264.562 208.248 264.442 208.128C264.322 208.008 264.262 207.864 264.262 207.696C264.262 207.528 264.322 207.388 264.442 207.276C264.562 207.156 264.71 207.096 264.886 207.096C265.062 207.096 265.21 207.152 265.33 207.264C265.45 207.376 265.51 207.516 265.51 207.684C265.51 207.86 265.45 208.008 265.33 208.128C265.218 208.248 265.07 208.308 264.886 208.308ZM267.676 216V207.096H268.528V216H267.676ZM273.575 216.06C272.919 216.06 272.343 215.924 271.847 215.652C271.351 215.372 270.963 214.992 270.683 214.512C270.403 214.024 270.263 213.468 270.263 212.844C270.263 212.22 270.395 211.668 270.659 211.188C270.931 210.708 271.299 210.332 271.763 210.06C272.235 209.78 272.763 209.64 273.347 209.64C273.939 209.64 274.463 209.776 274.919 210.048C275.383 210.312 275.747 210.688 276.011 211.176C276.275 211.656 276.407 212.212 276.407 212.844C276.407 212.884 276.403 212.928 276.395 212.976C276.395 213.016 276.395 213.06 276.395 213.108H270.911V212.472H275.939L275.603 212.724C275.603 212.268 275.503 211.864 275.303 211.512C275.111 211.152 274.847 210.872 274.511 210.672C274.175 210.472 273.787 210.372 273.347 210.372C272.915 210.372 272.527 210.472 272.183 210.672C271.839 210.872 271.571 211.152 271.379 211.512C271.187 211.872 271.091 212.284 271.091 212.748V212.88C271.091 213.36 271.195 213.784 271.403 214.152C271.619 214.512 271.915 214.796 272.291 215.004C272.675 215.204 273.111 215.304 273.599 215.304C273.983 215.304 274.339 215.236 274.667 215.1C275.003 214.964 275.291 214.756 275.531 214.476L276.011 215.028C275.731 215.364 275.379 215.62 274.955 215.796C274.539 215.972 274.079 216.06 273.575 216.06ZM279.833 216.06C279.313 216.06 278.821 215.988 278.357 215.844C277.893 215.692 277.529 215.504 277.265 215.28L277.649 214.608C277.905 214.8 278.233 214.968 278.633 215.112C279.033 215.248 279.453 215.316 279.893 215.316C280.493 215.316 280.925 215.224 281.189 215.04C281.453 214.848 281.585 214.596 281.585 214.284C281.585 214.052 281.509 213.872 281.357 213.744C281.213 213.608 281.021 213.508 280.781 213.444C280.541 213.372 280.273 213.312 279.977 213.264C279.681 213.216 279.385 213.16 279.089 213.096C278.801 213.032 278.537 212.94 278.297 212.82C278.057 212.692 277.861 212.52 277.709 212.304C277.565 212.088 277.493 211.8 277.493 211.44C277.493 211.096 277.589 210.788 277.781 210.516C277.973 210.244 278.253 210.032 278.621 209.88C278.997 209.72 279.453 209.64 279.989 209.64C280.397 209.64 280.805 209.696 281.213 209.808C281.621 209.912 281.957 210.052 282.221 210.228L281.849 210.912C281.569 210.72 281.269 210.584 280.949 210.504C280.629 210.416 280.309 210.372 279.989 210.372C279.421 210.372 279.001 210.472 278.729 210.672C278.465 210.864 278.333 211.112 278.333 211.416C278.333 211.656 278.405 211.844 278.549 211.98C278.701 212.116 278.897 212.224 279.137 212.304C279.385 212.376 279.653 212.436 279.941 212.484C280.237 212.532 280.529 212.592 280.817 212.664C281.113 212.728 281.381 212.82 281.621 212.94C281.869 213.052 282.065 213.216 282.209 213.432C282.361 213.64 282.437 213.916 282.437 214.26C282.437 214.628 282.333 214.948 282.125 215.22C281.925 215.484 281.629 215.692 281.237 215.844C280.853 215.988 280.385 216.06 279.833 216.06ZM288.833 216.06C288.313 216.06 287.821 215.988 287.357 215.844C286.893 215.692 286.529 215.504 286.265 215.28L286.649 214.608C286.905 214.8 287.233 214.968 287.633 215.112C288.033 215.248 288.453 215.316 288.893 215.316C289.493 215.316 289.925 215.224 290.189 215.04C290.453 214.848 290.585 214.596 290.585 214.284C290.585 214.052 290.509 213.872 290.357 213.744C290.213 213.608 290.021 213.508 289.781 213.444C289.541 213.372 289.273 213.312 288.977 213.264C288.681 213.216 288.385 213.16 288.089 213.096C287.801 213.032 287.537 212.94 287.297 212.82C287.057 212.692 286.861 212.52 286.709 212.304C286.565 212.088 286.493 211.8 286.493 211.44C286.493 211.096 286.589 210.788 286.781 210.516C286.973 210.244 287.253 210.032 287.621 209.88C287.997 209.72 288.453 209.64 288.989 209.64C289.397 209.64 289.805 209.696 290.213 209.808C290.621 209.912 290.957 210.052 291.221 210.228L290.849 210.912C290.569 210.72 290.269 210.584 289.949 210.504C289.629 210.416 289.309 210.372 288.989 210.372C288.421 210.372 288.001 210.472 287.729 210.672C287.465 210.864 287.333 211.112 287.333 211.416C287.333 211.656 287.405 211.844 287.549 211.98C287.701 212.116 287.897 212.224 288.137 212.304C288.385 212.376 288.653 212.436 288.941 212.484C289.237 212.532 289.529 212.592 289.817 212.664C290.113 212.728 290.381 212.82 290.621 212.94C290.869 213.052 291.065 213.216 291.209 213.432C291.361 213.64 291.437 213.916 291.437 214.26C291.437 214.628 291.333 214.948 291.125 215.22C290.925 215.484 290.629 215.692 290.237 215.844C289.853 215.988 289.385 216.06 288.833 216.06ZM295.605 216.06C295.069 216.06 294.601 215.96 294.201 215.76C293.801 215.56 293.489 215.26 293.265 214.86C293.049 214.46 292.941 213.96 292.941 213.36V209.7H293.793V213.264C293.793 213.936 293.957 214.444 294.285 214.788C294.621 215.124 295.089 215.292 295.689 215.292C296.129 215.292 296.509 215.204 296.829 215.028C297.157 214.844 297.405 214.58 297.573 214.236C297.749 213.892 297.837 213.48 297.837 213V209.7H298.689V216H297.872V214.272L298.005 214.584C297.805 215.048 297.493 215.412 297.069 215.676C296.653 215.932 296.165 216.06 295.605 216.06ZM301.063 216V209.7H301.879V211.416L301.795 211.116C301.971 210.636 302.267 210.272 302.683 210.024C303.099 209.768 303.615 209.64 304.231 209.64V210.468C304.199 210.468 304.167 210.468 304.135 210.468C304.103 210.46 304.071 210.456 304.039 210.456C303.375 210.456 302.855 210.66 302.479 211.068C302.103 211.468 301.915 212.04 301.915 212.784V216H301.063ZM305.283 213.12V212.376H308.427V213.12H305.283ZM318.205 209.64C318.717 209.64 319.161 209.74 319.537 209.94C319.921 210.132 320.217 210.428 320.425 210.828C320.641 211.228 320.749 211.732 320.749 212.34V216H319.897V212.424C319.897 211.76 319.737 211.26 319.417 210.924C319.105 210.58 318.661 210.408 318.085 210.408C317.653 210.408 317.277 210.5 316.957 210.684C316.645 210.86 316.401 211.12 316.225 211.464C316.057 211.8 315.973 212.208 315.973 212.688V216H315.121V212.424C315.121 211.76 314.961 211.26 314.641 210.924C314.321 210.58 313.873 210.408 313.297 210.408C312.873 210.408 312.501 210.5 312.181 210.684C311.861 210.86 311.613 211.12 311.437 211.464C311.269 211.8 311.185 212.208 311.185 212.688V216H310.333V209.7H311.149V211.404L311.017 211.104C311.209 210.648 311.517 210.292 311.941 210.036C312.373 209.772 312.881 209.64 313.465 209.64C314.081 209.64 314.605 209.796 315.037 210.108C315.469 210.412 315.749 210.872 315.877 211.488L315.541 211.356C315.725 210.844 316.049 210.432 316.513 210.12C316.985 209.8 317.549 209.64 318.205 209.64ZM325.735 216.06C325.079 216.06 324.503 215.924 324.007 215.652C323.511 215.372 323.123 214.992 322.843 214.512C322.563 214.024 322.423 213.468 322.423 212.844C322.423 212.22 322.555 211.668 322.819 211.188C323.091 210.708 323.459 210.332 323.923 210.06C324.395 209.78 324.923 209.64 325.507 209.64C326.099 209.64 326.623 209.776 327.079 210.048C327.543 210.312 327.907 210.688 328.171 211.176C328.435 211.656 328.567 212.212 328.567 212.844C328.567 212.884 328.563 212.928 328.555 212.976C328.555 213.016 328.555 213.06 328.555 213.108H323.071V212.472H328.099L327.763 212.724C327.763 212.268 327.663 211.864 327.463 211.512C327.271 211.152 327.007 210.872 326.671 210.672C326.335 210.472 325.947 210.372 325.507 210.372C325.075 210.372 324.687 210.472 324.343 210.672C323.999 210.872 323.731 211.152 323.539 211.512C323.347 211.872 323.251 212.284 323.251 212.748V212.88C323.251 213.36 323.355 213.784 323.563 214.152C323.779 214.512 324.075 214.796 324.451 215.004C324.835 215.204 325.271 215.304 325.759 215.304C326.143 215.304 326.499 215.236 326.827 215.1C327.163 214.964 327.451 214.756 327.691 214.476L328.171 215.028C327.891 215.364 327.539 215.62 327.115 215.796C326.699 215.972 326.239 216.06 325.735 216.06ZM331.993 216.06C331.473 216.06 330.981 215.988 330.517 215.844C330.053 215.692 329.689 215.504 329.425 215.28L329.809 214.608C330.065 214.8 330.393 214.968 330.793 215.112C331.193 215.248 331.613 215.316 332.053 215.316C332.653 215.316 333.085 215.224 333.349 215.04C333.613 214.848 333.745 214.596 333.745 214.284C333.745 214.052 333.669 213.872 333.517 213.744C333.373 213.608 333.181 213.508 332.941 213.444C332.701 213.372 332.433 213.312 332.137 213.264C331.841 213.216 331.545 213.16 331.249 213.096C330.961 213.032 330.697 212.94 330.457 212.82C330.217 212.692 330.021 212.52 329.869 212.304C329.725 212.088 329.653 211.8 329.653 211.44C329.653 211.096 329.749 210.788 329.941 210.516C330.133 210.244 330.413 210.032 330.781 209.88C331.157 209.72 331.613 209.64 332.149 209.64C332.557 209.64 332.965 209.696 333.373 209.808C333.781 209.912 334.117 210.052 334.381 210.228L334.009 210.912C333.729 210.72 333.429 210.584 333.109 210.504C332.789 210.416 332.469 210.372 332.149 210.372C331.581 210.372 331.161 210.472 330.889 210.672C330.625 210.864 330.493 211.112 330.493 211.416C330.493 211.656 330.565 211.844 330.709 211.98C330.861 212.116 331.057 212.224 331.297 212.304C331.545 212.376 331.813 212.436 332.101 212.484C332.397 212.532 332.689 212.592 332.977 212.664C333.273 212.728 333.541 212.82 333.781 212.94C334.029 213.052 334.225 213.216 334.369 213.432C334.521 213.64 334.597 213.916 334.597 214.26C334.597 214.628 334.493 214.948 334.285 215.22C334.085 215.484 333.789 215.692 333.397 215.844C333.013 215.988 332.545 216.06 331.993 216.06ZM338.765 216.06C338.229 216.06 337.761 215.96 337.361 215.76C336.961 215.56 336.649 215.26 336.425 214.86C336.209 214.46 336.101 213.96 336.101 213.36V209.7H336.953V213.264C336.953 213.936 337.117 214.444 337.445 214.788C337.781 215.124 338.249 215.292 338.849 215.292C339.289 215.292 339.669 215.204 339.989 215.028C340.317 214.844 340.565 214.58 340.733 214.236C340.909 213.892 340.997 213.48 340.997 213V209.7H341.849V216H341.033V214.272L341.165 214.584C340.965 215.048 340.653 215.412 340.229 215.676C339.813 215.932 339.325 216.06 338.765 216.06ZM344.223 216V209.7H345.039V211.416L344.955 211.116C345.131 210.636 345.427 210.272 345.843 210.024C346.259 209.768 346.775 209.64 347.391 209.64V210.468C347.359 210.468 347.327 210.468 347.295 210.468C347.263 210.46 347.231 210.456 347.199 210.456C346.535 210.456 346.015 210.66 345.639 211.068C345.263 211.468 345.075 212.04 345.075 212.784V216H344.223ZM351.563 216.06C350.907 216.06 350.331 215.924 349.835 215.652C349.339 215.372 348.951 214.992 348.671 214.512C348.391 214.024 348.251 213.468 348.251 212.844C348.251 212.22 348.383 211.668 348.647 211.188C348.919 210.708 349.287 210.332 349.751 210.06C350.223 209.78 350.751 209.64 351.335 209.64C351.927 209.64 352.451 209.776 352.907 210.048C353.371 210.312 353.735 210.688 353.999 211.176C354.263 211.656 354.395 212.212 354.395 212.844C354.395 212.884 354.391 212.928 354.383 212.976C354.383 213.016 354.383 213.06 354.383 213.108H348.899V212.472H353.927L353.591 212.724C353.591 212.268 353.491 211.864 353.291 211.512C353.099 211.152 352.835 210.872 352.499 210.672C352.163 210.472 351.775 210.372 351.335 210.372C350.903 210.372 350.515 210.472 350.171 210.672C349.827 210.872 349.559 211.152 349.367 211.512C349.175 211.872 349.079 212.284 349.079 212.748V212.88C349.079 213.36 349.183 213.784 349.391 214.152C349.607 214.512 349.903 214.796 350.279 215.004C350.663 215.204 351.099 215.304 351.587 215.304C351.971 215.304 352.327 215.236 352.655 215.1C352.991 214.964 353.279 214.756 353.519 214.476L353.999 215.028C353.719 215.364 353.367 215.62 352.943 215.796C352.527 215.972 352.067 216.06 351.563 216.06Z" fill="#2D1F67"/>
<rect x="119.304" y="197" width="32.1772" height="31" rx="5" fill="#E522D3"/>
<path d="M128.944 215.803C128.331 216.444 127.933 217.26 127.807 218.138C127.73 218.577 127.701 219.023 127.722 219.469V220.17H128.69C129.047 220.169 129.403 220.137 129.755 220.074C130.634 219.952 131.452 219.553 132.09 218.936C132.464 218.515 132.656 217.963 132.625 217.401C132.593 216.839 132.34 216.312 131.92 215.936C131.54 215.529 131.016 215.287 130.459 215.262C129.903 215.237 129.359 215.431 128.944 215.803ZM131.049 217.896C130.63 218.293 130.097 218.547 129.525 218.622H129.259V218.356C129.334 217.784 129.588 217.25 129.984 216.831C130.066 216.765 130.17 216.73 130.275 216.734C130.383 216.739 130.488 216.764 130.586 216.81C130.684 216.856 130.771 216.921 130.843 217.001C130.989 217.093 131.092 217.238 131.13 217.406C131.169 217.574 131.14 217.75 131.049 217.896ZM143.438 205.531C143.432 205.248 143.316 204.977 143.116 204.777C142.915 204.576 142.645 204.461 142.361 204.455C140.945 204.339 139.52 204.51 138.171 204.957C136.822 205.403 135.576 206.117 134.509 207.056L132.537 209.354L129.634 208.749C129.436 208.706 129.23 208.714 129.035 208.771C128.841 208.828 128.664 208.933 128.521 209.076L127.698 209.899C127.572 210.027 127.477 210.181 127.418 210.351C127.36 210.52 127.339 210.701 127.359 210.879C127.377 211.059 127.435 211.233 127.529 211.388C127.624 211.543 127.751 211.675 127.904 211.774L130.396 213.371L130.553 213.468L134.425 217.4L134.521 217.497L136.118 219.989C136.217 220.141 136.349 220.269 136.504 220.363C136.659 220.457 136.833 220.515 137.014 220.533H137.147C137.464 220.532 137.768 220.406 137.994 220.182L138.816 219.36C138.96 219.216 139.065 219.039 139.122 218.845C139.179 218.65 139.186 218.445 139.143 218.247L138.538 215.355L140.764 213.444C141.721 212.373 142.451 211.121 142.91 209.761C143.37 208.401 143.549 206.962 143.438 205.531ZM129.476 210.262L131.073 210.601L130.299 211.508L129.089 210.697L129.476 210.262ZM137.195 218.852L136.385 217.642L137.292 216.867L137.631 218.464L137.195 218.852ZM139.748 212.331L135.296 216.129L131.763 212.597L135.562 208.145C137.322 206.624 139.603 205.843 141.926 205.967C142.044 208.289 141.264 210.568 139.748 212.331Z" fill="white" fill-opacity="0.8"/>
<path d="M139.179 210.843C139.311 210.704 139.414 210.54 139.482 210.361C139.55 210.181 139.582 209.99 139.575 209.799C139.568 209.607 139.523 209.419 139.443 209.245C139.362 209.071 139.248 208.915 139.106 208.786C138.981 208.638 138.827 208.517 138.653 208.431C138.479 208.346 138.289 208.297 138.095 208.288C137.901 208.28 137.708 208.312 137.527 208.382C137.346 208.452 137.182 208.558 137.044 208.695C136.907 208.832 136.799 208.996 136.728 209.176C136.657 209.357 136.624 209.55 136.631 209.744C136.638 209.937 136.686 210.128 136.77 210.302C136.855 210.477 136.975 210.632 137.122 210.758C137.251 210.899 137.407 211.013 137.581 211.094C137.754 211.174 137.942 211.22 138.133 211.228C138.324 211.236 138.515 211.206 138.694 211.139C138.874 211.073 139.039 210.972 139.179 210.843Z" fill="white" fill-opacity="0.8"/>
<path d="M412.046 357H297.954C296.323 357 295 359.402 295 362.365V363.635C295 366.598 296.323 369 297.954 369H412.046C413.677 369 415 366.598 415 363.635V362.365C415 359.402 413.677 357 412.046 357Z" fill="#7E57FF"/>
<path d="M546.046 357H431.954C430.323 357 429 359.402 429 362.365V363.635C429 366.598 430.323 369 431.954 369H546.046C547.677 369 549 366.598 549 363.635V362.365C549 359.402 547.677 357 546.046 357Z" fill="#7E57FF"/>
<rect x="510.5" y="391.5" width="309" height="48" rx="9.5" fill="white" stroke="#B7C1E7"/>
<path d="M555.368 419V410.6H558.512C559.224 410.6 559.836 410.716 560.348 410.948C560.86 411.172 561.252 411.5 561.524 411.932C561.804 412.356 561.944 412.872 561.944 413.48C561.944 414.072 561.804 414.584 561.524 415.016C561.252 415.44 560.86 415.768 560.348 416C559.836 416.232 559.224 416.348 558.512 416.348H555.86L556.256 415.928V419H555.368ZM556.256 416L555.86 415.568H558.488C559.328 415.568 559.964 415.388 560.396 415.028C560.836 414.66 561.056 414.144 561.056 413.48C561.056 412.808 560.836 412.288 560.396 411.92C559.964 411.552 559.328 411.368 558.488 411.368H555.86L556.256 410.948V416ZM566.325 419.06C565.669 419.06 565.093 418.924 564.597 418.652C564.101 418.372 563.713 417.992 563.433 417.512C563.153 417.024 563.013 416.468 563.013 415.844C563.013 415.22 563.145 414.668 563.409 414.188C563.681 413.708 564.049 413.332 564.513 413.06C564.985 412.78 565.513 412.64 566.097 412.64C566.689 412.64 567.213 412.776 567.669 413.048C568.133 413.312 568.497 413.688 568.761 414.176C569.025 414.656 569.157 415.212 569.157 415.844C569.157 415.884 569.153 415.928 569.145 415.976C569.145 416.016 569.145 416.06 569.145 416.108H563.661V415.472H568.689L568.353 415.724C568.353 415.268 568.253 414.864 568.053 414.512C567.861 414.152 567.597 413.872 567.261 413.672C566.925 413.472 566.537 413.372 566.097 413.372C565.665 413.372 565.277 413.472 564.933 413.672C564.589 413.872 564.321 414.152 564.129 414.512C563.937 414.872 563.841 415.284 563.841 415.748V415.88C563.841 416.36 563.945 416.784 564.153 417.152C564.369 417.512 564.665 417.796 565.041 418.004C565.425 418.204 565.861 418.304 566.349 418.304C566.733 418.304 567.089 418.236 567.417 418.1C567.753 417.964 568.041 417.756 568.281 417.476L568.761 418.028C568.481 418.364 568.129 418.62 567.705 418.796C567.289 418.972 566.829 419.06 566.325 419.06ZM570.891 419V412.7H571.707V414.416L571.623 414.116C571.799 413.636 572.095 413.272 572.511 413.024C572.927 412.768 573.443 412.64 574.059 412.64V413.468C574.027 413.468 573.995 413.468 573.963 413.468C573.931 413.46 573.899 413.456 573.867 413.456C573.203 413.456 572.683 413.66 572.307 414.068C571.931 414.468 571.743 415.04 571.743 415.784V419H570.891ZM575.852 419V411.908C575.852 411.348 576.016 410.896 576.344 410.552C576.672 410.208 577.144 410.036 577.76 410.036C578 410.036 578.232 410.068 578.456 410.132C578.68 410.196 578.868 410.296 579.02 410.432L578.732 411.068C578.612 410.964 578.472 410.888 578.312 410.84C578.152 410.784 577.98 410.756 577.796 410.756C577.436 410.756 577.16 410.856 576.968 411.056C576.776 411.256 576.68 411.552 576.68 411.944V412.904L576.704 413.3V419H575.852ZM574.724 413.408V412.7H578.624V413.408H574.724ZM582.236 419.06C581.628 419.06 581.08 418.924 580.592 418.652C580.112 418.372 579.732 417.992 579.452 417.512C579.172 417.024 579.032 416.468 579.032 415.844C579.032 415.212 579.172 414.656 579.452 414.176C579.732 413.696 580.112 413.32 580.592 413.048C581.072 412.776 581.62 412.64 582.236 412.64C582.86 412.64 583.412 412.776 583.892 413.048C584.38 413.32 584.76 413.696 585.032 414.176C585.312 414.656 585.452 415.212 585.452 415.844C585.452 416.468 585.312 417.024 585.032 417.512C584.76 417.992 584.38 418.372 583.892 418.652C583.404 418.924 582.852 419.06 582.236 419.06ZM582.236 418.304C582.692 418.304 583.096 418.204 583.448 418.004C583.8 417.796 584.076 417.508 584.276 417.14C584.484 416.764 584.588 416.332 584.588 415.844C584.588 415.348 584.484 414.916 584.276 414.548C584.076 414.18 583.8 413.896 583.448 413.696C583.096 413.488 582.696 413.384 582.248 413.384C581.8 413.384 581.4 413.488 581.048 413.696C580.696 413.896 580.416 414.18 580.208 414.548C580 414.916 579.896 415.348 579.896 415.844C579.896 416.332 580 416.764 580.208 417.14C580.416 417.508 580.696 417.796 581.048 418.004C581.4 418.204 581.796 418.304 582.236 418.304ZM587.192 419V412.7H588.008V414.416L587.924 414.116C588.1 413.636 588.396 413.272 588.812 413.024C589.228 412.768 589.744 412.64 590.36 412.64V413.468C590.328 413.468 590.296 413.468 590.264 413.468C590.232 413.46 590.2 413.456 590.168 413.456C589.504 413.456 588.984 413.66 588.608 414.068C588.232 414.468 588.044 415.04 588.044 415.784V419H587.192ZM599.787 412.64C600.299 412.64 600.743 412.74 601.119 412.94C601.503 413.132 601.799 413.428 602.007 413.828C602.223 414.228 602.331 414.732 602.331 415.34V419H601.479V415.424C601.479 414.76 601.319 414.26 600.999 413.924C600.687 413.58 600.243 413.408 599.667 413.408C599.235 413.408 598.859 413.5 598.539 413.684C598.227 413.86 597.983 414.12 597.807 414.464C597.639 414.8 597.555 415.208 597.555 415.688V419H596.703V415.424C596.703 414.76 596.543 414.26 596.223 413.924C595.903 413.58 595.455 413.408 594.879 413.408C594.455 413.408 594.083 413.5 593.763 413.684C593.443 413.86 593.195 414.12 593.019 414.464C592.851 414.8 592.767 415.208 592.767 415.688V419H591.915V412.7H592.731V414.404L592.599 414.104C592.791 413.648 593.099 413.292 593.523 413.036C593.955 412.772 594.463 412.64 595.047 412.64C595.663 412.64 596.187 412.796 596.619 413.108C597.051 413.412 597.331 413.872 597.459 414.488L597.123 414.356C597.307 413.844 597.631 413.432 598.095 413.12C598.567 412.8 599.131 412.64 599.787 412.64ZM608.589 419V417.608L608.553 417.38V415.052C608.553 414.516 608.401 414.104 608.097 413.816C607.801 413.528 607.357 413.384 606.765 413.384C606.357 413.384 605.969 413.452 605.601 413.588C605.233 413.724 604.921 413.904 604.665 414.128L604.281 413.492C604.601 413.22 604.985 413.012 605.433 412.868C605.881 412.716 606.353 412.64 606.849 412.64C607.665 412.64 608.293 412.844 608.733 413.252C609.181 413.652 609.405 414.264 609.405 415.088V419H608.589ZM606.417 419.06C605.945 419.06 605.533 418.984 605.181 418.832C604.837 418.672 604.573 418.456 604.389 418.184C604.205 417.904 604.113 417.584 604.113 417.224C604.113 416.896 604.189 416.6 604.341 416.336C604.501 416.064 604.757 415.848 605.109 415.688C605.469 415.52 605.949 415.436 606.549 415.436H608.721V416.072H606.573C605.965 416.072 605.541 416.18 605.301 416.396C605.069 416.612 604.953 416.88 604.953 417.2C604.953 417.56 605.093 417.848 605.373 418.064C605.653 418.28 606.045 418.388 606.549 418.388C607.029 418.388 607.441 418.28 607.785 418.064C608.137 417.84 608.393 417.52 608.553 417.104L608.745 417.692C608.585 418.108 608.305 418.44 607.905 418.688C607.513 418.936 607.017 419.06 606.417 419.06ZM614.935 412.64C615.447 412.64 615.895 412.74 616.279 412.94C616.671 413.132 616.975 413.428 617.191 413.828C617.415 414.228 617.527 414.732 617.527 415.34V419H616.675V415.424C616.675 414.76 616.507 414.26 616.171 413.924C615.843 413.58 615.379 413.408 614.779 413.408C614.331 413.408 613.939 413.5 613.603 413.684C613.275 413.86 613.019 414.12 612.835 414.464C612.659 414.8 612.571 415.208 612.571 415.688V419H611.719V412.7H612.535V414.428L612.403 414.104C612.603 413.648 612.923 413.292 613.363 413.036C613.803 412.772 614.327 412.64 614.935 412.64ZM622.445 419.06C621.821 419.06 621.261 418.924 620.765 418.652C620.277 418.372 619.893 417.992 619.613 417.512C619.333 417.024 619.193 416.468 619.193 415.844C619.193 415.212 619.333 414.656 619.613 414.176C619.893 413.696 620.277 413.32 620.765 413.048C621.261 412.776 621.821 412.64 622.445 412.64C622.981 412.64 623.465 412.744 623.897 412.952C624.329 413.16 624.669 413.472 624.917 413.888L624.281 414.32C624.065 414 623.797 413.764 623.477 413.612C623.157 413.46 622.809 413.384 622.433 413.384C621.985 413.384 621.581 413.488 621.221 413.696C620.861 413.896 620.577 414.18 620.369 414.548C620.161 414.916 620.057 415.348 620.057 415.844C620.057 416.34 620.161 416.772 620.369 417.14C620.577 417.508 620.861 417.796 621.221 418.004C621.581 418.204 621.985 418.304 622.433 418.304C622.809 418.304 623.157 418.228 623.477 418.076C623.797 417.924 624.065 417.692 624.281 417.38L624.917 417.812C624.669 418.22 624.329 418.532 623.897 418.748C623.465 418.956 622.981 419.06 622.445 419.06ZM629.161 419.06C628.505 419.06 627.929 418.924 627.433 418.652C626.937 418.372 626.549 417.992 626.269 417.512C625.989 417.024 625.849 416.468 625.849 415.844C625.849 415.22 625.981 414.668 626.245 414.188C626.517 413.708 626.885 413.332 627.349 413.06C627.821 412.78 628.349 412.64 628.933 412.64C629.525 412.64 630.049 412.776 630.505 413.048C630.969 413.312 631.333 413.688 631.597 414.176C631.861 414.656 631.993 415.212 631.993 415.844C631.993 415.884 631.989 415.928 631.981 415.976C631.981 416.016 631.981 416.06 631.981 416.108H626.497V415.472H631.525L631.189 415.724C631.189 415.268 631.089 414.864 630.889 414.512C630.697 414.152 630.433 413.872 630.097 413.672C629.761 413.472 629.373 413.372 628.933 413.372C628.501 413.372 628.113 413.472 627.769 413.672C627.425 413.872 627.157 414.152 626.965 414.512C626.773 414.872 626.677 415.284 626.677 415.748V415.88C626.677 416.36 626.781 416.784 626.989 417.152C627.205 417.512 627.501 417.796 627.877 418.004C628.261 418.204 628.697 418.304 629.185 418.304C629.569 418.304 629.925 418.236 630.253 418.1C630.589 417.964 630.877 417.756 631.117 417.476L631.597 418.028C631.317 418.364 630.965 418.62 630.541 418.796C630.125 418.972 629.665 419.06 629.161 419.06ZM633.211 420.752L633.739 418.532L633.835 419.048C633.651 419.048 633.495 418.988 633.367 418.868C633.247 418.748 633.187 418.592 633.187 418.4C633.187 418.208 633.247 418.052 633.367 417.932C633.495 417.812 633.647 417.752 633.823 417.752C634.007 417.752 634.155 417.816 634.267 417.944C634.387 418.072 634.447 418.224 634.447 418.4C634.447 418.464 634.443 418.528 634.435 418.592C634.427 418.656 634.411 418.728 634.387 418.808C634.363 418.888 634.331 418.984 634.291 419.096L633.787 420.752H633.211ZM639.555 419V411.908C639.555 411.348 639.719 410.896 640.047 410.552C640.375 410.208 640.847 410.036 641.463 410.036C641.703 410.036 641.935 410.068 642.159 410.132C642.383 410.196 642.571 410.296 642.723 410.432L642.435 411.068C642.315 410.964 642.175 410.888 642.015 410.84C641.855 410.784 641.683 410.756 641.499 410.756C641.139 410.756 640.863 410.856 640.671 411.056C640.479 411.256 640.383 411.552 640.383 411.944V412.904L640.407 413.3V419H639.555ZM638.427 413.408V412.7H642.327V413.408H638.427ZM643.479 419V412.7H644.331V419H643.479ZM643.911 411.308C643.735 411.308 643.587 411.248 643.467 411.128C643.347 411.008 643.287 410.864 643.287 410.696C643.287 410.528 643.347 410.388 643.467 410.276C643.587 410.156 643.735 410.096 643.911 410.096C644.087 410.096 644.235 410.152 644.355 410.264C644.475 410.376 644.535 410.516 644.535 410.684C644.535 410.86 644.475 411.008 644.355 411.128C644.243 411.248 644.095 411.308 643.911 411.308ZM650.671 419V417.608L650.635 417.38V415.052C650.635 414.516 650.483 414.104 650.179 413.816C649.883 413.528 649.439 413.384 648.847 413.384C648.439 413.384 648.051 413.452 647.683 413.588C647.315 413.724 647.003 413.904 646.747 414.128L646.363 413.492C646.683 413.22 647.067 413.012 647.515 412.868C647.963 412.716 648.435 412.64 648.931 412.64C649.747 412.64 650.375 412.844 650.815 413.252C651.263 413.652 651.487 414.264 651.487 415.088V419H650.671ZM648.499 419.06C648.027 419.06 647.615 418.984 647.263 418.832C646.919 418.672 646.655 418.456 646.471 418.184C646.287 417.904 646.195 417.584 646.195 417.224C646.195 416.896 646.271 416.6 646.423 416.336C646.583 416.064 646.839 415.848 647.191 415.688C647.551 415.52 648.031 415.436 648.631 415.436H650.803V416.072H648.655C648.047 416.072 647.623 416.18 647.383 416.396C647.151 416.612 647.035 416.88 647.035 417.2C647.035 417.56 647.175 417.848 647.455 418.064C647.735 418.28 648.127 418.388 648.631 418.388C649.111 418.388 649.523 418.28 649.867 418.064C650.219 417.84 650.475 417.52 650.635 417.104L650.827 417.692C650.667 418.108 650.387 418.44 649.987 418.688C649.595 418.936 649.099 419.06 648.499 419.06ZM657.053 419.06C656.501 419.06 656.005 418.936 655.565 418.688C655.125 418.432 654.777 418.064 654.521 417.584C654.265 417.104 654.137 416.524 654.137 415.844C654.137 415.156 654.265 414.576 654.521 414.104C654.785 413.624 655.137 413.26 655.577 413.012C656.017 412.764 656.509 412.64 657.053 412.64C657.653 412.64 658.189 412.776 658.661 413.048C659.141 413.312 659.517 413.684 659.789 414.164C660.061 414.644 660.197 415.204 660.197 415.844C660.197 416.476 660.061 417.036 659.789 417.524C659.517 418.004 659.141 418.38 658.661 418.652C658.189 418.924 657.653 419.06 657.053 419.06ZM653.801 419V410.096H654.653V414.56L654.533 415.832L654.617 417.104V419H653.801ZM656.993 418.304C657.441 418.304 657.841 418.204 658.193 418.004C658.545 417.796 658.825 417.508 659.033 417.14C659.241 416.764 659.345 416.332 659.345 415.844C659.345 415.348 659.241 414.916 659.033 414.548C658.825 414.18 658.545 413.896 658.193 413.696C657.841 413.488 657.441 413.384 656.993 413.384C656.545 413.384 656.141 413.488 655.781 413.696C655.429 413.896 655.149 414.18 654.941 414.548C654.741 414.916 654.641 415.348 654.641 415.844C654.641 416.332 654.741 416.764 654.941 417.14C655.149 417.508 655.429 417.796 655.781 418.004C656.141 418.204 656.545 418.304 656.993 418.304ZM661.934 419V412.7H662.786V419H661.934ZM662.366 411.308C662.19 411.308 662.042 411.248 661.922 411.128C661.802 411.008 661.742 410.864 661.742 410.696C661.742 410.528 661.802 410.388 661.922 410.276C662.042 410.156 662.19 410.096 662.366 410.096C662.542 410.096 662.69 410.152 662.81 410.264C662.93 410.376 662.99 410.516 662.99 410.684C662.99 410.86 662.93 411.008 662.81 411.128C662.698 411.248 662.55 411.308 662.366 411.308ZM665.157 419V410.096H666.009V419H665.157ZM668.379 419V412.7H669.231V419H668.379ZM668.811 411.308C668.635 411.308 668.487 411.248 668.367 411.128C668.247 411.008 668.187 410.864 668.187 410.696C668.187 410.528 668.247 410.388 668.367 410.276C668.487 410.156 668.635 410.096 668.811 410.096C668.987 410.096 669.135 410.152 669.255 410.264C669.375 410.376 669.435 410.516 669.435 410.684C669.435 410.86 669.375 411.008 669.255 411.128C669.143 411.248 668.995 411.308 668.811 411.308ZM673.594 419.06C673.002 419.06 672.546 418.9 672.226 418.58C671.906 418.26 671.746 417.808 671.746 417.224V411.308H672.598V417.176C672.598 417.544 672.69 417.828 672.874 418.028C673.066 418.228 673.338 418.328 673.69 418.328C674.066 418.328 674.378 418.22 674.626 418.004L674.926 418.616C674.758 418.768 674.554 418.88 674.314 418.952C674.082 419.024 673.842 419.06 673.594 419.06ZM670.618 413.408V412.7H674.518V413.408H670.618ZM678.93 419.06C678.274 419.06 677.698 418.924 677.202 418.652C676.706 418.372 676.318 417.992 676.038 417.512C675.758 417.024 675.618 416.468 675.618 415.844C675.618 415.22 675.75 414.668 676.014 414.188C676.286 413.708 676.654 413.332 677.118 413.06C677.59 412.78 678.118 412.64 678.702 412.64C679.294 412.64 679.818 412.776 680.274 413.048C680.738 413.312 681.102 413.688 681.366 414.176C681.63 414.656 681.762 415.212 681.762 415.844C681.762 415.884 681.758 415.928 681.75 415.976C681.75 416.016 681.75 416.06 681.75 416.108H676.266V415.472H681.294L680.958 415.724C680.958 415.268 680.858 414.864 680.658 414.512C680.466 414.152 680.202 413.872 679.866 413.672C679.53 413.472 679.142 413.372 678.702 413.372C678.27 413.372 677.882 413.472 677.538 413.672C677.194 413.872 676.926 414.152 676.734 414.512C676.542 414.872 676.446 415.284 676.446 415.748V415.88C676.446 416.36 676.55 416.784 676.758 417.152C676.974 417.512 677.27 417.796 677.646 418.004C678.03 418.204 678.466 418.304 678.954 418.304C679.338 418.304 679.694 418.236 680.022 418.1C680.358 417.964 680.646 417.756 680.886 417.476L681.366 418.028C681.086 418.364 680.734 418.62 680.31 418.796C679.894 418.972 679.434 419.06 678.93 419.06ZM677.91 411.716L679.554 410.228H680.694L678.75 411.716H677.91ZM682.981 420.752L683.509 418.532L683.605 419.048C683.421 419.048 683.265 418.988 683.137 418.868C683.017 418.748 682.957 418.592 682.957 418.4C682.957 418.208 683.017 418.052 683.137 417.932C683.265 417.812 683.417 417.752 683.593 417.752C683.777 417.752 683.925 417.816 684.037 417.944C684.157 418.072 684.217 418.224 684.217 418.4C684.217 418.464 684.213 418.528 684.205 418.592C684.197 418.656 684.181 418.728 684.157 418.808C684.133 418.888 684.101 418.984 684.061 419.096L683.557 420.752H682.981ZM691.856 419.06C691.2 419.06 690.624 418.924 690.128 418.652C689.632 418.372 689.244 417.992 688.964 417.512C688.684 417.024 688.544 416.468 688.544 415.844C688.544 415.22 688.676 414.668 688.94 414.188C689.212 413.708 689.58 413.332 690.044 413.06C690.516 412.78 691.044 412.64 691.628 412.64C692.22 412.64 692.744 412.776 693.2 413.048C693.664 413.312 694.028 413.688 694.292 414.176C694.556 414.656 694.688 415.212 694.688 415.844C694.688 415.884 694.684 415.928 694.676 415.976C694.676 416.016 694.676 416.06 694.676 416.108H689.192V415.472H694.22L693.884 415.724C693.884 415.268 693.784 414.864 693.584 414.512C693.392 414.152 693.128 413.872 692.792 413.672C692.456 413.472 692.068 413.372 691.628 413.372C691.196 413.372 690.808 413.472 690.464 413.672C690.12 413.872 689.852 414.152 689.66 414.512C689.468 414.872 689.372 415.284 689.372 415.748V415.88C689.372 416.36 689.476 416.784 689.684 417.152C689.9 417.512 690.196 417.796 690.572 418.004C690.956 418.204 691.392 418.304 691.88 418.304C692.264 418.304 692.62 418.236 692.948 418.1C693.284 417.964 693.572 417.756 693.812 417.476L694.292 418.028C694.012 418.364 693.66 418.62 693.236 418.796C692.82 418.972 692.36 419.06 691.856 419.06ZM690.836 411.716L692.48 410.228H693.62L691.676 411.716H690.836ZM697.925 419L695.129 412.7H696.017L698.585 418.544H698.165L700.769 412.7H701.609L698.801 419H697.925ZM705.201 419.06C704.593 419.06 704.045 418.924 703.557 418.652C703.077 418.372 702.697 417.992 702.417 417.512C702.137 417.024 701.997 416.468 701.997 415.844C701.997 415.212 702.137 414.656 702.417 414.176C702.697 413.696 703.077 413.32 703.557 413.048C704.037 412.776 704.585 412.64 705.201 412.64C705.825 412.64 706.377 412.776 706.857 413.048C707.345 413.32 707.725 413.696 707.997 414.176C708.277 414.656 708.417 415.212 708.417 415.844C708.417 416.468 708.277 417.024 707.997 417.512C707.725 417.992 707.345 418.372 706.857 418.652C706.369 418.924 705.817 419.06 705.201 419.06ZM705.201 418.304C705.657 418.304 706.061 418.204 706.413 418.004C706.765 417.796 707.041 417.508 707.241 417.14C707.449 416.764 707.553 416.332 707.553 415.844C707.553 415.348 707.449 414.916 707.241 414.548C707.041 414.18 706.765 413.896 706.413 413.696C706.061 413.488 705.661 413.384 705.213 413.384C704.765 413.384 704.365 413.488 704.013 413.696C703.661 413.896 703.381 414.18 703.173 414.548C702.965 414.916 702.861 415.348 702.861 415.844C702.861 416.332 702.965 416.764 703.173 417.14C703.381 417.508 703.661 417.796 704.013 418.004C704.365 418.204 704.761 418.304 705.201 418.304ZM710.157 419V410.096H711.009V419H710.157ZM715.983 419.06C715.447 419.06 714.979 418.96 714.579 418.76C714.179 418.56 713.867 418.26 713.643 417.86C713.427 417.46 713.319 416.96 713.319 416.36V412.7H714.171V416.264C714.171 416.936 714.335 417.444 714.663 417.788C714.999 418.124 715.467 418.292 716.067 418.292C716.507 418.292 716.887 418.204 717.207 418.028C717.535 417.844 717.783 417.58 717.951 417.236C718.127 416.892 718.215 416.48 718.215 416V412.7H719.067V419H718.251V417.272L718.383 417.584C718.183 418.048 717.871 418.412 717.447 418.676C717.031 418.932 716.543 419.06 715.983 419.06ZM723.434 419.06C722.842 419.06 722.386 418.9 722.066 418.58C721.746 418.26 721.586 417.808 721.586 417.224V411.308H722.438V417.176C722.438 417.544 722.53 417.828 722.714 418.028C722.906 418.228 723.178 418.328 723.53 418.328C723.906 418.328 724.218 418.22 724.466 418.004L724.766 418.616C724.598 418.768 724.394 418.88 724.154 418.952C723.922 419.024 723.682 419.06 723.434 419.06ZM720.458 413.408V412.7H724.358V413.408H720.458ZM726.317 419V412.7H727.169V419H726.317ZM726.749 411.308C726.573 411.308 726.425 411.248 726.305 411.128C726.185 411.008 726.125 410.864 726.125 410.696C726.125 410.528 726.185 410.388 726.305 410.276C726.425 410.156 726.573 410.096 726.749 410.096C726.925 410.096 727.073 410.152 727.193 410.264C727.313 410.376 727.373 410.516 727.373 410.684C727.373 410.86 727.313 411.008 727.193 411.128C727.081 411.248 726.933 411.308 726.749 411.308ZM731.16 419L728.364 412.7H729.252L731.82 418.544H731.4L734.004 412.7H734.844L732.036 419H731.16ZM736.043 419V412.7H736.895V419H736.043ZM736.475 411.308C736.299 411.308 736.151 411.248 736.031 411.128C735.911 411.008 735.851 410.864 735.851 410.696C735.851 410.528 735.911 410.388 736.031 410.276C736.151 410.156 736.299 410.096 736.475 410.096C736.651 410.096 736.799 410.152 736.919 410.264C737.039 410.376 737.099 410.516 737.099 410.684C737.099 410.86 737.039 411.008 736.919 411.128C736.807 411.248 736.659 411.308 736.475 411.308ZM741.258 419.06C740.666 419.06 740.21 418.9 739.89 418.58C739.57 418.26 739.41 417.808 739.41 417.224V411.308H740.262V417.176C740.262 417.544 740.354 417.828 740.538 418.028C740.73 418.228 741.002 418.328 741.354 418.328C741.73 418.328 742.042 418.22 742.29 418.004L742.59 418.616C742.422 418.768 742.218 418.88 741.978 418.952C741.746 419.024 741.506 419.06 741.258 419.06ZM738.282 413.408V412.7H742.182V413.408H738.282ZM746.594 419.06C745.938 419.06 745.362 418.924 744.866 418.652C744.37 418.372 743.982 417.992 743.702 417.512C743.422 417.024 743.282 416.468 743.282 415.844C743.282 415.22 743.414 414.668 743.678 414.188C743.95 413.708 744.318 413.332 744.782 413.06C745.254 412.78 745.782 412.64 746.366 412.64C746.958 412.64 747.482 412.776 747.938 413.048C748.402 413.312 748.766 413.688 749.03 414.176C749.294 414.656 749.426 415.212 749.426 415.844C749.426 415.884 749.422 415.928 749.414 415.976C749.414 416.016 749.414 416.06 749.414 416.108H743.93V415.472H748.958L748.622 415.724C748.622 415.268 748.522 414.864 748.322 414.512C748.13 414.152 747.866 413.872 747.53 413.672C747.194 413.472 746.806 413.372 746.366 413.372C745.934 413.372 745.546 413.472 745.202 413.672C744.858 413.872 744.59 414.152 744.398 414.512C744.206 414.872 744.11 415.284 744.11 415.748V415.88C744.11 416.36 744.214 416.784 744.422 417.152C744.638 417.512 744.934 417.796 745.31 418.004C745.694 418.204 746.13 418.304 746.618 418.304C747.002 418.304 747.358 418.236 747.686 418.1C748.022 417.964 748.31 417.756 748.55 417.476L749.03 418.028C748.75 418.364 748.398 418.62 747.974 418.796C747.558 418.972 747.098 419.06 746.594 419.06ZM745.574 411.716L747.218 410.228H748.358L746.414 411.716H745.574ZM750.645 420.752L751.173 418.532L751.269 419.048C751.085 419.048 750.929 418.988 750.801 418.868C750.681 418.748 750.621 418.592 750.621 418.4C750.621 418.208 750.681 418.052 750.801 417.932C750.929 417.812 751.081 417.752 751.257 417.752C751.441 417.752 751.589 417.816 751.701 417.944C751.821 418.072 751.881 418.224 751.881 418.4C751.881 418.464 751.877 418.528 751.869 418.592C751.861 418.656 751.845 418.728 751.821 418.808C751.797 418.888 751.765 418.984 751.725 419.096L751.221 420.752H750.645ZM758.536 419.06C758.016 419.06 757.524 418.988 757.06 418.844C756.596 418.692 756.232 418.504 755.968 418.28L756.352 417.608C756.608 417.8 756.936 417.968 757.336 418.112C757.736 418.248 758.156 418.316 758.596 418.316C759.196 418.316 759.628 418.224 759.892 418.04C760.156 417.848 760.288 417.596 760.288 417.284C760.288 417.052 760.212 416.872 760.06 416.744C759.916 416.608 759.724 416.508 759.484 416.444C759.244 416.372 758.976 416.312 758.68 416.264C758.384 416.216 758.088 416.16 757.792 416.096C757.504 416.032 757.24 415.94 757 415.82C756.76 415.692 756.564 415.52 756.412 415.304C756.268 415.088 756.196 414.8 756.196 414.44C756.196 414.096 756.292 413.788 756.484 413.516C756.676 413.244 756.956 413.032 757.324 412.88C757.7 412.72 758.156 412.64 758.692 412.64C759.1 412.64 759.508 412.696 759.916 412.808C760.324 412.912 760.66 413.052 760.924 413.228L760.552 413.912C760.272 413.72 759.972 413.584 759.652 413.504C759.332 413.416 759.012 413.372 758.692 413.372C758.124 413.372 757.704 413.472 757.432 413.672C757.168 413.864 757.036 414.112 757.036 414.416C757.036 414.656 757.108 414.844 757.252 414.98C757.404 415.116 757.6 415.224 757.84 415.304C758.088 415.376 758.356 415.436 758.644 415.484C758.94 415.532 759.232 415.592 759.52 415.664C759.816 415.728 760.084 415.82 760.324 415.94C760.572 416.052 760.768 416.216 760.912 416.432C761.064 416.64 761.14 416.916 761.14 417.26C761.14 417.628 761.036 417.948 760.828 418.22C760.628 418.484 760.332 418.692 759.94 418.844C759.556 418.988 759.088 419.06 758.536 419.06ZM765.38 419.06C764.724 419.06 764.148 418.924 763.652 418.652C763.156 418.372 762.768 417.992 762.488 417.512C762.208 417.024 762.068 416.468 762.068 415.844C762.068 415.22 762.2 414.668 762.464 414.188C762.736 413.708 763.104 413.332 763.568 413.06C764.04 412.78 764.568 412.64 765.152 412.64C765.744 412.64 766.268 412.776 766.724 413.048C767.188 413.312 767.552 413.688 767.816 414.176C768.08 414.656 768.212 415.212 768.212 415.844C768.212 415.884 768.208 415.928 768.2 415.976C768.2 416.016 768.2 416.06 768.2 416.108H762.716V415.472H767.744L767.408 415.724C767.408 415.268 767.308 414.864 767.108 414.512C766.916 414.152 766.652 413.872 766.316 413.672C765.98 413.472 765.592 413.372 765.152 413.372C764.72 413.372 764.332 413.472 763.988 413.672C763.644 413.872 763.376 414.152 763.184 414.512C762.992 414.872 762.896 415.284 762.896 415.748V415.88C762.896 416.36 763 416.784 763.208 417.152C763.424 417.512 763.72 417.796 764.096 418.004C764.48 418.204 764.916 418.304 765.404 418.304C765.788 418.304 766.144 418.236 766.472 418.1C766.808 417.964 767.096 417.756 767.336 417.476L767.816 418.028C767.536 418.364 767.184 418.62 766.76 418.796C766.344 418.972 765.884 419.06 765.38 419.06ZM764.36 411.716L766.004 410.228H767.144L765.2 411.716H764.36ZM772.562 419.06C771.938 419.06 771.378 418.924 770.882 418.652C770.394 418.372 770.01 417.992 769.73 417.512C769.45 417.024 769.31 416.468 769.31 415.844C769.31 415.212 769.45 414.656 769.73 414.176C770.01 413.696 770.394 413.32 770.882 413.048C771.378 412.776 771.938 412.64 772.562 412.64C773.098 412.64 773.582 412.744 774.014 412.952C774.446 413.16 774.786 413.472 775.034 413.888L774.398 414.32C774.182 414 773.914 413.764 773.594 413.612C773.274 413.46 772.926 413.384 772.55 413.384C772.102 413.384 771.698 413.488 771.338 413.696C770.978 413.896 770.694 414.18 770.486 414.548C770.278 414.916 770.174 415.348 770.174 415.844C770.174 416.34 770.278 416.772 770.486 417.14C770.694 417.508 770.978 417.796 771.338 418.004C771.698 418.204 772.102 418.304 772.55 418.304C772.926 418.304 773.274 418.228 773.594 418.076C773.914 417.924 774.182 417.692 774.398 417.38L775.034 417.812C774.786 418.22 774.446 418.532 774.014 418.748C773.582 418.956 773.098 419.06 772.562 419.06ZM779.312 419.06C778.776 419.06 778.308 418.96 777.908 418.76C777.508 418.56 777.196 418.26 776.972 417.86C776.756 417.46 776.648 416.96 776.648 416.36V412.7H777.5V416.264C777.5 416.936 777.664 417.444 777.992 417.788C778.328 418.124 778.796 418.292 779.396 418.292C779.836 418.292 780.216 418.204 780.536 418.028C780.864 417.844 781.112 417.58 781.28 417.236C781.456 416.892 781.544 416.48 781.544 416V412.7H782.396V419H781.58V417.272L781.712 417.584C781.512 418.048 781.2 418.412 780.776 418.676C780.36 418.932 779.872 419.06 779.312 419.06ZM784.77 419V412.7H785.586V414.416L785.502 414.116C785.678 413.636 785.974 413.272 786.39 413.024C786.806 412.768 787.322 412.64 787.938 412.64V413.468C787.906 413.468 787.874 413.468 787.842 413.468C787.81 413.46 787.778 413.456 787.746 413.456C787.082 413.456 786.562 413.66 786.186 414.068C785.81 414.468 785.622 415.04 785.622 415.784V419H784.77ZM789.493 419V412.7H790.345V419H789.493ZM789.925 411.308C789.749 411.308 789.601 411.248 789.481 411.128C789.361 411.008 789.301 410.864 789.301 410.696C789.301 410.528 789.361 410.388 789.481 410.276C789.601 410.156 789.749 410.096 789.925 410.096C790.101 410.096 790.249 410.152 790.369 410.264C790.489 410.376 790.549 410.516 790.549 410.684C790.549 410.86 790.489 411.008 790.369 411.128C790.257 411.248 790.109 411.308 789.925 411.308ZM794.707 419.06C794.115 419.06 793.659 418.9 793.339 418.58C793.019 418.26 792.859 417.808 792.859 417.224V411.308H793.711V417.176C793.711 417.544 793.803 417.828 793.987 418.028C794.179 418.228 794.451 418.328 794.803 418.328C795.179 418.328 795.491 418.22 795.739 418.004L796.039 418.616C795.871 418.768 795.667 418.88 795.427 418.952C795.195 419.024 794.955 419.06 794.707 419.06ZM791.731 413.408V412.7H795.631V413.408H791.731ZM800.044 419.06C799.388 419.06 798.812 418.924 798.316 418.652C797.82 418.372 797.432 417.992 797.152 417.512C796.872 417.024 796.732 416.468 796.732 415.844C796.732 415.22 796.864 414.668 797.128 414.188C797.4 413.708 797.768 413.332 798.232 413.06C798.704 412.78 799.232 412.64 799.816 412.64C800.408 412.64 800.932 412.776 801.388 413.048C801.852 413.312 802.216 413.688 802.48 414.176C802.744 414.656 802.876 415.212 802.876 415.844C802.876 415.884 802.872 415.928 802.864 415.976C802.864 416.016 802.864 416.06 802.864 416.108H797.38V415.472H802.408L802.072 415.724C802.072 415.268 801.972 414.864 801.772 414.512C801.58 414.152 801.316 413.872 800.98 413.672C800.644 413.472 800.256 413.372 799.816 413.372C799.384 413.372 798.996 413.472 798.652 413.672C798.308 413.872 798.04 414.152 797.848 414.512C797.656 414.872 797.56 415.284 797.56 415.748V415.88C797.56 416.36 797.664 416.784 797.872 417.152C798.088 417.512 798.384 417.796 798.76 418.004C799.144 418.204 799.58 418.304 800.068 418.304C800.452 418.304 800.808 418.236 801.136 418.1C801.472 417.964 801.76 417.756 802 417.476L802.48 418.028C802.2 418.364 801.848 418.62 801.424 418.796C801.008 418.972 800.548 419.06 800.044 419.06ZM799.024 411.716L800.668 410.228H801.808L799.864 411.716H799.024Z" fill="#2D1F67"/>
<rect x="518" y="400" width="31" height="31" rx="5" fill="#E522D3"/>
<path d="M533.5 421.406V420.094" stroke="white" stroke-width="1.5" stroke-miterlimit="10" stroke-linecap="round" stroke-linejoin="round"/>
<path d="M529.562 414.844V410.841C529.562 408.675 531.334 406.969 533.5 406.969C535.666 406.969 537.438 408.675 537.438 410.841V414.844" stroke="white" stroke-width="1.5" stroke-miterlimit="10" stroke-linecap="round" stroke-linejoin="round"/>
<path d="M533.5 420.094C534.225 420.094 534.812 419.506 534.812 418.781C534.812 418.056 534.225 417.469 533.5 417.469C532.775 417.469 532.188 418.056 532.188 418.781C532.188 419.506 532.775 420.094 533.5 420.094Z" stroke="white" stroke-width="1.5" stroke-miterlimit="10" stroke-linecap="round" stroke-linejoin="round"/>
<path d="M537.438 423.375H529.562C528.119 423.375 526.938 422.194 526.938 420.75V417.469C526.938 416.025 528.119 414.844 529.562 414.844H537.438C538.881 414.844 540.062 416.025 540.062 417.469V420.75C540.062 422.194 538.881 423.375 537.438 423.375Z" stroke="white" stroke-width="1.5" stroke-miterlimit="10" stroke-linecap="round" stroke-linejoin="round"/>
</g>
<defs>
<filter id="filter0_d_386_40720" x="274" y="27" width="295" height="513.316" filterUnits="userSpaceOnUse" color-interpolation-filters="sRGB">
<feFlood flood-opacity="0" result="BackgroundImageFix"/>
<feColorMatrix in="SourceAlpha" type="matrix" values="0 0 0 0 0 0 0 0 0 0 0 0 0 0 0 0 0 0 127 0" result="hardAlpha"/>
<feOffset/>
<feGaussianBlur stdDeviation="2"/>
<feComposite in2="hardAlpha" operator="out"/>
<feColorMatrix type="matrix" values="0 0 0 0 0.717647 0 0 0 0 0.756863 0 0 0 0 0.905882 0 0 0 1 0"/>
<feBlend mode="normal" in2="BackgroundImageFix" result="effect1_dropShadow_386_40720"/>
<feBlend mode="normal" in="SourceGraphic" in2="effect1_dropShadow_386_40720" result="shape"/>
</filter>
<clipPath id="clip0_386_40720">
<rect width="937" height="545" fill="white"/>
</clipPath>
</defs>
</svg>
