<svg width="893" height="545" viewBox="0 0 893 545" fill="none" xmlns="http://www.w3.org/2000/svg">
<g clip-path="url(#clip0_325_35767)">
<path d="M611 113V19.2764L621 19V113H611Z" fill="#C591FF"/>
<path d="M858 304V210.276L868 210V304H858Z" fill="#C591FF"/>
<path d="M581 318.5L556.414 328L555 176L581 176L581 318.5Z" fill="#C591FF"/>
<path d="M566 504L515.864 555L323.215 555L279 507.586L566 504Z" fill="#C591FF"/>
<path d="M389.5 509.5L378.115 133L301 112.5C297.031 112.5 254 153 254 153V447L389.5 509.5Z" fill="#C591FF"/>
<line x1="837" y1="147.5" x2="603" y2="147.5" stroke="#B7C1E7"/>
<g filter="url(#filter0_d_325_35767)">
<rect x="278" y="31" width="287" height="505.316" rx="10" fill="white"/>
<rect x="278.5" y="31.5" width="286" height="504.316" rx="9.5" stroke="#B7C1E7"/>
</g>
<circle cx="421.5" cy="511.786" r="11.765" fill="#673DE6" stroke="#9C51F1"/>
<path d="M565 73.9277H278V256.676H565V73.9277Z" fill="#7E57FF"/>
<path d="M429.086 310.641H310.357C306.921 310.641 304.136 314.776 304.136 319.876V471.89C304.136 476.99 306.921 481.124 310.357 481.124H429.086C432.522 481.124 435.308 476.99 435.308 471.89V319.876C435.308 314.776 432.522 310.641 429.086 310.641Z" fill="#7E57FF"/>
<path d="M350.989 287.337H305.837C304.688 287.337 303.756 289.546 303.756 292.271V293.442C303.756 296.167 304.688 298.376 305.837 298.376H350.989C352.138 298.376 353.069 296.167 353.069 293.442V292.271C353.069 289.546 352.138 287.337 350.989 287.337Z" fill="#7E57FF"/>
<path d="M543.238 310.641H450.874C449.554 310.641 448.483 312.605 448.483 315.028V316.067C448.483 318.489 449.554 320.453 450.874 320.453H543.238C544.558 320.453 545.629 318.489 545.629 316.067V315.028C545.629 312.605 544.558 310.641 543.238 310.641Z" fill="#7E57FF"/>
<path d="M543.377 383.004H451.013C449.693 383.004 448.622 384.968 448.622 387.391V388.43C448.622 390.852 449.693 392.816 451.013 392.816H543.377C544.697 392.816 545.768 390.852 545.768 388.43V387.391C545.768 384.968 544.697 383.004 543.377 383.004Z" fill="#7E57FF"/>
<path d="M543.377 329.039H451.013C449.693 329.039 448.622 331.002 448.622 333.425V334.464C448.622 336.887 449.693 338.851 451.013 338.851H543.377C544.697 338.851 545.768 336.887 545.768 334.464V333.425C545.768 331.002 544.697 329.039 543.377 329.039Z" fill="#7E57FF"/>
<path d="M543.377 401.402H451.013C449.693 401.402 448.622 403.366 448.622 405.788V406.827C448.622 409.25 449.693 411.214 451.013 411.214H543.377C544.697 411.214 545.768 409.25 545.768 406.827V405.788C545.768 403.366 544.697 401.402 543.377 401.402Z" fill="#7E57FF"/>
<path d="M543.377 347.436H451.013C449.693 347.436 448.622 349.154 448.622 351.274V352.183C448.622 354.303 449.693 356.022 451.013 356.022H543.377C544.697 356.022 545.768 354.303 545.768 352.183V351.274C545.768 349.154 544.697 347.436 543.377 347.436Z" fill="#7E57FF"/>
<path d="M509.226 419.799H450.152C449.307 419.799 448.622 421.518 448.622 423.638V424.547C448.622 426.666 449.307 428.385 450.152 428.385H509.226C510.071 428.385 510.756 426.666 510.756 424.547V423.638C510.756 421.518 510.071 419.799 509.226 419.799Z" fill="#7E57FF"/>
<path d="M543.377 364.607H451.013C449.693 364.607 448.622 366.571 448.622 368.993V370.032C448.622 372.455 449.693 374.419 451.013 374.419H543.377C544.697 374.419 545.768 372.455 545.768 370.032V368.993C545.768 366.571 544.697 364.607 543.377 364.607Z" fill="#7E57FF"/>
<path d="M514.842 455.368H452.426C450.325 455.368 448.622 456.615 448.622 458.153V478.339C448.622 479.877 450.325 481.124 452.426 481.124H514.842C516.943 481.124 518.646 479.877 518.646 478.339V458.153C518.646 456.615 516.943 455.368 514.842 455.368Z" fill="#7E57FF"/>
<path opacity="0.74" d="M535.176 87.4189H309.304C306.994 87.4189 305.122 90.9114 305.122 95.2196V230.477C305.122 234.785 306.994 238.278 309.304 238.278H535.176C537.485 238.278 539.357 234.785 539.357 230.477V95.2196C539.357 90.9114 537.485 87.4189 535.176 87.4189Z" fill="#B3A4FF"/>
<line x1="422" y1="512.5" x2="-113" y2="512.5" stroke="#E521D2"/>
<line x1="382" y1="329.5" x2="26" y2="329.5" stroke="#9C51F1"/>
<line x1="702" y1="195.5" x2="317" y2="195.5" stroke="#9C51F1"/>
<line x1="781" y1="57.5" x2="396" y2="57.5" stroke="#9C51F1"/>
<line x1="781" y1="87.5" x2="396" y2="87.5" stroke="#9C51F1"/>
<line x1="781" y1="113.5" x2="396" y2="113.5" stroke="#9C51F1"/>
<line x1="780.5" y1="555" x2="780.5" y2="217" stroke="#9C51F1"/>
<line x1="203.5" y1="103" x2="203.5" y2="12" stroke="#9C51F1"/>
<line x1="369.5" y1="103" x2="369.5" y2="12" stroke="#9C51F1"/>
<path d="M837 409.5H681" stroke="#E521D2"/>
<line x1="726.5" y1="27" x2="726.5" y2="409" stroke="#9C51F1"/>
<line x1="681.5" y1="22" x2="681.5" y2="404" stroke="#9C51F1"/>
<line x1="643.5" y1="22" x2="643.5" y2="404" stroke="#9C51F1"/>
<path d="M676 356V277.232L686 277V356H676Z" fill="#C591FF"/>
<path d="M228 443V304.409L238 304V443H228Z" fill="#C591FF"/>
<circle cx="726" cy="495" r="17" fill="#C491FF"/>
<circle cx="681" cy="87" r="12" fill="#C491FF"/>
<circle cx="643" cy="113" r="7" fill="#C491FF"/>
<circle cx="727" cy="57" r="7" fill="#C491FF"/>
<circle cx="726" cy="147" r="7" fill="#C491FF"/>
<circle cx="194" cy="329" r="7" fill="#C491FF"/>
<circle cx="145" cy="329" r="7" fill="#C491FF"/>
<rect x="111.5" y="188.5" width="253" height="48" rx="9.5" fill="white" stroke="#B7C1E7"/>
<path d="M158.16 205.668H162.6V206.436H158.16V205.668ZM158.256 210H157.368V201.6H163.128V202.368H158.256V210ZM164.782 210V201.096H165.634V210H164.782ZM170.608 210.06C170.072 210.06 169.604 209.96 169.204 209.76C168.804 209.56 168.492 209.26 168.268 208.86C168.052 208.46 167.944 207.96 167.944 207.36V203.7H168.796V207.264C168.796 207.936 168.96 208.444 169.288 208.788C169.624 209.124 170.092 209.292 170.692 209.292C171.132 209.292 171.512 209.204 171.832 209.028C172.16 208.844 172.408 208.58 172.576 208.236C172.752 207.892 172.84 207.48 172.84 207V203.7H173.692V210H172.876V208.272L173.008 208.584C172.808 209.048 172.496 209.412 172.072 209.676C171.656 209.932 171.168 210.06 170.608 210.06ZM176.067 210V203.7H176.919V210H176.067ZM176.499 202.308C176.323 202.308 176.175 202.248 176.055 202.128C175.935 202.008 175.875 201.864 175.875 201.696C175.875 201.528 175.935 201.388 176.055 201.276C176.175 201.156 176.323 201.096 176.499 201.096C176.675 201.096 176.823 201.152 176.943 201.264C177.063 201.376 177.123 201.516 177.123 201.684C177.123 201.86 177.063 202.008 176.943 202.128C176.831 202.248 176.683 202.308 176.499 202.308ZM181.798 210.06C181.198 210.06 180.658 209.924 180.178 209.652C179.706 209.38 179.334 209.004 179.062 208.524C178.79 208.036 178.654 207.476 178.654 206.844C178.654 206.204 178.79 205.644 179.062 205.164C179.334 204.684 179.706 204.312 180.178 204.048C180.658 203.776 181.198 203.64 181.798 203.64C182.35 203.64 182.842 203.764 183.274 204.012C183.714 204.26 184.062 204.624 184.318 205.104C184.582 205.576 184.714 206.156 184.714 206.844C184.714 207.524 184.586 208.104 184.33 208.584C184.074 209.064 183.726 209.432 183.286 209.688C182.854 209.936 182.358 210.06 181.798 210.06ZM181.858 209.304C182.306 209.304 182.706 209.204 183.058 209.004C183.418 208.796 183.698 208.508 183.898 208.14C184.106 207.764 184.21 207.332 184.21 206.844C184.21 206.348 184.106 205.916 183.898 205.548C183.698 205.18 183.418 204.896 183.058 204.696C182.706 204.488 182.306 204.384 181.858 204.384C181.418 204.384 181.022 204.488 180.67 204.696C180.318 204.896 180.038 205.18 179.83 205.548C179.622 205.916 179.518 206.348 179.518 206.844C179.518 207.332 179.622 207.764 179.83 208.14C180.038 208.508 180.318 208.796 180.67 209.004C181.022 209.204 181.418 209.304 181.858 209.304ZM184.234 210V208.104L184.318 206.832L184.198 205.56V201.096H185.05V210H184.234ZM187.422 210V203.7H188.274V210H187.422ZM187.854 202.308C187.678 202.308 187.53 202.248 187.41 202.128C187.29 202.008 187.23 201.864 187.23 201.696C187.23 201.528 187.29 201.388 187.41 201.276C187.53 201.156 187.678 201.096 187.854 201.096C188.03 201.096 188.178 201.152 188.298 201.264C188.418 201.376 188.478 201.516 188.478 201.684C188.478 201.86 188.418 202.008 188.298 202.128C188.186 202.248 188.038 202.308 187.854 202.308ZM192.637 210.06C192.045 210.06 191.589 209.9 191.269 209.58C190.949 209.26 190.789 208.808 190.789 208.224V202.308H191.641V208.176C191.641 208.544 191.733 208.828 191.917 209.028C192.109 209.228 192.381 209.328 192.733 209.328C193.109 209.328 193.421 209.22 193.669 209.004L193.969 209.616C193.801 209.768 193.597 209.88 193.357 209.952C193.125 210.024 192.885 210.06 192.637 210.06ZM189.661 204.408V203.7H193.561V204.408H189.661ZM197.973 210.06C197.317 210.06 196.741 209.924 196.245 209.652C195.749 209.372 195.361 208.992 195.081 208.512C194.801 208.024 194.661 207.468 194.661 206.844C194.661 206.22 194.793 205.668 195.057 205.188C195.329 204.708 195.697 204.332 196.161 204.06C196.633 203.78 197.161 203.64 197.745 203.64C198.337 203.64 198.861 203.776 199.317 204.048C199.781 204.312 200.145 204.688 200.409 205.176C200.673 205.656 200.805 206.212 200.805 206.844C200.805 206.884 200.801 206.928 200.793 206.976C200.793 207.016 200.793 207.06 200.793 207.108H195.309V206.472H200.337L200.001 206.724C200.001 206.268 199.901 205.864 199.701 205.512C199.509 205.152 199.245 204.872 198.909 204.672C198.573 204.472 198.185 204.372 197.745 204.372C197.313 204.372 196.925 204.472 196.581 204.672C196.237 204.872 195.969 205.152 195.777 205.512C195.585 205.872 195.489 206.284 195.489 206.748V206.88C195.489 207.36 195.593 207.784 195.801 208.152C196.017 208.512 196.313 208.796 196.689 209.004C197.073 209.204 197.509 209.304 197.997 209.304C198.381 209.304 198.737 209.236 199.065 209.1C199.401 208.964 199.689 208.756 199.929 208.476L200.409 209.028C200.129 209.364 199.777 209.62 199.353 209.796C198.937 209.972 198.477 210.06 197.973 210.06ZM196.953 202.716L198.597 201.228H199.737L197.793 202.716H196.953ZM213.552 203.64C214.064 203.64 214.508 203.74 214.884 203.94C215.268 204.132 215.564 204.428 215.772 204.828C215.988 205.228 216.096 205.732 216.096 206.34V210H215.244V206.424C215.244 205.76 215.084 205.26 214.764 204.924C214.452 204.58 214.008 204.408 213.432 204.408C213 204.408 212.624 204.5 212.304 204.684C211.992 204.86 211.748 205.12 211.572 205.464C211.404 205.8 211.32 206.208 211.32 206.688V210H210.468V206.424C210.468 205.76 210.308 205.26 209.988 204.924C209.668 204.58 209.22 204.408 208.644 204.408C208.22 204.408 207.848 204.5 207.528 204.684C207.208 204.86 206.96 205.12 206.784 205.464C206.616 205.8 206.532 206.208 206.532 206.688V210H205.68V203.7H206.496V205.404L206.364 205.104C206.556 204.648 206.864 204.292 207.288 204.036C207.72 203.772 208.228 203.64 208.812 203.64C209.428 203.64 209.952 203.796 210.384 204.108C210.816 204.412 211.096 204.872 211.224 205.488L210.888 205.356C211.072 204.844 211.396 204.432 211.86 204.12C212.332 203.8 212.896 203.64 213.552 203.64ZM222.355 210V208.608L222.319 208.38V206.052C222.319 205.516 222.167 205.104 221.863 204.816C221.567 204.528 221.123 204.384 220.531 204.384C220.123 204.384 219.735 204.452 219.367 204.588C218.999 204.724 218.687 204.904 218.431 205.128L218.047 204.492C218.367 204.22 218.751 204.012 219.199 203.868C219.647 203.716 220.119 203.64 220.615 203.64C221.431 203.64 222.059 203.844 222.499 204.252C222.947 204.652 223.171 205.264 223.171 206.088V210H222.355ZM220.183 210.06C219.711 210.06 219.299 209.984 218.947 209.832C218.603 209.672 218.339 209.456 218.155 209.184C217.971 208.904 217.879 208.584 217.879 208.224C217.879 207.896 217.955 207.6 218.107 207.336C218.267 207.064 218.523 206.848 218.875 206.688C219.235 206.52 219.715 206.436 220.315 206.436H222.487V207.072H220.339C219.731 207.072 219.307 207.18 219.067 207.396C218.835 207.612 218.719 207.88 218.719 208.2C218.719 208.56 218.859 208.848 219.139 209.064C219.419 209.28 219.811 209.388 220.315 209.388C220.795 209.388 221.207 209.28 221.551 209.064C221.903 208.84 222.159 208.52 222.319 208.104L222.511 208.692C222.351 209.108 222.071 209.44 221.671 209.688C221.279 209.936 220.783 210.06 220.183 210.06ZM224.525 210L227.189 206.544L227.177 206.964L224.645 203.7H225.605L227.681 206.4L227.321 206.388L229.397 203.7H230.333L227.777 207L227.789 206.544L230.477 210H229.505L227.309 207.12L227.645 207.168L225.485 210H224.525ZM231.895 210V203.7H232.747V210H231.895ZM232.327 202.308C232.151 202.308 232.003 202.248 231.883 202.128C231.763 202.008 231.703 201.864 231.703 201.696C231.703 201.528 231.763 201.388 231.883 201.276C232.003 201.156 232.151 201.096 232.327 201.096C232.503 201.096 232.651 201.152 232.771 201.264C232.891 201.376 232.951 201.516 232.951 201.684C232.951 201.86 232.891 202.008 232.771 202.128C232.659 202.248 232.511 202.308 232.327 202.308ZM242.99 203.64C243.502 203.64 243.946 203.74 244.322 203.94C244.706 204.132 245.002 204.428 245.21 204.828C245.426 205.228 245.534 205.732 245.534 206.34V210H244.682V206.424C244.682 205.76 244.522 205.26 244.202 204.924C243.89 204.58 243.446 204.408 242.87 204.408C242.438 204.408 242.062 204.5 241.742 204.684C241.43 204.86 241.186 205.12 241.01 205.464C240.842 205.8 240.758 206.208 240.758 206.688V210H239.906V206.424C239.906 205.76 239.746 205.26 239.426 204.924C239.106 204.58 238.658 204.408 238.082 204.408C237.658 204.408 237.286 204.5 236.966 204.684C236.646 204.86 236.398 205.12 236.222 205.464C236.054 205.8 235.97 206.208 235.97 206.688V210H235.118V203.7H235.934V205.404L235.802 205.104C235.994 204.648 236.302 204.292 236.726 204.036C237.158 203.772 237.666 203.64 238.25 203.64C238.866 203.64 239.39 203.796 239.822 204.108C240.254 204.412 240.534 204.872 240.662 205.488L240.326 205.356C240.51 204.844 240.834 204.432 241.298 204.12C241.77 203.8 242.334 203.64 242.99 203.64ZM251.792 210V208.608L251.756 208.38V206.052C251.756 205.516 251.604 205.104 251.3 204.816C251.004 204.528 250.56 204.384 249.968 204.384C249.56 204.384 249.172 204.452 248.804 204.588C248.436 204.724 248.124 204.904 247.868 205.128L247.484 204.492C247.804 204.22 248.188 204.012 248.636 203.868C249.084 203.716 249.556 203.64 250.052 203.64C250.868 203.64 251.496 203.844 251.936 204.252C252.384 204.652 252.608 205.264 252.608 206.088V210H251.792ZM249.62 210.06C249.148 210.06 248.736 209.984 248.384 209.832C248.04 209.672 247.776 209.456 247.592 209.184C247.408 208.904 247.316 208.584 247.316 208.224C247.316 207.896 247.392 207.6 247.544 207.336C247.704 207.064 247.96 206.848 248.312 206.688C248.672 206.52 249.152 206.436 249.752 206.436H251.924V207.072H249.776C249.168 207.072 248.744 207.18 248.504 207.396C248.272 207.612 248.156 207.88 248.156 208.2C248.156 208.56 248.296 208.848 248.576 209.064C248.856 209.28 249.248 209.388 249.752 209.388C250.232 209.388 250.644 209.28 250.988 209.064C251.34 208.84 251.596 208.52 251.756 208.104L251.948 208.692C251.788 209.108 251.508 209.44 251.108 209.688C250.716 209.936 250.22 210.06 249.62 210.06ZM254.922 210V201.096H255.774V210H254.922ZM260.821 210.06C260.165 210.06 259.589 209.924 259.093 209.652C258.597 209.372 258.209 208.992 257.929 208.512C257.649 208.024 257.509 207.468 257.509 206.844C257.509 206.22 257.641 205.668 257.905 205.188C258.177 204.708 258.545 204.332 259.009 204.06C259.481 203.78 260.009 203.64 260.593 203.64C261.185 203.64 261.709 203.776 262.165 204.048C262.629 204.312 262.993 204.688 263.257 205.176C263.521 205.656 263.653 206.212 263.653 206.844C263.653 206.884 263.649 206.928 263.641 206.976C263.641 207.016 263.641 207.06 263.641 207.108H258.157V206.472H263.185L262.849 206.724C262.849 206.268 262.749 205.864 262.549 205.512C262.357 205.152 262.093 204.872 261.757 204.672C261.421 204.472 261.033 204.372 260.593 204.372C260.161 204.372 259.773 204.472 259.429 204.672C259.085 204.872 258.817 205.152 258.625 205.512C258.433 205.872 258.337 206.284 258.337 206.748V206.88C258.337 207.36 258.441 207.784 258.649 208.152C258.865 208.512 259.161 208.796 259.537 209.004C259.921 209.204 260.357 209.304 260.845 209.304C261.229 209.304 261.585 209.236 261.913 209.1C262.249 208.964 262.537 208.756 262.777 208.476L263.257 209.028C262.977 209.364 262.625 209.62 262.201 209.796C261.785 209.972 261.325 210.06 260.821 210.06ZM264.871 211.752L265.399 209.532L265.495 210.048C265.311 210.048 265.155 209.988 265.027 209.868C264.907 209.748 264.847 209.592 264.847 209.4C264.847 209.208 264.907 209.052 265.027 208.932C265.155 208.812 265.307 208.752 265.483 208.752C265.667 208.752 265.815 208.816 265.927 208.944C266.047 209.072 266.107 209.224 266.107 209.4C266.107 209.464 266.103 209.528 266.095 209.592C266.087 209.656 266.071 209.728 266.047 209.808C266.023 209.888 265.991 209.984 265.951 210.096L265.447 211.752H264.871ZM274.323 210.06C273.779 210.06 273.287 209.936 272.847 209.688C272.407 209.432 272.055 209.068 271.791 208.596C271.535 208.116 271.407 207.532 271.407 206.844C271.407 206.156 271.535 205.576 271.791 205.104C272.047 204.624 272.395 204.26 272.835 204.012C273.275 203.764 273.771 203.64 274.323 203.64C274.923 203.64 275.459 203.776 275.931 204.048C276.411 204.312 276.787 204.688 277.059 205.176C277.331 205.656 277.467 206.212 277.467 206.844C277.467 207.484 277.331 208.044 277.059 208.524C276.787 209.004 276.411 209.38 275.931 209.652C275.459 209.924 274.923 210.06 274.323 210.06ZM271.071 212.328V203.7H271.887V205.596L271.803 206.856L271.923 208.128V212.328H271.071ZM274.263 209.304C274.711 209.304 275.111 209.204 275.463 209.004C275.815 208.796 276.095 208.508 276.303 208.14C276.511 207.764 276.615 207.332 276.615 206.844C276.615 206.356 276.511 205.928 276.303 205.56C276.095 205.192 275.815 204.904 275.463 204.696C275.111 204.488 274.711 204.384 274.263 204.384C273.815 204.384 273.411 204.488 273.051 204.696C272.699 204.904 272.419 205.192 272.211 205.56C272.011 205.928 271.911 206.356 271.911 206.844C271.911 207.332 272.011 207.764 272.211 208.14C272.419 208.508 272.699 208.796 273.051 209.004C273.411 209.204 273.815 209.304 274.263 209.304ZM283.116 210V208.608L283.08 208.38V206.052C283.08 205.516 282.928 205.104 282.624 204.816C282.328 204.528 281.884 204.384 281.292 204.384C280.884 204.384 280.496 204.452 280.128 204.588C279.76 204.724 279.448 204.904 279.192 205.128L278.808 204.492C279.128 204.22 279.512 204.012 279.96 203.868C280.408 203.716 280.88 203.64 281.376 203.64C282.192 203.64 282.82 203.844 283.26 204.252C283.708 204.652 283.932 205.264 283.932 206.088V210H283.116ZM280.944 210.06C280.472 210.06 280.06 209.984 279.708 209.832C279.364 209.672 279.1 209.456 278.916 209.184C278.732 208.904 278.64 208.584 278.64 208.224C278.64 207.896 278.716 207.6 278.868 207.336C279.028 207.064 279.284 206.848 279.636 206.688C279.996 206.52 280.476 206.436 281.076 206.436H283.248V207.072H281.1C280.492 207.072 280.068 207.18 279.828 207.396C279.596 207.612 279.48 207.88 279.48 208.2C279.48 208.56 279.62 208.848 279.9 209.064C280.18 209.28 280.572 209.388 281.076 209.388C281.556 209.388 281.968 209.28 282.312 209.064C282.664 208.84 282.92 208.52 283.08 208.104L283.272 208.692C283.112 209.108 282.832 209.44 282.432 209.688C282.04 209.936 281.544 210.06 280.944 210.06ZM286.247 210V203.7H287.063V205.416L286.979 205.116C287.155 204.636 287.451 204.272 287.867 204.024C288.283 203.768 288.799 203.64 289.415 203.64V204.468C289.383 204.468 289.351 204.468 289.319 204.468C289.287 204.46 289.255 204.456 289.223 204.456C288.559 204.456 288.039 204.66 287.663 205.068C287.287 205.468 287.099 206.04 287.099 206.784V210H286.247ZM293.231 210.06C292.639 210.06 292.183 209.9 291.863 209.58C291.543 209.26 291.383 208.808 291.383 208.224V202.308H292.235V208.176C292.235 208.544 292.327 208.828 292.511 209.028C292.703 209.228 292.975 209.328 293.327 209.328C293.703 209.328 294.015 209.22 294.263 209.004L294.563 209.616C294.395 209.768 294.191 209.88 293.951 209.952C293.719 210.024 293.479 210.06 293.231 210.06ZM290.255 204.408V203.7H294.155V204.408H290.255ZM298.459 210.06C297.851 210.06 297.303 209.924 296.815 209.652C296.335 209.372 295.955 208.992 295.675 208.512C295.395 208.024 295.255 207.468 295.255 206.844C295.255 206.212 295.395 205.656 295.675 205.176C295.955 204.696 296.335 204.32 296.815 204.048C297.295 203.776 297.843 203.64 298.459 203.64C299.083 203.64 299.635 203.776 300.115 204.048C300.603 204.32 300.983 204.696 301.255 205.176C301.535 205.656 301.675 206.212 301.675 206.844C301.675 207.468 301.535 208.024 301.255 208.512C300.983 208.992 300.603 209.372 300.115 209.652C299.627 209.924 299.075 210.06 298.459 210.06ZM298.459 209.304C298.915 209.304 299.319 209.204 299.671 209.004C300.023 208.796 300.299 208.508 300.499 208.14C300.707 207.764 300.811 207.332 300.811 206.844C300.811 206.348 300.707 205.916 300.499 205.548C300.299 205.18 300.023 204.896 299.671 204.696C299.319 204.488 298.919 204.384 298.471 204.384C298.023 204.384 297.623 204.488 297.271 204.696C296.919 204.896 296.639 205.18 296.431 205.548C296.223 205.916 296.119 206.348 296.119 206.844C296.119 207.332 296.223 207.764 296.431 208.14C296.639 208.508 296.919 208.796 297.271 209.004C297.623 209.204 298.019 209.304 298.459 209.304ZM306.019 210.06C305.483 210.06 305.015 209.96 304.615 209.76C304.215 209.56 303.903 209.26 303.679 208.86C303.463 208.46 303.355 207.96 303.355 207.36V203.7H304.207V207.264C304.207 207.936 304.371 208.444 304.699 208.788C305.035 209.124 305.503 209.292 306.103 209.292C306.543 209.292 306.923 209.204 307.243 209.028C307.571 208.844 307.819 208.58 307.987 208.236C308.163 207.892 308.251 207.48 308.251 207V203.7H309.103V210H308.287V208.272L308.419 208.584C308.219 209.048 307.907 209.412 307.483 209.676C307.067 209.932 306.579 210.06 306.019 210.06ZM313.469 210.06C312.877 210.06 312.421 209.9 312.101 209.58C311.781 209.26 311.621 208.808 311.621 208.224V202.308H312.473V208.176C312.473 208.544 312.565 208.828 312.749 209.028C312.941 209.228 313.213 209.328 313.565 209.328C313.941 209.328 314.253 209.22 314.501 209.004L314.801 209.616C314.633 209.768 314.429 209.88 314.189 209.952C313.957 210.024 313.717 210.06 313.469 210.06ZM310.493 204.408V203.7H314.393V204.408H310.493ZM315.953 211.752L316.481 209.532L316.577 210.048C316.393 210.048 316.237 209.988 316.109 209.868C315.989 209.748 315.929 209.592 315.929 209.4C315.929 209.208 315.989 209.052 316.109 208.932C316.237 208.812 316.389 208.752 316.565 208.752C316.749 208.752 316.897 208.816 317.009 208.944C317.129 209.072 317.189 209.224 317.189 209.4C317.189 209.464 317.185 209.528 317.177 209.592C317.169 209.656 317.153 209.728 317.129 209.808C317.105 209.888 317.073 209.984 317.033 210.096L316.529 211.752H315.953ZM324.145 210.06C323.553 210.06 323.097 209.9 322.777 209.58C322.457 209.26 322.297 208.808 322.297 208.224V202.308H323.149V208.176C323.149 208.544 323.241 208.828 323.425 209.028C323.617 209.228 323.889 209.328 324.241 209.328C324.617 209.328 324.929 209.22 325.177 209.004L325.477 209.616C325.309 209.768 325.105 209.88 324.865 209.952C324.633 210.024 324.393 210.06 324.145 210.06ZM321.169 204.408V203.7H325.069V204.408H321.169ZM329.373 210.06C328.765 210.06 328.217 209.924 327.729 209.652C327.249 209.372 326.869 208.992 326.589 208.512C326.309 208.024 326.169 207.468 326.169 206.844C326.169 206.212 326.309 205.656 326.589 205.176C326.869 204.696 327.249 204.32 327.729 204.048C328.209 203.776 328.757 203.64 329.373 203.64C329.997 203.64 330.549 203.776 331.029 204.048C331.517 204.32 331.897 204.696 332.169 205.176C332.449 205.656 332.589 206.212 332.589 206.844C332.589 207.468 332.449 208.024 332.169 208.512C331.897 208.992 331.517 209.372 331.029 209.652C330.541 209.924 329.989 210.06 329.373 210.06ZM329.373 209.304C329.829 209.304 330.233 209.204 330.585 209.004C330.937 208.796 331.213 208.508 331.413 208.14C331.621 207.764 331.725 207.332 331.725 206.844C331.725 206.348 331.621 205.916 331.413 205.548C331.213 205.18 330.937 204.896 330.585 204.696C330.233 204.488 329.833 204.384 329.385 204.384C328.937 204.384 328.537 204.488 328.185 204.696C327.833 204.896 327.553 205.18 327.345 205.548C327.137 205.916 327.033 206.348 327.033 206.844C327.033 207.332 327.137 207.764 327.345 208.14C327.553 208.508 327.833 208.796 328.185 209.004C328.537 209.204 328.933 209.304 329.373 209.304ZM336.933 210.06C336.397 210.06 335.929 209.96 335.529 209.76C335.129 209.56 334.817 209.26 334.593 208.86C334.377 208.46 334.269 207.96 334.269 207.36V203.7H335.121V207.264C335.121 207.936 335.285 208.444 335.613 208.788C335.949 209.124 336.417 209.292 337.017 209.292C337.457 209.292 337.837 209.204 338.157 209.028C338.485 208.844 338.733 208.58 338.901 208.236C339.077 207.892 339.165 207.48 339.165 207V203.7H340.017V210H339.201V208.272L339.333 208.584C339.133 209.048 338.821 209.412 338.397 209.676C337.981 209.932 337.493 210.06 336.933 210.06ZM344.383 210.06C343.791 210.06 343.335 209.9 343.015 209.58C342.695 209.26 342.535 208.808 342.535 208.224V202.308H343.387V208.176C343.387 208.544 343.479 208.828 343.663 209.028C343.855 209.228 344.127 209.328 344.479 209.328C344.855 209.328 345.167 209.22 345.415 209.004L345.715 209.616C345.547 209.768 345.343 209.88 345.103 209.952C344.871 210.024 344.631 210.06 344.383 210.06ZM341.407 204.408V203.7H345.307V204.408H341.407ZM157.188 225V216.096H158.04V225H157.188ZM163.087 225.06C162.431 225.06 161.855 224.924 161.359 224.652C160.863 224.372 160.475 223.992 160.195 223.512C159.915 223.024 159.775 222.468 159.775 221.844C159.775 221.22 159.907 220.668 160.171 220.188C160.443 219.708 160.811 219.332 161.275 219.06C161.747 218.78 162.275 218.64 162.859 218.64C163.451 218.64 163.975 218.776 164.431 219.048C164.895 219.312 165.259 219.688 165.523 220.176C165.787 220.656 165.919 221.212 165.919 221.844C165.919 221.884 165.915 221.928 165.907 221.976C165.907 222.016 165.907 222.06 165.907 222.108H160.423V221.472H165.451L165.115 221.724C165.115 221.268 165.015 220.864 164.815 220.512C164.623 220.152 164.359 219.872 164.023 219.672C163.687 219.472 163.299 219.372 162.859 219.372C162.427 219.372 162.039 219.472 161.695 219.672C161.351 219.872 161.083 220.152 160.891 220.512C160.699 220.872 160.603 221.284 160.603 221.748V221.88C160.603 222.36 160.707 222.784 160.915 223.152C161.131 223.512 161.427 223.796 161.803 224.004C162.187 224.204 162.623 224.304 163.111 224.304C163.495 224.304 163.851 224.236 164.179 224.1C164.515 223.964 164.803 223.756 165.043 223.476L165.523 224.028C165.243 224.364 164.891 224.62 164.467 224.796C164.051 224.972 163.591 225.06 163.087 225.06ZM172.785 225.06C172.193 225.06 171.737 224.9 171.417 224.58C171.097 224.26 170.937 223.808 170.937 223.224V217.308H171.789V223.176C171.789 223.544 171.881 223.828 172.065 224.028C172.257 224.228 172.529 224.328 172.881 224.328C173.257 224.328 173.569 224.22 173.817 224.004L174.117 224.616C173.949 224.768 173.745 224.88 173.505 224.952C173.273 225.024 173.033 225.06 172.785 225.06ZM169.809 219.408V218.7H173.709V219.408H169.809ZM178.122 225.06C177.466 225.06 176.89 224.924 176.394 224.652C175.898 224.372 175.51 223.992 175.23 223.512C174.95 223.024 174.81 222.468 174.81 221.844C174.81 221.22 174.942 220.668 175.206 220.188C175.478 219.708 175.846 219.332 176.31 219.06C176.782 218.78 177.31 218.64 177.894 218.64C178.486 218.64 179.01 218.776 179.466 219.048C179.93 219.312 180.294 219.688 180.558 220.176C180.822 220.656 180.954 221.212 180.954 221.844C180.954 221.884 180.95 221.928 180.942 221.976C180.942 222.016 180.942 222.06 180.942 222.108H175.458V221.472H180.486L180.15 221.724C180.15 221.268 180.05 220.864 179.85 220.512C179.658 220.152 179.394 219.872 179.058 219.672C178.722 219.472 178.334 219.372 177.894 219.372C177.462 219.372 177.074 219.472 176.73 219.672C176.386 219.872 176.118 220.152 175.926 220.512C175.734 220.872 175.638 221.284 175.638 221.748V221.88C175.638 222.36 175.742 222.784 175.95 223.152C176.166 223.512 176.462 223.796 176.838 224.004C177.222 224.204 177.658 224.304 178.146 224.304C178.53 224.304 178.886 224.236 179.214 224.1C179.55 223.964 179.838 223.756 180.078 223.476L180.558 224.028C180.278 224.364 179.926 224.62 179.502 224.796C179.086 224.972 178.626 225.06 178.122 225.06ZM190.56 218.64C191.072 218.64 191.516 218.74 191.892 218.94C192.276 219.132 192.572 219.428 192.78 219.828C192.996 220.228 193.104 220.732 193.104 221.34V225H192.252V221.424C192.252 220.76 192.092 220.26 191.772 219.924C191.46 219.58 191.016 219.408 190.44 219.408C190.008 219.408 189.632 219.5 189.312 219.684C189 219.86 188.756 220.12 188.58 220.464C188.412 220.8 188.328 221.208 188.328 221.688V225H187.476V221.424C187.476 220.76 187.316 220.26 186.996 219.924C186.676 219.58 186.228 219.408 185.652 219.408C185.228 219.408 184.856 219.5 184.536 219.684C184.216 219.86 183.968 220.12 183.792 220.464C183.624 220.8 183.54 221.208 183.54 221.688V225H182.688V218.7H183.504V220.404L183.372 220.104C183.564 219.648 183.872 219.292 184.296 219.036C184.728 218.772 185.236 218.64 185.82 218.64C186.436 218.64 186.96 218.796 187.392 219.108C187.824 219.412 188.104 219.872 188.232 220.488L187.896 220.356C188.08 219.844 188.404 219.432 188.868 219.12C189.34 218.8 189.904 218.64 190.56 218.64ZM198.667 225.06C198.123 225.06 197.631 224.936 197.191 224.688C196.751 224.432 196.399 224.068 196.135 223.596C195.879 223.116 195.751 222.532 195.751 221.844C195.751 221.156 195.879 220.576 196.135 220.104C196.391 219.624 196.739 219.26 197.179 219.012C197.619 218.764 198.115 218.64 198.667 218.64C199.267 218.64 199.803 218.776 200.275 219.048C200.755 219.312 201.131 219.688 201.403 220.176C201.675 220.656 201.811 221.212 201.811 221.844C201.811 222.484 201.675 223.044 201.403 223.524C201.131 224.004 200.755 224.38 200.275 224.652C199.803 224.924 199.267 225.06 198.667 225.06ZM195.415 227.328V218.7H196.231V220.596L196.147 221.856L196.267 223.128V227.328H195.415ZM198.607 224.304C199.055 224.304 199.455 224.204 199.807 224.004C200.159 223.796 200.439 223.508 200.647 223.14C200.855 222.764 200.959 222.332 200.959 221.844C200.959 221.356 200.855 220.928 200.647 220.56C200.439 220.192 200.159 219.904 199.807 219.696C199.455 219.488 199.055 219.384 198.607 219.384C198.159 219.384 197.755 219.488 197.395 219.696C197.043 219.904 196.763 220.192 196.555 220.56C196.355 220.928 196.255 221.356 196.255 221.844C196.255 222.332 196.355 222.764 196.555 223.14C196.763 223.508 197.043 223.796 197.395 224.004C197.755 224.204 198.159 224.304 198.607 224.304ZM205.239 225.06C204.719 225.06 204.227 224.988 203.763 224.844C203.299 224.692 202.935 224.504 202.671 224.28L203.055 223.608C203.311 223.8 203.639 223.968 204.039 224.112C204.439 224.248 204.859 224.316 205.299 224.316C205.899 224.316 206.331 224.224 206.595 224.04C206.859 223.848 206.991 223.596 206.991 223.284C206.991 223.052 206.915 222.872 206.763 222.744C206.619 222.608 206.427 222.508 206.187 222.444C205.947 222.372 205.679 222.312 205.383 222.264C205.087 222.216 204.791 222.16 204.495 222.096C204.207 222.032 203.943 221.94 203.703 221.82C203.463 221.692 203.267 221.52 203.115 221.304C202.971 221.088 202.899 220.8 202.899 220.44C202.899 220.096 202.995 219.788 203.187 219.516C203.379 219.244 203.659 219.032 204.027 218.88C204.403 218.72 204.859 218.64 205.395 218.64C205.803 218.64 206.211 218.696 206.619 218.808C207.027 218.912 207.363 219.052 207.627 219.228L207.255 219.912C206.975 219.72 206.675 219.584 206.355 219.504C206.035 219.416 205.715 219.372 205.395 219.372C204.827 219.372 204.407 219.472 204.135 219.672C203.871 219.864 203.739 220.112 203.739 220.416C203.739 220.656 203.811 220.844 203.955 220.98C204.107 221.116 204.303 221.224 204.543 221.304C204.791 221.376 205.059 221.436 205.347 221.484C205.643 221.532 205.935 221.592 206.223 221.664C206.519 221.728 206.787 221.82 207.027 221.94C207.275 222.052 207.471 222.216 207.615 222.432C207.767 222.64 207.843 222.916 207.843 223.26C207.843 223.628 207.739 223.948 207.531 224.22C207.331 224.484 207.035 224.692 206.643 224.844C206.259 224.988 205.791 225.06 205.239 225.06ZM209.491 225.06C209.315 225.06 209.163 224.996 209.035 224.868C208.915 224.74 208.855 224.584 208.855 224.4C208.855 224.208 208.915 224.052 209.035 223.932C209.163 223.812 209.315 223.752 209.491 223.752C209.667 223.752 209.815 223.812 209.935 223.932C210.063 224.052 210.127 224.208 210.127 224.4C210.127 224.584 210.063 224.74 209.935 224.868C209.815 224.996 209.667 225.06 209.491 225.06Z" fill="#2D1F67"/>
<rect x="119.304" y="197" width="32.1772" height="31" rx="5" fill="#E522D3"/>
<path d="M128.944 215.803C128.331 216.444 127.933 217.26 127.807 218.138C127.73 218.577 127.701 219.023 127.722 219.469V220.17H128.69C129.047 220.169 129.403 220.137 129.755 220.074C130.634 219.952 131.452 219.553 132.09 218.936C132.464 218.515 132.656 217.963 132.625 217.401C132.593 216.839 132.34 216.312 131.92 215.936C131.54 215.529 131.016 215.287 130.459 215.262C129.903 215.237 129.359 215.431 128.944 215.803ZM131.049 217.896C130.63 218.293 130.097 218.547 129.525 218.622H129.259V218.356C129.334 217.784 129.588 217.25 129.984 216.831C130.066 216.765 130.17 216.73 130.275 216.734C130.383 216.739 130.488 216.764 130.586 216.81C130.684 216.856 130.771 216.921 130.843 217.001C130.989 217.093 131.092 217.238 131.13 217.406C131.169 217.574 131.14 217.75 131.049 217.896ZM143.438 205.531C143.432 205.248 143.316 204.977 143.116 204.777C142.915 204.576 142.645 204.461 142.361 204.455C140.945 204.339 139.52 204.51 138.171 204.957C136.822 205.403 135.576 206.117 134.509 207.056L132.537 209.354L129.634 208.749C129.436 208.706 129.23 208.714 129.035 208.771C128.841 208.828 128.664 208.933 128.521 209.076L127.698 209.899C127.572 210.027 127.477 210.181 127.418 210.351C127.36 210.52 127.339 210.701 127.359 210.879C127.377 211.059 127.435 211.233 127.529 211.388C127.624 211.543 127.751 211.675 127.904 211.774L130.396 213.371L130.553 213.468L134.425 217.4L134.521 217.497L136.118 219.989C136.217 220.141 136.349 220.269 136.504 220.363C136.659 220.457 136.833 220.515 137.014 220.533H137.147C137.464 220.532 137.768 220.406 137.994 220.182L138.816 219.36C138.96 219.216 139.065 219.039 139.122 218.845C139.179 218.65 139.186 218.445 139.143 218.247L138.538 215.355L140.764 213.444C141.721 212.373 142.451 211.121 142.91 209.761C143.37 208.401 143.549 206.962 143.438 205.531ZM129.476 210.262L131.073 210.601L130.299 211.508L129.089 210.697L129.476 210.262ZM137.195 218.852L136.385 217.642L137.292 216.867L137.631 218.464L137.195 218.852ZM139.748 212.331L135.296 216.129L131.763 212.597L135.562 208.145C137.322 206.624 139.603 205.843 141.926 205.967C142.044 208.289 141.264 210.568 139.748 212.331Z" fill="white" fill-opacity="0.8"/>
<path d="M139.179 210.843C139.311 210.704 139.415 210.54 139.483 210.361C139.551 210.181 139.582 209.99 139.575 209.799C139.569 209.607 139.524 209.419 139.443 209.245C139.363 209.071 139.248 208.915 139.107 208.786C138.982 208.638 138.827 208.517 138.653 208.431C138.479 208.346 138.289 208.297 138.095 208.288C137.902 208.28 137.708 208.312 137.527 208.382C137.346 208.452 137.182 208.558 137.044 208.695C136.907 208.832 136.799 208.996 136.728 209.176C136.657 209.357 136.624 209.55 136.631 209.744C136.639 209.937 136.686 210.128 136.771 210.302C136.855 210.477 136.975 210.632 137.123 210.758C137.252 210.899 137.408 211.013 137.581 211.094C137.754 211.174 137.942 211.22 138.133 211.228C138.324 211.236 138.515 211.206 138.695 211.139C138.874 211.073 139.039 210.972 139.179 210.843Z" fill="white" fill-opacity="0.8"/>
<rect x="519.5" y="392.5" width="246" height="48" rx="9.5" fill="white" stroke="#B7C1E7"/>
<path d="M564.368 420V411.6H567.512C568.224 411.6 568.836 411.716 569.348 411.948C569.86 412.172 570.252 412.5 570.524 412.932C570.804 413.356 570.944 413.872 570.944 414.48C570.944 415.072 570.804 415.584 570.524 416.016C570.252 416.44 569.86 416.768 569.348 417C568.836 417.232 568.224 417.348 567.512 417.348H564.86L565.256 416.928V420H564.368ZM565.256 417L564.86 416.568H567.488C568.328 416.568 568.964 416.388 569.396 416.028C569.836 415.66 570.056 415.144 570.056 414.48C570.056 413.808 569.836 413.288 569.396 412.92C568.964 412.552 568.328 412.368 567.488 412.368H564.86L565.256 411.948V417ZM572.532 420V413.7H573.348V415.416L573.264 415.116C573.44 414.636 573.736 414.272 574.152 414.024C574.568 413.768 575.084 413.64 575.7 413.64V414.468C575.668 414.468 575.636 414.468 575.604 414.468C575.572 414.46 575.54 414.456 575.508 414.456C574.844 414.456 574.324 414.66 573.948 415.068C573.572 415.468 573.384 416.04 573.384 416.784V420H572.532ZM579.764 420.06C579.156 420.06 578.608 419.924 578.12 419.652C577.64 419.372 577.26 418.992 576.98 418.512C576.7 418.024 576.56 417.468 576.56 416.844C576.56 416.212 576.7 415.656 576.98 415.176C577.26 414.696 577.64 414.32 578.12 414.048C578.6 413.776 579.148 413.64 579.764 413.64C580.388 413.64 580.94 413.776 581.42 414.048C581.908 414.32 582.288 414.696 582.56 415.176C582.84 415.656 582.98 416.212 582.98 416.844C582.98 417.468 582.84 418.024 582.56 418.512C582.288 418.992 581.908 419.372 581.42 419.652C580.932 419.924 580.38 420.06 579.764 420.06ZM579.764 419.304C580.22 419.304 580.624 419.204 580.976 419.004C581.328 418.796 581.604 418.508 581.804 418.14C582.012 417.764 582.116 417.332 582.116 416.844C582.116 416.348 582.012 415.916 581.804 415.548C581.604 415.18 581.328 414.896 580.976 414.696C580.624 414.488 580.224 414.384 579.776 414.384C579.328 414.384 578.928 414.488 578.576 414.696C578.224 414.896 577.944 415.18 577.736 415.548C577.528 415.916 577.424 416.348 577.424 416.844C577.424 417.332 577.528 417.764 577.736 418.14C577.944 418.508 578.224 418.796 578.576 419.004C578.928 419.204 579.324 419.304 579.764 419.304ZM586.711 420.06C586.119 420.06 585.663 419.9 585.343 419.58C585.023 419.26 584.863 418.808 584.863 418.224V412.308H585.715V418.176C585.715 418.544 585.807 418.828 585.991 419.028C586.183 419.228 586.455 419.328 586.807 419.328C587.183 419.328 587.495 419.22 587.743 419.004L588.043 419.616C587.875 419.768 587.671 419.88 587.431 419.952C587.199 420.024 586.959 420.06 586.711 420.06ZM583.735 414.408V413.7H587.635V414.408H583.735ZM592.048 420.06C591.392 420.06 590.816 419.924 590.32 419.652C589.824 419.372 589.436 418.992 589.156 418.512C588.876 418.024 588.736 417.468 588.736 416.844C588.736 416.22 588.868 415.668 589.132 415.188C589.404 414.708 589.772 414.332 590.236 414.06C590.708 413.78 591.236 413.64 591.82 413.64C592.412 413.64 592.936 413.776 593.392 414.048C593.856 414.312 594.22 414.688 594.484 415.176C594.748 415.656 594.88 416.212 594.88 416.844C594.88 416.884 594.876 416.928 594.868 416.976C594.868 417.016 594.868 417.06 594.868 417.108H589.384V416.472H594.412L594.076 416.724C594.076 416.268 593.976 415.864 593.776 415.512C593.584 415.152 593.32 414.872 592.984 414.672C592.648 414.472 592.26 414.372 591.82 414.372C591.388 414.372 591 414.472 590.656 414.672C590.312 414.872 590.044 415.152 589.852 415.512C589.66 415.872 589.564 416.284 589.564 416.748V416.88C589.564 417.36 589.668 417.784 589.876 418.152C590.092 418.512 590.388 418.796 590.764 419.004C591.148 419.204 591.584 419.304 592.072 419.304C592.456 419.304 592.812 419.236 593.14 419.1C593.476 418.964 593.764 418.756 594.004 418.476L594.484 419.028C594.204 419.364 593.852 419.62 593.428 419.796C593.012 419.972 592.552 420.06 592.048 420.06ZM599.23 420.06C598.606 420.06 598.046 419.924 597.55 419.652C597.062 419.372 596.678 418.992 596.398 418.512C596.118 418.024 595.978 417.468 595.978 416.844C595.978 416.212 596.118 415.656 596.398 415.176C596.678 414.696 597.062 414.32 597.55 414.048C598.046 413.776 598.606 413.64 599.23 413.64C599.766 413.64 600.25 413.744 600.682 413.952C601.114 414.16 601.454 414.472 601.702 414.888L601.066 415.32C600.85 415 600.582 414.764 600.262 414.612C599.942 414.46 599.594 414.384 599.218 414.384C598.77 414.384 598.366 414.488 598.006 414.696C597.646 414.896 597.362 415.18 597.154 415.548C596.946 415.916 596.842 416.348 596.842 416.844C596.842 417.34 596.946 417.772 597.154 418.14C597.362 418.508 597.646 418.796 598.006 419.004C598.366 419.204 598.77 419.304 599.218 419.304C599.594 419.304 599.942 419.228 600.262 419.076C600.582 418.924 600.85 418.692 601.066 418.38L601.702 418.812C601.454 419.22 601.114 419.532 600.682 419.748C600.25 419.956 599.766 420.06 599.23 420.06ZM605.438 420.06C604.846 420.06 604.39 419.9 604.07 419.58C603.75 419.26 603.59 418.808 603.59 418.224V412.308H604.442V418.176C604.442 418.544 604.534 418.828 604.718 419.028C604.91 419.228 605.182 419.328 605.534 419.328C605.91 419.328 606.222 419.22 606.47 419.004L606.77 419.616C606.602 419.768 606.398 419.88 606.158 419.952C605.926 420.024 605.686 420.06 605.438 420.06ZM602.462 414.408V413.7H606.362V414.408H602.462ZM608.321 420V413.7H609.173V420H608.321ZM608.753 412.308C608.577 412.308 608.429 412.248 608.309 412.128C608.189 412.008 608.129 411.864 608.129 411.696C608.129 411.528 608.189 411.388 608.309 411.276C608.429 411.156 608.577 411.096 608.753 411.096C608.929 411.096 609.077 411.152 609.197 411.264C609.317 411.376 609.377 411.516 609.377 411.684C609.377 411.86 609.317 412.008 609.197 412.128C609.085 412.248 608.937 412.308 608.753 412.308ZM614.111 420.06C613.503 420.06 612.955 419.924 612.467 419.652C611.987 419.372 611.607 418.992 611.327 418.512C611.047 418.024 610.907 417.468 610.907 416.844C610.907 416.212 611.047 415.656 611.327 415.176C611.607 414.696 611.987 414.32 612.467 414.048C612.947 413.776 613.495 413.64 614.111 413.64C614.735 413.64 615.287 413.776 615.767 414.048C616.255 414.32 616.635 414.696 616.907 415.176C617.187 415.656 617.327 416.212 617.327 416.844C617.327 417.468 617.187 418.024 616.907 418.512C616.635 418.992 616.255 419.372 615.767 419.652C615.279 419.924 614.727 420.06 614.111 420.06ZM614.111 419.304C614.567 419.304 614.971 419.204 615.323 419.004C615.675 418.796 615.951 418.508 616.151 418.14C616.359 417.764 616.463 417.332 616.463 416.844C616.463 416.348 616.359 415.916 616.151 415.548C615.951 415.18 615.675 414.896 615.323 414.696C614.971 414.488 614.571 414.384 614.123 414.384C613.675 414.384 613.275 414.488 612.923 414.696C612.571 414.896 612.291 415.18 612.083 415.548C611.875 415.916 611.771 416.348 611.771 416.844C611.771 417.332 611.875 417.764 612.083 418.14C612.291 418.508 612.571 418.796 612.923 419.004C613.275 419.204 613.671 419.304 614.111 419.304ZM622.283 413.64C622.795 413.64 623.243 413.74 623.627 413.94C624.019 414.132 624.323 414.428 624.539 414.828C624.763 415.228 624.875 415.732 624.875 416.34V420H624.023V416.424C624.023 415.76 623.855 415.26 623.519 414.924C623.191 414.58 622.727 414.408 622.127 414.408C621.679 414.408 621.287 414.5 620.951 414.684C620.623 414.86 620.367 415.12 620.183 415.464C620.007 415.8 619.919 416.208 619.919 416.688V420H619.067V413.7H619.883V415.428L619.751 415.104C619.951 414.648 620.271 414.292 620.711 414.036C621.151 413.772 621.675 413.64 622.283 413.64ZM632.825 420.06C632.225 420.06 631.685 419.924 631.205 419.652C630.733 419.38 630.361 419.004 630.089 418.524C629.817 418.036 629.681 417.476 629.681 416.844C629.681 416.204 629.817 415.644 630.089 415.164C630.361 414.684 630.733 414.312 631.205 414.048C631.685 413.776 632.225 413.64 632.825 413.64C633.377 413.64 633.869 413.764 634.301 414.012C634.741 414.26 635.089 414.624 635.345 415.104C635.609 415.576 635.741 416.156 635.741 416.844C635.741 417.524 635.613 418.104 635.357 418.584C635.101 419.064 634.753 419.432 634.313 419.688C633.881 419.936 633.385 420.06 632.825 420.06ZM632.885 419.304C633.333 419.304 633.733 419.204 634.085 419.004C634.445 418.796 634.725 418.508 634.925 418.14C635.133 417.764 635.237 417.332 635.237 416.844C635.237 416.348 635.133 415.916 634.925 415.548C634.725 415.18 634.445 414.896 634.085 414.696C633.733 414.488 633.333 414.384 632.885 414.384C632.445 414.384 632.049 414.488 631.697 414.696C631.345 414.896 631.065 415.18 630.857 415.548C630.649 415.916 630.545 416.348 630.545 416.844C630.545 417.332 630.649 417.764 630.857 418.14C631.065 418.508 631.345 418.796 631.697 419.004C632.049 419.204 632.445 419.304 632.885 419.304ZM635.261 420V418.104L635.345 416.832L635.225 415.56V411.096H636.077V420H635.261ZM641.126 420.06C640.47 420.06 639.894 419.924 639.398 419.652C638.902 419.372 638.514 418.992 638.234 418.512C637.954 418.024 637.814 417.468 637.814 416.844C637.814 416.22 637.946 415.668 638.21 415.188C638.482 414.708 638.85 414.332 639.314 414.06C639.786 413.78 640.314 413.64 640.898 413.64C641.49 413.64 642.014 413.776 642.47 414.048C642.934 414.312 643.298 414.688 643.562 415.176C643.826 415.656 643.958 416.212 643.958 416.844C643.958 416.884 643.954 416.928 643.946 416.976C643.946 417.016 643.946 417.06 643.946 417.108H638.462V416.472H643.49L643.154 416.724C643.154 416.268 643.054 415.864 642.854 415.512C642.662 415.152 642.398 414.872 642.062 414.672C641.726 414.472 641.338 414.372 640.898 414.372C640.466 414.372 640.078 414.472 639.734 414.672C639.39 414.872 639.122 415.152 638.93 415.512C638.738 415.872 638.642 416.284 638.642 416.748V416.88C638.642 417.36 638.746 417.784 638.954 418.152C639.17 418.512 639.466 418.796 639.842 419.004C640.226 419.204 640.662 419.304 641.15 419.304C641.534 419.304 641.89 419.236 642.218 419.1C642.554 418.964 642.842 418.756 643.082 418.476L643.562 419.028C643.282 419.364 642.93 419.62 642.506 419.796C642.09 419.972 641.63 420.06 641.126 420.06ZM647.384 420.06C646.864 420.06 646.372 419.988 645.908 419.844C645.444 419.692 645.08 419.504 644.816 419.28L645.2 418.608C645.456 418.8 645.784 418.968 646.184 419.112C646.584 419.248 647.004 419.316 647.444 419.316C648.044 419.316 648.476 419.224 648.74 419.04C649.004 418.848 649.136 418.596 649.136 418.284C649.136 418.052 649.06 417.872 648.908 417.744C648.764 417.608 648.572 417.508 648.332 417.444C648.092 417.372 647.824 417.312 647.528 417.264C647.232 417.216 646.936 417.16 646.64 417.096C646.352 417.032 646.088 416.94 645.848 416.82C645.608 416.692 645.412 416.52 645.26 416.304C645.116 416.088 645.044 415.8 645.044 415.44C645.044 415.096 645.14 414.788 645.332 414.516C645.524 414.244 645.804 414.032 646.172 413.88C646.548 413.72 647.004 413.64 647.54 413.64C647.948 413.64 648.356 413.696 648.764 413.808C649.172 413.912 649.508 414.052 649.772 414.228L649.4 414.912C649.12 414.72 648.82 414.584 648.5 414.504C648.18 414.416 647.86 414.372 647.54 414.372C646.972 414.372 646.552 414.472 646.28 414.672C646.016 414.864 645.884 415.112 645.884 415.416C645.884 415.656 645.956 415.844 646.1 415.98C646.252 416.116 646.448 416.224 646.688 416.304C646.936 416.376 647.204 416.436 647.492 416.484C647.788 416.532 648.08 416.592 648.368 416.664C648.664 416.728 648.932 416.82 649.172 416.94C649.42 417.052 649.616 417.216 649.76 417.432C649.912 417.64 649.988 417.916 649.988 418.26C649.988 418.628 649.884 418.948 649.676 419.22C649.476 419.484 649.18 419.692 648.788 419.844C648.404 419.988 647.936 420.06 647.384 420.06ZM657.2 420.06C656.6 420.06 656.06 419.924 655.58 419.652C655.108 419.38 654.736 419.004 654.464 418.524C654.192 418.036 654.056 417.476 654.056 416.844C654.056 416.204 654.192 415.644 654.464 415.164C654.736 414.684 655.108 414.312 655.58 414.048C656.06 413.776 656.6 413.64 657.2 413.64C657.752 413.64 658.244 413.764 658.676 414.012C659.116 414.26 659.464 414.624 659.72 415.104C659.984 415.576 660.116 416.156 660.116 416.844C660.116 417.524 659.988 418.104 659.732 418.584C659.476 419.064 659.128 419.432 658.688 419.688C658.256 419.936 657.76 420.06 657.2 420.06ZM657.26 419.304C657.708 419.304 658.108 419.204 658.46 419.004C658.82 418.796 659.1 418.508 659.3 418.14C659.508 417.764 659.612 417.332 659.612 416.844C659.612 416.348 659.508 415.916 659.3 415.548C659.1 415.18 658.82 414.896 658.46 414.696C658.108 414.488 657.708 414.384 657.26 414.384C656.82 414.384 656.424 414.488 656.072 414.696C655.72 414.896 655.44 415.18 655.232 415.548C655.024 415.916 654.92 416.348 654.92 416.844C654.92 417.332 655.024 417.764 655.232 418.14C655.44 418.508 655.72 418.796 656.072 419.004C656.424 419.204 656.82 419.304 657.26 419.304ZM659.636 420V418.104L659.72 416.832L659.6 415.56V411.096H660.452V420H659.636ZM665.393 420.06C664.785 420.06 664.237 419.924 663.749 419.652C663.269 419.372 662.889 418.992 662.609 418.512C662.329 418.024 662.189 417.468 662.189 416.844C662.189 416.212 662.329 415.656 662.609 415.176C662.889 414.696 663.269 414.32 663.749 414.048C664.229 413.776 664.777 413.64 665.393 413.64C666.017 413.64 666.569 413.776 667.049 414.048C667.537 414.32 667.917 414.696 668.189 415.176C668.469 415.656 668.609 416.212 668.609 416.844C668.609 417.468 668.469 418.024 668.189 418.512C667.917 418.992 667.537 419.372 667.049 419.652C666.561 419.924 666.009 420.06 665.393 420.06ZM665.393 419.304C665.849 419.304 666.253 419.204 666.605 419.004C666.957 418.796 667.233 418.508 667.433 418.14C667.641 417.764 667.745 417.332 667.745 416.844C667.745 416.348 667.641 415.916 667.433 415.548C667.233 415.18 666.957 414.896 666.605 414.696C666.253 414.488 665.853 414.384 665.405 414.384C664.957 414.384 664.557 414.488 664.205 414.696C663.853 414.896 663.573 415.18 663.365 415.548C663.157 415.916 663.053 416.348 663.053 416.844C663.053 417.332 663.157 417.764 663.365 418.14C663.573 418.508 663.853 418.796 664.205 419.004C664.557 419.204 664.953 419.304 665.393 419.304ZM673.564 413.64C674.076 413.64 674.524 413.74 674.908 413.94C675.3 414.132 675.604 414.428 675.82 414.828C676.044 415.228 676.156 415.732 676.156 416.34V420H675.304V416.424C675.304 415.76 675.136 415.26 674.8 414.924C674.472 414.58 674.008 414.408 673.408 414.408C672.96 414.408 672.568 414.5 672.232 414.684C671.904 414.86 671.648 415.12 671.464 415.464C671.288 415.8 671.2 416.208 671.2 416.688V420H670.348V413.7H671.164V415.428L671.032 415.104C671.232 414.648 671.552 414.292 671.992 414.036C672.432 413.772 672.956 413.64 673.564 413.64ZM681.674 413.64C682.186 413.64 682.634 413.74 683.018 413.94C683.41 414.132 683.714 414.428 683.93 414.828C684.154 415.228 684.266 415.732 684.266 416.34V420H683.414V416.424C683.414 415.76 683.246 415.26 682.91 414.924C682.582 414.58 682.118 414.408 681.518 414.408C681.07 414.408 680.678 414.5 680.342 414.684C680.014 414.86 679.758 415.12 679.574 415.464C679.398 415.8 679.31 416.208 679.31 416.688V420H678.458V413.7H679.274V415.428L679.142 415.104C679.342 414.648 679.662 414.292 680.102 414.036C680.542 413.772 681.066 413.64 681.674 413.64ZM689.243 420.06C688.587 420.06 688.011 419.924 687.515 419.652C687.019 419.372 686.631 418.992 686.351 418.512C686.071 418.024 685.931 417.468 685.931 416.844C685.931 416.22 686.063 415.668 686.327 415.188C686.599 414.708 686.967 414.332 687.431 414.06C687.903 413.78 688.431 413.64 689.015 413.64C689.607 413.64 690.131 413.776 690.587 414.048C691.051 414.312 691.415 414.688 691.679 415.176C691.943 415.656 692.075 416.212 692.075 416.844C692.075 416.884 692.071 416.928 692.063 416.976C692.063 417.016 692.063 417.06 692.063 417.108H686.579V416.472H691.607L691.271 416.724C691.271 416.268 691.171 415.864 690.971 415.512C690.779 415.152 690.515 414.872 690.179 414.672C689.843 414.472 689.455 414.372 689.015 414.372C688.583 414.372 688.195 414.472 687.851 414.672C687.507 414.872 687.239 415.152 687.047 415.512C686.855 415.872 686.759 416.284 686.759 416.748V416.88C686.759 417.36 686.863 417.784 687.071 418.152C687.287 418.512 687.583 418.796 687.959 419.004C688.343 419.204 688.779 419.304 689.267 419.304C689.651 419.304 690.007 419.236 690.335 419.1C690.671 418.964 690.959 418.756 691.199 418.476L691.679 419.028C691.399 419.364 691.047 419.62 690.623 419.796C690.207 419.972 689.747 420.06 689.243 420.06ZM688.223 412.716L689.867 411.228H691.007L689.063 412.716H688.223ZM696.485 420.06C695.829 420.06 695.253 419.924 694.757 419.652C694.261 419.372 693.873 418.992 693.593 418.512C693.313 418.024 693.173 417.468 693.173 416.844C693.173 416.22 693.305 415.668 693.569 415.188C693.841 414.708 694.209 414.332 694.673 414.06C695.145 413.78 695.673 413.64 696.257 413.64C696.849 413.64 697.373 413.776 697.829 414.048C698.293 414.312 698.657 414.688 698.921 415.176C699.185 415.656 699.317 416.212 699.317 416.844C699.317 416.884 699.313 416.928 699.305 416.976C699.305 417.016 699.305 417.06 699.305 417.108H693.821V416.472H698.849L698.513 416.724C698.513 416.268 698.413 415.864 698.213 415.512C698.021 415.152 697.757 414.872 697.421 414.672C697.085 414.472 696.697 414.372 696.257 414.372C695.825 414.372 695.437 414.472 695.093 414.672C694.749 414.872 694.481 415.152 694.289 415.512C694.097 415.872 694.001 416.284 694.001 416.748V416.88C694.001 417.36 694.105 417.784 694.313 418.152C694.529 418.512 694.825 418.796 695.201 419.004C695.585 419.204 696.021 419.304 696.509 419.304C696.893 419.304 697.249 419.236 697.577 419.1C697.913 418.964 698.201 418.756 698.441 418.476L698.921 419.028C698.641 419.364 698.289 419.62 697.865 419.796C697.449 419.972 696.989 420.06 696.485 420.06ZM702.743 420.06C702.223 420.06 701.731 419.988 701.267 419.844C700.803 419.692 700.439 419.504 700.175 419.28L700.559 418.608C700.815 418.8 701.143 418.968 701.543 419.112C701.943 419.248 702.363 419.316 702.803 419.316C703.403 419.316 703.835 419.224 704.099 419.04C704.363 418.848 704.495 418.596 704.495 418.284C704.495 418.052 704.419 417.872 704.267 417.744C704.123 417.608 703.931 417.508 703.691 417.444C703.451 417.372 703.183 417.312 702.887 417.264C702.591 417.216 702.295 417.16 701.999 417.096C701.711 417.032 701.447 416.94 701.207 416.82C700.967 416.692 700.771 416.52 700.619 416.304C700.475 416.088 700.403 415.8 700.403 415.44C700.403 415.096 700.499 414.788 700.691 414.516C700.883 414.244 701.163 414.032 701.531 413.88C701.907 413.72 702.363 413.64 702.899 413.64C703.307 413.64 703.715 413.696 704.123 413.808C704.531 413.912 704.867 414.052 705.131 414.228L704.759 414.912C704.479 414.72 704.179 414.584 703.859 414.504C703.539 414.416 703.219 414.372 702.899 414.372C702.331 414.372 701.911 414.472 701.639 414.672C701.375 414.864 701.243 415.112 701.243 415.416C701.243 415.656 701.315 415.844 701.459 415.98C701.611 416.116 701.807 416.224 702.047 416.304C702.295 416.376 702.563 416.436 702.851 416.484C703.147 416.532 703.439 416.592 703.727 416.664C704.023 416.728 704.291 416.82 704.531 416.94C704.779 417.052 704.975 417.216 705.119 417.432C705.271 417.64 705.347 417.916 705.347 418.26C705.347 418.628 705.243 418.948 705.035 419.22C704.835 419.484 704.539 419.692 704.147 419.844C703.763 419.988 703.295 420.06 702.743 420.06ZM710.051 420V413.7H710.903V420H710.051ZM710.483 412.308C710.307 412.308 710.159 412.248 710.039 412.128C709.919 412.008 709.859 411.864 709.859 411.696C709.859 411.528 709.919 411.388 710.039 411.276C710.159 411.156 710.307 411.096 710.483 411.096C710.659 411.096 710.807 411.152 710.927 411.264C711.047 411.376 711.107 411.516 711.107 411.684C711.107 411.86 711.047 412.008 710.927 412.128C710.815 412.248 710.667 412.308 710.483 412.308ZM716.49 413.64C717.002 413.64 717.45 413.74 717.834 413.94C718.226 414.132 718.53 414.428 718.746 414.828C718.97 415.228 719.082 415.732 719.082 416.34V420H718.23V416.424C718.23 415.76 718.062 415.26 717.726 414.924C717.398 414.58 716.934 414.408 716.334 414.408C715.886 414.408 715.494 414.5 715.158 414.684C714.83 414.86 714.574 415.12 714.39 415.464C714.214 415.8 714.126 416.208 714.126 416.688V420H713.274V413.7H714.09V415.428L713.958 415.104C714.158 414.648 714.478 414.292 714.918 414.036C715.358 413.772 715.882 413.64 716.49 413.64ZM723.999 420.06C723.375 420.06 722.815 419.924 722.319 419.652C721.831 419.372 721.447 418.992 721.167 418.512C720.887 418.024 720.747 417.468 720.747 416.844C720.747 416.212 720.887 415.656 721.167 415.176C721.447 414.696 721.831 414.32 722.319 414.048C722.815 413.776 723.375 413.64 723.999 413.64C724.535 413.64 725.019 413.744 725.451 413.952C725.883 414.16 726.223 414.472 726.471 414.888L725.835 415.32C725.619 415 725.351 414.764 725.031 414.612C724.711 414.46 724.363 414.384 723.987 414.384C723.539 414.384 723.135 414.488 722.775 414.696C722.415 414.896 722.131 415.18 721.923 415.548C721.715 415.916 721.611 416.348 721.611 416.844C721.611 417.34 721.715 417.772 721.923 418.14C722.131 418.508 722.415 418.796 722.775 419.004C723.135 419.204 723.539 419.304 723.987 419.304C724.363 419.304 724.711 419.228 725.031 419.076C725.351 418.924 725.619 418.692 725.835 418.38L726.471 418.812C726.223 419.22 725.883 419.532 725.451 419.748C725.019 419.956 724.535 420.06 723.999 420.06ZM728.051 420V411.096H728.903V420H728.051ZM733.878 420.06C733.342 420.06 732.874 419.96 732.474 419.76C732.074 419.56 731.762 419.26 731.538 418.86C731.322 418.46 731.214 417.96 731.214 417.36V413.7H732.066V417.264C732.066 417.936 732.23 418.444 732.558 418.788C732.894 419.124 733.362 419.292 733.962 419.292C734.402 419.292 734.782 419.204 735.102 419.028C735.43 418.844 735.678 418.58 735.846 418.236C736.022 417.892 736.11 417.48 736.11 417V413.7H736.962V420H736.146V418.272L736.278 418.584C736.078 419.048 735.766 419.412 735.342 419.676C734.926 419.932 734.438 420.06 733.878 420.06ZM741.028 420.06C740.508 420.06 740.016 419.988 739.552 419.844C739.088 419.692 738.724 419.504 738.46 419.28L738.844 418.608C739.1 418.8 739.428 418.968 739.828 419.112C740.228 419.248 740.648 419.316 741.088 419.316C741.688 419.316 742.12 419.224 742.384 419.04C742.648 418.848 742.78 418.596 742.78 418.284C742.78 418.052 742.704 417.872 742.552 417.744C742.408 417.608 742.216 417.508 741.976 417.444C741.736 417.372 741.468 417.312 741.172 417.264C740.876 417.216 740.58 417.16 740.284 417.096C739.996 417.032 739.732 416.94 739.492 416.82C739.252 416.692 739.056 416.52 738.904 416.304C738.76 416.088 738.688 415.8 738.688 415.44C738.688 415.096 738.784 414.788 738.976 414.516C739.168 414.244 739.448 414.032 739.816 413.88C740.192 413.72 740.648 413.64 741.184 413.64C741.592 413.64 742 413.696 742.408 413.808C742.816 413.912 743.152 414.052 743.416 414.228L743.044 414.912C742.764 414.72 742.464 414.584 742.144 414.504C741.824 414.416 741.504 414.372 741.184 414.372C740.616 414.372 740.196 414.472 739.924 414.672C739.66 414.864 739.528 415.112 739.528 415.416C739.528 415.656 739.6 415.844 739.744 415.98C739.896 416.116 740.092 416.224 740.332 416.304C740.58 416.376 740.848 416.436 741.136 416.484C741.432 416.532 741.724 416.592 742.012 416.664C742.308 416.728 742.576 416.82 742.816 416.94C743.064 417.052 743.26 417.216 743.404 417.432C743.556 417.64 743.632 417.916 743.632 418.26C743.632 418.628 743.528 418.948 743.32 419.22C743.12 419.484 742.824 419.692 742.432 419.844C742.048 419.988 741.58 420.06 741.028 420.06ZM747.872 420.06C747.216 420.06 746.64 419.924 746.144 419.652C745.648 419.372 745.26 418.992 744.98 418.512C744.7 418.024 744.56 417.468 744.56 416.844C744.56 416.22 744.692 415.668 744.956 415.188C745.228 414.708 745.596 414.332 746.06 414.06C746.532 413.78 747.06 413.64 747.644 413.64C748.236 413.64 748.76 413.776 749.216 414.048C749.68 414.312 750.044 414.688 750.308 415.176C750.572 415.656 750.704 416.212 750.704 416.844C750.704 416.884 750.7 416.928 750.692 416.976C750.692 417.016 750.692 417.06 750.692 417.108H745.208V416.472H750.236L749.9 416.724C749.9 416.268 749.8 415.864 749.6 415.512C749.408 415.152 749.144 414.872 748.808 414.672C748.472 414.472 748.084 414.372 747.644 414.372C747.212 414.372 746.824 414.472 746.48 414.672C746.136 414.872 745.868 415.152 745.676 415.512C745.484 415.872 745.388 416.284 745.388 416.748V416.88C745.388 417.36 745.492 417.784 745.7 418.152C745.916 418.512 746.212 418.796 746.588 419.004C746.972 419.204 747.408 419.304 747.896 419.304C748.28 419.304 748.636 419.236 748.964 419.1C749.3 418.964 749.588 418.756 749.828 418.476L750.308 419.028C750.028 419.364 749.676 419.62 749.252 419.796C748.836 419.972 748.376 420.06 747.872 420.06ZM752.522 420.06C752.346 420.06 752.194 419.996 752.066 419.868C751.946 419.74 751.886 419.584 751.886 419.4C751.886 419.208 751.946 419.052 752.066 418.932C752.194 418.812 752.346 418.752 752.522 418.752C752.698 418.752 752.846 418.812 752.966 418.932C753.094 419.052 753.158 419.208 753.158 419.4C753.158 419.584 753.094 419.74 752.966 419.868C752.846 419.996 752.698 420.06 752.522 420.06Z" fill="#2D1F67"/>
<rect x="527" y="401" width="31" height="31" rx="5" fill="#E522D3"/>
<path d="M542.5 422.406V421.094" stroke="white" stroke-width="1.5" stroke-miterlimit="10" stroke-linecap="round" stroke-linejoin="round"/>
<path d="M538.562 415.844V411.841C538.562 409.675 540.334 407.969 542.5 407.969C544.666 407.969 546.438 409.675 546.438 411.841V415.844" stroke="white" stroke-width="1.5" stroke-miterlimit="10" stroke-linecap="round" stroke-linejoin="round"/>
<path d="M542.5 421.094C543.225 421.094 543.812 420.506 543.812 419.781C543.812 419.056 543.225 418.469 542.5 418.469C541.775 418.469 541.188 419.056 541.188 419.781C541.188 420.506 541.775 421.094 542.5 421.094Z" stroke="white" stroke-width="1.5" stroke-miterlimit="10" stroke-linecap="round" stroke-linejoin="round"/>
<path d="M546.438 424.375H538.562C537.119 424.375 535.938 423.194 535.938 421.75V418.469C535.938 417.025 537.119 415.844 538.562 415.844H546.438C547.881 415.844 549.062 417.025 549.062 418.469V421.75C549.062 423.194 547.881 424.375 546.438 424.375Z" stroke="white" stroke-width="1.5" stroke-miterlimit="10" stroke-linecap="round" stroke-linejoin="round"/>
</g>
<defs>
<filter id="filter0_d_325_35767" x="274" y="27" width="295" height="513.316" filterUnits="userSpaceOnUse" color-interpolation-filters="sRGB">
<feFlood flood-opacity="0" result="BackgroundImageFix"/>
<feColorMatrix in="SourceAlpha" type="matrix" values="0 0 0 0 0 0 0 0 0 0 0 0 0 0 0 0 0 0 127 0" result="hardAlpha"/>
<feOffset/>
<feGaussianBlur stdDeviation="2"/>
<feComposite in2="hardAlpha" operator="out"/>
<feColorMatrix type="matrix" values="0 0 0 0 0.717647 0 0 0 0 0.756863 0 0 0 0 0.905882 0 0 0 1 0"/>
<feBlend mode="normal" in2="BackgroundImageFix" result="effect1_dropShadow_325_35767"/>
<feBlend mode="normal" in="SourceGraphic" in2="effect1_dropShadow_325_35767" result="shape"/>
</filter>
<clipPath id="clip0_325_35767">
<rect width="937" height="545" fill="white"/>
</clipPath>
</defs>
</svg>
