<svg width="49" height="49" viewBox="0 0 49 49" fill="none" xmlns="http://www.w3.org/2000/svg">
<path d="M35.7292 19.3959H13.2708C11.0157 19.3959 9.1875 21.224 9.1875 23.4792V37.7709C9.1875 40.026 11.0157 41.8542 13.2708 41.8542H35.7292C37.9843 41.8542 39.8125 40.026 39.8125 37.7709V23.4792C39.8125 21.224 37.9843 19.3959 35.7292 19.3959Z" stroke="#673DE6" stroke-width="3" stroke-linejoin="round"/>
<path d="M30.6247 11.2292C31.7523 11.2292 32.6663 10.3151 32.6663 9.18754C32.6663 8.05996 31.7523 7.14587 30.6247 7.14587C29.4971 7.14587 28.583 8.05996 28.583 9.18754C28.583 10.3151 29.4971 11.2292 30.6247 11.2292Z" stroke="#673DE6" stroke-width="2" stroke-linejoin="round"/>
<path d="M18.3747 15.2818C19.5023 15.2818 20.4163 14.3677 20.4163 13.2402C20.4163 12.1126 19.5023 11.1985 18.3747 11.1985C17.2471 11.1985 16.333 12.1126 16.333 13.2402C16.333 14.3677 17.2471 15.2818 18.3747 15.2818Z" stroke="#673DE6" stroke-width="2" stroke-linejoin="round"/>
<path d="M30.2917 30.0833C31.4192 30.0833 32.3333 29.1692 32.3333 28.0417C32.3333 26.9141 31.4192 26 30.2917 26C29.1641 26 28.25 26.9141 28.25 28.0417C28.25 29.1692 29.1641 30.0833 30.2917 30.0833Z" stroke="#673DE6" stroke-width="2" stroke-linejoin="round"/>
<path d="M18.0417 30.0833C19.1692 30.0833 20.0833 29.1692 20.0833 28.0417C20.0833 26.9141 19.1692 26 18.0417 26C16.9141 26 16 26.9141 16 28.0417C16 29.1692 16.9141 30.0833 18.0417 30.0833Z" stroke="#673DE6" stroke-width="2" stroke-linejoin="round"/>
<path d="M30.625 19.3958V11.2291" stroke="#673DE6" stroke-width="3" stroke-linejoin="round"/>
<path d="M18.375 19.3958V15.3125" stroke="#673DE6" stroke-width="3" stroke-linejoin="round"/>
<path d="M9.18783 25.5209H5.10449V35.7292H9.18783" stroke="#673DE6" stroke-width="3" stroke-linejoin="round"/>
<path d="M39.8125 25.5209H43.8958V35.7292H39.8125" stroke="#673DE6" stroke-width="3" stroke-linejoin="round"/>
</svg>
