<svg width="66" height="66" viewBox="0 0 66 66" fill="none" xmlns="http://www.w3.org/2000/svg">
<path d="M55.0002 35.3376C56.9311 33.9768 58.2942 31.9535 58.8299 29.6528C59.3656 27.3521 59.0366 24.9348 57.9054 22.861C56.7743 20.7872 54.92 19.2018 52.6956 18.4066C50.4713 17.6115 48.0322 17.6621 45.8427 18.5488C44.8608 15.9265 43.1016 13.6664 40.8005 12.0709C38.4994 10.4754 35.766 9.62048 32.9658 9.62048C30.1657 9.62048 27.4323 10.4754 25.1311 12.0709C22.83 13.6664 21.0709 15.9265 20.0889 18.5488C17.8907 17.6514 15.4384 17.5982 13.2033 18.3994C10.9682 19.2006 9.10816 20.7997 7.98065 22.8893C6.85315 24.9788 6.53778 27.4114 7.09515 29.7194C7.65253 32.0273 9.04332 34.0479 11.0002 35.3926" stroke="#673DE6" stroke-width="3" stroke-linecap="round" stroke-linejoin="round"/>
<path d="M50.875 28.875H15.125V39.875H50.875V28.875Z" stroke="#673DE6" stroke-width="3" stroke-linecap="round" stroke-linejoin="round"/>
<path d="M20.625 34.375H23.375" stroke="#673DE6" stroke-width="2" stroke-linecap="round" stroke-linejoin="round"/>
<path d="M50.875 45.375H15.125V56.375H50.875V45.375Z" stroke="#673DE6" stroke-width="3" stroke-linecap="round" stroke-linejoin="round"/>
<path d="M20.625 50.875H23.375" stroke="#673DE6" stroke-width="2" stroke-linecap="round" stroke-linejoin="round"/>
</svg>
