<svg width="46" height="46" viewBox="0 0 46 46" fill="none" xmlns="http://www.w3.org/2000/svg">
<path d="M43.9759 2.02405H2.02392C1.41396 2.02405 0.919922 2.51809 0.919922 3.12805V34.0401C0.919922 34.65 1.41396 35.1441 2.02392 35.1441H16.3759V41.7681H10.8559C10.246 41.7681 9.75192 42.2621 9.75192 42.8721C9.75192 43.482 10.246 43.9761 10.8559 43.9761H35.1439C35.7539 43.9761 36.2479 43.482 36.2479 42.8721C36.2479 42.2621 35.7539 41.7681 35.1439 41.7681H29.6239V35.1441H43.9759C44.5859 35.1441 45.0799 34.65 45.0799 34.0401V3.12805C45.0799 2.51809 44.5859 2.02405 43.9759 2.02405ZM27.4159 41.7681H18.5839V35.1441H27.4159V41.7681ZM41.8719 32H4V5H41.8719V32Z" fill="#673DE6"/>
<path d="M14.4915 23.7801C14.7068 23.9954 14.9892 24.104 15.2717 24.104C15.5541 24.104 15.8365 23.9963 16.0518 23.7801C16.4833 23.3487 16.4833 22.6504 16.0518 22.2189L12.416 18.5831L16.0518 14.9472C16.4833 14.5157 16.4833 13.8175 16.0518 13.386C15.6203 12.9545 14.9221 12.9545 14.4906 13.386L10.0746 17.802C9.64311 18.2335 9.64311 18.9317 10.0746 19.3632L14.4906 23.7792L14.4915 23.7801Z" fill="#673DE6"/>
<path d="M29.9476 23.7802C30.1629 23.9955 30.4453 24.104 30.7277 24.104C31.0102 24.104 31.2926 23.9964 31.5079 23.7802L35.9239 19.3642C36.3554 18.9327 36.3554 18.2344 35.9239 17.803L31.5079 13.387C31.0764 12.9555 30.3781 12.9555 29.9467 13.387C29.5152 13.8184 29.5152 14.5167 29.9467 14.9482L33.5825 18.584L29.9467 22.2199C29.5152 22.6514 29.5152 23.3496 29.9467 23.7811L29.9476 23.7802Z" fill="#673DE6"/>
<path d="M21.6279 24.0708C21.718 24.0938 21.8073 24.104 21.8956 24.104C22.3915 24.104 22.8423 23.77 22.9674 23.2677L25.1754 14.4357C25.3217 13.845 24.9638 13.2452 24.3713 13.098C23.7696 12.9462 23.179 13.3096 23.0327 13.9012L20.8247 22.7332C20.6784 23.3238 21.0363 23.9236 21.6288 24.0708H21.6279Z" fill="#673DE6"/>
</svg>
