<svg width="811" height="545" viewBox="0 0 811 545" fill="none" xmlns="http://www.w3.org/2000/svg">
<g clip-path="url(#clip0_386_40601)">
<path d="M535.5 475L472 539L228 539L228 475L535.5 475Z" fill="#C591FF"/>
<path d="M661 394L385.385 50H30.8829C18.8473 50 9 59.8599 9 71.9108V394H661Z" fill="#C591FF"/>
<g filter="url(#filter0_d_386_40601)">
<rect x="23.8915" y="63.1362" width="637.109" height="460.864" rx="10" fill="white"/>
<rect x="24.3915" y="63.6362" width="636.109" height="459.864" rx="9.5" stroke="#B7C1E7"/>
</g>
<line x1="661" y1="102.844" x2="23.8915" y2="102.844" stroke="#B7C1E7"/>
<circle cx="46.2586" cy="84.9768" r="7.16282" stroke="#9C51F1"/>
<circle cx="71.4365" cy="84.9768" r="7.16282" stroke="#9C51F1"/>
<circle cx="95.5196" cy="84.9768" r="7.16282" stroke="#9C51F1"/>
<path d="M287.755 161.658H79.6774C73.6554 161.658 68.7737 166.251 68.7737 171.916V340.781C68.7737 346.447 73.6554 351.039 79.6774 351.039H287.755C293.776 351.039 298.658 346.447 298.658 340.781V171.916C298.658 166.251 293.776 161.658 287.755 161.658Z" fill="#7E57FF"/>
<path d="M368.104 163.848H314.598C313.05 163.848 311.794 165.175 311.794 166.812V215.617C311.794 217.255 313.05 218.582 314.598 218.582H368.104C369.652 218.582 370.908 217.255 370.908 215.617V166.812C370.908 165.175 369.652 163.848 368.104 163.848Z" fill="#7E57FF"/>
<path d="M595.098 329.146H402.874C397.311 329.146 392.801 333.181 392.801 338.158V486.525C392.801 491.503 397.311 495.538 402.874 495.538H595.098C600.661 495.538 605.171 491.503 605.171 486.525V338.158C605.171 333.181 600.661 329.146 595.098 329.146Z" fill="#7E57FF"/>
<path d="M368.104 230.624H314.598C313.05 230.624 311.794 231.951 311.794 233.588V282.393C311.794 284.031 313.05 285.358 314.598 285.358H368.104C369.652 285.358 370.908 284.031 370.908 282.393V233.588C370.908 231.951 369.652 230.624 368.104 230.624Z" fill="#7E57FF"/>
<path d="M368.104 296.305H314.598C313.05 296.305 311.794 297.632 311.794 299.269V348.074C311.794 349.712 313.05 351.039 314.598 351.039H368.104C369.652 351.039 370.908 349.712 370.908 348.074V299.269C370.908 297.632 369.652 296.305 368.104 296.305Z" fill="#7E57FF"/>
<path d="M173.624 138.67H73.3924C70.8416 138.67 68.7737 140.641 68.7737 143.073V144.119C68.7737 146.551 70.8416 148.522 73.3924 148.522H173.624C176.175 148.522 178.243 146.551 178.243 144.119V143.073C178.243 140.641 176.175 138.67 173.624 138.67Z" fill="#7E57FF"/>
<path d="M173.624 368.554H73.3924C70.8416 368.554 68.7737 370.526 68.7737 372.958V374.003C68.7737 376.435 70.8416 378.406 73.3924 378.406H173.624C176.175 378.406 178.243 376.435 178.243 374.003V372.958C178.243 370.526 176.175 368.554 173.624 368.554Z" fill="#7E57FF"/>
<path d="M599.862 161.658H394.826C391.894 161.658 389.517 163.411 389.517 165.573V166.501C389.517 168.663 391.894 170.416 394.826 170.416H599.862C602.794 170.416 605.171 168.663 605.171 166.501V165.573C605.171 163.411 602.794 161.658 599.862 161.658Z" fill="#7E57FF"/>
<path d="M599.862 226.245H394.826C391.894 226.245 389.517 227.997 389.517 230.16V231.087C389.517 233.249 391.894 235.002 394.826 235.002H599.862C602.794 235.002 605.171 233.249 605.171 231.087V230.16C605.171 227.997 602.794 226.245 599.862 226.245Z" fill="#7E57FF"/>
<path d="M599.862 178.079H394.826C391.894 178.079 389.517 179.831 389.517 181.994V182.921C389.517 185.083 391.894 186.836 394.826 186.836H599.862C602.794 186.836 605.171 185.083 605.171 182.921V181.994C605.171 179.831 602.794 178.079 599.862 178.079Z" fill="#7E57FF"/>
<path d="M599.862 242.665H394.826C391.894 242.665 389.517 244.418 389.517 246.58V247.507C389.517 249.67 391.894 251.423 394.826 251.423H599.862C602.794 251.423 605.171 249.67 605.171 247.507V246.58C605.171 244.418 602.794 242.665 599.862 242.665Z" fill="#7E57FF"/>
<path d="M599.862 194.499H394.826C391.894 194.499 389.517 196.033 389.517 197.925V198.736C389.517 200.628 391.894 202.162 394.826 202.162H599.862C602.794 202.162 605.171 200.628 605.171 198.736V197.925C605.171 196.033 602.794 194.499 599.862 194.499Z" fill="#7E57FF"/>
<path d="M524.053 259.085H392.913C391.038 259.085 389.517 260.619 389.517 262.511V263.323C389.517 265.215 391.038 266.748 392.913 266.748H524.053C525.928 266.748 527.448 265.215 527.448 263.323V262.511C527.448 260.619 525.928 259.085 524.053 259.085Z" fill="#7E57FF"/>
<path d="M599.862 209.824H394.826C391.894 209.824 389.517 211.577 389.517 213.739V214.667C389.517 216.829 391.894 218.582 394.826 218.582H599.862C602.794 218.582 605.171 216.829 605.171 214.667V213.739C605.171 211.577 602.794 209.824 599.862 209.824Z" fill="#7E57FF"/>
<path d="M536.519 290.832H397.961C393.298 290.832 389.517 291.945 389.517 293.317V311.334C389.517 312.707 393.298 313.82 397.961 313.82H536.519C541.183 313.82 544.963 312.707 544.963 311.334V293.317C544.963 291.945 541.183 290.832 536.519 290.832Z" fill="#7E57FF"/>
<path d="M741 369.5L727.761 379L727 227L741 227L741 369.5Z" fill="#C591FF"/>
<line x1="735" y1="151.5" x2="79" y2="151.5" stroke="#B7C1E7"/>
<line x1="921" y1="313.5" x2="565" y2="313.5" stroke="#9C51F1"/>
<line x1="838" y1="49.5" x2="303" y2="49.5" stroke="#E521D2"/>
<line x1="55" y1="378.5" x2="-217" y2="378.5" stroke="#9C51F1"/>
<line x1="821" y1="86.5" x2="436" y2="86.5" stroke="#9C51F1"/>
<line x1="749.5" y1="555" x2="749.5" y2="217" stroke="#9C51F1"/>
<line x1="203.5" y1="103" x2="203.5" y2="12" stroke="#9C51F1"/>
<line x1="369.5" y1="103" x2="369.5" y2="12" stroke="#9C51F1"/>
<rect x="3" y="467" width="76" height="76" rx="38" fill="#9C51F1"/>
<path d="M837 409.5H681" stroke="#E521D2"/>
<line x1="692.5" y1="188" x2="692.5" y2="570" stroke="#9C51F1"/>
<path fill-rule="evenodd" clip-rule="evenodd" d="M33.9147 524.94C34.4309 525.908 34.9478 526.779 35.4419 527.552C30.1923 526.372 25.6372 523.356 22.4851 519.215C24.5654 518.043 27.2298 516.829 30.433 515.94C31.3434 519.511 32.6277 522.527 33.9147 524.94ZM37.8854 522.823C36.7673 520.726 35.6468 518.109 34.8395 515.007C36.5774 514.749 38.4326 514.6 40.4003 514.6C42.3677 514.6 44.2229 514.749 45.9605 515.007C45.1532 518.109 44.0327 520.726 42.9146 522.823C42.0182 524.503 41.1251 525.845 40.4 526.827C39.6749 525.845 38.7818 524.503 37.8854 522.823ZM33.65 505.6C33.65 507.352 33.7679 509.016 33.9758 510.586C35.9807 510.278 38.1242 510.1 40.4003 510.1C42.6761 510.1 44.8196 510.278 46.8242 510.586C47.0321 509.015 47.15 507.352 47.15 505.6C47.15 503.848 47.0321 502.185 46.8242 500.614C44.8196 500.922 42.6761 501.1 40.4003 501.1C38.1242 501.1 35.9807 500.922 33.9758 500.614C33.7679 502.185 33.65 503.848 33.65 505.6ZM29.5606 499.686C29.2993 501.543 29.15 503.516 29.15 505.6C29.15 507.684 29.2993 509.657 29.5606 511.514C25.7401 512.539 22.5765 513.986 20.1297 515.377C18.7009 512.421 17.9 509.104 17.9 505.6C17.9 502.096 18.7009 498.779 20.1297 495.823C22.5762 497.214 25.7399 498.661 29.5606 499.686ZM34.8395 496.193C36.5774 496.451 38.4326 496.6 40.4003 496.6C42.3677 496.6 44.2229 496.451 45.9605 496.194C45.1532 493.092 44.0327 490.474 42.9146 488.378C42.0182 486.697 41.1251 485.355 40.4 484.373C39.6749 485.355 38.7818 486.697 37.8854 488.378C36.7673 490.474 35.6468 493.092 34.8395 496.193ZM51.2393 499.687C51.5006 501.544 51.65 503.517 51.65 505.6C51.65 507.684 51.5006 509.656 51.2393 511.513C55.0598 512.539 58.2236 513.986 60.6704 515.377C62.099 512.421 62.9 509.104 62.9 505.6C62.9 502.096 62.099 498.78 60.6704 495.823C58.2239 497.214 55.0601 498.661 51.2393 499.687ZM58.3148 491.985C56.2343 493.157 53.57 494.371 50.3672 495.26C49.4567 491.689 48.1724 488.673 46.8854 486.26C46.3691 485.292 45.8522 484.421 45.3581 483.648C50.6078 484.829 55.163 487.844 58.3148 491.985ZM30.4329 495.26C27.23 494.371 24.5657 493.157 22.4852 491.985C25.6372 487.844 30.1923 484.829 35.4416 483.648C34.9478 484.421 34.4309 485.292 33.9147 486.26C32.6277 488.673 31.3434 491.689 30.4329 495.26ZM50.3672 515.94C49.4567 519.511 48.1724 522.527 46.8854 524.94C46.3691 525.908 45.8522 526.779 45.3581 527.552C50.6078 526.372 55.163 523.356 58.3151 519.215C56.2346 518.043 53.5703 516.829 50.3672 515.94ZM40.4 532.6C55.3118 532.6 67.4 520.512 67.4 505.6C67.4 490.688 55.3118 478.6 40.4 478.6C25.4883 478.6 13.4 490.688 13.4 505.6C13.4 520.512 25.4883 532.6 40.4 532.6Z" fill="white"/>
<path d="M485 91V82.0265L495 82V91H485Z" fill="#C591FF"/>
<path d="M563 91V82.0265L573 82V91H563Z" fill="#C591FF"/>
<path d="M501 91V82.0265L511 82V91H501Z" fill="#C591FF"/>
<path d="M745.5 456.5L754.474 456.5L754.5 466.5L745.5 466.5L745.5 456.5Z" fill="#C591FF"/>
<path d="M517 91V82.0265L527 82V91H517Z" fill="#C591FF"/>
<path d="M745.5 472.5L754.474 472.5L754.5 482.5L745.5 482.5L745.5 472.5Z" fill="#C591FF"/>
<path d="M533 91V82.0265L543 82V91H533Z" fill="#C591FF"/>
<path d="M745.5 488.5L754.474 488.5L754.5 498.5L745.5 498.5L745.5 488.5Z" fill="#C591FF"/>
<path d="M549 91V82.0265L559 82V91H549Z" fill="#C591FF"/>
<path d="M745.5 504.5L754.474 504.5L754.5 514.5L745.5 514.5L745.5 504.5Z" fill="#C591FF"/>
<path d="M458 50.7321C456.667 49.9623 456.667 48.0377 458 47.2679L473 38.6077C474.333 37.8379 476 38.8001 476 40.3397L476 57.6603C476 59.1999 474.333 60.1621 473 59.3923L458 50.7321Z" fill="#C491FF"/>
<path d="M424 51.2321C422.667 50.4623 422.667 48.5378 424 47.7679L435.25 41.2728C436.583 40.503 438.25 41.4652 438.25 43.0048L438.25 55.9952C438.25 57.5348 436.583 58.497 435.25 57.7272L424 51.2321Z" fill="#C491FF"/>
<path d="M444 88.2321C442.667 87.4623 442.667 85.5378 444 84.7679L455.25 78.2728C456.583 77.503 458.25 78.4652 458.25 80.0048L458.25 92.9952C458.25 94.5348 456.583 95.497 455.25 94.7272L444 88.2321Z" fill="#C491FF"/>
<rect x="-0.5" y="260.5" width="263" height="48" rx="9.5" fill="white" stroke="#B7C1E7"/>
<path d="M48.852 290.084C48.1147 290.084 47.4333 289.963 46.808 289.72C46.1827 289.468 45.6413 289.118 45.184 288.67C44.7267 288.222 44.3673 287.695 44.106 287.088C43.854 286.481 43.728 285.819 43.728 285.1C43.728 284.381 43.854 283.719 44.106 283.112C44.3673 282.505 44.7267 281.978 45.184 281.53C45.6507 281.082 46.1967 280.737 46.822 280.494C47.4473 280.242 48.1287 280.116 48.866 280.116C49.5753 280.116 50.2427 280.237 50.868 280.48C51.4933 280.713 52.0207 281.068 52.45 281.544L51.792 282.202C51.3907 281.791 50.9473 281.497 50.462 281.32C49.9767 281.133 49.454 281.04 48.894 281.04C48.306 281.04 47.76 281.143 47.256 281.348C46.752 281.544 46.3133 281.829 45.94 282.202C45.5667 282.566 45.2727 282.995 45.058 283.49C44.8527 283.975 44.75 284.512 44.75 285.1C44.75 285.688 44.8527 286.229 45.058 286.724C45.2727 287.209 45.5667 287.639 45.94 288.012C46.3133 288.376 46.752 288.661 47.256 288.866C47.76 289.062 48.306 289.16 48.894 289.16C49.454 289.16 49.9767 289.067 50.462 288.88C50.9473 288.693 51.3907 288.395 51.792 287.984L52.45 288.642C52.0207 289.118 51.4933 289.477 50.868 289.72C50.2427 289.963 49.5707 290.084 48.852 290.084ZM57.1164 290.07C56.407 290.07 55.7677 289.911 55.1984 289.594C54.6384 289.267 54.195 288.824 53.8684 288.264C53.5417 287.695 53.3784 287.046 53.3784 286.318C53.3784 285.581 53.5417 284.932 53.8684 284.372C54.195 283.812 54.6384 283.373 55.1984 283.056C55.7584 282.739 56.3977 282.58 57.1164 282.58C57.8444 282.58 58.4884 282.739 59.0484 283.056C59.6177 283.373 60.061 283.812 60.3784 284.372C60.705 284.932 60.8684 285.581 60.8684 286.318C60.8684 287.046 60.705 287.695 60.3784 288.264C60.061 288.824 59.6177 289.267 59.0484 289.594C58.479 289.911 57.835 290.07 57.1164 290.07ZM57.1164 289.188C57.6484 289.188 58.1197 289.071 58.5304 288.838C58.941 288.595 59.263 288.259 59.4964 287.83C59.739 287.391 59.8604 286.887 59.8604 286.318C59.8604 285.739 59.739 285.235 59.4964 284.806C59.263 284.377 58.941 284.045 58.5304 283.812C58.1197 283.569 57.653 283.448 57.1304 283.448C56.6077 283.448 56.141 283.569 55.7304 283.812C55.3197 284.045 54.993 284.377 54.7504 284.806C54.5077 285.235 54.3864 285.739 54.3864 286.318C54.3864 286.887 54.5077 287.391 54.7504 287.83C54.993 288.259 55.3197 288.595 55.7304 288.838C56.141 289.071 56.603 289.188 57.1164 289.188ZM66.6497 282.58C67.2471 282.58 67.7697 282.697 68.2177 282.93C68.6751 283.154 69.0297 283.499 69.2817 283.966C69.5431 284.433 69.6737 285.021 69.6737 285.73V290H68.6797V285.828C68.6797 285.053 68.4837 284.47 68.0917 284.078C67.7091 283.677 67.1677 283.476 66.4677 283.476C65.9451 283.476 65.4877 283.583 65.0957 283.798C64.7131 284.003 64.4144 284.307 64.1997 284.708C63.9944 285.1 63.8917 285.576 63.8917 286.136V290H62.8977V282.65H63.8497V284.666L63.6957 284.288C63.9291 283.756 64.3024 283.341 64.8157 283.042C65.3291 282.734 65.9404 282.58 66.6497 282.58ZM74.1119 290L70.8499 282.65H71.8859L74.8819 289.468H74.3919L77.4299 282.65H78.4099L75.1339 290H74.1119ZM82.7268 290.07C81.9614 290.07 81.2894 289.911 80.7108 289.594C80.1321 289.267 79.6794 288.824 79.3528 288.264C79.0261 287.695 78.8628 287.046 78.8628 286.318C78.8628 285.59 79.0168 284.946 79.3248 284.386C79.6421 283.826 80.0714 283.387 80.6128 283.07C81.1634 282.743 81.7794 282.58 82.4608 282.58C83.1514 282.58 83.7628 282.739 84.2948 283.056C84.8361 283.364 85.2608 283.803 85.5688 284.372C85.8768 284.932 86.0308 285.581 86.0308 286.318C86.0308 286.365 86.0261 286.416 86.0168 286.472C86.0168 286.519 86.0168 286.57 86.0168 286.626H79.6188V285.884H85.4848L85.0928 286.178C85.0928 285.646 84.9761 285.175 84.7428 284.764C84.5188 284.344 84.2108 284.017 83.8188 283.784C83.4268 283.551 82.9741 283.434 82.4608 283.434C81.9568 283.434 81.5041 283.551 81.1028 283.784C80.7014 284.017 80.3888 284.344 80.1648 284.764C79.9408 285.184 79.8288 285.665 79.8288 286.206V286.36C79.8288 286.92 79.9501 287.415 80.1928 287.844C80.4448 288.264 80.7901 288.595 81.2288 288.838C81.6768 289.071 82.1854 289.188 82.7548 289.188C83.2028 289.188 83.6181 289.109 84.0008 288.95C84.3928 288.791 84.7288 288.549 85.0088 288.222L85.5688 288.866C85.2421 289.258 84.8314 289.557 84.3368 289.762C83.8514 289.967 83.3148 290.07 82.7268 290.07ZM88.054 290V282.65H89.006V284.652L88.908 284.302C89.1133 283.742 89.4586 283.317 89.944 283.028C90.4293 282.729 91.0313 282.58 91.75 282.58V283.546C91.7126 283.546 91.6753 283.546 91.638 283.546C91.6006 283.537 91.5633 283.532 91.526 283.532C90.7513 283.532 90.1446 283.77 89.706 284.246C89.2673 284.713 89.048 285.38 89.048 286.248V290H88.054ZM95.6198 290.07C95.0131 290.07 94.4391 289.986 93.8978 289.818C93.3564 289.641 92.9318 289.421 92.6238 289.16L93.0718 288.376C93.3704 288.6 93.7531 288.796 94.2198 288.964C94.6864 289.123 95.1764 289.202 95.6898 289.202C96.3898 289.202 96.8938 289.095 97.2018 288.88C97.5098 288.656 97.6638 288.362 97.6638 287.998C97.6638 287.727 97.5751 287.517 97.3978 287.368C97.2298 287.209 97.0058 287.093 96.7258 287.018C96.4458 286.934 96.1331 286.864 95.7878 286.808C95.4424 286.752 95.0971 286.687 94.7518 286.612C94.4158 286.537 94.1078 286.43 93.8278 286.29C93.5478 286.141 93.3191 285.94 93.1418 285.688C92.9738 285.436 92.8898 285.1 92.8898 284.68C92.8898 284.279 93.0018 283.919 93.2258 283.602C93.4498 283.285 93.7764 283.037 94.2058 282.86C94.6444 282.673 95.1764 282.58 95.8018 282.58C96.2778 282.58 96.7538 282.645 97.2298 282.776C97.7058 282.897 98.0978 283.061 98.4058 283.266L97.9718 284.064C97.6451 283.84 97.2951 283.681 96.9218 283.588C96.5484 283.485 96.1751 283.434 95.8018 283.434C95.1391 283.434 94.6491 283.551 94.3318 283.784C94.0238 284.008 93.8698 284.297 93.8698 284.652C93.8698 284.932 93.9538 285.151 94.1218 285.31C94.2991 285.469 94.5278 285.595 94.8078 285.688C95.0971 285.772 95.4098 285.842 95.7458 285.898C96.0911 285.954 96.4318 286.024 96.7678 286.108C97.1131 286.183 97.4258 286.29 97.7058 286.43C97.9951 286.561 98.2238 286.752 98.3918 287.004C98.5691 287.247 98.6578 287.569 98.6578 287.97C98.6578 288.399 98.5364 288.773 98.2938 289.09C98.0604 289.398 97.7151 289.641 97.2578 289.818C96.8098 289.986 96.2638 290.07 95.6198 290.07ZM100.482 290V282.65H101.476V290H100.482ZM100.986 281.026C100.78 281.026 100.608 280.956 100.468 280.816C100.328 280.676 100.258 280.508 100.258 280.312C100.258 280.116 100.328 279.953 100.468 279.822C100.608 279.682 100.78 279.612 100.986 279.612C101.191 279.612 101.364 279.677 101.504 279.808C101.644 279.939 101.714 280.102 101.714 280.298C101.714 280.503 101.644 280.676 101.504 280.816C101.373 280.956 101.2 281.026 100.986 281.026ZM107.237 290.07C106.528 290.07 105.889 289.911 105.319 289.594C104.759 289.267 104.316 288.824 103.989 288.264C103.663 287.695 103.499 287.046 103.499 286.318C103.499 285.581 103.663 284.932 103.989 284.372C104.316 283.812 104.759 283.373 105.319 283.056C105.879 282.739 106.519 282.58 107.237 282.58C107.965 282.58 108.609 282.739 109.169 283.056C109.739 283.373 110.182 283.812 110.499 284.372C110.826 284.932 110.989 285.581 110.989 286.318C110.989 287.046 110.826 287.695 110.499 288.264C110.182 288.824 109.739 289.267 109.169 289.594C108.6 289.911 107.956 290.07 107.237 290.07ZM107.237 289.188C107.769 289.188 108.241 289.071 108.651 288.838C109.062 288.595 109.384 288.259 109.617 287.83C109.86 287.391 109.981 286.887 109.981 286.318C109.981 285.739 109.86 285.235 109.617 284.806C109.384 284.377 109.062 284.045 108.651 283.812C108.241 283.569 107.774 283.448 107.251 283.448C106.729 283.448 106.262 283.569 105.851 283.812C105.441 284.045 105.114 284.377 104.871 284.806C104.629 285.235 104.507 285.739 104.507 286.318C104.507 286.887 104.629 287.391 104.871 287.83C105.114 288.259 105.441 288.595 105.851 288.838C106.262 289.071 106.724 289.188 107.237 289.188ZM116.771 282.58C117.368 282.58 117.891 282.697 118.339 282.93C118.796 283.154 119.151 283.499 119.403 283.966C119.664 284.433 119.795 285.021 119.795 285.73V290H118.801V285.828C118.801 285.053 118.605 284.47 118.213 284.078C117.83 283.677 117.289 283.476 116.589 283.476C116.066 283.476 115.609 283.583 115.217 283.798C114.834 284.003 114.535 284.307 114.321 284.708C114.115 285.1 114.013 285.576 114.013 286.136V290H113.019V282.65H113.971V284.666L113.817 284.288C114.05 283.756 114.423 283.341 114.937 283.042C115.45 282.734 116.061 282.58 116.771 282.58ZM128.034 290L124.772 282.65H125.808L128.804 289.468H128.314L131.352 282.65H132.332L129.056 290H128.034ZM133.732 290V282.65H134.726V290H133.732ZM134.236 281.026C134.03 281.026 133.858 280.956 133.718 280.816C133.578 280.676 133.508 280.508 133.508 280.312C133.508 280.116 133.578 279.953 133.718 279.822C133.858 279.682 134.03 279.612 134.236 279.612C134.441 279.612 134.614 279.677 134.754 279.808C134.894 279.939 134.964 280.102 134.964 280.298C134.964 280.503 134.894 280.676 134.754 280.816C134.623 280.956 134.45 281.026 134.236 281.026ZM139.465 290.07C138.859 290.07 138.285 289.986 137.743 289.818C137.202 289.641 136.777 289.421 136.469 289.16L136.917 288.376C137.216 288.6 137.599 288.796 138.065 288.964C138.532 289.123 139.022 289.202 139.535 289.202C140.235 289.202 140.739 289.095 141.047 288.88C141.355 288.656 141.509 288.362 141.509 287.998C141.509 287.727 141.421 287.517 141.243 287.368C141.075 287.209 140.851 287.093 140.571 287.018C140.291 286.934 139.979 286.864 139.633 286.808C139.288 286.752 138.943 286.687 138.597 286.612C138.261 286.537 137.953 286.43 137.673 286.29C137.393 286.141 137.165 285.94 136.987 285.688C136.819 285.436 136.735 285.1 136.735 284.68C136.735 284.279 136.847 283.919 137.071 283.602C137.295 283.285 137.622 283.037 138.051 282.86C138.49 282.673 139.022 282.58 139.647 282.58C140.123 282.58 140.599 282.645 141.075 282.776C141.551 282.897 141.943 283.061 142.251 283.266L141.817 284.064C141.491 283.84 141.141 283.681 140.767 283.588C140.394 283.485 140.021 283.434 139.647 283.434C138.985 283.434 138.495 283.551 138.177 283.784C137.869 284.008 137.715 284.297 137.715 284.652C137.715 284.932 137.799 285.151 137.967 285.31C138.145 285.469 138.373 285.595 138.653 285.688C138.943 285.772 139.255 285.842 139.591 285.898C139.937 285.954 140.277 286.024 140.613 286.108C140.959 286.183 141.271 286.29 141.551 286.43C141.841 286.561 142.069 286.752 142.237 287.004C142.415 287.247 142.503 287.569 142.503 287.97C142.503 288.399 142.382 288.773 142.139 289.09C141.906 289.398 141.561 289.641 141.103 289.818C140.655 289.986 140.109 290.07 139.465 290.07ZM144.327 290V282.65H145.321V290H144.327ZM144.831 281.026C144.626 281.026 144.453 280.956 144.313 280.816C144.173 280.676 144.103 280.508 144.103 280.312C144.103 280.116 144.173 279.953 144.313 279.822C144.453 279.682 144.626 279.612 144.831 279.612C145.037 279.612 145.209 279.677 145.349 279.808C145.489 279.939 145.559 280.102 145.559 280.298C145.559 280.503 145.489 280.676 145.349 280.816C145.219 280.956 145.046 281.026 144.831 281.026ZM150.411 290.07C149.721 290.07 149.189 289.883 148.815 289.51C148.442 289.137 148.255 288.609 148.255 287.928V281.026H149.249V287.872C149.249 288.301 149.357 288.633 149.571 288.866C149.795 289.099 150.113 289.216 150.523 289.216C150.962 289.216 151.326 289.09 151.615 288.838L151.965 289.552C151.769 289.729 151.531 289.86 151.251 289.944C150.981 290.028 150.701 290.07 150.411 290.07ZM146.939 283.476V282.65H151.489V283.476H146.939ZM156.637 290.07C155.872 290.07 155.2 289.911 154.621 289.594C154.042 289.267 153.59 288.824 153.263 288.264C152.936 287.695 152.773 287.046 152.773 286.318C152.773 285.59 152.927 284.946 153.235 284.386C153.552 283.826 153.982 283.387 154.523 283.07C155.074 282.743 155.69 282.58 156.371 282.58C157.062 282.58 157.673 282.739 158.205 283.056C158.746 283.364 159.171 283.803 159.479 284.372C159.787 284.932 159.941 285.581 159.941 286.318C159.941 286.365 159.936 286.416 159.927 286.472C159.927 286.519 159.927 286.57 159.927 286.626H153.529V285.884H159.395L159.003 286.178C159.003 285.646 158.886 285.175 158.653 284.764C158.429 284.344 158.121 284.017 157.729 283.784C157.337 283.551 156.884 283.434 156.371 283.434C155.867 283.434 155.414 283.551 155.013 283.784C154.612 284.017 154.299 284.344 154.075 284.764C153.851 285.184 153.739 285.665 153.739 286.206V286.36C153.739 286.92 153.86 287.415 154.103 287.844C154.355 288.264 154.7 288.595 155.139 288.838C155.587 289.071 156.096 289.188 156.665 289.188C157.113 289.188 157.528 289.109 157.911 288.95C158.303 288.791 158.639 288.549 158.919 288.222L159.479 288.866C159.152 289.258 158.742 289.557 158.247 289.762C157.762 289.967 157.225 290.07 156.637 290.07ZM165.002 290.07C164.377 290.07 163.831 289.953 163.364 289.72C162.897 289.487 162.533 289.137 162.272 288.67C162.02 288.203 161.894 287.62 161.894 286.92V282.65H162.888V286.808C162.888 287.592 163.079 288.185 163.462 288.586C163.854 288.978 164.4 289.174 165.1 289.174C165.613 289.174 166.057 289.071 166.43 288.866C166.813 288.651 167.102 288.343 167.298 287.942C167.503 287.541 167.606 287.06 167.606 286.5V282.65H168.6V290H167.648V287.984L167.802 288.348C167.569 288.889 167.205 289.314 166.71 289.622C166.225 289.921 165.655 290.07 165.002 290.07ZM171.37 290V282.65H172.322V284.652L172.224 284.302C172.43 283.742 172.775 283.317 173.26 283.028C173.746 282.729 174.348 282.58 175.066 282.58V283.546C175.029 283.546 174.992 283.546 174.954 283.546C174.917 283.537 174.88 283.532 174.842 283.532C174.068 283.532 173.461 283.77 173.022 284.246C172.584 284.713 172.364 285.38 172.364 286.248V290H171.37ZM178.936 290.07C178.33 290.07 177.756 289.986 177.214 289.818C176.673 289.641 176.248 289.421 175.94 289.16L176.388 288.376C176.687 288.6 177.07 288.796 177.536 288.964C178.003 289.123 178.493 289.202 179.006 289.202C179.706 289.202 180.21 289.095 180.518 288.88C180.826 288.656 180.98 288.362 180.98 287.998C180.98 287.727 180.892 287.517 180.714 287.368C180.546 287.209 180.322 287.093 180.042 287.018C179.762 286.934 179.45 286.864 179.104 286.808C178.759 286.752 178.414 286.687 178.068 286.612C177.732 286.537 177.424 286.43 177.144 286.29C176.864 286.141 176.636 285.94 176.458 285.688C176.29 285.436 176.206 285.1 176.206 284.68C176.206 284.279 176.318 283.919 176.542 283.602C176.766 283.285 177.093 283.037 177.522 282.86C177.961 282.673 178.493 282.58 179.118 282.58C179.594 282.58 180.07 282.645 180.546 282.776C181.022 282.897 181.414 283.061 181.722 283.266L181.288 284.064C180.962 283.84 180.612 283.681 180.238 283.588C179.865 283.485 179.492 283.434 179.118 283.434C178.456 283.434 177.966 283.551 177.648 283.784C177.34 284.008 177.186 284.297 177.186 284.652C177.186 284.932 177.27 285.151 177.438 285.31C177.616 285.469 177.844 285.595 178.124 285.688C178.414 285.772 178.726 285.842 179.062 285.898C179.408 285.954 179.748 286.024 180.084 286.108C180.43 286.183 180.742 286.29 181.022 286.43C181.312 286.561 181.54 286.752 181.708 287.004C181.886 287.247 181.974 287.569 181.974 287.97C181.974 288.399 181.853 288.773 181.61 289.09C181.377 289.398 181.032 289.641 180.574 289.818C180.126 289.986 179.58 290.07 178.936 290.07ZM191.116 283.434L192.992 286.178L191.116 288.95H190.178L191.984 286.178L190.178 283.434H191.116ZM192.194 285.8V286.57H187.112V285.8H192.194ZM202.573 290.07C201.845 290.07 201.191 289.911 200.613 289.594C200.043 289.267 199.595 288.824 199.269 288.264C198.942 287.695 198.779 287.046 198.779 286.318C198.779 285.581 198.942 284.932 199.269 284.372C199.595 283.812 200.043 283.373 200.613 283.056C201.191 282.739 201.845 282.58 202.573 282.58C203.198 282.58 203.763 282.701 204.267 282.944C204.771 283.187 205.167 283.551 205.457 284.036L204.715 284.54C204.463 284.167 204.15 283.891 203.777 283.714C203.403 283.537 202.997 283.448 202.559 283.448C202.036 283.448 201.565 283.569 201.145 283.812C200.725 284.045 200.393 284.377 200.151 284.806C199.908 285.235 199.787 285.739 199.787 286.318C199.787 286.897 199.908 287.401 200.151 287.83C200.393 288.259 200.725 288.595 201.145 288.838C201.565 289.071 202.036 289.188 202.559 289.188C202.997 289.188 203.403 289.099 203.777 288.922C204.15 288.745 204.463 288.474 204.715 288.11L205.457 288.614C205.167 289.09 204.771 289.454 204.267 289.706C203.763 289.949 203.198 290.07 202.573 290.07ZM207.3 290V279.612H208.294V290H207.3ZM211.06 290V282.65H212.054V290H211.06ZM211.564 281.026C211.358 281.026 211.186 280.956 211.046 280.816C210.906 280.676 210.836 280.508 210.836 280.312C210.836 280.116 210.906 279.953 211.046 279.822C211.186 279.682 211.358 279.612 211.564 279.612C211.769 279.612 211.942 279.677 212.082 279.808C212.222 279.939 212.292 280.102 212.292 280.298C212.292 280.503 212.222 280.676 212.082 280.816C211.951 280.956 211.778 281.026 211.564 281.026ZM217.942 290.07C217.176 290.07 216.504 289.911 215.926 289.594C215.347 289.267 214.894 288.824 214.568 288.264C214.241 287.695 214.078 287.046 214.078 286.318C214.078 285.59 214.232 284.946 214.54 284.386C214.857 283.826 215.286 283.387 215.828 283.07C216.378 282.743 216.994 282.58 217.676 282.58C218.366 282.58 218.978 282.739 219.51 283.056C220.051 283.364 220.476 283.803 220.784 284.372C221.092 284.932 221.246 285.581 221.246 286.318C221.246 286.365 221.241 286.416 221.232 286.472C221.232 286.519 221.232 286.57 221.232 286.626H214.834V285.884H220.7L220.308 286.178C220.308 285.646 220.191 285.175 219.958 284.764C219.734 284.344 219.426 284.017 219.034 283.784C218.642 283.551 218.189 283.434 217.676 283.434C217.172 283.434 216.719 283.551 216.318 283.784C215.916 284.017 215.604 284.344 215.38 284.764C215.156 285.184 215.044 285.665 215.044 286.206V286.36C215.044 286.92 215.165 287.415 215.408 287.844C215.66 288.264 216.005 288.595 216.444 288.838C216.892 289.071 217.4 289.188 217.97 289.188C218.418 289.188 218.833 289.109 219.216 288.95C219.608 288.791 219.944 288.549 220.224 288.222L220.784 288.866C220.457 289.258 220.046 289.557 219.552 289.762C219.066 289.967 218.53 290.07 217.942 290.07ZM227.021 282.58C227.618 282.58 228.141 282.697 228.589 282.93C229.046 283.154 229.401 283.499 229.653 283.966C229.914 284.433 230.045 285.021 230.045 285.73V290H229.051V285.828C229.051 285.053 228.855 284.47 228.463 284.078C228.08 283.677 227.539 283.476 226.839 283.476C226.316 283.476 225.859 283.583 225.467 283.798C225.084 284.003 224.785 284.307 224.571 284.708C224.365 285.1 224.263 285.576 224.263 286.136V290H223.269V282.65H224.221V284.666L224.067 284.288C224.3 283.756 224.673 283.341 225.187 283.042C225.7 282.734 226.311 282.58 227.021 282.58ZM235.054 290.07C234.363 290.07 233.831 289.883 233.458 289.51C233.084 289.137 232.898 288.609 232.898 287.928V281.026H233.892V287.872C233.892 288.301 233.999 288.633 234.214 288.866C234.438 289.099 234.755 289.216 235.166 289.216C235.604 289.216 235.968 289.09 236.258 288.838L236.608 289.552C236.412 289.729 236.174 289.86 235.894 289.944C235.623 290.028 235.343 290.07 235.054 290.07ZM231.582 283.476V282.65H236.132V283.476H231.582ZM240.391 290.07C239.785 290.07 239.211 289.986 238.669 289.818C238.128 289.641 237.703 289.421 237.395 289.16L237.843 288.376C238.142 288.6 238.525 288.796 238.991 288.964C239.458 289.123 239.948 289.202 240.461 289.202C241.161 289.202 241.665 289.095 241.973 288.88C242.281 288.656 242.435 288.362 242.435 287.998C242.435 287.727 242.347 287.517 242.169 287.368C242.001 287.209 241.777 287.093 241.497 287.018C241.217 286.934 240.905 286.864 240.559 286.808C240.214 286.752 239.869 286.687 239.523 286.612C239.187 286.537 238.879 286.43 238.599 286.29C238.319 286.141 238.091 285.94 237.913 285.688C237.745 285.436 237.661 285.1 237.661 284.68C237.661 284.279 237.773 283.919 237.997 283.602C238.221 283.285 238.548 283.037 238.977 282.86C239.416 282.673 239.948 282.58 240.573 282.58C241.049 282.58 241.525 282.645 242.001 282.776C242.477 282.897 242.869 283.061 243.177 283.266L242.743 284.064C242.417 283.84 242.067 283.681 241.693 283.588C241.32 283.485 240.947 283.434 240.573 283.434C239.911 283.434 239.421 283.551 239.103 283.784C238.795 284.008 238.641 284.297 238.641 284.652C238.641 284.932 238.725 285.151 238.893 285.31C239.071 285.469 239.299 285.595 239.579 285.688C239.869 285.772 240.181 285.842 240.517 285.898C240.863 285.954 241.203 286.024 241.539 286.108C241.885 286.183 242.197 286.29 242.477 286.43C242.767 286.561 242.995 286.752 243.163 287.004C243.341 287.247 243.429 287.569 243.429 287.97C243.429 288.399 243.308 288.773 243.065 289.09C242.832 289.398 242.487 289.641 242.029 289.818C241.581 289.986 241.035 290.07 240.391 290.07Z" fill="#2D1F67"/>
<rect x="7" y="269" width="31" height="31" rx="5" fill="#9C51F1"/>
<path d="M21.9792 274.604H23.0208V293.354H21.9792V274.604Z" fill="#37474F"/>
<path d="M23.4464 289.069L24.1828 289.805L18.9537 295.034L18.2172 294.298L23.4464 289.069Z" fill="#37474F"/>
<path d="M26.8016 294.304L26.0651 295.041L20.8359 289.812L21.5724 289.075L26.8016 294.304Z" fill="#37474F"/>
<path d="M12.0833 276.167H32.9167V290.75H12.0833V276.167Z" fill="#CFD8DC"/>
<path d="M11.5625 275.646H33.4375V277.729H11.5625V275.646ZM11.5625 290.229H33.4375V291.271H11.5625V290.229Z" fill="#607D8B"/>
<path d="M25.625 294.656C25.625 294.863 25.7073 295.062 25.8538 295.209C26.0003 295.355 26.199 295.438 26.4062 295.438C26.6135 295.438 26.8122 295.355 26.9587 295.209C27.1052 295.062 27.1875 294.863 27.1875 294.656C27.1875 294.449 27.1052 294.25 26.9587 294.104C26.8122 293.957 26.6135 293.875 26.4062 293.875C26.199 293.875 26.0003 293.957 25.8538 294.104C25.7073 294.25 25.625 294.449 25.625 294.656Z" fill="#607D8B"/>
<path d="M17.8125 294.656C17.8125 294.863 17.8948 295.062 18.0413 295.209C18.1878 295.355 18.3865 295.438 18.5938 295.438C18.801 295.438 18.9997 295.355 19.1462 295.209C19.2927 295.062 19.375 294.863 19.375 294.656C19.375 294.449 19.2927 294.25 19.1462 294.104C18.9997 293.957 18.801 293.875 18.5938 293.875C18.3865 293.875 18.1878 293.957 18.0413 294.104C17.8948 294.25 17.8125 294.449 17.8125 294.656Z" fill="#607D8B"/>
<path d="M26.6146 281.844L23.5417 284.969L20.4167 281.844L16.1979 286.01L17.3437 287.156L20.4167 284.031L23.5417 287.156L27.7604 282.99L26.6146 281.844Z" fill="#11C54A"/>
<path d="M28.75 284.5L25.1042 280.854H28.75V284.5Z" fill="#11C54A"/>
<circle cx="473" cy="87" r="6" fill="#E521D2"/>
<path d="M329.584 401H120.416C117.425 401 115 402.801 115 405.024V405.976C115 408.199 117.425 410 120.416 410H329.584C332.575 410 335 408.199 335 405.976V405.024C335 402.801 332.575 401 329.584 401Z" fill="#7E57FF"/>
<path d="M572.12 360H460.88C459.29 360 458 361.601 458 363.576V364.424C458 366.399 459.29 368 460.88 368H572.12C573.711 368 575 366.399 575 364.424V363.576C575 361.601 573.711 360 572.12 360Z" fill="white"/>
<path d="M329.584 435H120.416C117.425 435 115 436.801 115 439.024V439.976C115 442.199 117.425 444 120.416 444H329.584C332.575 444 335 442.199 335 439.976V439.024C335 436.801 332.575 435 329.584 435Z" fill="#7E57FF"/>
<path d="M572.12 391H460.88C459.29 391 458 392.601 458 394.576V395.424C458 397.399 459.29 399 460.88 399H572.12C573.711 399 575 397.399 575 395.424V394.576C575 392.601 573.711 391 572.12 391Z" fill="white"/>
<path d="M330.584 473H121.416C118.425 473 116 474.801 116 477.024V477.976C116 480.199 118.425 482 121.416 482H330.584C333.575 482 336 480.199 336 477.976V477.024C336 474.801 333.575 473 330.584 473Z" fill="#7E57FF"/>
<path d="M571.12 425H459.88C458.29 425 457 426.601 457 428.576V429.424C457 431.399 458.29 433 459.88 433H571.12C572.711 433 574 431.399 574 429.424V428.576C574 426.601 572.711 425 571.12 425Z" fill="white"/>
<path d="M571.12 456H459.88C458.29 456 457 457.601 457 459.576V460.424C457 462.399 458.29 464 459.88 464H571.12C572.711 464 574 462.399 574 460.424V459.576C574 457.601 572.711 456 571.12 456Z" fill="white"/>
<path d="M103.044 394H70.9555C69.8755 394 69 395.114 69 396.487V414.513C69 415.886 69.8755 417 70.9555 417H103.044C104.124 417 105 415.886 105 414.513V396.487C105 395.114 104.124 394 103.044 394Z" fill="#7E57FF"/>
<path d="M447.262 354H418.738C417.778 354 417 355.017 417 356.271V372.729C417 373.983 417.778 375 418.738 375H447.262C448.222 375 449 373.983 449 372.729V356.271C449 355.017 448.222 354 447.262 354Z" fill="white"/>
<path d="M103.044 429H70.9555C69.8755 429 69 430.114 69 431.487V449.513C69 450.886 69.8755 452 70.9555 452H103.044C104.124 452 105 450.886 105 449.513V431.487C105 430.114 104.124 429 103.044 429Z" fill="#7E57FF"/>
<path d="M447.262 385H418.738C417.778 385 417 386.017 417 387.271V403.729C417 404.983 417.778 406 418.738 406H447.262C448.222 406 449 404.983 449 403.729V387.271C449 386.017 448.222 385 447.262 385Z" fill="white"/>
<path d="M104.044 467H71.9555C70.8755 467 70 468.114 70 469.487V487.513C70 488.886 70.8755 490 71.9555 490H104.044C105.124 490 106 488.886 106 487.513V469.487C106 468.114 105.124 467 104.044 467Z" fill="#7E57FF"/>
<path d="M150.044 490H117.956C116.876 490 116 491.114 116 492.487V510.513C116 511.886 116.876 513 117.956 513H150.044C151.124 513 152 511.886 152 510.513V492.487C152 491.114 151.124 490 150.044 490Z" fill="#7E57FF"/>
<path d="M196.044 490H163.956C162.876 490 162 491.114 162 492.487V510.513C162 511.886 162.876 513 163.956 513H196.044C197.124 513 198 511.886 198 510.513V492.487C198 491.114 197.124 490 196.044 490Z" fill="#7E57FF"/>
<path d="M242.044 490H209.956C208.876 490 208 491.114 208 492.487V510.513C208 511.886 208.876 513 209.956 513H242.044C243.124 513 244 511.886 244 510.513V492.487C244 491.114 243.124 490 242.044 490Z" fill="#7E57FF"/>
<path d="M288.044 490H255.956C254.876 490 254 491.114 254 492.487V510.513C254 511.886 254.876 513 255.956 513H288.044C289.124 513 290 511.886 290 510.513V492.487C290 491.114 289.124 490 288.044 490Z" fill="#7E57FF"/>
<path d="M334.044 490H301.956C300.876 490 300 491.114 300 492.487V510.513C300 511.886 300.876 513 301.956 513H334.044C335.124 513 336 511.886 336 510.513V492.487C336 491.114 335.124 490 334.044 490Z" fill="#7E57FF"/>
<path d="M447.262 419H418.738C417.778 419 417 420.017 417 421.271V437.729C417 438.983 417.778 440 418.738 440H447.262C448.222 440 449 438.983 449 437.729V421.271C449 420.017 448.222 419 447.262 419Z" fill="white"/>
<path d="M447.262 450H418.738C417.778 450 417 451.017 417 452.271V468.729C417 469.983 417.778 471 418.738 471H447.262C448.222 471 449 469.983 449 468.729V452.271C449 451.017 448.222 450 447.262 450Z" fill="white"/>
<rect x="552.5" y="389.5" width="232" height="48" rx="9.5" fill="white" stroke="#B7C1E7"/>
<path d="M600.298 419.084C599.57 419.084 598.87 418.967 598.198 418.734C597.535 418.491 597.022 418.183 596.658 417.81L597.064 417.012C597.409 417.348 597.871 417.633 598.45 417.866C599.038 418.09 599.654 418.202 600.298 418.202C600.914 418.202 601.413 418.127 601.796 417.978C602.188 417.819 602.473 417.609 602.65 417.348C602.837 417.087 602.93 416.797 602.93 416.48C602.93 416.097 602.818 415.789 602.594 415.556C602.379 415.323 602.095 415.141 601.74 415.01C601.385 414.87 600.993 414.749 600.564 414.646C600.135 414.543 599.705 414.436 599.276 414.324C598.847 414.203 598.45 414.044 598.086 413.848C597.731 413.652 597.442 413.395 597.218 413.078C597.003 412.751 596.896 412.327 596.896 411.804C596.896 411.319 597.022 410.875 597.274 410.474C597.535 410.063 597.932 409.737 598.464 409.494C598.996 409.242 599.677 409.116 600.508 409.116C601.059 409.116 601.605 409.195 602.146 409.354C602.687 409.503 603.154 409.713 603.546 409.984L603.196 410.81C602.776 410.53 602.328 410.325 601.852 410.194C601.385 410.063 600.933 409.998 600.494 409.998C599.906 409.998 599.421 410.077 599.038 410.236C598.655 410.395 598.371 410.609 598.184 410.88C598.007 411.141 597.918 411.44 597.918 411.776C597.918 412.159 598.025 412.467 598.24 412.7C598.464 412.933 598.753 413.115 599.108 413.246C599.472 413.377 599.869 413.493 600.298 413.596C600.727 413.699 601.152 413.811 601.572 413.932C602.001 414.053 602.393 414.212 602.748 414.408C603.112 414.595 603.401 414.847 603.616 415.164C603.84 415.481 603.952 415.897 603.952 416.41C603.952 416.886 603.821 417.329 603.56 417.74C603.299 418.141 602.897 418.468 602.356 418.72C601.824 418.963 601.138 419.084 600.298 419.084ZM605.999 419V411.65H606.993V419H605.999ZM606.503 410.026C606.298 410.026 606.125 409.956 605.985 409.816C605.845 409.676 605.775 409.508 605.775 409.312C605.775 409.116 605.845 408.953 605.985 408.822C606.125 408.682 606.298 408.612 606.503 408.612C606.709 408.612 606.881 408.677 607.021 408.808C607.161 408.939 607.231 409.102 607.231 409.298C607.231 409.503 607.161 409.676 607.021 409.816C606.891 409.956 606.718 410.026 606.503 410.026ZM612.083 419.07C611.392 419.07 610.86 418.883 610.487 418.51C610.114 418.137 609.927 417.609 609.927 416.928V410.026H610.921V416.872C610.921 417.301 611.028 417.633 611.243 417.866C611.467 418.099 611.784 418.216 612.195 418.216C612.634 418.216 612.998 418.09 613.287 417.838L613.637 418.552C613.441 418.729 613.203 418.86 612.923 418.944C612.652 419.028 612.372 419.07 612.083 419.07ZM608.611 412.476V411.65H613.161V412.476H608.611ZM618.309 419.07C617.543 419.07 616.871 418.911 616.293 418.594C615.714 418.267 615.261 417.824 614.935 417.264C614.608 416.695 614.445 416.046 614.445 415.318C614.445 414.59 614.599 413.946 614.907 413.386C615.224 412.826 615.653 412.387 616.195 412.07C616.745 411.743 617.361 411.58 618.043 411.58C618.733 411.58 619.345 411.739 619.877 412.056C620.418 412.364 620.843 412.803 621.151 413.372C621.459 413.932 621.613 414.581 621.613 415.318C621.613 415.365 621.608 415.416 621.599 415.472C621.599 415.519 621.599 415.57 621.599 415.626H615.201V414.884H621.067L620.675 415.178C620.675 414.646 620.558 414.175 620.325 413.764C620.101 413.344 619.793 413.017 619.401 412.784C619.009 412.551 618.556 412.434 618.043 412.434C617.539 412.434 617.086 412.551 616.685 412.784C616.283 413.017 615.971 413.344 615.747 413.764C615.523 414.184 615.411 414.665 615.411 415.206V415.36C615.411 415.92 615.532 416.415 615.775 416.844C616.027 417.264 616.372 417.595 616.811 417.838C617.259 418.071 617.767 418.188 618.337 418.188C618.785 418.188 619.2 418.109 619.583 417.95C619.975 417.791 620.311 417.549 620.591 417.222L621.151 417.866C620.824 418.258 620.413 418.557 619.919 418.762C619.433 418.967 618.897 419.07 618.309 419.07ZM636.484 411.58C637.081 411.58 637.599 411.697 638.038 411.93C638.486 412.154 638.831 412.499 639.074 412.966C639.326 413.433 639.452 414.021 639.452 414.73V419H638.458V414.828C638.458 414.053 638.271 413.47 637.898 413.078C637.534 412.677 637.016 412.476 636.344 412.476C635.84 412.476 635.401 412.583 635.028 412.798C634.664 413.003 634.379 413.307 634.174 413.708C633.978 414.1 633.88 414.576 633.88 415.136V419H632.886V414.828C632.886 414.053 632.699 413.47 632.326 413.078C631.953 412.677 631.43 412.476 630.758 412.476C630.263 412.476 629.829 412.583 629.456 412.798C629.083 413.003 628.793 413.307 628.588 413.708C628.392 414.1 628.294 414.576 628.294 415.136V419H627.3V411.65H628.252V413.638L628.098 413.288C628.322 412.756 628.681 412.341 629.176 412.042C629.68 411.734 630.273 411.58 630.954 411.58C631.673 411.58 632.284 411.762 632.788 412.126C633.292 412.481 633.619 413.017 633.768 413.736L633.376 413.582C633.591 412.985 633.969 412.504 634.51 412.14C635.061 411.767 635.719 411.58 636.484 411.58ZM645.144 419.07C644.434 419.07 643.795 418.911 643.226 418.594C642.666 418.267 642.222 417.824 641.896 417.264C641.569 416.695 641.406 416.046 641.406 415.318C641.406 414.581 641.569 413.932 641.896 413.372C642.222 412.812 642.666 412.373 643.226 412.056C643.786 411.739 644.425 411.58 645.144 411.58C645.872 411.58 646.516 411.739 647.076 412.056C647.645 412.373 648.088 412.812 648.406 413.372C648.732 413.932 648.896 414.581 648.896 415.318C648.896 416.046 648.732 416.695 648.406 417.264C648.088 417.824 647.645 418.267 647.076 418.594C646.506 418.911 645.862 419.07 645.144 419.07ZM645.144 418.188C645.676 418.188 646.147 418.071 646.558 417.838C646.968 417.595 647.29 417.259 647.524 416.83C647.766 416.391 647.888 415.887 647.888 415.318C647.888 414.739 647.766 414.235 647.524 413.806C647.29 413.377 646.968 413.045 646.558 412.812C646.147 412.569 645.68 412.448 645.158 412.448C644.635 412.448 644.168 412.569 643.758 412.812C643.347 413.045 643.02 413.377 642.778 413.806C642.535 414.235 642.414 414.739 642.414 415.318C642.414 415.887 642.535 416.391 642.778 416.83C643.02 417.259 643.347 417.595 643.758 417.838C644.168 418.071 644.63 418.188 645.144 418.188ZM653.851 419.07C653.151 419.07 652.521 418.911 651.961 418.594C651.41 418.277 650.976 417.838 650.659 417.278C650.342 416.709 650.183 416.055 650.183 415.318C650.183 414.571 650.342 413.918 650.659 413.358C650.976 412.798 651.41 412.364 651.961 412.056C652.521 411.739 653.151 411.58 653.851 411.58C654.495 411.58 655.069 411.725 655.573 412.014C656.086 412.303 656.492 412.728 656.791 413.288C657.099 413.839 657.253 414.515 657.253 415.318C657.253 416.111 657.104 416.788 656.805 417.348C656.506 417.908 656.1 418.337 655.587 418.636C655.083 418.925 654.504 419.07 653.851 419.07ZM653.921 418.188C654.444 418.188 654.91 418.071 655.321 417.838C655.741 417.595 656.068 417.259 656.301 416.83C656.544 416.391 656.665 415.887 656.665 415.318C656.665 414.739 656.544 414.235 656.301 413.806C656.068 413.377 655.741 413.045 655.321 412.812C654.91 412.569 654.444 412.448 653.921 412.448C653.408 412.448 652.946 412.569 652.535 412.812C652.124 413.045 651.798 413.377 651.555 413.806C651.312 414.235 651.191 414.739 651.191 415.318C651.191 415.887 651.312 416.391 651.555 416.83C651.798 417.259 652.124 417.595 652.535 417.838C652.946 418.071 653.408 418.188 653.921 418.188ZM656.693 419V416.788L656.791 415.304L656.651 413.82V408.612H657.645V419H656.693ZM663.535 419.07C662.77 419.07 662.098 418.911 661.519 418.594C660.941 418.267 660.488 417.824 660.161 417.264C659.835 416.695 659.671 416.046 659.671 415.318C659.671 414.59 659.825 413.946 660.133 413.386C660.451 412.826 660.88 412.387 661.421 412.07C661.972 411.743 662.588 411.58 663.269 411.58C663.96 411.58 664.571 411.739 665.103 412.056C665.645 412.364 666.069 412.803 666.377 413.372C666.685 413.932 666.839 414.581 666.839 415.318C666.839 415.365 666.835 415.416 666.825 415.472C666.825 415.519 666.825 415.57 666.825 415.626H660.427V414.884H666.293L665.901 415.178C665.901 414.646 665.785 414.175 665.551 413.764C665.327 413.344 665.019 413.017 664.627 412.784C664.235 412.551 663.783 412.434 663.269 412.434C662.765 412.434 662.313 412.551 661.911 412.784C661.51 413.017 661.197 413.344 660.973 413.764C660.749 414.184 660.637 414.665 660.637 415.206V415.36C660.637 415.92 660.759 416.415 661.001 416.844C661.253 417.264 661.599 417.595 662.037 417.838C662.485 418.071 662.994 418.188 663.563 418.188C664.011 418.188 664.427 418.109 664.809 417.95C665.201 417.791 665.537 417.549 665.817 417.222L666.377 417.866C666.051 418.258 665.64 418.557 665.145 418.762C664.66 418.967 664.123 419.07 663.535 419.07ZM668.863 419V411.65H669.815V413.652L669.717 413.302C669.922 412.742 670.267 412.317 670.753 412.028C671.238 411.729 671.84 411.58 672.559 411.58V412.546C672.521 412.546 672.484 412.546 672.447 412.546C672.409 412.537 672.372 412.532 672.335 412.532C671.56 412.532 670.953 412.77 670.515 413.246C670.076 413.713 669.857 414.38 669.857 415.248V419H668.863ZM678.124 411.58C678.722 411.58 679.244 411.697 679.692 411.93C680.15 412.154 680.504 412.499 680.756 412.966C681.018 413.433 681.148 414.021 681.148 414.73V419H680.154V414.828C680.154 414.053 679.958 413.47 679.566 413.078C679.184 412.677 678.642 412.476 677.942 412.476C677.42 412.476 676.962 412.583 676.57 412.798C676.188 413.003 675.889 413.307 675.674 413.708C675.469 414.1 675.366 414.576 675.366 415.136V419H674.372V411.65H675.324V413.666L675.17 413.288C675.404 412.756 675.777 412.341 676.29 412.042C676.804 411.734 677.415 411.58 678.124 411.58ZM686.955 419.07C686.19 419.07 685.518 418.911 684.939 418.594C684.361 418.267 683.908 417.824 683.581 417.264C683.255 416.695 683.091 416.046 683.091 415.318C683.091 414.59 683.245 413.946 683.553 413.386C683.871 412.826 684.3 412.387 684.841 412.07C685.392 411.743 686.008 411.58 686.689 411.58C687.38 411.58 687.991 411.739 688.523 412.056C689.065 412.364 689.489 412.803 689.797 413.372C690.105 413.932 690.259 414.581 690.259 415.318C690.259 415.365 690.255 415.416 690.245 415.472C690.245 415.519 690.245 415.57 690.245 415.626H683.847V414.884H689.713L689.321 415.178C689.321 414.646 689.205 414.175 688.971 413.764C688.747 413.344 688.439 413.017 688.047 412.784C687.655 412.551 687.203 412.434 686.689 412.434C686.185 412.434 685.733 412.551 685.331 412.784C684.93 413.017 684.617 413.344 684.393 413.764C684.169 414.184 684.057 414.665 684.057 415.206V415.36C684.057 415.92 684.179 416.415 684.421 416.844C684.673 417.264 685.019 417.595 685.457 417.838C685.905 418.071 686.414 418.188 686.983 418.188C687.431 418.188 687.847 418.109 688.229 417.95C688.621 417.791 688.957 417.549 689.237 417.222L689.797 417.866C689.471 418.258 689.06 418.557 688.565 418.762C688.08 418.967 687.543 419.07 686.955 419.07ZM698.537 419.084C697.902 419.084 697.337 418.981 696.843 418.776C696.348 418.561 695.956 418.267 695.667 417.894C695.387 417.521 695.247 417.087 695.247 416.592C695.247 416.172 695.34 415.789 695.527 415.444C695.713 415.089 696.012 414.744 696.423 414.408C696.843 414.063 697.398 413.703 698.089 413.33C698.677 413.003 699.134 412.723 699.461 412.49C699.797 412.247 700.035 412.019 700.175 411.804C700.315 411.58 700.385 411.342 700.385 411.09C700.385 410.726 700.259 410.432 700.007 410.208C699.764 409.984 699.414 409.872 698.957 409.872C698.462 409.872 698.079 409.998 697.809 410.25C697.538 410.493 697.403 410.81 697.403 411.202C697.403 411.398 697.431 411.585 697.487 411.762C697.552 411.939 697.669 412.135 697.837 412.35C698.014 412.565 698.257 412.835 698.565 413.162L703.745 418.496L703.171 419.154L697.767 413.596C697.44 413.251 697.179 412.952 696.983 412.7C696.796 412.439 696.665 412.191 696.591 411.958C696.516 411.725 696.479 411.477 696.479 411.216C696.479 410.796 696.577 410.432 696.773 410.124C696.978 409.807 697.267 409.564 697.641 409.396C698.014 409.219 698.453 409.13 698.957 409.13C699.414 409.13 699.811 409.209 700.147 409.368C700.492 409.517 700.758 409.737 700.945 410.026C701.141 410.315 701.239 410.665 701.239 411.076C701.239 411.431 701.15 411.762 700.973 412.07C700.805 412.378 700.525 412.681 700.133 412.98C699.741 413.269 699.209 413.596 698.537 413.96C697.949 414.287 697.482 414.585 697.137 414.856C696.801 415.127 696.563 415.393 696.423 415.654C696.283 415.906 696.213 416.186 696.213 416.494C696.213 416.849 696.311 417.161 696.507 417.432C696.712 417.693 696.992 417.899 697.347 418.048C697.711 418.188 698.126 418.258 698.593 418.258C699.246 418.258 699.829 418.123 700.343 417.852C700.856 417.581 701.285 417.171 701.631 416.62C701.985 416.069 702.242 415.379 702.401 414.548L703.199 414.8C703.021 415.733 702.718 416.517 702.289 417.152C701.859 417.787 701.327 418.267 700.693 418.594C700.058 418.921 699.339 419.084 698.537 419.084ZM710.95 419.07C710.343 419.07 709.769 418.986 709.228 418.818C708.687 418.641 708.262 418.421 707.954 418.16L708.402 417.376C708.701 417.6 709.083 417.796 709.55 417.964C710.017 418.123 710.507 418.202 711.02 418.202C711.72 418.202 712.224 418.095 712.532 417.88C712.84 417.656 712.994 417.362 712.994 416.998C712.994 416.727 712.905 416.517 712.728 416.368C712.56 416.209 712.336 416.093 712.056 416.018C711.776 415.934 711.463 415.864 711.118 415.808C710.773 415.752 710.427 415.687 710.082 415.612C709.746 415.537 709.438 415.43 709.158 415.29C708.878 415.141 708.649 414.94 708.472 414.688C708.304 414.436 708.22 414.1 708.22 413.68C708.22 413.279 708.332 412.919 708.556 412.602C708.78 412.285 709.107 412.037 709.536 411.86C709.975 411.673 710.507 411.58 711.132 411.58C711.608 411.58 712.084 411.645 712.56 411.776C713.036 411.897 713.428 412.061 713.736 412.266L713.302 413.064C712.975 412.84 712.625 412.681 712.252 412.588C711.879 412.485 711.505 412.434 711.132 412.434C710.469 412.434 709.979 412.551 709.662 412.784C709.354 413.008 709.2 413.297 709.2 413.652C709.2 413.932 709.284 414.151 709.452 414.31C709.629 414.469 709.858 414.595 710.138 414.688C710.427 414.772 710.74 414.842 711.076 414.898C711.421 414.954 711.762 415.024 712.098 415.108C712.443 415.183 712.756 415.29 713.036 415.43C713.325 415.561 713.554 415.752 713.722 416.004C713.899 416.247 713.988 416.569 713.988 416.97C713.988 417.399 713.867 417.773 713.624 418.09C713.391 418.398 713.045 418.641 712.588 418.818C712.14 418.986 711.594 419.07 710.95 419.07ZM718.934 419.07C718.168 419.07 717.496 418.911 716.918 418.594C716.339 418.267 715.886 417.824 715.56 417.264C715.233 416.695 715.07 416.046 715.07 415.318C715.07 414.59 715.224 413.946 715.532 413.386C715.849 412.826 716.278 412.387 716.82 412.07C717.37 411.743 717.986 411.58 718.668 411.58C719.358 411.58 719.97 411.739 720.502 412.056C721.043 412.364 721.468 412.803 721.776 413.372C722.084 413.932 722.238 414.581 722.238 415.318C722.238 415.365 722.233 415.416 722.224 415.472C722.224 415.519 722.224 415.57 722.224 415.626H715.826V414.884H721.692L721.3 415.178C721.3 414.646 721.183 414.175 720.95 413.764C720.726 413.344 720.418 413.017 720.026 412.784C719.634 412.551 719.181 412.434 718.668 412.434C718.164 412.434 717.711 412.551 717.31 412.784C716.908 413.017 716.596 413.344 716.372 413.764C716.148 414.184 716.036 414.665 716.036 415.206V415.36C716.036 415.92 716.157 416.415 716.4 416.844C716.652 417.264 716.997 417.595 717.436 417.838C717.884 418.071 718.392 418.188 718.962 418.188C719.41 418.188 719.825 418.109 720.208 417.95C720.6 417.791 720.936 417.549 721.216 417.222L721.776 417.866C721.449 418.258 721.038 418.557 720.544 418.762C720.058 418.967 719.522 419.07 718.934 419.07ZM717.744 410.502L719.662 408.766H720.992L718.724 410.502H717.744ZM727.313 419.07C726.585 419.07 725.932 418.911 725.353 418.594C724.784 418.267 724.336 417.824 724.009 417.264C723.682 416.695 723.519 416.046 723.519 415.318C723.519 414.581 723.682 413.932 724.009 413.372C724.336 412.812 724.784 412.373 725.353 412.056C725.932 411.739 726.585 411.58 727.313 411.58C727.938 411.58 728.503 411.701 729.007 411.944C729.511 412.187 729.908 412.551 730.197 413.036L729.455 413.54C729.203 413.167 728.89 412.891 728.517 412.714C728.144 412.537 727.738 412.448 727.299 412.448C726.776 412.448 726.305 412.569 725.885 412.812C725.465 413.045 725.134 413.377 724.891 413.806C724.648 414.235 724.527 414.739 724.527 415.318C724.527 415.897 724.648 416.401 724.891 416.83C725.134 417.259 725.465 417.595 725.885 417.838C726.305 418.071 726.776 418.188 727.299 418.188C727.738 418.188 728.144 418.099 728.517 417.922C728.89 417.745 729.203 417.474 729.455 417.11L730.197 417.614C729.908 418.09 729.511 418.454 729.007 418.706C728.503 418.949 727.938 419.07 727.313 419.07ZM735.188 419.07C734.562 419.07 734.016 418.953 733.55 418.72C733.083 418.487 732.719 418.137 732.458 417.67C732.206 417.203 732.08 416.62 732.08 415.92V411.65H733.074V415.808C733.074 416.592 733.265 417.185 733.648 417.586C734.04 417.978 734.586 418.174 735.286 418.174C735.799 418.174 736.242 418.071 736.616 417.866C736.998 417.651 737.288 417.343 737.484 416.942C737.689 416.541 737.792 416.06 737.792 415.5V411.65H738.786V419H737.834V416.984L737.988 417.348C737.754 417.889 737.39 418.314 736.896 418.622C736.41 418.921 735.841 419.07 735.188 419.07ZM741.556 419V411.65H742.508V413.652L742.41 413.302C742.615 412.742 742.961 412.317 743.446 412.028C743.931 411.729 744.533 411.58 745.252 411.58V412.546C745.215 412.546 745.177 412.546 745.14 412.546C745.103 412.537 745.065 412.532 745.028 412.532C744.253 412.532 743.647 412.77 743.208 413.246C742.769 413.713 742.55 414.38 742.55 415.248V419H741.556ZM747.066 419V411.65H748.06V419H747.066ZM747.57 410.026C747.364 410.026 747.192 409.956 747.052 409.816C746.912 409.676 746.842 409.508 746.842 409.312C746.842 409.116 746.912 408.953 747.052 408.822C747.192 408.682 747.364 408.612 747.57 408.612C747.775 408.612 747.948 408.677 748.088 408.808C748.228 408.939 748.298 409.102 748.298 409.298C748.298 409.503 748.228 409.676 748.088 409.816C747.957 409.956 747.784 410.026 747.57 410.026ZM752.799 419.07C752.193 419.07 751.619 418.986 751.077 418.818C750.536 418.641 750.111 418.421 749.803 418.16L750.251 417.376C750.55 417.6 750.933 417.796 751.399 417.964C751.866 418.123 752.356 418.202 752.869 418.202C753.569 418.202 754.073 418.095 754.381 417.88C754.689 417.656 754.843 417.362 754.843 416.998C754.843 416.727 754.755 416.517 754.577 416.368C754.409 416.209 754.185 416.093 753.905 416.018C753.625 415.934 753.313 415.864 752.967 415.808C752.622 415.752 752.277 415.687 751.931 415.612C751.595 415.537 751.287 415.43 751.007 415.29C750.727 415.141 750.499 414.94 750.321 414.688C750.153 414.436 750.069 414.1 750.069 413.68C750.069 413.279 750.181 412.919 750.405 412.602C750.629 412.285 750.956 412.037 751.385 411.86C751.824 411.673 752.356 411.58 752.981 411.58C753.457 411.58 753.933 411.645 754.409 411.776C754.885 411.897 755.277 412.061 755.585 412.266L755.151 413.064C754.825 412.84 754.475 412.681 754.101 412.588C753.728 412.485 753.355 412.434 752.981 412.434C752.319 412.434 751.829 412.551 751.511 412.784C751.203 413.008 751.049 413.297 751.049 413.652C751.049 413.932 751.133 414.151 751.301 414.31C751.479 414.469 751.707 414.595 751.987 414.688C752.277 414.772 752.589 414.842 752.925 414.898C753.271 414.954 753.611 415.024 753.947 415.108C754.293 415.183 754.605 415.29 754.885 415.43C755.175 415.561 755.403 415.752 755.571 416.004C755.749 416.247 755.837 416.569 755.837 416.97C755.837 417.399 755.716 417.773 755.473 418.09C755.24 418.398 754.895 418.641 754.437 418.818C753.989 418.986 753.443 419.07 752.799 419.07ZM760.783 419.07C760.018 419.07 759.346 418.911 758.767 418.594C758.189 418.267 757.736 417.824 757.409 417.264C757.083 416.695 756.919 416.046 756.919 415.318C756.919 414.59 757.073 413.946 757.381 413.386C757.699 412.826 758.128 412.387 758.669 412.07C759.22 411.743 759.836 411.58 760.517 411.58C761.208 411.58 761.819 411.739 762.351 412.056C762.893 412.364 763.317 412.803 763.625 413.372C763.933 413.932 764.087 414.581 764.087 415.318C764.087 415.365 764.083 415.416 764.073 415.472C764.073 415.519 764.073 415.57 764.073 415.626H757.675V414.884H763.541L763.149 415.178C763.149 414.646 763.033 414.175 762.799 413.764C762.575 413.344 762.267 413.017 761.875 412.784C761.483 412.551 761.031 412.434 760.517 412.434C760.013 412.434 759.561 412.551 759.159 412.784C758.758 413.017 758.445 413.344 758.221 413.764C757.997 414.184 757.885 414.665 757.885 415.206V415.36C757.885 415.92 758.007 416.415 758.249 416.844C758.501 417.264 758.847 417.595 759.285 417.838C759.733 418.071 760.242 418.188 760.811 418.188C761.259 418.188 761.675 418.109 762.057 417.95C762.449 417.791 762.785 417.549 763.065 417.222L763.625 417.866C763.299 418.258 762.888 418.557 762.393 418.762C761.908 418.967 761.371 419.07 760.783 419.07ZM759.593 410.502L761.511 408.766H762.841L760.573 410.502H759.593Z" fill="#2D1F67"/>
<rect x="560" y="398" width="31" height="31" rx="5" fill="#E522D3"/>
<path d="M571.75 411.125V405.787C571.75 402.9 574.113 400.625 577 400.625C579.887 400.625 582.25 402.9 582.25 405.787V411.125" stroke="white" stroke-width="2" stroke-miterlimit="10" stroke-linecap="round" stroke-linejoin="round"/>
<path d="M577 418.125C577.966 418.125 578.75 417.341 578.75 416.375C578.75 415.409 577.966 414.625 577 414.625C576.034 414.625 575.25 415.409 575.25 416.375C575.25 417.341 576.034 418.125 577 418.125Z" stroke="white" stroke-width="2" stroke-miterlimit="10" stroke-linecap="round" stroke-linejoin="round"/>
<path d="M577 419.875V418.125" stroke="white" stroke-width="2" stroke-miterlimit="10" stroke-linecap="round" stroke-linejoin="round"/>
<path d="M582.25 422.5H571.75C569.825 422.5 568.25 420.925 568.25 419V414.625C568.25 412.7 569.825 411.125 571.75 411.125H582.25C584.175 411.125 585.75 412.7 585.75 414.625V419C585.75 420.925 584.175 422.5 582.25 422.5Z" stroke="white" stroke-width="2" stroke-miterlimit="10" stroke-linecap="round" stroke-linejoin="round"/>
</g>
<defs>
<filter id="filter0_d_386_40601" x="19.8915" y="59.1362" width="645.109" height="468.864" filterUnits="userSpaceOnUse" color-interpolation-filters="sRGB">
<feFlood flood-opacity="0" result="BackgroundImageFix"/>
<feColorMatrix in="SourceAlpha" type="matrix" values="0 0 0 0 0 0 0 0 0 0 0 0 0 0 0 0 0 0 127 0" result="hardAlpha"/>
<feOffset/>
<feGaussianBlur stdDeviation="2"/>
<feComposite in2="hardAlpha" operator="out"/>
<feColorMatrix type="matrix" values="0 0 0 0 0.717647 0 0 0 0 0.756863 0 0 0 0 0.905882 0 0 0 1 0"/>
<feBlend mode="normal" in2="BackgroundImageFix" result="effect1_dropShadow_386_40601"/>
<feBlend mode="normal" in="SourceGraphic" in2="effect1_dropShadow_386_40601" result="shape"/>
</filter>
<clipPath id="clip0_386_40601">
<rect width="937" height="545" fill="white"/>
</clipPath>
</defs>
</svg>
