<svg width="825" height="545" viewBox="0 0 825 545" fill="none" xmlns="http://www.w3.org/2000/svg">
<g clip-path="url(#clip0_68_1981)">
<path d="M688.5 475L625 539L381 539L325 479.5L688.5 475Z" fill="#C591FF"/>
<path d="M683.9 405L432 91H108C97 91 88 100 88 111V405H683.9Z" fill="#C591FF"/>
<g filter="url(#filter0_d_68_1981)">
<rect x="111" y="103" width="582" height="412" rx="10" fill="white"/>
<rect x="111.5" y="103.5" width="581" height="411" rx="9.5" stroke="#B7C1E7"/>
</g>
<line x1="693" y1="158.5" x2="111" y2="158.5" stroke="#B7C1E7"/>
<circle cx="136" cy="133" r="6.5" stroke="#9C51F1"/>
<circle cx="159" cy="133" r="6.5" stroke="#9C51F1"/>
<circle cx="181" cy="133" r="6.5" stroke="#9C51F1"/>
<path d="M693 158H111V307H693V158Z" fill="#7E57FF"/>
<path d="M417.383 341H176.617C169.649 341 164 344.371 164 348.529V472.471C164 476.629 169.649 480 176.617 480H417.383C424.351 480 430 476.629 430 472.471V348.529C430 344.371 424.351 341 417.383 341Z" fill="#7E57FF"/>
<path d="M259.781 320H168.219C165.889 320 164 321.801 164 324.023V324.977C164 327.199 165.889 329 168.219 329H259.781C262.111 329 264 327.199 264 324.977V324.023C264 321.801 262.111 320 259.781 320Z" fill="#7E57FF"/>
<path d="M649.151 341H461.85C459.171 341 457 342.601 457 344.576V345.424C457 347.399 459.171 349 461.85 349H649.151C651.829 349 654 347.399 654 345.424V344.576C654 342.601 651.829 341 649.151 341Z" fill="#7E57FF"/>
<path d="M649.151 400H461.85C459.171 400 457 401.601 457 403.576V404.424C457 406.399 459.171 408 461.85 408H649.151C651.829 408 654 406.399 654 404.424V403.576C654 401.601 651.829 400 649.151 400Z" fill="#7E57FF"/>
<path d="M649.151 356H461.85C459.171 356 457 357.601 457 359.576V360.424C457 362.399 459.171 364 461.85 364H649.151C651.829 364 654 362.399 654 360.424V359.576C654 357.601 651.829 356 649.151 356Z" fill="#7E57FF"/>
<path d="M649.151 415H461.85C459.171 415 457 416.601 457 418.576V419.424C457 421.399 459.171 423 461.85 423H649.151C651.829 423 654 421.399 654 419.424V418.576C654 416.601 651.829 415 649.151 415Z" fill="#7E57FF"/>
<path d="M649.151 371H461.85C459.171 371 457 372.401 457 374.129V374.871C457 376.599 459.171 378 461.85 378H649.151C651.829 378 654 376.599 654 374.871V374.129C654 372.401 651.829 371 649.151 371Z" fill="#7E57FF"/>
<path d="M579.898 430H460.102C458.389 430 457 431.401 457 433.129V433.871C457 435.599 458.389 437 460.102 437H579.898C581.611 437 583 435.599 583 433.871V433.129C583 431.401 581.611 430 579.898 430Z" fill="#7E57FF"/>
<path d="M649.151 385H461.85C459.171 385 457 386.601 457 388.576V389.424C457 391.399 459.171 393 461.85 393H649.151C651.829 393 654 391.399 654 389.424V388.576C654 386.601 651.829 385 649.151 385Z" fill="#7E57FF"/>
<path d="M591.287 459H464.713C460.453 459 457 460.017 457 461.271V477.729C457 478.983 460.453 480 464.713 480H591.287C595.547 480 599 478.983 599 477.729V461.271C599 460.017 595.547 459 591.287 459Z" fill="#7E57FF"/>
<path opacity="0.74" d="M632.52 169H174.48C169.797 169 166 171.848 166 175.36V285.64C166 289.152 169.797 292 174.48 292H632.52C637.203 292 641 289.152 641 285.64V175.36C641 171.848 637.203 169 632.52 169Z" fill="#B3A4FF"/>
<path d="M741 369.5L727.761 379L727 227L741 227L741 369.5Z" fill="#C591FF"/>
<line x1="921" y1="313.5" x2="565" y2="313.5" stroke="#9C51F1"/>
<line x1="838" y1="49.5" x2="303" y2="49.5" stroke="#E521D2"/>
<line x1="302" y1="395.5" x2="30" y2="395.5" stroke="#9C51F1"/>
<line x1="702" y1="195.5" x2="317" y2="195.5" stroke="#9C51F1"/>
<line x1="780.5" y1="555" x2="780.5" y2="217" stroke="#9C51F1"/>
<line x1="203.5" y1="103" x2="203.5" y2="12" stroke="#9C51F1"/>
<line x1="369.5" y1="103" x2="369.5" y2="12" stroke="#9C51F1"/>
<rect x="689" y="77" width="76" height="76" rx="38" fill="#9C51F1"/>
<path d="M837 409.5H681" stroke="#E521D2"/>
<line x1="692.5" y1="188" x2="692.5" y2="570" stroke="#9C51F1"/>
<rect x="611.5" y="170.5" width="180" height="48" rx="9.5" fill="white" stroke="#B7C1E7"/>
<path d="M659.298 200.084C658.57 200.084 657.87 199.967 657.198 199.734C656.535 199.491 656.022 199.183 655.658 198.81L656.064 198.012C656.409 198.348 656.871 198.633 657.45 198.866C658.038 199.09 658.654 199.202 659.298 199.202C659.914 199.202 660.413 199.127 660.796 198.978C661.188 198.819 661.473 198.609 661.65 198.348C661.837 198.087 661.93 197.797 661.93 197.48C661.93 197.097 661.818 196.789 661.594 196.556C661.379 196.323 661.095 196.141 660.74 196.01C660.385 195.87 659.993 195.749 659.564 195.646C659.135 195.543 658.705 195.436 658.276 195.324C657.847 195.203 657.45 195.044 657.086 194.848C656.731 194.652 656.442 194.395 656.218 194.078C656.003 193.751 655.896 193.327 655.896 192.804C655.896 192.319 656.022 191.875 656.274 191.474C656.535 191.063 656.932 190.737 657.464 190.494C657.996 190.242 658.677 190.116 659.508 190.116C660.059 190.116 660.605 190.195 661.146 190.354C661.687 190.503 662.154 190.713 662.546 190.984L662.196 191.81C661.776 191.53 661.328 191.325 660.852 191.194C660.385 191.063 659.933 190.998 659.494 190.998C658.906 190.998 658.421 191.077 658.038 191.236C657.655 191.395 657.371 191.609 657.184 191.88C657.007 192.141 656.918 192.44 656.918 192.776C656.918 193.159 657.025 193.467 657.24 193.7C657.464 193.933 657.753 194.115 658.108 194.246C658.472 194.377 658.869 194.493 659.298 194.596C659.727 194.699 660.152 194.811 660.572 194.932C661.001 195.053 661.393 195.212 661.748 195.408C662.112 195.595 662.401 195.847 662.616 196.164C662.84 196.481 662.952 196.897 662.952 197.41C662.952 197.886 662.821 198.329 662.56 198.74C662.299 199.141 661.897 199.468 661.356 199.72C660.824 199.963 660.138 200.084 659.298 200.084ZM668.121 200.07C667.356 200.07 666.684 199.911 666.105 199.594C665.527 199.267 665.074 198.824 664.747 198.264C664.421 197.695 664.257 197.046 664.257 196.318C664.257 195.59 664.411 194.946 664.719 194.386C665.037 193.826 665.466 193.387 666.007 193.07C666.558 192.743 667.174 192.58 667.855 192.58C668.546 192.58 669.157 192.739 669.689 193.056C670.231 193.364 670.655 193.803 670.963 194.372C671.271 194.932 671.425 195.581 671.425 196.318C671.425 196.365 671.421 196.416 671.411 196.472C671.411 196.519 671.411 196.57 671.411 196.626H665.013V195.884H670.879L670.487 196.178C670.487 195.646 670.371 195.175 670.137 194.764C669.913 194.344 669.605 194.017 669.213 193.784C668.821 193.551 668.369 193.434 667.855 193.434C667.351 193.434 666.899 193.551 666.497 193.784C666.096 194.017 665.783 194.344 665.559 194.764C665.335 195.184 665.223 195.665 665.223 196.206V196.36C665.223 196.92 665.345 197.415 665.587 197.844C665.839 198.264 666.185 198.595 666.623 198.838C667.071 199.071 667.58 199.188 668.149 199.188C668.597 199.188 669.013 199.109 669.395 198.95C669.787 198.791 670.123 198.549 670.403 198.222L670.963 198.866C670.637 199.258 670.226 199.557 669.731 199.762C669.246 199.967 668.709 200.07 668.121 200.07ZM666.931 191.502L668.849 189.766H670.179L667.911 191.502H666.931ZM676.501 200.07C675.773 200.07 675.119 199.911 674.541 199.594C673.971 199.267 673.523 198.824 673.197 198.264C672.87 197.695 672.707 197.046 672.707 196.318C672.707 195.581 672.87 194.932 673.197 194.372C673.523 193.812 673.971 193.373 674.541 193.056C675.119 192.739 675.773 192.58 676.501 192.58C677.126 192.58 677.691 192.701 678.195 192.944C678.699 193.187 679.095 193.551 679.385 194.036L678.643 194.54C678.391 194.167 678.078 193.891 677.705 193.714C677.331 193.537 676.925 193.448 676.487 193.448C675.964 193.448 675.493 193.569 675.073 193.812C674.653 194.045 674.321 194.377 674.079 194.806C673.836 195.235 673.715 195.739 673.715 196.318C673.715 196.897 673.836 197.401 674.079 197.83C674.321 198.259 674.653 198.595 675.073 198.838C675.493 199.071 675.964 199.188 676.487 199.188C676.925 199.188 677.331 199.099 677.705 198.922C678.078 198.745 678.391 198.474 678.643 198.11L679.385 198.614C679.095 199.09 678.699 199.454 678.195 199.706C677.691 199.949 677.126 200.07 676.501 200.07ZM684.375 200.07C683.75 200.07 683.204 199.953 682.737 199.72C682.271 199.487 681.907 199.137 681.645 198.67C681.393 198.203 681.267 197.62 681.267 196.92V192.65H682.261V196.808C682.261 197.592 682.453 198.185 682.835 198.586C683.227 198.978 683.773 199.174 684.473 199.174C684.987 199.174 685.43 199.071 685.803 198.866C686.186 198.651 686.475 198.343 686.671 197.942C686.877 197.541 686.979 197.06 686.979 196.5V192.65H687.973V200H687.021V197.984L687.175 198.348C686.942 198.889 686.578 199.314 686.083 199.622C685.598 199.921 685.029 200.07 684.375 200.07ZM690.743 200V192.65H691.695V194.652L691.597 194.302C691.803 193.742 692.148 193.317 692.633 193.028C693.119 192.729 693.721 192.58 694.439 192.58V193.546C694.402 193.546 694.365 193.546 694.327 193.546C694.29 193.537 694.253 193.532 694.215 193.532C693.441 193.532 692.834 193.77 692.395 194.246C691.957 194.713 691.737 195.38 691.737 196.248V200H690.743ZM696.253 200V192.65H697.247V200H696.253ZM696.757 191.026C696.552 191.026 696.379 190.956 696.239 190.816C696.099 190.676 696.029 190.508 696.029 190.312C696.029 190.116 696.099 189.953 696.239 189.822C696.379 189.682 696.552 189.612 696.757 189.612C696.963 189.612 697.135 189.677 697.275 189.808C697.415 189.939 697.485 190.102 697.485 190.298C697.485 190.503 697.415 190.676 697.275 190.816C697.145 190.956 696.972 191.026 696.757 191.026ZM702.337 200.07C701.646 200.07 701.114 199.883 700.741 199.51C700.368 199.137 700.181 198.609 700.181 197.928V191.026H701.175V197.872C701.175 198.301 701.282 198.633 701.497 198.866C701.721 199.099 702.038 199.216 702.449 199.216C702.888 199.216 703.252 199.09 703.541 198.838L703.891 199.552C703.695 199.729 703.457 199.86 703.177 199.944C702.906 200.028 702.626 200.07 702.337 200.07ZM698.865 193.476V192.65H703.415V193.476H698.865ZM708.563 200.07C707.797 200.07 707.125 199.911 706.547 199.594C705.968 199.267 705.515 198.824 705.189 198.264C704.862 197.695 704.699 197.046 704.699 196.318C704.699 195.59 704.853 194.946 705.161 194.386C705.478 193.826 705.907 193.387 706.449 193.07C706.999 192.743 707.615 192.58 708.297 192.58C708.987 192.58 709.599 192.739 710.131 193.056C710.672 193.364 711.097 193.803 711.405 194.372C711.713 194.932 711.867 195.581 711.867 196.318C711.867 196.365 711.862 196.416 711.853 196.472C711.853 196.519 711.853 196.57 711.853 196.626H705.455V195.884H711.321L710.929 196.178C710.929 195.646 710.812 195.175 710.579 194.764C710.355 194.344 710.047 194.017 709.655 193.784C709.263 193.551 708.81 193.434 708.297 193.434C707.793 193.434 707.34 193.551 706.939 193.784C706.537 194.017 706.225 194.344 706.001 194.764C705.777 195.184 705.665 195.665 705.665 196.206V196.36C705.665 196.92 705.786 197.415 706.029 197.844C706.281 198.264 706.626 198.595 707.065 198.838C707.513 199.071 708.021 199.188 708.591 199.188C709.039 199.188 709.454 199.109 709.837 198.95C710.229 198.791 710.565 198.549 710.845 198.222L711.405 198.866C711.078 199.258 710.667 199.557 710.173 199.762C709.687 199.967 709.151 200.07 708.563 200.07ZM707.373 191.502L709.291 189.766H710.621L708.353 191.502H707.373ZM722.16 200V198.376L722.118 198.11V195.394C722.118 194.769 721.941 194.288 721.586 193.952C721.241 193.616 720.723 193.448 720.032 193.448C719.556 193.448 719.103 193.527 718.674 193.686C718.245 193.845 717.881 194.055 717.582 194.316L717.134 193.574C717.507 193.257 717.955 193.014 718.478 192.846C719.001 192.669 719.551 192.58 720.13 192.58C721.082 192.58 721.815 192.818 722.328 193.294C722.851 193.761 723.112 194.475 723.112 195.436V200H722.16ZM719.626 200.07C719.075 200.07 718.595 199.981 718.184 199.804C717.783 199.617 717.475 199.365 717.26 199.048C717.045 198.721 716.938 198.348 716.938 197.928C716.938 197.545 717.027 197.2 717.204 196.892C717.391 196.575 717.689 196.323 718.1 196.136C718.52 195.94 719.08 195.842 719.78 195.842H722.314V196.584H719.808C719.099 196.584 718.604 196.71 718.324 196.962C718.053 197.214 717.918 197.527 717.918 197.9C717.918 198.32 718.081 198.656 718.408 198.908C718.735 199.16 719.192 199.286 719.78 199.286C720.34 199.286 720.821 199.16 721.222 198.908C721.633 198.647 721.931 198.273 722.118 197.788L722.342 198.474C722.155 198.959 721.829 199.347 721.362 199.636C720.905 199.925 720.326 200.07 719.626 200.07ZM727.565 200L724.303 192.65H725.339L728.335 199.468H727.845L730.883 192.65H731.863L728.587 200H727.565ZM737.65 200V198.376L737.608 198.11V195.394C737.608 194.769 737.431 194.288 737.076 193.952C736.731 193.616 736.213 193.448 735.522 193.448C735.046 193.448 734.594 193.527 734.164 193.686C733.735 193.845 733.371 194.055 733.072 194.316L732.624 193.574C732.998 193.257 733.446 193.014 733.968 192.846C734.491 192.669 735.042 192.58 735.62 192.58C736.572 192.58 737.305 192.818 737.818 193.294C738.341 193.761 738.602 194.475 738.602 195.436V200H737.65ZM735.116 200.07C734.566 200.07 734.085 199.981 733.674 199.804C733.273 199.617 732.965 199.365 732.75 199.048C732.536 198.721 732.428 198.348 732.428 197.928C732.428 197.545 732.517 197.2 732.694 196.892C732.881 196.575 733.18 196.323 733.59 196.136C734.01 195.94 734.57 195.842 735.27 195.842H737.804V196.584H735.298C734.589 196.584 734.094 196.71 733.814 196.962C733.544 197.214 733.408 197.527 733.408 197.9C733.408 198.32 733.572 198.656 733.898 198.908C734.225 199.16 734.682 199.286 735.27 199.286C735.83 199.286 736.311 199.16 736.712 198.908C737.123 198.647 737.422 198.273 737.608 197.788L737.832 198.474C737.646 198.959 737.319 199.347 736.852 199.636C736.395 199.925 735.816 200.07 735.116 200.07ZM745.054 192.58C745.651 192.58 746.174 192.697 746.622 192.93C747.079 193.154 747.434 193.499 747.686 193.966C747.947 194.433 748.078 195.021 748.078 195.73V200H747.084V195.828C747.084 195.053 746.888 194.47 746.496 194.078C746.113 193.677 745.572 193.476 744.872 193.476C744.349 193.476 743.892 193.583 743.5 193.798C743.117 194.003 742.819 194.307 742.604 194.708C742.399 195.1 742.296 195.576 742.296 196.136V200H741.302V192.65H742.254V194.666L742.1 194.288C742.333 193.756 742.707 193.341 743.22 193.042C743.733 192.734 744.345 192.58 745.054 192.58ZM753.815 200.07C753.087 200.07 752.434 199.911 751.855 199.594C751.286 199.267 750.838 198.824 750.511 198.264C750.184 197.695 750.021 197.046 750.021 196.318C750.021 195.581 750.184 194.932 750.511 194.372C750.838 193.812 751.286 193.373 751.855 193.056C752.434 192.739 753.087 192.58 753.815 192.58C754.44 192.58 755.005 192.701 755.509 192.944C756.013 193.187 756.41 193.551 756.699 194.036L755.957 194.54C755.705 194.167 755.392 193.891 755.019 193.714C754.646 193.537 754.24 193.448 753.801 193.448C753.278 193.448 752.807 193.569 752.387 193.812C751.967 194.045 751.636 194.377 751.393 194.806C751.15 195.235 751.029 195.739 751.029 196.318C751.029 196.897 751.15 197.401 751.393 197.83C751.636 198.259 751.967 198.595 752.387 198.838C752.807 199.071 753.278 199.188 753.801 199.188C754.24 199.188 754.646 199.099 755.019 198.922C755.392 198.745 755.705 198.474 755.957 198.11L756.699 198.614C756.41 199.09 756.013 199.454 755.509 199.706C755.005 199.949 754.44 200.07 753.815 200.07ZM761.651 200.07C760.885 200.07 760.213 199.911 759.635 199.594C759.056 199.267 758.603 198.824 758.277 198.264C757.95 197.695 757.787 197.046 757.787 196.318C757.787 195.59 757.941 194.946 758.249 194.386C758.566 193.826 758.995 193.387 759.537 193.07C760.087 192.743 760.703 192.58 761.385 192.58C762.075 192.58 762.687 192.739 763.219 193.056C763.76 193.364 764.185 193.803 764.493 194.372C764.801 194.932 764.955 195.581 764.955 196.318C764.955 196.365 764.95 196.416 764.941 196.472C764.941 196.519 764.941 196.57 764.941 196.626H758.543V195.884H764.409L764.017 196.178C764.017 195.646 763.9 195.175 763.667 194.764C763.443 194.344 763.135 194.017 762.743 193.784C762.351 193.551 761.898 193.434 761.385 193.434C760.881 193.434 760.428 193.551 760.027 193.784C759.625 194.017 759.313 194.344 759.089 194.764C758.865 195.184 758.753 195.665 758.753 196.206V196.36C758.753 196.92 758.874 197.415 759.117 197.844C759.369 198.264 759.714 198.595 760.153 198.838C760.601 199.071 761.109 199.188 761.679 199.188C762.127 199.188 762.542 199.109 762.925 198.95C763.317 198.791 763.653 198.549 763.933 198.222L764.493 198.866C764.166 199.258 763.755 199.557 763.261 199.762C762.775 199.967 762.239 200.07 761.651 200.07ZM760.461 191.502L762.379 189.766H763.709L761.441 191.502H760.461ZM770.1 200.07C769.334 200.07 768.662 199.911 768.084 199.594C767.505 199.267 767.052 198.824 766.726 198.264C766.399 197.695 766.236 197.046 766.236 196.318C766.236 195.59 766.39 194.946 766.698 194.386C767.015 193.826 767.444 193.387 767.986 193.07C768.536 192.743 769.152 192.58 769.834 192.58C770.524 192.58 771.136 192.739 771.668 193.056C772.209 193.364 772.634 193.803 772.942 194.372C773.25 194.932 773.404 195.581 773.404 196.318C773.404 196.365 773.399 196.416 773.39 196.472C773.39 196.519 773.39 196.57 773.39 196.626H766.992V195.884H772.858L772.466 196.178C772.466 195.646 772.349 195.175 772.116 194.764C771.892 194.344 771.584 194.017 771.192 193.784C770.8 193.551 770.347 193.434 769.834 193.434C769.33 193.434 768.877 193.551 768.476 193.784C768.074 194.017 767.762 194.344 767.538 194.764C767.314 195.184 767.202 195.665 767.202 196.206V196.36C767.202 196.92 767.323 197.415 767.566 197.844C767.818 198.264 768.163 198.595 768.602 198.838C769.05 199.071 769.558 199.188 770.128 199.188C770.576 199.188 770.991 199.109 771.374 198.95C771.766 198.791 772.102 198.549 772.382 198.222L772.942 198.866C772.615 199.258 772.204 199.557 771.71 199.762C771.224 199.967 770.688 200.07 770.1 200.07Z" fill="#2D1F67"/>
<rect x="619" y="179" width="31" height="31" rx="5" fill="#E522D3"/>
<path d="M629 193.724V187.982C629 184.876 631.7 182.429 635 182.429C638.3 182.429 641 184.876 641 187.982V193.724" stroke="white" stroke-width="2" stroke-miterlimit="10" stroke-linecap="round" stroke-linejoin="round"/>
<path d="M635 201.253C636.105 201.253 637 200.411 637 199.371C637 198.331 636.105 197.488 635 197.488C633.895 197.488 633 198.331 633 199.371C633 200.411 633.895 201.253 635 201.253Z" stroke="white" stroke-width="2" stroke-miterlimit="10" stroke-linecap="round" stroke-linejoin="round"/>
<path d="M635 203.136V201.254" stroke="white" stroke-width="2" stroke-miterlimit="10" stroke-linecap="round" stroke-linejoin="round"/>
<path d="M641 205.96H629C626.8 205.96 625 204.266 625 202.195V197.489C625 195.418 626.8 193.724 629 193.724H641C643.2 193.724 645 195.418 645 197.489V202.195C645 204.266 643.2 205.96 641 205.96Z" stroke="white" stroke-width="2" stroke-miterlimit="10" stroke-linecap="round" stroke-linejoin="round"/>
<rect x="557.5" y="385.5" width="215" height="48" rx="9.5" fill="white" stroke="#B7C1E7"/>
<path d="M602.596 415V405.2H606.264C607.095 405.2 607.809 405.335 608.406 405.606C609.003 405.867 609.461 406.25 609.778 406.754C610.105 407.249 610.268 407.851 610.268 408.56C610.268 409.251 610.105 409.848 609.778 410.352C609.461 410.847 609.003 411.229 608.406 411.5C607.809 411.771 607.095 411.906 606.264 411.906H603.17L603.632 411.416V415H602.596ZM603.632 411.5L603.17 410.996H606.236C607.216 410.996 607.958 410.786 608.462 410.366C608.975 409.937 609.232 409.335 609.232 408.56C609.232 407.776 608.975 407.169 608.462 406.74C607.958 406.311 607.216 406.096 606.236 406.096H603.17L603.632 405.606V411.5ZM615.379 415.07C614.614 415.07 613.942 414.911 613.363 414.594C612.784 414.267 612.332 413.824 612.005 413.264C611.678 412.695 611.515 412.046 611.515 411.318C611.515 410.59 611.669 409.946 611.977 409.386C612.294 408.826 612.724 408.387 613.265 408.07C613.816 407.743 614.432 407.58 615.113 407.58C615.804 407.58 616.415 407.739 616.947 408.056C617.488 408.364 617.913 408.803 618.221 409.372C618.529 409.932 618.683 410.581 618.683 411.318C618.683 411.365 618.678 411.416 618.669 411.472C618.669 411.519 618.669 411.57 618.669 411.626H612.271V410.884H618.137L617.745 411.178C617.745 410.646 617.628 410.175 617.395 409.764C617.171 409.344 616.863 409.017 616.471 408.784C616.079 408.551 615.626 408.434 615.113 408.434C614.609 408.434 614.156 408.551 613.755 408.784C613.354 409.017 613.041 409.344 612.817 409.764C612.593 410.184 612.481 410.665 612.481 411.206V411.36C612.481 411.92 612.602 412.415 612.845 412.844C613.097 413.264 613.442 413.595 613.881 413.838C614.329 414.071 614.838 414.188 615.407 414.188C615.855 414.188 616.27 414.109 616.653 413.95C617.045 413.791 617.381 413.549 617.661 413.222L618.221 413.866C617.894 414.258 617.484 414.557 616.989 414.762C616.504 414.967 615.967 415.07 615.379 415.07ZM620.706 415V407.65H621.658V409.652L621.56 409.302C621.766 408.742 622.111 408.317 622.596 408.028C623.082 407.729 623.684 407.58 624.402 407.58V408.546C624.365 408.546 624.328 408.546 624.29 408.546C624.253 408.537 624.216 408.532 624.178 408.532C623.404 408.532 622.797 408.77 622.358 409.246C621.92 409.713 621.7 410.38 621.7 411.248V415H620.706ZM626.493 415V406.726C626.493 406.073 626.685 405.545 627.067 405.144C627.45 404.743 628.001 404.542 628.719 404.542C628.999 404.542 629.27 404.579 629.531 404.654C629.793 404.729 630.012 404.845 630.189 405.004L629.853 405.746C629.713 405.625 629.55 405.536 629.363 405.48C629.177 405.415 628.976 405.382 628.761 405.382C628.341 405.382 628.019 405.499 627.795 405.732C627.571 405.965 627.459 406.311 627.459 406.768V407.888L627.487 408.35V415H626.493ZM625.177 408.476V407.65H629.727V408.476H625.177ZM633.943 415.07C633.233 415.07 632.594 414.911 632.025 414.594C631.465 414.267 631.021 413.824 630.695 413.264C630.368 412.695 630.205 412.046 630.205 411.318C630.205 410.581 630.368 409.932 630.695 409.372C631.021 408.812 631.465 408.373 632.025 408.056C632.585 407.739 633.224 407.58 633.943 407.58C634.671 407.58 635.315 407.739 635.875 408.056C636.444 408.373 636.887 408.812 637.205 409.372C637.531 409.932 637.695 410.581 637.695 411.318C637.695 412.046 637.531 412.695 637.205 413.264C636.887 413.824 636.444 414.267 635.875 414.594C635.305 414.911 634.661 415.07 633.943 415.07ZM633.943 414.188C634.475 414.188 634.946 414.071 635.357 413.838C635.767 413.595 636.089 413.259 636.323 412.83C636.565 412.391 636.687 411.887 636.687 411.318C636.687 410.739 636.565 410.235 636.323 409.806C636.089 409.377 635.767 409.045 635.357 408.812C634.946 408.569 634.479 408.448 633.957 408.448C633.434 408.448 632.967 408.569 632.557 408.812C632.146 409.045 631.819 409.377 631.577 409.806C631.334 410.235 631.213 410.739 631.213 411.318C631.213 411.887 631.334 412.391 631.577 412.83C631.819 413.259 632.146 413.595 632.557 413.838C632.967 414.071 633.429 414.188 633.943 414.188ZM639.724 415V407.65H640.676V409.652L640.578 409.302C640.783 408.742 641.129 408.317 641.614 408.028C642.099 407.729 642.701 407.58 643.42 407.58V408.546C643.383 408.546 643.345 408.546 643.308 408.546C643.271 408.537 643.233 408.532 643.196 408.532C642.421 408.532 641.815 408.77 641.376 409.246C640.937 409.713 640.718 410.38 640.718 411.248V415H639.724ZM654.418 407.58C655.015 407.58 655.533 407.697 655.972 407.93C656.42 408.154 656.765 408.499 657.008 408.966C657.26 409.433 657.386 410.021 657.386 410.73V415H656.392V410.828C656.392 410.053 656.205 409.47 655.832 409.078C655.468 408.677 654.95 408.476 654.278 408.476C653.774 408.476 653.335 408.583 652.962 408.798C652.598 409.003 652.313 409.307 652.108 409.708C651.912 410.1 651.814 410.576 651.814 411.136V415H650.82V410.828C650.82 410.053 650.633 409.47 650.26 409.078C649.886 408.677 649.364 408.476 648.692 408.476C648.197 408.476 647.763 408.583 647.39 408.798C647.016 409.003 646.727 409.307 646.522 409.708C646.326 410.1 646.228 410.576 646.228 411.136V415H645.234V407.65H646.186V409.638L646.032 409.288C646.256 408.756 646.615 408.341 647.11 408.042C647.614 407.734 648.206 407.58 648.888 407.58C649.606 407.58 650.218 407.762 650.722 408.126C651.226 408.481 651.552 409.017 651.702 409.736L651.31 409.582C651.524 408.985 651.902 408.504 652.444 408.14C652.994 407.767 653.652 407.58 654.418 407.58ZM664.687 415V413.376L664.645 413.11V410.394C664.645 409.769 664.468 409.288 664.113 408.952C663.768 408.616 663.25 408.448 662.559 408.448C662.083 408.448 661.631 408.527 661.201 408.686C660.772 408.845 660.408 409.055 660.109 409.316L659.661 408.574C660.035 408.257 660.483 408.014 661.005 407.846C661.528 407.669 662.079 407.58 662.657 407.58C663.609 407.58 664.342 407.818 664.855 408.294C665.378 408.761 665.639 409.475 665.639 410.436V415H664.687ZM662.153 415.07C661.603 415.07 661.122 414.981 660.711 414.804C660.31 414.617 660.002 414.365 659.787 414.048C659.573 413.721 659.465 413.348 659.465 412.928C659.465 412.545 659.554 412.2 659.731 411.892C659.918 411.575 660.217 411.323 660.627 411.136C661.047 410.94 661.607 410.842 662.307 410.842H664.841V411.584H662.335C661.626 411.584 661.131 411.71 660.851 411.962C660.581 412.214 660.445 412.527 660.445 412.9C660.445 413.32 660.609 413.656 660.935 413.908C661.262 414.16 661.719 414.286 662.307 414.286C662.867 414.286 663.348 414.16 663.749 413.908C664.16 413.647 664.459 413.273 664.645 412.788L664.869 413.474C664.683 413.959 664.356 414.347 663.889 414.636C663.432 414.925 662.853 415.07 662.153 415.07ZM672.091 407.58C672.688 407.58 673.211 407.697 673.659 407.93C674.116 408.154 674.471 408.499 674.723 408.966C674.984 409.433 675.115 410.021 675.115 410.73V415H674.121V410.828C674.121 410.053 673.925 409.47 673.533 409.078C673.15 408.677 672.609 408.476 671.909 408.476C671.386 408.476 670.929 408.583 670.537 408.798C670.154 409.003 669.856 409.307 669.641 409.708C669.436 410.1 669.333 410.576 669.333 411.136V415H668.339V407.65H669.291V409.666L669.137 409.288C669.37 408.756 669.744 408.341 670.257 408.042C670.77 407.734 671.382 407.58 672.091 407.58ZM680.852 415.07C680.124 415.07 679.471 414.911 678.892 414.594C678.323 414.267 677.875 413.824 677.548 413.264C677.221 412.695 677.058 412.046 677.058 411.318C677.058 410.581 677.221 409.932 677.548 409.372C677.875 408.812 678.323 408.373 678.892 408.056C679.471 407.739 680.124 407.58 680.852 407.58C681.477 407.58 682.042 407.701 682.546 407.944C683.05 408.187 683.447 408.551 683.736 409.036L682.994 409.54C682.742 409.167 682.429 408.891 682.056 408.714C681.683 408.537 681.277 408.448 680.838 408.448C680.315 408.448 679.844 408.569 679.424 408.812C679.004 409.045 678.673 409.377 678.43 409.806C678.187 410.235 678.066 410.739 678.066 411.318C678.066 411.897 678.187 412.401 678.43 412.83C678.673 413.259 679.004 413.595 679.424 413.838C679.844 414.071 680.315 414.188 680.838 414.188C681.277 414.188 681.683 414.099 682.056 413.922C682.429 413.745 682.742 413.474 682.994 413.11L683.736 413.614C683.447 414.09 683.05 414.454 682.546 414.706C682.042 414.949 681.477 415.07 680.852 415.07ZM688.688 415.07C687.922 415.07 687.25 414.911 686.672 414.594C686.093 414.267 685.64 413.824 685.314 413.264C684.987 412.695 684.824 412.046 684.824 411.318C684.824 410.59 684.978 409.946 685.286 409.386C685.603 408.826 686.032 408.387 686.574 408.07C687.124 407.743 687.74 407.58 688.422 407.58C689.112 407.58 689.724 407.739 690.256 408.056C690.797 408.364 691.222 408.803 691.53 409.372C691.838 409.932 691.992 410.581 691.992 411.318C691.992 411.365 691.987 411.416 691.978 411.472C691.978 411.519 691.978 411.57 691.978 411.626H685.58V410.884H691.446L691.054 411.178C691.054 410.646 690.937 410.175 690.704 409.764C690.48 409.344 690.172 409.017 689.78 408.784C689.388 408.551 688.935 408.434 688.422 408.434C687.918 408.434 687.465 408.551 687.064 408.784C686.662 409.017 686.35 409.344 686.126 409.764C685.902 410.184 685.79 410.665 685.79 411.206V411.36C685.79 411.92 685.911 412.415 686.154 412.844C686.406 413.264 686.751 413.595 687.19 413.838C687.638 414.071 688.146 414.188 688.716 414.188C689.164 414.188 689.579 414.109 689.962 413.95C690.354 413.791 690.69 413.549 690.97 413.222L691.53 413.866C691.203 414.258 690.792 414.557 690.298 414.762C689.812 414.967 689.276 415.07 688.688 415.07ZM700.675 415.07C699.966 415.07 699.326 414.911 698.757 414.594C698.197 414.267 697.754 413.824 697.427 413.264C697.1 412.695 696.937 412.046 696.937 411.318C696.937 410.581 697.1 409.932 697.427 409.372C697.754 408.812 698.197 408.373 698.757 408.056C699.317 407.739 699.956 407.58 700.675 407.58C701.403 407.58 702.047 407.739 702.607 408.056C703.176 408.373 703.62 408.812 703.937 409.372C704.264 409.932 704.427 410.581 704.427 411.318C704.427 412.046 704.264 412.695 703.937 413.264C703.62 413.824 703.176 414.267 702.607 414.594C702.038 414.911 701.394 415.07 700.675 415.07ZM700.675 414.188C701.207 414.188 701.678 414.071 702.089 413.838C702.5 413.595 702.822 413.259 703.055 412.83C703.298 412.391 703.419 411.887 703.419 411.318C703.419 410.739 703.298 410.235 703.055 409.806C702.822 409.377 702.5 409.045 702.089 408.812C701.678 408.569 701.212 408.448 700.689 408.448C700.166 408.448 699.7 408.569 699.289 408.812C698.878 409.045 698.552 409.377 698.309 409.806C698.066 410.235 697.945 410.739 697.945 411.318C697.945 411.887 698.066 412.391 698.309 412.83C698.552 413.259 698.878 413.595 699.289 413.838C699.7 414.071 700.162 414.188 700.675 414.188ZM710.25 415.07C709.616 415.07 709.042 414.925 708.528 414.636C708.015 414.337 707.604 413.913 707.296 413.362C706.998 412.802 706.848 412.121 706.848 411.318C706.848 410.515 706.998 409.839 707.296 409.288C707.595 408.728 708.001 408.303 708.514 408.014C709.028 407.725 709.606 407.58 710.25 407.58C710.95 407.58 711.576 407.739 712.126 408.056C712.686 408.364 713.125 408.803 713.442 409.372C713.76 409.932 713.918 410.581 713.918 411.318C713.918 412.065 713.76 412.718 713.442 413.278C713.125 413.838 712.686 414.277 712.126 414.594C711.576 414.911 710.95 415.07 710.25 415.07ZM706.456 417.716V407.65H707.408V409.862L707.31 411.332L707.45 412.816V417.716H706.456ZM710.18 414.188C710.703 414.188 711.17 414.071 711.58 413.838C711.991 413.595 712.318 413.259 712.56 412.83C712.803 412.391 712.924 411.887 712.924 411.318C712.924 410.749 712.803 410.249 712.56 409.82C712.318 409.391 711.991 409.055 711.58 408.812C711.17 408.569 710.703 408.448 710.18 408.448C709.658 408.448 709.186 408.569 708.766 408.812C708.356 409.055 708.029 409.391 707.786 409.82C707.553 410.249 707.436 410.749 707.436 411.318C707.436 411.887 707.553 412.391 707.786 412.83C708.029 413.259 708.356 413.595 708.766 413.838C709.186 414.071 709.658 414.188 710.18 414.188ZM718.269 415.07C717.578 415.07 717.046 414.883 716.673 414.51C716.299 414.137 716.113 413.609 716.113 412.928V406.026H717.107V412.872C717.107 413.301 717.214 413.633 717.429 413.866C717.653 414.099 717.97 414.216 718.381 414.216C718.819 414.216 719.183 414.09 719.473 413.838L719.823 414.552C719.627 414.729 719.389 414.86 719.109 414.944C718.838 415.028 718.558 415.07 718.269 415.07ZM714.797 408.476V407.65H719.347V408.476H714.797ZM721.632 415V407.65H722.626V415H721.632ZM722.136 406.026C721.931 406.026 721.758 405.956 721.618 405.816C721.478 405.676 721.408 405.508 721.408 405.312C721.408 405.116 721.478 404.953 721.618 404.822C721.758 404.682 721.931 404.612 722.136 404.612C722.341 404.612 722.514 404.677 722.654 404.808C722.794 404.939 722.864 405.102 722.864 405.298C722.864 405.503 722.794 405.676 722.654 405.816C722.523 405.956 722.351 406.026 722.136 406.026ZM734.576 407.58C735.173 407.58 735.691 407.697 736.13 407.93C736.578 408.154 736.923 408.499 737.166 408.966C737.418 409.433 737.544 410.021 737.544 410.73V415H736.55V410.828C736.55 410.053 736.363 409.47 735.99 409.078C735.626 408.677 735.108 408.476 734.436 408.476C733.932 408.476 733.493 408.583 733.12 408.798C732.756 409.003 732.471 409.307 732.266 409.708C732.07 410.1 731.972 410.576 731.972 411.136V415H730.978V410.828C730.978 410.053 730.791 409.47 730.418 409.078C730.045 408.677 729.522 408.476 728.85 408.476C728.355 408.476 727.921 408.583 727.548 408.798C727.175 409.003 726.885 409.307 726.68 409.708C726.484 410.1 726.386 410.576 726.386 411.136V415H725.392V407.65H726.344V409.638L726.19 409.288C726.414 408.756 726.773 408.341 727.268 408.042C727.772 407.734 728.365 407.58 729.046 407.58C729.765 407.58 730.376 407.762 730.88 408.126C731.384 408.481 731.711 409.017 731.86 409.736L731.468 409.582C731.683 408.985 732.061 408.504 732.602 408.14C733.153 407.767 733.811 407.58 734.576 407.58ZM744.846 415V413.376L744.804 413.11V410.394C744.804 409.769 744.626 409.288 744.272 408.952C743.926 408.616 743.408 408.448 742.718 408.448C742.242 408.448 741.789 408.527 741.36 408.686C740.93 408.845 740.566 409.055 740.268 409.316L739.82 408.574C740.193 408.257 740.641 408.014 741.164 407.846C741.686 407.669 742.237 407.58 742.816 407.58C743.768 407.58 744.5 407.818 745.014 408.294C745.536 408.761 745.798 409.475 745.798 410.436V415H744.846ZM742.312 415.07C741.761 415.07 741.28 414.981 740.87 414.804C740.468 414.617 740.16 414.365 739.946 414.048C739.731 413.721 739.624 413.348 739.624 412.928C739.624 412.545 739.712 412.2 739.89 411.892C740.076 411.575 740.375 411.323 740.786 411.136C741.206 410.94 741.766 410.842 742.466 410.842H745V411.584H742.494C741.784 411.584 741.29 411.71 741.01 411.962C740.739 412.214 740.604 412.527 740.604 412.9C740.604 413.32 740.767 413.656 741.094 413.908C741.42 414.16 741.878 414.286 742.466 414.286C743.026 414.286 743.506 414.16 743.908 413.908C744.318 413.647 744.617 413.273 744.804 412.788L745.028 413.474C744.841 413.959 744.514 414.347 744.048 414.636C743.59 414.925 743.012 415.07 742.312 415.07ZM748.497 415V404.612H749.491V415H748.497ZM755.379 415.07C754.614 415.07 753.942 414.911 753.363 414.594C752.784 414.267 752.332 413.824 752.005 413.264C751.678 412.695 751.515 412.046 751.515 411.318C751.515 410.59 751.669 409.946 751.977 409.386C752.294 408.826 752.724 408.387 753.265 408.07C753.816 407.743 754.432 407.58 755.113 407.58C755.804 407.58 756.415 407.739 756.947 408.056C757.488 408.364 757.913 408.803 758.221 409.372C758.529 409.932 758.683 410.581 758.683 411.318C758.683 411.365 758.678 411.416 758.669 411.472C758.669 411.519 758.669 411.57 758.669 411.626H752.271V410.884H758.137L757.745 411.178C757.745 410.646 757.628 410.175 757.395 409.764C757.171 409.344 756.863 409.017 756.471 408.784C756.079 408.551 755.626 408.434 755.113 408.434C754.609 408.434 754.156 408.551 753.755 408.784C753.354 409.017 753.041 409.344 752.817 409.764C752.593 410.184 752.481 410.665 752.481 411.206V411.36C752.481 411.92 752.602 412.415 752.845 412.844C753.097 413.264 753.442 413.595 753.881 413.838C754.329 414.071 754.838 414.188 755.407 414.188C755.855 414.188 756.27 414.109 756.653 413.95C757.045 413.791 757.381 413.549 757.661 413.222L758.221 413.866C757.894 414.258 757.484 414.557 756.989 414.762C756.504 414.967 755.967 415.07 755.379 415.07Z" fill="#2D1F67"/>
<rect x="565" y="394" width="31" height="31" rx="5" fill="#9C51F1"/>
<path fill-rule="evenodd" clip-rule="evenodd" d="M580.707 400.819C581.052 400.912 581.292 401.226 581.292 401.583V407.125H586.042C586.325 407.125 586.587 407.276 586.728 407.522C586.869 407.768 586.868 408.071 586.726 408.315L581.184 417.815C581.004 418.124 580.639 418.274 580.293 418.181C579.948 418.087 579.708 417.774 579.708 417.417V411.875H574.958C574.675 411.875 574.413 411.723 574.272 411.478C574.131 411.232 574.132 410.929 574.275 410.684L579.816 401.184C579.996 400.875 580.361 400.726 580.707 400.819ZM576.337 410.292H580.5C580.937 410.292 581.292 410.646 581.292 411.083V414.488L584.663 408.708H580.5C580.063 408.708 579.708 408.354 579.708 407.917V404.512L576.337 410.292Z" fill="white" fill-opacity="0.8"/>
<path fill-rule="evenodd" clip-rule="evenodd" d="M721.915 135.94C722.431 136.907 722.948 137.779 723.442 138.552C718.192 137.371 713.637 134.356 710.485 130.215C712.565 129.043 715.23 127.829 718.433 126.94C719.343 130.511 720.628 133.527 721.915 135.94ZM725.885 133.822C724.767 131.726 723.647 129.108 722.839 126.006C724.577 125.748 726.433 125.6 728.4 125.6C730.368 125.6 732.223 125.748 733.96 126.006C733.153 129.108 732.033 131.726 730.915 133.822C730.018 135.503 729.125 136.845 728.4 137.827C727.675 136.845 726.782 135.503 725.885 133.822ZM721.65 116.6C721.65 118.352 721.768 120.015 721.976 121.585C723.981 121.278 726.124 121.1 728.4 121.1C730.676 121.1 732.82 121.278 734.824 121.585C735.032 120.015 735.15 118.352 735.15 116.6C735.15 114.847 735.032 113.184 734.824 111.614C732.82 111.921 730.676 112.1 728.4 112.1C726.124 112.1 723.981 111.921 721.976 111.614C721.768 113.184 721.65 114.847 721.65 116.6ZM717.561 110.686C717.299 112.543 717.15 114.516 717.15 116.6C717.15 118.683 717.299 120.656 717.561 122.513C713.74 123.539 710.576 124.985 708.13 126.377C706.701 123.42 705.9 120.104 705.9 116.6C705.9 113.096 706.701 109.779 708.13 106.822C710.576 108.214 713.74 109.66 717.561 110.686ZM722.839 107.193C724.577 107.451 726.433 107.6 728.4 107.6C730.368 107.6 732.223 107.451 733.96 107.193C733.153 104.091 732.033 101.473 730.915 99.3772C730.018 97.6964 729.125 96.3543 728.4 95.3726C727.675 96.3543 726.782 97.6964 725.885 99.3771C724.767 101.473 723.647 104.091 722.839 107.193ZM739.239 110.686C739.501 112.543 739.65 114.516 739.65 116.6C739.65 118.683 739.501 120.656 739.239 122.513C743.06 123.539 746.224 124.985 748.67 126.377C750.099 123.42 750.9 120.103 750.9 116.6C750.9 113.096 750.099 109.779 748.67 106.822C746.224 108.214 743.06 109.66 739.239 110.686ZM746.315 102.985C744.234 104.157 741.57 105.371 738.367 106.259C737.457 102.689 736.172 99.6727 734.885 97.2596C734.369 96.2919 733.852 95.4204 733.358 94.6477C738.608 95.8283 743.163 98.8437 746.315 102.985ZM718.433 106.259C715.23 105.371 712.566 104.156 710.485 102.985C713.637 98.8436 718.192 95.8283 723.442 94.6477C722.948 95.4204 722.431 96.2919 721.915 97.2595C720.628 99.6726 719.343 102.689 718.433 106.259ZM738.367 126.94C737.457 130.511 736.172 133.527 734.885 135.94C734.369 136.907 733.852 137.779 733.358 138.552C738.608 137.371 743.163 134.355 746.315 130.214C744.235 129.043 741.57 127.829 738.367 126.94ZM728.4 143.6C743.312 143.6 755.4 131.511 755.4 116.6C755.4 101.688 743.312 89.5996 728.4 89.5996C713.488 89.5996 701.4 101.688 701.4 116.6C701.4 131.511 713.488 143.6 728.4 143.6Z" fill="white"/>
<path d="M485 91V82.0265L495 82V91H485Z" fill="#C591FF"/>
<path d="M563 91V82.0265L573 82V91H563Z" fill="#C591FF"/>
<path d="M501 91V82.0265L511 82V91H501Z" fill="#C591FF"/>
<path d="M579 91V82.0265L589 82V91H579Z" fill="#C591FF"/>
<path d="M517 91V82.0265L527 82V91H517Z" fill="#C591FF"/>
<path d="M595 91V82.0265L605 82V91H595Z" fill="#C591FF"/>
<path d="M533 91V82.0265L543 82V91H533Z" fill="#C591FF"/>
<path d="M611 91V82.0265L621 82V91H611Z" fill="#C591FF"/>
<path d="M549 91V82.0265L559 82V91H549Z" fill="#C591FF"/>
<path d="M627 91V82.0265L637 82V91H627Z" fill="#C591FF"/>
<rect x="10.5" y="260.5" width="310" height="48" rx="9.5" fill="white" stroke="#B7C1E7"/>
<path d="M55.596 290V280.2H56.45L60.93 287.844H60.482L64.92 280.2H65.774V290H64.78V281.754H65.018L60.93 288.754H60.44L56.324 281.754H56.59V290H55.596ZM73.3631 290V288.376L73.3211 288.11V285.394C73.3211 284.769 73.1438 284.288 72.7891 283.952C72.4438 283.616 71.9258 283.448 71.2351 283.448C70.7591 283.448 70.3064 283.527 69.8771 283.686C69.4478 283.845 69.0838 284.055 68.7851 284.316L68.3371 283.574C68.7104 283.257 69.1584 283.014 69.6811 282.846C70.2038 282.669 70.7544 282.58 71.3331 282.58C72.2851 282.58 73.0178 282.818 73.5311 283.294C74.0538 283.761 74.3151 284.475 74.3151 285.436V290H73.3631ZM70.8291 290.07C70.2784 290.07 69.7978 289.981 69.3871 289.804C68.9858 289.617 68.6778 289.365 68.4631 289.048C68.2484 288.721 68.1411 288.348 68.1411 287.928C68.1411 287.545 68.2298 287.2 68.4071 286.892C68.5938 286.575 68.8924 286.323 69.3031 286.136C69.7231 285.94 70.2831 285.842 70.9831 285.842H73.5171V286.584H71.0111C70.3018 286.584 69.8071 286.71 69.5271 286.962C69.2564 287.214 69.1211 287.527 69.1211 287.9C69.1211 288.32 69.2844 288.656 69.6111 288.908C69.9378 289.16 70.3951 289.286 70.9831 289.286C71.5431 289.286 72.0238 289.16 72.4251 288.908C72.8358 288.647 73.1344 288.273 73.3211 287.788L73.5451 288.474C73.3584 288.959 73.0318 289.347 72.5651 289.636C72.1078 289.925 71.5291 290.07 70.8291 290.07ZM77.0149 290V282.65H78.0089V290H77.0149ZM77.5189 281.026C77.3136 281.026 77.1409 280.956 77.0009 280.816C76.8609 280.676 76.7909 280.508 76.7909 280.312C76.7909 280.116 76.8609 279.953 77.0009 279.822C77.1409 279.682 77.3136 279.612 77.5189 279.612C77.7242 279.612 77.8969 279.677 78.0369 279.808C78.1769 279.939 78.2469 280.102 78.2469 280.298C78.2469 280.503 78.1769 280.676 78.0369 280.816C77.9062 280.956 77.7336 281.026 77.5189 281.026ZM84.5267 282.58C85.124 282.58 85.6467 282.697 86.0947 282.93C86.552 283.154 86.9067 283.499 87.1587 283.966C87.42 284.433 87.5507 285.021 87.5507 285.73V290H86.5567V285.828C86.5567 285.053 86.3607 284.47 85.9687 284.078C85.586 283.677 85.0447 283.476 84.3447 283.476C83.822 283.476 83.3647 283.583 82.9727 283.798C82.59 284.003 82.2913 284.307 82.0767 284.708C81.8713 285.1 81.7687 285.576 81.7687 286.136V290H80.7747V282.65H81.7267V284.666L81.5727 284.288C81.806 283.756 82.1793 283.341 82.6927 283.042C83.206 282.734 83.8173 282.58 84.5267 282.58ZM92.5596 290.07C91.8689 290.07 91.3369 289.883 90.9636 289.51C90.5903 289.137 90.4036 288.609 90.4036 287.928V281.026H91.3976V287.872C91.3976 288.301 91.5049 288.633 91.7196 288.866C91.9436 289.099 92.2609 289.216 92.6716 289.216C93.1103 289.216 93.4743 289.09 93.7636 288.838L94.1136 289.552C93.9176 289.729 93.6796 289.86 93.3996 289.944C93.1289 290.028 92.8489 290.07 92.5596 290.07ZM89.0876 283.476V282.65H93.6376V283.476H89.0876ZM98.7853 290.07C98.02 290.07 97.348 289.911 96.7693 289.594C96.1907 289.267 95.738 288.824 95.4113 288.264C95.0847 287.695 94.9213 287.046 94.9213 286.318C94.9213 285.59 95.0753 284.946 95.3833 284.386C95.7007 283.826 96.13 283.387 96.6713 283.07C97.222 282.743 97.838 282.58 98.5193 282.58C99.21 282.58 99.8213 282.739 100.353 283.056C100.895 283.364 101.319 283.803 101.627 284.372C101.935 284.932 102.089 285.581 102.089 286.318C102.089 286.365 102.085 286.416 102.075 286.472C102.075 286.519 102.075 286.57 102.075 286.626H95.6773V285.884H101.543L101.151 286.178C101.151 285.646 101.035 285.175 100.801 284.764C100.577 284.344 100.269 284.017 99.8773 283.784C99.4853 283.551 99.0327 283.434 98.5193 283.434C98.0153 283.434 97.5627 283.551 97.1613 283.784C96.76 284.017 96.4473 284.344 96.2233 284.764C95.9993 285.184 95.8873 285.665 95.8873 286.206V286.36C95.8873 286.92 96.0087 287.415 96.2513 287.844C96.5033 288.264 96.8487 288.595 97.2873 288.838C97.7353 289.071 98.244 289.188 98.8133 289.188C99.2613 289.188 99.6767 289.109 100.059 288.95C100.451 288.791 100.787 288.549 101.067 288.222L101.627 288.866C101.301 289.258 100.89 289.557 100.395 289.762C99.91 289.967 99.3733 290.07 98.7853 290.07ZM107.865 282.58C108.462 282.58 108.985 282.697 109.433 282.93C109.89 283.154 110.245 283.499 110.497 283.966C110.758 284.433 110.889 285.021 110.889 285.73V290H109.895V285.828C109.895 285.053 109.699 284.47 109.307 284.078C108.924 283.677 108.383 283.476 107.683 283.476C107.16 283.476 106.703 283.583 106.311 283.798C105.928 284.003 105.629 284.307 105.415 284.708C105.209 285.1 105.107 285.576 105.107 286.136V290H104.113V282.65H105.065V284.666L104.911 284.288C105.144 283.756 105.517 283.341 106.031 283.042C106.544 282.734 107.155 282.58 107.865 282.58ZM118.18 290V288.376L118.138 288.11V285.394C118.138 284.769 117.96 284.288 117.606 283.952C117.26 283.616 116.742 283.448 116.052 283.448C115.576 283.448 115.123 283.527 114.694 283.686C114.264 283.845 113.9 284.055 113.602 284.316L113.154 283.574C113.527 283.257 113.975 283.014 114.498 282.846C115.02 282.669 115.571 282.58 116.15 282.58C117.102 282.58 117.834 282.818 118.348 283.294C118.87 283.761 119.132 284.475 119.132 285.436V290H118.18ZM115.646 290.07C115.095 290.07 114.614 289.981 114.204 289.804C113.802 289.617 113.494 289.365 113.28 289.048C113.065 288.721 112.958 288.348 112.958 287.928C112.958 287.545 113.046 287.2 113.224 286.892C113.41 286.575 113.709 286.323 114.12 286.136C114.54 285.94 115.1 285.842 115.8 285.842H118.334V286.584H115.828C115.118 286.584 114.624 286.71 114.344 286.962C114.073 287.214 113.938 287.527 113.938 287.9C113.938 288.32 114.101 288.656 114.428 288.908C114.754 289.16 115.212 289.286 115.8 289.286C116.36 289.286 116.84 289.16 117.242 288.908C117.652 288.647 117.951 288.273 118.138 287.788L118.362 288.474C118.175 288.959 117.848 289.347 117.382 289.636C116.924 289.925 116.346 290.07 115.646 290.07ZM125.583 282.58C126.181 282.58 126.703 282.697 127.151 282.93C127.609 283.154 127.963 283.499 128.215 283.966C128.477 284.433 128.607 285.021 128.607 285.73V290H127.613V285.828C127.613 285.053 127.417 284.47 127.025 284.078C126.643 283.677 126.101 283.476 125.401 283.476C124.879 283.476 124.421 283.583 124.029 283.798C123.647 284.003 123.348 284.307 123.133 284.708C122.928 285.1 122.825 285.576 122.825 286.136V290H121.831V282.65H122.783V284.666L122.629 284.288C122.863 283.756 123.236 283.341 123.749 283.042C124.263 282.734 124.874 282.58 125.583 282.58ZM134.344 290.07C133.616 290.07 132.963 289.911 132.384 289.594C131.815 289.267 131.367 288.824 131.04 288.264C130.714 287.695 130.55 287.046 130.55 286.318C130.55 285.581 130.714 284.932 131.04 284.372C131.367 283.812 131.815 283.373 132.384 283.056C132.963 282.739 133.616 282.58 134.344 282.58C134.97 282.58 135.534 282.701 136.038 282.944C136.542 283.187 136.939 283.551 137.228 284.036L136.486 284.54C136.234 284.167 135.922 283.891 135.548 283.714C135.175 283.537 134.769 283.448 134.33 283.448C133.808 283.448 133.336 283.569 132.916 283.812C132.496 284.045 132.165 284.377 131.922 284.806C131.68 285.235 131.558 285.739 131.558 286.318C131.558 286.897 131.68 287.401 131.922 287.83C132.165 288.259 132.496 288.595 132.916 288.838C133.336 289.071 133.808 289.188 134.33 289.188C134.769 289.188 135.175 289.099 135.548 288.922C135.922 288.745 136.234 288.474 136.486 288.11L137.228 288.614C136.939 289.09 136.542 289.454 136.038 289.706C135.534 289.949 134.97 290.07 134.344 290.07ZM142.18 290.07C141.415 290.07 140.743 289.911 140.164 289.594C139.585 289.267 139.133 288.824 138.806 288.264C138.479 287.695 138.316 287.046 138.316 286.318C138.316 285.59 138.47 284.946 138.778 284.386C139.095 283.826 139.525 283.387 140.066 283.07C140.617 282.743 141.233 282.58 141.914 282.58C142.605 282.58 143.216 282.739 143.748 283.056C144.289 283.364 144.714 283.803 145.022 284.372C145.33 284.932 145.484 285.581 145.484 286.318C145.484 286.365 145.479 286.416 145.47 286.472C145.47 286.519 145.47 286.57 145.47 286.626H139.072V285.884H144.938L144.546 286.178C144.546 285.646 144.429 285.175 144.196 284.764C143.972 284.344 143.664 284.017 143.272 283.784C142.88 283.551 142.427 283.434 141.914 283.434C141.41 283.434 140.957 283.551 140.556 283.784C140.155 284.017 139.842 284.344 139.618 284.764C139.394 285.184 139.282 285.665 139.282 286.206V286.36C139.282 286.92 139.403 287.415 139.646 287.844C139.898 288.264 140.243 288.595 140.682 288.838C141.13 289.071 141.639 289.188 142.208 289.188C142.656 289.188 143.071 289.109 143.454 288.95C143.846 288.791 144.182 288.549 144.462 288.222L145.022 288.866C144.695 289.258 144.285 289.557 143.79 289.762C143.305 289.967 142.768 290.07 142.18 290.07ZM153.761 290.084C153.126 290.084 152.562 289.981 152.067 289.776C151.572 289.561 151.18 289.267 150.891 288.894C150.611 288.521 150.471 288.087 150.471 287.592C150.471 287.172 150.564 286.789 150.751 286.444C150.938 286.089 151.236 285.744 151.647 285.408C152.067 285.063 152.622 284.703 153.313 284.33C153.901 284.003 154.358 283.723 154.685 283.49C155.021 283.247 155.259 283.019 155.399 282.804C155.539 282.58 155.609 282.342 155.609 282.09C155.609 281.726 155.483 281.432 155.231 281.208C154.988 280.984 154.638 280.872 154.181 280.872C153.686 280.872 153.304 280.998 153.033 281.25C152.762 281.493 152.627 281.81 152.627 282.202C152.627 282.398 152.655 282.585 152.711 282.762C152.776 282.939 152.893 283.135 153.061 283.35C153.238 283.565 153.481 283.835 153.789 284.162L158.969 289.496L158.395 290.154L152.991 284.596C152.664 284.251 152.403 283.952 152.207 283.7C152.02 283.439 151.89 283.191 151.815 282.958C151.74 282.725 151.703 282.477 151.703 282.216C151.703 281.796 151.801 281.432 151.997 281.124C152.202 280.807 152.492 280.564 152.865 280.396C153.238 280.219 153.677 280.13 154.181 280.13C154.638 280.13 155.035 280.209 155.371 280.368C155.716 280.517 155.982 280.737 156.169 281.026C156.365 281.315 156.463 281.665 156.463 282.076C156.463 282.431 156.374 282.762 156.197 283.07C156.029 283.378 155.749 283.681 155.357 283.98C154.965 284.269 154.433 284.596 153.761 284.96C153.173 285.287 152.706 285.585 152.361 285.856C152.025 286.127 151.787 286.393 151.647 286.654C151.507 286.906 151.437 287.186 151.437 287.494C151.437 287.849 151.535 288.161 151.731 288.432C151.936 288.693 152.216 288.899 152.571 289.048C152.935 289.188 153.35 289.258 153.817 289.258C154.47 289.258 155.054 289.123 155.567 288.852C156.08 288.581 156.51 288.171 156.855 287.62C157.21 287.069 157.466 286.379 157.625 285.548L158.423 285.8C158.246 286.733 157.942 287.517 157.513 288.152C157.084 288.787 156.552 289.267 155.917 289.594C155.282 289.921 154.564 290.084 153.761 290.084ZM167.952 282.58C168.55 282.58 169.072 282.697 169.52 282.93C169.978 283.154 170.332 283.499 170.584 283.966C170.846 284.433 170.976 285.021 170.976 285.73V290H169.982V285.828C169.982 285.053 169.786 284.47 169.394 284.078C169.012 283.677 168.47 283.476 167.77 283.476C167.248 283.476 166.79 283.583 166.398 283.798C166.016 284.003 165.717 284.307 165.502 284.708C165.297 285.1 165.194 285.576 165.194 286.136V290H164.2V279.612H165.194V284.666L164.998 284.288C165.232 283.756 165.605 283.341 166.118 283.042C166.632 282.734 167.243 282.58 167.952 282.58ZM176.783 290.07C176.018 290.07 175.346 289.911 174.767 289.594C174.189 289.267 173.736 288.824 173.409 288.264C173.083 287.695 172.919 287.046 172.919 286.318C172.919 285.59 173.073 284.946 173.381 284.386C173.699 283.826 174.128 283.387 174.669 283.07C175.22 282.743 175.836 282.58 176.517 282.58C177.208 282.58 177.819 282.739 178.351 283.056C178.893 283.364 179.317 283.803 179.625 284.372C179.933 284.932 180.087 285.581 180.087 286.318C180.087 286.365 180.083 286.416 180.073 286.472C180.073 286.519 180.073 286.57 180.073 286.626H173.675V285.884H179.541L179.149 286.178C179.149 285.646 179.033 285.175 178.799 284.764C178.575 284.344 178.267 284.017 177.875 283.784C177.483 283.551 177.031 283.434 176.517 283.434C176.013 283.434 175.561 283.551 175.159 283.784C174.758 284.017 174.445 284.344 174.221 284.764C173.997 285.184 173.885 285.665 173.885 286.206V286.36C173.885 286.92 174.007 287.415 174.249 287.844C174.501 288.264 174.847 288.595 175.285 288.838C175.733 289.071 176.242 289.188 176.811 289.188C177.259 289.188 177.675 289.109 178.057 288.95C178.449 288.791 178.785 288.549 179.065 288.222L179.625 288.866C179.299 289.258 178.888 289.557 178.393 289.762C177.908 289.967 177.371 290.07 176.783 290.07ZM175.593 281.502L177.511 279.766H178.841L176.573 281.502H175.593ZM185.905 290.07C185.261 290.07 184.682 289.925 184.169 289.636C183.655 289.337 183.249 288.908 182.951 288.348C182.652 287.788 182.503 287.111 182.503 286.318C182.503 285.515 182.652 284.839 182.951 284.288C183.259 283.728 183.669 283.303 184.183 283.014C184.696 282.725 185.27 282.58 185.905 282.58C186.605 282.58 187.23 282.739 187.781 283.056C188.341 283.364 188.779 283.798 189.097 284.358C189.414 284.918 189.573 285.571 189.573 286.318C189.573 287.055 189.414 287.709 189.097 288.278C188.779 288.838 188.341 289.277 187.781 289.594C187.23 289.911 186.605 290.07 185.905 290.07ZM182.111 290V279.612H183.105V284.82L182.965 286.304L183.063 287.788V290H182.111ZM185.835 289.188C186.357 289.188 186.824 289.071 187.235 288.838C187.645 288.595 187.972 288.259 188.215 287.83C188.457 287.391 188.579 286.887 188.579 286.318C188.579 285.739 188.457 285.235 188.215 284.806C187.972 284.377 187.645 284.045 187.235 283.812C186.824 283.569 186.357 283.448 185.835 283.448C185.312 283.448 184.841 283.569 184.421 283.812C184.01 284.045 183.683 284.377 183.441 284.806C183.207 285.235 183.091 285.739 183.091 286.318C183.091 286.887 183.207 287.391 183.441 287.83C183.683 288.259 184.01 288.595 184.421 288.838C184.841 289.071 185.312 289.188 185.835 289.188ZM194.721 290.07C193.956 290.07 193.284 289.911 192.705 289.594C192.126 289.267 191.674 288.824 191.347 288.264C191.02 287.695 190.857 287.046 190.857 286.318C190.857 285.59 191.011 284.946 191.319 284.386C191.636 283.826 192.066 283.387 192.607 283.07C193.158 282.743 193.774 282.58 194.455 282.58C195.146 282.58 195.757 282.739 196.289 283.056C196.83 283.364 197.255 283.803 197.563 284.372C197.871 284.932 198.025 285.581 198.025 286.318C198.025 286.365 198.02 286.416 198.011 286.472C198.011 286.519 198.011 286.57 198.011 286.626H191.613V285.884H197.479L197.087 286.178C197.087 285.646 196.97 285.175 196.737 284.764C196.513 284.344 196.205 284.017 195.813 283.784C195.421 283.551 194.968 283.434 194.455 283.434C193.951 283.434 193.498 283.551 193.097 283.784C192.696 284.017 192.383 284.344 192.159 284.764C191.935 285.184 191.823 285.665 191.823 286.206V286.36C191.823 286.92 191.944 287.415 192.187 287.844C192.439 288.264 192.784 288.595 193.223 288.838C193.671 289.071 194.18 289.188 194.749 289.188C195.197 289.188 195.612 289.109 195.995 288.95C196.387 288.791 196.723 288.549 197.003 288.222L197.563 288.866C197.236 289.258 196.826 289.557 196.331 289.762C195.846 289.967 195.309 290.07 194.721 290.07ZM200.048 290V282.65H201V284.652L200.902 284.302C201.107 283.742 201.453 283.317 201.938 283.028C202.423 282.729 203.025 282.58 203.744 282.58V283.546C203.707 283.546 203.669 283.546 203.632 283.546C203.595 283.537 203.557 283.532 203.52 283.532C202.745 283.532 202.139 283.77 201.7 284.246C201.261 284.713 201.042 285.38 201.042 286.248V290H200.048ZM208.626 292.786C207.954 292.786 207.31 292.688 206.694 292.492C206.078 292.296 205.578 292.016 205.196 291.652L205.7 290.896C206.045 291.204 206.47 291.447 206.974 291.624C207.487 291.811 208.028 291.904 208.598 291.904C209.531 291.904 210.217 291.685 210.656 291.246C211.094 290.817 211.314 290.145 211.314 289.23V287.396L211.454 286.136L211.356 284.876V282.65H212.308V289.104C212.308 290.373 211.995 291.302 211.37 291.89C210.754 292.487 209.839 292.786 208.626 292.786ZM208.444 289.72C207.744 289.72 207.114 289.571 206.554 289.272C205.994 288.964 205.55 288.539 205.224 287.998C204.906 287.457 204.748 286.836 204.748 286.136C204.748 285.436 204.906 284.82 205.224 284.288C205.55 283.747 205.994 283.327 206.554 283.028C207.114 282.729 207.744 282.58 208.444 282.58C209.097 282.58 209.685 282.715 210.208 282.986C210.73 283.257 211.146 283.658 211.454 284.19C211.762 284.722 211.916 285.371 211.916 286.136C211.916 286.901 211.762 287.55 211.454 288.082C211.146 288.614 210.73 289.02 210.208 289.3C209.685 289.58 209.097 289.72 208.444 289.72ZM208.542 288.838C209.083 288.838 209.564 288.726 209.984 288.502C210.404 288.269 210.735 287.951 210.978 287.55C211.22 287.139 211.342 286.668 211.342 286.136C211.342 285.604 211.22 285.137 210.978 284.736C210.735 284.335 210.404 284.022 209.984 283.798C209.564 283.565 209.083 283.448 208.542 283.448C208.01 283.448 207.529 283.565 207.1 283.798C206.68 284.022 206.348 284.335 206.106 284.736C205.872 285.137 205.756 285.604 205.756 286.136C205.756 286.668 205.872 287.139 206.106 287.55C206.348 287.951 206.68 288.269 207.1 288.502C207.529 288.726 208.01 288.838 208.542 288.838ZM218.196 290.07C217.43 290.07 216.758 289.911 216.18 289.594C215.601 289.267 215.148 288.824 214.822 288.264C214.495 287.695 214.332 287.046 214.332 286.318C214.332 285.59 214.486 284.946 214.794 284.386C215.111 283.826 215.54 283.387 216.082 283.07C216.632 282.743 217.248 282.58 217.93 282.58C218.62 282.58 219.232 282.739 219.764 283.056C220.305 283.364 220.73 283.803 221.038 284.372C221.346 284.932 221.5 285.581 221.5 286.318C221.5 286.365 221.495 286.416 221.486 286.472C221.486 286.519 221.486 286.57 221.486 286.626H215.088V285.884H220.954L220.562 286.178C220.562 285.646 220.445 285.175 220.212 284.764C219.988 284.344 219.68 284.017 219.288 283.784C218.896 283.551 218.443 283.434 217.93 283.434C217.426 283.434 216.973 283.551 216.572 283.784C216.17 284.017 215.858 284.344 215.634 284.764C215.41 285.184 215.298 285.665 215.298 286.206V286.36C215.298 286.92 215.419 287.415 215.662 287.844C215.914 288.264 216.259 288.595 216.698 288.838C217.146 289.071 217.654 289.188 218.224 289.188C218.672 289.188 219.087 289.109 219.47 288.95C219.862 288.791 220.198 288.549 220.478 288.222L221.038 288.866C220.711 289.258 220.3 289.557 219.806 289.762C219.32 289.967 218.784 290.07 218.196 290.07ZM232.707 282.58C233.304 282.58 233.822 282.697 234.261 282.93C234.709 283.154 235.054 283.499 235.297 283.966C235.549 284.433 235.675 285.021 235.675 285.73V290H234.681V285.828C234.681 285.053 234.494 284.47 234.121 284.078C233.757 283.677 233.239 283.476 232.567 283.476C232.063 283.476 231.624 283.583 231.251 283.798C230.887 284.003 230.602 284.307 230.397 284.708C230.201 285.1 230.103 285.576 230.103 286.136V290H229.109V285.828C229.109 285.053 228.922 284.47 228.549 284.078C228.175 283.677 227.653 283.476 226.981 283.476C226.486 283.476 226.052 283.583 225.679 283.798C225.305 284.003 225.016 284.307 224.811 284.708C224.615 285.1 224.517 285.576 224.517 286.136V290H223.523V282.65H224.475V284.638L224.321 284.288C224.545 283.756 224.904 283.341 225.399 283.042C225.903 282.734 226.495 282.58 227.177 282.58C227.895 282.58 228.507 282.762 229.011 283.126C229.515 283.481 229.841 284.017 229.991 284.736L229.599 284.582C229.813 283.985 230.191 283.504 230.733 283.14C231.283 282.767 231.941 282.58 232.707 282.58ZM241.492 290.07C240.727 290.07 240.055 289.911 239.476 289.594C238.898 289.267 238.445 288.824 238.118 288.264C237.792 287.695 237.628 287.046 237.628 286.318C237.628 285.59 237.782 284.946 238.09 284.386C238.408 283.826 238.837 283.387 239.378 283.07C239.929 282.743 240.545 282.58 241.226 282.58C241.917 282.58 242.528 282.739 243.06 283.056C243.602 283.364 244.026 283.803 244.334 284.372C244.642 284.932 244.796 285.581 244.796 286.318C244.796 286.365 244.792 286.416 244.782 286.472C244.782 286.519 244.782 286.57 244.782 286.626H238.384V285.884H244.25L243.858 286.178C243.858 285.646 243.742 285.175 243.508 284.764C243.284 284.344 242.976 284.017 242.584 283.784C242.192 283.551 241.74 283.434 241.226 283.434C240.722 283.434 240.27 283.551 239.868 283.784C239.467 284.017 239.154 284.344 238.93 284.764C238.706 285.184 238.594 285.665 238.594 286.206V286.36C238.594 286.92 238.716 287.415 238.958 287.844C239.21 288.264 239.556 288.595 239.994 288.838C240.442 289.071 240.951 289.188 241.52 289.188C241.968 289.188 242.384 289.109 242.766 288.95C243.158 288.791 243.494 288.549 243.774 288.222L244.334 288.866C244.008 289.258 243.597 289.557 243.102 289.762C242.617 289.967 242.08 290.07 241.492 290.07ZM250.572 282.58C251.169 282.58 251.692 282.697 252.14 282.93C252.597 283.154 252.952 283.499 253.204 283.966C253.465 284.433 253.596 285.021 253.596 285.73V290H252.602V285.828C252.602 285.053 252.406 284.47 252.014 284.078C251.631 283.677 251.09 283.476 250.39 283.476C249.867 283.476 249.41 283.583 249.018 283.798C248.635 284.003 248.336 284.307 248.122 284.708C247.916 285.1 247.814 285.576 247.814 286.136V290H246.82V282.65H247.772V284.666L247.618 284.288C247.851 283.756 248.224 283.341 248.738 283.042C249.251 282.734 249.862 282.58 250.572 282.58ZM258.605 290.07C257.914 290.07 257.382 289.883 257.009 289.51C256.635 289.137 256.449 288.609 256.449 287.928V281.026H257.443V287.872C257.443 288.301 257.55 288.633 257.765 288.866C257.989 289.099 258.306 289.216 258.717 289.216C259.155 289.216 259.519 289.09 259.809 288.838L260.159 289.552C259.963 289.729 259.725 289.86 259.445 289.944C259.174 290.028 258.894 290.07 258.605 290.07ZM255.133 283.476V282.65H259.683V283.476H255.133ZM265.632 290V282.65H266.626V290H265.632ZM266.136 281.026C265.931 281.026 265.758 280.956 265.618 280.816C265.478 280.676 265.408 280.508 265.408 280.312C265.408 280.116 265.478 279.953 265.618 279.822C265.758 279.682 265.931 279.612 266.136 279.612C266.341 279.612 266.514 279.677 266.654 279.808C266.794 279.939 266.864 280.102 266.864 280.298C266.864 280.503 266.794 280.676 266.654 280.816C266.523 280.956 266.351 281.026 266.136 281.026ZM273.144 282.58C273.741 282.58 274.264 282.697 274.712 282.93C275.169 283.154 275.524 283.499 275.776 283.966C276.037 284.433 276.168 285.021 276.168 285.73V290H275.174V285.828C275.174 285.053 274.978 284.47 274.586 284.078C274.203 283.677 273.662 283.476 272.962 283.476C272.439 283.476 271.982 283.583 271.59 283.798C271.207 284.003 270.909 284.307 270.694 284.708C270.489 285.1 270.386 285.576 270.386 286.136V290H269.392V282.65H270.344V284.666L270.19 284.288C270.423 283.756 270.797 283.341 271.31 283.042C271.823 282.734 272.435 282.58 273.144 282.58ZM281.905 290.07C281.177 290.07 280.523 289.911 279.945 289.594C279.375 289.267 278.927 288.824 278.601 288.264C278.274 287.695 278.111 287.046 278.111 286.318C278.111 285.581 278.274 284.932 278.601 284.372C278.927 283.812 279.375 283.373 279.945 283.056C280.523 282.739 281.177 282.58 281.905 282.58C282.53 282.58 283.095 282.701 283.599 282.944C284.103 283.187 284.499 283.551 284.789 284.036L284.047 284.54C283.795 284.167 283.482 283.891 283.109 283.714C282.735 283.537 282.329 283.448 281.891 283.448C281.368 283.448 280.897 283.569 280.477 283.812C280.057 284.045 279.725 284.377 279.483 284.806C279.24 285.235 279.119 285.739 279.119 286.318C279.119 286.897 279.24 287.401 279.483 287.83C279.725 288.259 280.057 288.595 280.477 288.838C280.897 289.071 281.368 289.188 281.891 289.188C282.329 289.188 282.735 289.099 283.109 288.922C283.482 288.745 283.795 288.474 284.047 288.11L284.789 288.614C284.499 289.09 284.103 289.454 283.599 289.706C283.095 289.949 282.53 290.07 281.905 290.07ZM286.632 290V279.612H287.626V290H286.632ZM293.43 290.07C292.805 290.07 292.259 289.953 291.792 289.72C291.325 289.487 290.961 289.137 290.7 288.67C290.448 288.203 290.322 287.62 290.322 286.92V282.65H291.316V286.808C291.316 287.592 291.507 288.185 291.89 288.586C292.282 288.978 292.828 289.174 293.528 289.174C294.041 289.174 294.485 289.071 294.858 288.866C295.241 288.651 295.53 288.343 295.726 287.942C295.931 287.541 296.034 287.06 296.034 286.5V282.65H297.028V290H296.076V287.984L296.23 288.348C295.997 288.889 295.633 289.314 295.138 289.622C294.653 289.921 294.083 290.07 293.43 290.07ZM301.772 290.07C301.165 290.07 300.591 289.986 300.05 289.818C299.509 289.641 299.084 289.421 298.776 289.16L299.224 288.376C299.523 288.6 299.905 288.796 300.372 288.964C300.839 289.123 301.329 289.202 301.842 289.202C302.542 289.202 303.046 289.095 303.354 288.88C303.662 288.656 303.816 288.362 303.816 287.998C303.816 287.727 303.727 287.517 303.55 287.368C303.382 287.209 303.158 287.093 302.878 287.018C302.598 286.934 302.285 286.864 301.94 286.808C301.595 286.752 301.249 286.687 300.904 286.612C300.568 286.537 300.26 286.43 299.98 286.29C299.7 286.141 299.471 285.94 299.294 285.688C299.126 285.436 299.042 285.1 299.042 284.68C299.042 284.279 299.154 283.919 299.378 283.602C299.602 283.285 299.929 283.037 300.358 282.86C300.797 282.673 301.329 282.58 301.954 282.58C302.43 282.58 302.906 282.645 303.382 282.776C303.858 282.897 304.25 283.061 304.558 283.266L304.124 284.064C303.797 283.84 303.447 283.681 303.074 283.588C302.701 283.485 302.327 283.434 301.954 283.434C301.291 283.434 300.801 283.551 300.484 283.784C300.176 284.008 300.022 284.297 300.022 284.652C300.022 284.932 300.106 285.151 300.274 285.31C300.451 285.469 300.68 285.595 300.96 285.688C301.249 285.772 301.562 285.842 301.898 285.898C302.243 285.954 302.584 286.024 302.92 286.108C303.265 286.183 303.578 286.29 303.858 286.43C304.147 286.561 304.376 286.752 304.544 287.004C304.721 287.247 304.81 287.569 304.81 287.97C304.81 288.399 304.689 288.773 304.446 289.09C304.213 289.398 303.867 289.641 303.41 289.818C302.962 289.986 302.416 290.07 301.772 290.07Z" fill="#2D1F67"/>
<rect x="18" y="269" width="31" height="31" rx="5" fill="#E522D3"/>
<path fill-rule="evenodd" clip-rule="evenodd" d="M30.3733 274C33.8932 274 36.7467 277.043 36.7467 280.796C36.7467 281.483 36.6512 282.145 36.4736 282.77L43.12 289.858C44.2933 291.109 44.2933 293.137 43.12 294.388C41.9467 295.639 40.0444 295.639 38.8711 294.388L32.2247 287.301C31.6388 287.49 31.0172 287.592 30.3733 287.592C26.8534 287.592 24 284.549 24 280.796C24 280.072 24.1063 279.374 24.3031 278.719L27.3179 281.929L30.3061 280.868L30.4395 280.725L31.4356 277.542L28.4173 274.326C29.0336 274.114 29.691 274 30.3733 274Z" fill="white"/>
</g>
<defs>
<filter id="filter0_d_68_1981" x="107" y="99" width="590" height="420" filterUnits="userSpaceOnUse" color-interpolation-filters="sRGB">
<feFlood flood-opacity="0" result="BackgroundImageFix"/>
<feColorMatrix in="SourceAlpha" type="matrix" values="0 0 0 0 0 0 0 0 0 0 0 0 0 0 0 0 0 0 127 0" result="hardAlpha"/>
<feOffset/>
<feGaussianBlur stdDeviation="2"/>
<feComposite in2="hardAlpha" operator="out"/>
<feColorMatrix type="matrix" values="0 0 0 0 0.717647 0 0 0 0 0.756863 0 0 0 0 0.905882 0 0 0 1 0"/>
<feBlend mode="normal" in2="BackgroundImageFix" result="effect1_dropShadow_68_1981"/>
<feBlend mode="normal" in="SourceGraphic" in2="effect1_dropShadow_68_1981" result="shape"/>
</filter>
<clipPath id="clip0_68_1981">
<rect width="937" height="545" fill="white"/>
</clipPath>
</defs>
</svg>
