<svg width="46" height="46" viewBox="0 0 46 46" fill="none" xmlns="http://www.w3.org/2000/svg">
    <g clip-path="url(#clip0_271_178)">
    <path d="M31.6086 11.553C31.4471 9.92531 31.4792 8.42061 31.8651 6.99829C32.0593 6.28637 32.3429 5.59268 32.7432 4.90709C33.1451 4.21987 33.6654 3.54065 34.3397 2.86629L35.4472 1.75869L33.6893 0L32.581 1.10679C31.543 2.14475 30.7791 3.23788 30.2469 4.37171C29.4447 6.07532 29.1698 7.866 29.1897 9.65829C29.2065 11.4522 29.5045 13.2557 29.8474 15.0672C30.0712 16.2474 30.2645 17.383 30.3724 18.4673C30.5346 20.095 30.5019 21.6005 30.1151 23.022C29.9217 23.7332 29.638 24.4275 29.237 25.1139C28.835 25.8003 28.3148 26.4788 27.6404 27.1532V27.154H27.6412L27.1546 27.6406C27.0244 27.7701 26.8956 27.894 26.7638 28.013L18.8003 20.0495C18.4072 20.4826 18.0755 20.9253 17.7927 21.3896L25.4414 29.0374C25.1034 29.2532 24.7645 29.4401 24.4234 29.5999C24.0454 29.7782 23.6643 29.9243 23.2759 30.0411L16.8642 23.6294C16.7108 24.2726 16.6285 24.9622 16.6133 25.7277L21.3038 30.4174C20.8963 30.4534 20.4808 30.4661 20.0565 30.4638C19.1064 30.4543 18.1156 30.3534 17.0815 30.1961C17.1247 30.4326 17.1663 30.6595 17.2086 30.8809C17.3116 31.417 17.4139 31.9804 17.5082 32.563C17.8622 32.6126 18.2146 32.6541 18.5669 32.6892C20.3641 32.8675 22.1644 32.8458 23.9191 32.3695C24.7965 32.1323 25.6571 31.7798 26.4921 31.2908C27.3263 30.8026 28.1366 30.1769 28.9133 29.4002L29.3991 28.9128C30.4372 27.8764 31.2002 26.7825 31.7348 25.6479C32.5363 23.9442 32.8103 22.1551 32.792 20.362C32.7736 18.5681 32.4763 16.7638 32.1343 14.9531C31.909 13.772 31.7164 12.6373 31.6086 11.553Z" fill="#673DE6"/>
    <path d="M44.241 10.5533L43.1342 11.66C43.0032 11.7903 42.8746 11.9142 42.7435 12.0324L34.7792 4.06812C34.3868 4.50206 34.0552 4.94553 33.7723 5.40813L41.4202 13.0569C41.0822 13.2734 40.7449 13.4596 40.403 13.6194C40.025 13.7976 39.6431 13.9437 39.2556 14.0604L32.8439 7.64956C32.6904 8.29194 32.6081 8.98158 32.5938 9.74705L37.2834 14.4368C36.8759 14.4735 36.4604 14.4856 36.036 14.4832C35.086 14.4744 34.0951 14.3729 33.0611 14.2147C33.1042 14.4513 33.1449 14.6798 33.1889 14.9011C33.2904 15.4372 33.3927 15.9997 33.4878 16.5824C33.8418 16.6319 34.1933 16.6735 34.5457 16.7087C36.3436 16.8868 38.1447 16.866 39.898 16.389C40.7753 16.1517 41.6367 15.8001 42.4717 15.3104C43.3051 14.823 44.1154 14.1964 44.8936 13.4189L45.9996 12.3114L44.241 10.5533Z" fill="#673DE6"/>
    <path d="M12.2283 40.5918L4.58112 32.9448C4.91759 32.7266 5.25639 32.5397 5.59752 32.3806C5.97631 32.2024 6.35742 32.0554 6.74501 31.9395L13.1567 38.3513C13.3102 37.7088 13.3925 37.0184 13.4068 36.2529L8.71879 31.5648C9.12632 31.5288 9.54104 31.5136 9.96528 31.5168C10.9146 31.5256 11.9063 31.6287 12.9378 31.7861C12.8963 31.5489 12.8548 31.3195 12.8124 31.0989C12.7102 30.5636 12.6087 29.9994 12.5136 29.4169C12.1603 29.3705 11.8089 29.3282 11.4564 29.293C9.65765 29.1124 7.85584 29.1332 6.10182 29.6102C5.22773 29.85 4.36388 30.2016 3.52887 30.6898C2.69548 31.1772 1.88518 31.8029 1.10767 32.5812L0.000976562 33.6879L1.75976 35.4475L2.86645 34.34C2.99673 34.2097 3.127 34.0859 3.25808 33.9676L11.2224 41.9311C11.6138 41.4981 11.947 41.0546 12.2283 40.5918Z" fill="#673DE6"/>
    <path d="M15.6287 27.5335C15.4681 25.9059 15.4992 24.4004 15.8852 22.9797C16.0794 22.2661 16.3623 21.5733 16.7642 20.8869C17.1652 20.2005 17.6862 19.5206 18.3607 18.8461L18.8473 18.3603L18.8465 18.3587C18.9759 18.2285 19.1062 18.1054 19.238 17.9879L27.2008 25.9506C27.5931 25.5175 27.9263 25.0732 28.2068 24.6114L20.5597 16.9644C20.8969 16.7462 21.2365 16.5592 21.5769 16.4001C21.9557 16.2228 22.3368 16.0749 22.7244 15.959L29.1361 22.37C29.2904 21.7275 29.3718 21.0387 29.3862 20.2732L24.6981 15.5843C25.1048 15.5483 25.5203 15.5331 25.9446 15.5372C26.8931 15.546 27.8856 15.649 28.9171 15.8049C28.8756 15.5684 28.8341 15.3398 28.7917 15.1185C28.6895 14.5823 28.5871 14.0197 28.4929 13.4373C28.1404 13.3893 27.7882 13.3471 27.4357 13.3118C25.6362 13.1328 23.8351 13.1536 22.0811 13.6306C21.2069 13.8695 20.3432 14.2212 19.5082 14.7094C18.6748 15.1976 17.8645 15.8224 17.087 16.6008L17.0878 16.6016L16.6012 17.0882C15.564 18.1253 14.8001 19.2184 14.267 20.3532C13.4648 22.0568 13.1899 23.8467 13.2099 25.6381C13.2267 27.4329 13.5247 29.2372 13.8667 31.0479C14.0912 32.2282 14.2846 33.3635 14.3925 34.4471C14.5538 36.0765 14.5219 37.5803 14.1352 39.0026C13.9418 39.7138 13.6581 40.4081 13.2577 41.0946C12.8558 41.781 12.334 42.4586 11.6604 43.1339L10.5537 44.2414L12.3118 46L13.4201 44.8933C14.4572 43.8561 15.2212 42.7622 15.7549 41.6283C16.5564 39.9246 16.8313 38.1356 16.8121 36.3425C16.7937 34.5478 16.4957 32.745 16.1537 30.9343C15.9292 29.7533 15.7365 28.6186 15.6287 27.5335Z" fill="#673DE6"/>
    </g>
    <defs>
    <clipPath id="clip0_271_178">
    <rect width="46" height="46" fill="white"/>
    </clipPath>
    </defs>
    </svg>
    