<svg width="51" height="51" viewBox="0 0 51 51" fill="none" xmlns="http://www.w3.org/2000/svg">
<path d="M19.125 14.875H12.75C10.4028 14.875 8.5 16.7778 8.5 19.125V38.25C8.5 40.5972 10.4028 42.5 12.75 42.5H31.875C34.2222 42.5 36.125 40.5972 36.125 38.25V31.875" stroke="#673DE6" stroke-width="3" stroke-linecap="round" stroke-linejoin="round"/>
<path d="M19.125 14.875H12.75C10.4028 14.875 8.5 16.7778 8.5 19.125V38.25C8.5 40.5972 10.4028 42.5 12.75 42.5H31.875C34.2222 42.5 36.125 40.5972 36.125 38.25V31.875" stroke="white" stroke-opacity="0.2" stroke-width="3" stroke-linecap="round" stroke-linejoin="round"/>
<path d="M19.125 31.875H25.5L43.5625 13.8125C45.3229 12.0521 45.3229 9.1979 43.5625 7.43749C41.8021 5.67709 38.9479 5.67709 37.1875 7.43749L19.125 25.5V31.875" stroke="#673DE6" stroke-width="3" stroke-linecap="round" stroke-linejoin="round"/>
<path d="M19.125 31.875H25.5L43.5625 13.8125C45.3229 12.0521 45.3229 9.1979 43.5625 7.43749C41.8021 5.67709 38.9479 5.67709 37.1875 7.43749L19.125 25.5V31.875" stroke="white" stroke-opacity="0.2" stroke-width="3" stroke-linecap="round" stroke-linejoin="round"/>
<path d="M34 10.625L40.375 17" stroke="#673DE6" stroke-width="3" stroke-linecap="round" stroke-linejoin="round"/>
<path d="M34 10.625L40.375 17" stroke="white" stroke-opacity="0.2" stroke-width="3" stroke-linecap="round" stroke-linejoin="round"/>
</svg>
