<svg width="236" height="189" viewBox="0 0 236 189" fill="none" xmlns="http://www.w3.org/2000/svg">
<path d="M171.689 56.029C171.689 51.5224 171.324 48.2337 170.532 44.8233H119.071V65.1641H149.277C148.669 70.219 145.38 77.8317 138.072 82.9471L137.969 83.6281L154.24 96.2332L155.368 96.3457C165.721 86.7841 171.689 72.7159 171.689 56.029Z" fill="#4285F4"/>
<path d="M119.071 109.622C133.869 109.622 146.293 104.75 155.368 96.3457L138.072 82.9471C133.443 86.1749 127.231 88.4282 119.071 88.4282C104.576 88.4282 92.2743 78.867 87.889 65.6515L87.2462 65.7061L70.3272 78.7998L70.1059 79.4149C79.1192 97.3197 97.6332 109.622 119.071 109.622Z" fill="#34A853"/>
<path d="M87.889 65.6515C86.7319 62.2411 86.0622 58.5867 86.0622 54.811C86.0622 51.0349 86.7319 47.381 87.8281 43.9706L87.7974 43.2442L70.6664 29.9401L70.1059 30.2067C66.3911 37.6368 64.2595 45.9804 64.2595 54.811C64.2595 63.6417 66.3911 71.9849 70.1059 79.4149L87.889 65.6515Z" fill="#FBBC05"/>
<path d="M119.071 21.1935C129.363 21.1935 136.305 25.6392 140.264 29.3545L155.733 14.2509C146.233 5.42023 133.869 0 119.071 0C97.6332 0 79.1192 12.3019 70.1059 30.2068L87.8281 43.9706C92.2743 30.7551 104.576 21.1935 119.071 21.1935Z" fill="#EB4335"/>
</svg>
