<svg width="110" height="110" viewBox="0 0 110 110" fill="none" xmlns="http://www.w3.org/2000/svg">
<path d="M108.689 56.029C108.689 51.5224 108.324 48.2337 107.532 44.8233H56.0706V65.1641H86.2774C85.6686 70.219 82.3799 77.8317 75.0716 82.9471L74.9692 83.6281L91.2404 96.2332L92.3677 96.3457C102.721 86.7841 108.689 72.7159 108.689 56.029Z" fill="#4285F4"/>
<path d="M56.0706 109.622C70.8694 109.622 83.2931 104.75 92.3677 96.3457L75.0716 82.9471C70.4432 86.1749 64.2312 88.4282 56.0706 88.4282C41.5762 88.4282 29.2743 78.867 24.889 65.6515L24.2462 65.7061L7.32717 78.7998L7.10592 79.4149C16.1192 97.3197 34.6332 109.622 56.0706 109.622Z" fill="#34A853"/>
<path d="M24.889 65.6515C23.7319 62.2411 23.0622 58.5867 23.0622 54.811C23.0622 51.0349 23.7319 47.381 24.8281 43.9706L24.7974 43.2442L7.66641 29.9401L7.10592 30.2067C3.39111 37.6368 1.25954 45.9804 1.25954 54.811C1.25954 63.6417 3.39111 71.9849 7.10592 79.4149L24.889 65.6515Z" fill="#FBBC05"/>
<path d="M56.0706 21.1935C66.3627 21.1935 73.3053 25.6392 77.2641 29.3545L92.7329 14.2509C83.2326 5.42023 70.8694 0 56.0706 0C34.6332 0 16.1192 12.3019 7.10592 30.2068L24.8281 43.9706C29.2743 30.7551 41.5762 21.1935 56.0706 21.1935Z" fill="#EB4335"/>
</svg>
