<svg width="42" height="41" viewBox="0 0 42 41" fill="none" xmlns="http://www.w3.org/2000/svg">
<path d="M19.4474 40.4474C20.2758 40.4474 20.9474 39.7758 20.9474 38.9474C20.9474 38.1189 20.2758 37.4474 19.4474 37.4474V40.4474ZM20.4737 2L21.5343 0.93934C21.253 0.658035 20.8715 0.5 20.4737 0.5V2ZM30.7368 12.2632H32.2368C32.2368 11.8653 32.0788 11.4838 31.7975 11.2025L30.7368 12.2632ZM29.2368 16.3684C29.2368 17.1968 29.9084 17.8684 30.7368 17.8684C31.5653 17.8684 32.2368 17.1968 32.2368 16.3684H29.2368ZM32.2373 22.5264C32.2373 21.6979 31.5657 21.0264 30.7373 21.0264C29.9088 21.0264 29.2373 21.6979 29.2373 22.5264H32.2373ZM29.2373 30.7369C29.2373 31.5653 29.9088 32.2369 30.7373 32.2369C31.5657 32.2369 32.2373 31.5653 32.2373 30.7369H29.2373ZM19.4474 37.4474H6.10526V40.4474H19.4474V37.4474ZM6.10526 37.4474C4.66642 37.4474 3.5 36.281 3.5 34.8421H0.5C0.5 37.9378 3.00956 40.4474 6.10526 40.4474V37.4474ZM3.5 34.8421V6.10526H0.5V34.8421H3.5ZM3.5 6.10526C3.5 4.66642 4.66642 3.5 6.10526 3.5V0.5C3.00956 0.5 0.5 3.00956 0.5 6.10526H3.5ZM6.10526 3.5H20.4737V0.5H6.10526V3.5ZM19.413 3.06066L29.6762 13.3238L31.7975 11.2025L21.5343 0.93934L19.413 3.06066ZM29.2368 12.2632V16.3684H32.2368V12.2632H29.2368ZM29.2373 22.5264V30.7369H32.2373V22.5264H29.2373Z" fill="#673DE6"/>
<path d="M19 3.30078V11.3008C19 12.4054 19.985 13.3008 21.2 13.3008H30" stroke="#673DE6" stroke-width="3" stroke-linecap="round" stroke-linejoin="round"/>
<path d="M27.375 28.875V25.5C27.375 24.3065 27.8491 23.1619 28.693 22.318C29.5369 21.4741 30.6815 21 31.875 21C33.0685 21 34.2131 21.4741 35.057 22.318C35.9009 23.1619 36.375 24.3065 36.375 25.5V28.875" fill="white"/>
<path d="M27.375 28.875V25.5C27.375 24.3065 27.8491 23.1619 28.693 22.318C29.5369 21.4741 30.6815 21 31.875 21C33.0685 21 34.2131 21.4741 35.057 22.318C35.9009 23.1619 36.375 24.3065 36.375 25.5V28.875" stroke="#673DE6" stroke-width="2" stroke-linejoin="round"/>
<path d="M39.75 28.875H24V39H39.75V28.875Z" fill="white" stroke="#673DE6" stroke-width="3" stroke-linejoin="round"/>
<path d="M31.875 35.625V33.375" stroke="#673DE6" stroke-width="2" stroke-linecap="round" stroke-linejoin="round"/>
</svg>
