<svg width="52" height="50" viewBox="0 0 52 50" fill="none" xmlns="http://www.w3.org/2000/svg">
<path d="M50.7 0H1.3C0.58175 0 0 0.58175 0 1.3V37.7C0 38.4183 0.58175 39 1.3 39H18.2V46.8H11.7C10.9817 46.8 10.4 47.3818 10.4 48.1C10.4 48.8183 10.9817 49.4 11.7 49.4H40.3C41.0182 49.4 41.6 48.8183 41.6 48.1C41.6 47.3818 41.0182 46.8 40.3 46.8H33.8V39H50.7C51.4183 39 52 38.4183 52 37.7V1.3C52 0.58175 51.4183 0 50.7 0ZM31.2 46.8H20.8V39H31.2V46.8ZM48.2225 35.2978H3.6269V3.50429H48.2225V35.2978Z" fill="#673DE6"/>
<path d="M20.6613 27.5723L26.4942 31.7935L32.3271 27.5723C35.6869 25.1409 37.6808 21.2153 37.6808 17.0321V10.745L26.4942 5.8877L15.3076 10.745V17.0321C15.3076 21.2153 17.3016 25.1409 20.6613 27.5723Z" fill="#673DE6"/>
</svg>
