<svg width="60" height="60" viewBox="0 0 60 60" fill="none" xmlns="http://www.w3.org/2000/svg">
<path d="M16.3128 50.2234L30 60L43.6871 50.2234C51.5711 44.592 56.25 35.5 56.25 25.8115V11.25L30 0L3.75 11.25V25.8115C3.75 35.5 8.42899 44.592 16.3128 50.2234Z" fill="#673DE6"/>
<path d="M18.5289 46.6899L30 55L41.4711 46.6899C48.0787 41.9032 52 34.175 52 25.9398V13.5625L30 4L8 13.5625V25.9398C8 34.175 11.9214 41.9032 18.5289 46.6899Z" fill="white"/>
<g clip-path="url(#clip0_353_40028)">
<path d="M39.7206 18.2797C37.5395 16.0971 34.6606 14.9979 31.8021 14.9995C28.943 14.9979 26.0649 16.0971 23.8838 18.2797C21.7011 20.4608 20.601 23.3398 20.6044 26.1973C20.6019 28.1938 21.1506 30.1928 22.2152 31.9643L16.7926 37.3869C15.7371 38.4424 15.7371 40.153 16.7926 41.2085C17.8473 42.264 19.5587 42.264 20.6134 41.2085L26.0368 35.7851C27.8075 36.8505 29.8073 37.3984 31.8021 37.396C34.6605 37.3984 37.5395 36.2992 39.7205 34.1165C41.9024 31.9355 43.0024 29.0573 43 26.1973C43.0033 23.3398 41.9025 20.4608 39.7206 18.2797ZM36.6628 31.0596C35.3156 32.406 33.5687 33.0701 31.8021 33.0734C30.0355 33.0701 28.2896 32.406 26.9407 31.0596C25.5943 29.7108 24.9302 27.9647 24.9268 26.1973C24.9302 24.4316 25.5943 22.6848 26.9407 21.3367C28.2895 19.9903 30.0355 19.3262 31.8021 19.3229C33.5687 19.3262 35.3156 19.9903 36.6636 21.3367C38.01 22.6848 38.6741 24.4316 38.6774 26.1973C38.6741 27.9648 38.01 29.7108 36.6628 31.0596Z" fill="#673DE6"/>
</g>
<defs>
<clipPath id="clip0_353_40028">
<rect width="27" height="27" fill="white" transform="translate(16 15)"/>
</clipPath>
</defs>
</svg>
