<svg width="49" height="51" viewBox="0 0 49 51" fill="none" xmlns="http://www.w3.org/2000/svg">
<path d="M26.4987 41.1672H19.8277C19.2134 41.1672 18.7158 41.6648 18.7158 42.2791C18.7158 42.8934 19.2134 43.3909 19.8277 43.3909H26.4987C27.113 43.3909 27.6105 42.8934 27.6105 42.2791C27.6105 41.6648 27.113 41.1672 26.4987 41.1672Z" fill="#673DE6"/>
<path d="M34.1354 0H12.1913C8.82958 0 6.0957 2.80725 6.0957 6.2592V43.8144C6.0957 47.2663 8.82958 50.0736 12.1913 50.0736H34.1354C37.4972 50.0736 40.231 47.2663 40.231 43.8144V6.2592C40.231 2.80725 37.4972 0 34.1354 0ZM27.287 2.50368L26.0679 5.00736H20.2578L19.0387 2.50368H27.287ZM36.7928 43.8144C36.7928 45.8851 36.1521 46.5699 34.1354 46.5699H12.1913C10.1747 46.5699 9.53394 45.8851 9.53394 43.8144V6.2592C9.53394 4.18845 10.1747 3.50368 12.1913 3.50368H16.314L18.4149 6.8194C18.6222 7.24189 19.0438 7.51104 19.505 7.51104H26.8197C27.282 7.51104 27.7036 7.24189 27.9098 6.8194L30.0108 3.50368H34.1334C36.15 3.50368 36.7908 4.18845 36.7908 6.2592V43.8144H36.7928Z" fill="#673DE6"/>
<path d="M15.2316 27.1614C15.4282 27.3439 15.6861 27.4359 15.944 27.4359C16.2018 27.4359 16.4597 27.3447 16.6563 27.1614C17.0502 26.7956 17.0502 26.2035 16.6563 25.8377L13.3366 22.7552L16.6563 19.6726C17.0502 19.3068 17.0502 18.7148 16.6563 18.3489C16.2623 17.9831 15.6248 17.9831 15.2308 18.3489L11.1988 22.0929C10.8048 22.4588 10.8048 23.0508 11.1988 23.4166L15.2308 27.1606L15.2316 27.1614Z" fill="#673DE6"/>
<path d="M29.3442 27.1615C29.5407 27.344 29.7986 27.436 30.0565 27.436C30.3144 27.436 30.5722 27.3448 30.7688 27.1615L34.8008 23.4175C35.1948 23.0516 35.1948 22.4596 34.8008 22.0938L30.7688 18.3498C30.3748 17.984 29.7373 17.984 29.3433 18.3498C28.9494 18.7156 28.9494 19.3076 29.3433 19.6735L32.663 22.756L29.3433 25.8386C28.9494 26.2044 28.9502 26.7956 29.3442 27.1615Z" fill="#673DE6"/>
<path d="M21.7476 27.4079C21.8299 27.4274 21.9114 27.436 21.992 27.436C22.4448 27.436 22.8564 27.1528 22.9706 26.727L24.9866 19.239C25.1202 18.7382 24.7934 18.2296 24.2524 18.1048C23.7031 17.9761 23.1638 18.2842 23.0302 18.7858L21.0142 26.2738C20.8807 26.7745 21.2074 27.2831 21.7484 27.4079H21.7476Z" fill="#673DE6"/>
</svg>
