<svg width="52" height="50" viewBox="0 0 52 50" fill="none" xmlns="http://www.w3.org/2000/svg">
<g clip-path="url(#clip0_353_40029)">
<path d="M39.6074 22.6757C39.3571 22.2729 39.0029 21.9444 38.5819 21.7263C38.4929 21.6794 38.3957 21.637 38.292 21.5984H38.2772C38.1545 21.5984 38.0372 21.5613 37.9384 21.4928C37.7536 21.4523 37.564 21.4318 37.3736 21.4318C36.7672 21.4318 36.1982 21.6324 35.7277 22.0117C35.6221 22.0969 35.4896 22.1438 35.3541 22.1438C35.1728 22.1438 35.0036 22.0632 34.89 21.9224C34.7901 21.7986 34.7442 21.6434 34.7613 21.4851C34.7779 21.3265 34.8556 21.1845 34.9793 21.0842C35.6539 20.5399 36.5037 20.2401 37.3725 20.2401C37.6496 20.2401 37.9267 20.2704 38.1985 20.331C38.7072 19.9282 39.029 19.357 39.1092 18.7089C39.1221 18.6067 39.1285 18.5037 39.1285 18.4019C39.1285 17.8084 38.9112 17.233 38.5164 16.7833C38.1186 16.3306 37.5701 16.0398 36.9716 15.9656C36.8989 15.9565 36.8255 15.9505 36.7524 15.9482C36.6986 16.0091 36.6426 16.0693 36.5847 16.1276C36.35 16.3638 36.0608 16.5781 35.7001 16.7837C35.4283 16.9377 35.1201 17.0831 34.7844 17.2156C34.2026 17.4446 33.7468 17.554 33.7423 17.5548C33.6984 17.5654 33.6514 17.5707 33.6045 17.5707C33.3285 17.5707 33.0908 17.3837 33.0254 17.1157C32.9879 16.9605 33.0132 16.8007 33.0961 16.6652C33.1768 16.5324 33.3028 16.4385 33.4527 16.3991L33.4644 16.3965L33.5727 16.6778L33.4981 16.3874L33.6053 16.3582C33.7014 16.331 33.8377 16.2897 33.999 16.2353C34.2904 16.1357 34.72 15.9703 35.1115 15.7477C35.3697 15.6012 35.5866 15.4426 35.738 15.2897C35.8247 15.2018 35.9095 15.105 35.9905 15.0009L36.0291 14.9531C36.4012 14.4614 36.6165 13.8433 36.6162 13.2349C36.6154 12.6066 36.3936 12.0263 35.9745 11.5561C35.4767 10.9989 34.7624 10.679 34.0144 10.679C33.369 10.679 32.7481 10.916 32.2667 11.346C32.1573 11.4437 32.0165 11.4974 31.87 11.4974C31.7 11.4974 31.5379 11.4247 31.4251 11.298C31.3196 11.1795 31.2662 11.0265 31.2748 10.8679C31.284 10.7089 31.3544 10.5632 31.4729 10.4572C31.731 10.2267 32.0168 10.0335 32.3245 9.88141C32.2488 9.31246 31.9884 8.78327 31.5788 8.37368C31.0825 7.8774 30.4231 7.60444 29.722 7.60413C29.0206 7.60444 28.3612 7.8774 27.8649 8.37368C27.369 8.86959 27.0961 9.52941 27.0958 10.2304V14.5117H29.5426C29.8712 14.5117 30.1384 14.7794 30.1384 15.1075C30.1384 15.4361 29.8712 15.7034 29.5426 15.7034H27.0958V18.6428C27.8055 18.6761 28.4059 18.7712 28.9248 18.9316C29.5437 19.122 30.0522 19.415 30.4348 19.8015C30.6609 20.0298 30.8516 20.2993 31.0023 20.6026C31.198 20.9989 31.3029 21.4024 31.3725 21.7098C31.4107 21.8802 31.4441 22.0485 31.4762 22.2129C31.5315 22.4911 31.5833 22.7538 31.6523 22.9866C31.7155 23.2008 31.7874 23.3727 31.873 23.5123C31.9786 23.6865 32.1062 23.8175 32.2734 23.9257C32.5116 24.0779 32.8257 24.1779 33.2335 24.2309C33.3902 24.2505 33.5306 24.3308 33.6282 24.4565C33.7259 24.5829 33.7683 24.7396 33.7483 24.8971C33.7096 25.1939 33.4556 25.4172 33.1577 25.4172L33.0805 25.4119C32.5819 25.3479 32.1674 25.2245 31.8127 25.0353C31.4751 24.8558 31.1931 24.612 30.9751 24.3119C30.8479 24.1385 30.7419 23.9466 30.6506 23.7266C30.5563 23.4995 30.4818 23.2546 30.4084 22.9324C30.3709 22.7659 30.3383 22.5993 30.3058 22.4342C30.2724 22.2662 30.2395 22.0993 30.2017 21.9365C30.0926 21.4603 29.9635 21.1328 29.7826 20.8747C29.6599 20.6987 29.5119 20.551 29.3295 20.4234C29.0819 20.2508 28.7764 20.1187 28.3956 20.0195C28.028 19.9238 27.592 19.8617 27.0957 19.8355V30.7698C27.0961 31.4709 27.369 32.1307 27.8645 32.627C28.3612 33.1229 29.0206 33.3958 29.722 33.3961C30.4231 33.3958 31.0825 33.1229 31.5788 32.627C32.0747 32.1303 32.348 31.4709 32.348 30.7698C32.3484 30.3901 32.2443 29.9734 32.0618 29.6262C31.8543 29.2291 31.5655 28.9361 31.204 28.7544C30.9246 28.6151 30.6154 28.547 30.2584 28.5462C29.9302 28.5462 29.663 28.2793 29.663 27.9512C29.663 27.6221 29.9302 27.3549 30.2588 27.3549C30.6657 27.3549 31.0518 27.4197 31.4065 27.5476C31.7385 27.6669 32.0444 27.8421 32.3154 28.0678C32.7886 28.4633 33.1479 29.0058 33.3545 29.6364C33.4757 30.007 33.5393 30.3988 33.5393 30.7698C33.5396 31.0658 33.5056 31.3595 33.4382 31.6465C33.7131 31.7403 34.0042 31.7895 34.2918 31.7895C34.9346 31.7892 35.5539 31.5533 36.0347 31.1256C36.5942 30.6277 36.9152 29.9123 36.9155 29.1625C36.9155 28.8448 36.8587 28.5337 36.7478 28.2373C36.635 27.9371 36.4677 27.6611 36.2516 27.4177C36.0335 27.1721 36.0558 26.795 36.3008 26.5766C36.4105 26.4793 36.551 26.4263 36.6967 26.4263C36.867 26.4263 37.0294 26.499 37.1426 26.6266L37.1839 26.6739L37.2112 26.6785C37.2297 26.6811 37.2414 26.6822 37.2691 26.6834C37.2933 26.6837 37.327 26.6841 37.3735 26.6841C38.0746 26.6837 38.7344 26.4108 39.2307 25.9149C39.7266 25.4183 39.9995 24.7589 39.9999 24.0578C39.9996 23.5676 39.8636 23.0895 39.6074 22.6757Z" fill="#673DE6"/>
<mask id="mask0_353_40029" style="mask-type:alpha" maskUnits="userSpaceOnUse" x="-5" y="-16" width="31" height="67">
<rect width="27.8562" height="64.6263" transform="matrix(-0.999118 -0.0419951 -0.0419951 0.999118 25.9365 -14.1345)" fill="#D9D9D9"/>
</mask>
<g mask="url(#mask0_353_40029)">
<path fill-rule="evenodd" clip-rule="evenodd" d="M17.3421 19.4967L24.2363 7.76478L24.2375 7.73735L24.2522 7.7378L24.3137 7.63351C24.4292 7.4369 24.644 7.32041 24.8717 7.3307C25.0995 7.34099 25.3029 7.47639 25.4002 7.68261L25.4478 7.78326L25.4671 7.78391L25.4656 7.821L31.2729 20.1264C32.3451 22.3985 32.0756 25.0591 30.5691 27.0698L27.6597 30.5143L27.558 32.7635C27.5371 33.2268 27.1445 33.5855 26.6812 33.5645L20.7939 33.2985C20.3436 33.2781 19.9897 32.906 19.992 32.4553L20.0034 30.1683L17.4165 26.4754C16.0977 24.337 16.0693 21.6631 17.3421 19.4967ZM22.5902 20.5819C22.632 19.656 23.4194 18.9368 24.3453 18.9787C25.2712 19.0205 25.9904 19.8078 25.9485 20.7337C25.9067 21.6596 25.1194 22.3788 24.1935 22.337C23.2675 22.2951 22.5484 21.5078 22.5902 20.5819ZM18.4636 25.8293L21.4903 30.235L21.5421 31.8424L26.1004 32.0484L26.1728 30.4467L29.5845 26.3319C30.817 24.6868 31.0377 22.5099 30.1605 20.6508L25.3645 10.4888L25.0857 17.8639C26.3436 18.2314 27.2391 19.4229 27.1774 20.7889C27.1049 22.3923 25.7416 23.6378 24.1381 23.5653C22.5347 23.4929 21.2892 22.1293 21.3617 20.5261C21.4258 19.1074 22.5009 17.9696 23.8582 17.7764L24.1387 10.3585L18.403 20.1194C17.361 21.8917 17.3845 24.0794 18.4636 25.8293Z" fill="#673DE6"/>
</g>
</g>
<path d="M50.7 0H1.3C0.58175 0 0 0.58175 0 1.3V37.7C0 38.4183 0.58175 39 1.3 39H18.2V46.8H11.7C10.9817 46.8 10.4 47.3818 10.4 48.1C10.4 48.8183 10.9817 49.4 11.7 49.4H40.3C41.0182 49.4 41.6 48.8183 41.6 48.1C41.6 47.3818 41.0182 46.8 40.3 46.8H33.8V39H50.7C51.4183 39 52 38.4183 52 37.7V1.3C52 0.58175 51.4183 0 50.7 0ZM31.2 46.8H20.8V39H31.2V46.8ZM48.2225 35.2978H3.6269V3.50429H48.2225V35.2978Z" fill="#673DE6"/>
<defs>
<clipPath id="clip0_353_40029">
<rect width="27" height="27" fill="white" transform="translate(13 7)"/>
</clipPath>
</defs>
</svg>
