<svg width="39" height="43" viewBox="0 0 39 43" fill="none" xmlns="http://www.w3.org/2000/svg">
<path d="M22.3278 2.44602L23.0343 1.98474C23.5427 1.65254 23.6799 0.980031 23.3409 0.482642C23.002 -0.014746 22.3159 -0.150151 21.8084 0.182043L18.4927 2.34853C18.4688 2.36387 18.4587 2.39186 18.4356 2.40991C18.3408 2.48213 18.2643 2.56788 18.198 2.66628C18.1722 2.70509 18.1409 2.73759 18.1207 2.77911C18.0488 2.92264 18 3.07881 18 3.25032C18 3.42184 18.0488 3.5771 18.1207 3.72153C18.1418 3.76306 18.1722 3.79556 18.198 3.83437C18.2643 3.93277 18.3408 4.01852 18.4356 4.09074C18.4577 4.10789 18.4679 4.13587 18.4927 4.15212L21.8084 6.3186C21.9972 6.44137 22.2099 6.50095 22.4199 6.50095C22.7773 6.50095 23.1282 6.33215 23.3409 6.01891C23.5859 5.65963 23.5749 5.21189 23.3621 4.86345C31.06 6.73836 36.7896 13.5501 36.7896 21.6663C36.7896 28.0746 33.2041 33.9349 27.4321 36.9626C26.8933 37.2442 26.6907 37.8996 26.9789 38.4268C27.1788 38.7924 27.5592 39 27.9543 39C28.1302 39 28.308 38.9594 28.4747 38.8709C34.9669 35.4686 39 28.8762 39 21.6663C39 11.9921 31.7673 3.96436 22.3288 2.44782L22.3278 2.44602Z" fill="#673DE6"/>
<path d="M18.2113 36.6822C17.7025 36.35 17.0223 36.4836 16.6859 36.9828C16.3687 37.4513 16.4833 38.0651 16.9187 38.4135C8.58311 37.0523 2.20009 29.923 2.20009 21.3359C2.20009 14.9251 5.77066 9.06495 11.5184 6.0401C12.0547 5.75666 12.2563 5.10042 11.9694 4.57416C11.6825 4.04519 11.017 3.84661 10.4807 4.12734C4.01608 7.53131 0 14.1262 0 21.3359C0 31.3158 7.65815 39.5554 17.488 40.6892L16.9902 41.0159C16.4842 41.3481 16.3476 42.0206 16.6849 42.518C16.8967 42.8312 17.246 43 17.6017 43C17.8116 43 18.0224 42.9404 18.2103 42.8177L21.5105 40.6512C21.8167 40.45 22 40.1115 22 39.7504C22 39.3893 21.8167 39.0499 21.5105 38.8495L18.2103 36.6831L18.2113 36.6822Z" fill="#673DE6"/>
<path d="M16.5 13C13.4681 13 11 15.3933 11 18.3333V27.6667C11 28.4033 11.6153 29 12.375 29C13.1347 29 13.75 28.4033 13.75 27.6667V23.6667H19.25V27.6667C19.25 28.4033 19.8653 29 20.625 29C21.3847 29 22 28.4033 22 27.6667V18.3333C22 15.3933 19.5319 13 16.5 13ZM13.75 21V18.3333C13.75 16.8622 14.9829 15.6667 16.5 15.6667C18.0171 15.6667 19.25 16.8622 19.25 18.3333V21H13.75Z" fill="#673DE6"/>
<path d="M26 13C25.4475 13 25 13.5967 25 14.3333V27.6667C25 28.4033 25.4475 29 26 29C26.5525 29 27 28.4033 27 27.6667V14.3333C27 13.5967 26.5525 13 26 13Z" fill="#673DE6"/>
</svg>
