<svg width="50" height="50" viewBox="0 0 50 50" fill="none" xmlns="http://www.w3.org/2000/svg">
<g clip-path="url(#clip0_309_127)">
<path fill-rule="evenodd" clip-rule="evenodd" d="M44.4287 49.8406C46.0881 51.5062 47.1131 50.3218 48.4756 48.9625C49.8381 47.6031 51.0193 46.575 49.36 44.9125C49.36 44.9125 26.2287 21.8031 20.5162 16.1062L15.585 21.0343L44.4287 49.8406Z" fill="#673DE6"/>
<path fill-rule="evenodd" clip-rule="evenodd" d="M6.40021 25.0468L8.31896 23.1593C8.31896 23.1593 7.47209 20.8375 8.71272 19.725C9.95334 18.6125 12.0471 19.3 12.0471 19.3L18.7815 12.7906C18.7815 12.7906 18.3096 9.4062 18.9346 8.7812C19.5596 8.1562 26.544 4.75308 27.219 4.07183L25.7846 2.63745C25.7846 2.63745 16.0096 3.81245 14.9502 4.8687C14.3283 5.4937 9.67521 10.1937 6.35646 13.5125C6.35646 13.5125 7.18771 15.8843 6.09396 16.9781C4.99709 18.075 2.52834 17.2906 2.52834 17.2906C1.36271 18.4562 0.581465 19.2343 0.581465 19.2343C-0.240411 20.0625 0.243964 21.225 1.25334 22.2343L3.39709 24.3781C4.41271 25.3906 5.57834 25.8687 6.40021 25.0468Z" fill="#673DE6"/>
<path fill-rule="evenodd" clip-rule="evenodd" d="M36.666 20.3593C40.0316 21.9562 44.2535 21.4656 47.0473 18.6718C49.2035 16.5156 50.0598 13.55 49.6004 10.7625L44.8473 15.5093L40.8035 16.5125L36.2348 12.0062L37.3066 7.82808L42.016 3.17808C39.2254 2.72183 36.0723 3.3812 33.916 5.54058C31.1191 8.33745 30.7379 12.6625 32.3348 16.0312L29.2285 19.1343C30.5941 20.4937 32.0535 21.9531 33.566 23.4625L36.666 20.3593Z" fill="#673DE6"/>
<path fill-rule="evenodd" clip-rule="evenodd" d="M23.225 34.7469L18.5219 30.0469L14.4344 34.1375C14.1781 34.3875 13.9969 34.6719 13.8688 34.9687C13.6281 34.875 13.4937 34.8719 13.4094 34.9063C12.6281 34.6469 11.8031 34.4719 10.9375 34.4719C6.62187 34.4719 3.125 37.925 3.125 42.1875C3.125 46.45 6.62187 49.9031 10.9375 49.9031C15.2531 49.9031 18.75 46.45 18.75 42.1875C18.75 41.3031 18.5656 40.4656 18.2938 39.675C18.2781 39.6 18.275 39.5312 18.2313 39.4219C18.5563 39.2875 18.8625 39.1062 19.1313 38.8344L23.225 34.7469ZM10.9375 46.6812C8.4 46.6812 6.34687 44.6719 6.34687 42.1875C6.34687 39.7031 8.39687 37.6938 10.9375 37.6938C13.4781 37.6938 15.5281 39.7031 15.5281 42.1875C15.5281 44.6719 13.475 46.6812 10.9375 46.6812Z" fill="#673DE6"/>
</g>
<defs>
<clipPath id="clip0_309_127">
<rect width="50" height="50" fill="white"/>
</clipPath>
</defs>
</svg>
