<svg width="33" height="33" viewBox="0 0 33 33" fill="none" xmlns="http://www.w3.org/2000/svg">
<path d="M15.125 11L26.8125 11C27.9516 11 28.875 11.9234 28.875 13.0625C28.875 14.2016 27.9516 15.125 26.8125 15.125L16.5 15.125" stroke="#673DE6" stroke-width="2" stroke-linecap="round" stroke-linejoin="round"/>
<path d="M17.1875 15.125L19.9375 15.125C20.6744 15.125 21.3552 15.5181 21.7237 16.1562C22.0921 16.7944 22.0921 17.5806 21.7237 18.2187C21.3552 18.8569 20.6744 19.25 19.9375 19.25L16.5 19.25" stroke="#673DE6" stroke-width="2" stroke-linecap="round" stroke-linejoin="round"/>
<path d="M18.5625 19.25C19.7016 19.25 20.625 20.1734 20.625 21.3125C20.625 22.4516 19.7016 23.375 18.5625 23.375L16.5 23.375" stroke="#673DE6" stroke-width="2" stroke-linecap="round" stroke-linejoin="round"/>
<path d="M17.1875 23.3751C18.3266 23.3751 19.25 24.2985 19.25 25.4376C19.25 26.5767 18.3266 27.5001 17.1875 27.5001L11 27.5001C6.44365 27.5001 2.75 23.8064 2.75 19.2501L2.75 16.5001L2.75 16.7861C2.74953 14.0107 4.14459 11.421 6.4625 9.89457C6.59977 9.80439 6.73727 9.71455 6.875 9.62507C7.53362 9.19607 10.1585 7.69045 14.751 5.10682C15.7244 4.55916 16.9569 4.88588 17.5312 5.84382C18.1371 6.85346 17.9783 8.14577 17.1462 8.97882L15.125 11.0001" stroke="#673DE6" stroke-width="2" stroke-linecap="round" stroke-linejoin="round"/>
</svg>
