<svg width="224" height="130" viewBox="0 0 224 130" fill="none" xmlns="http://www.w3.org/2000/svg">
<path d="M34.5981 99.4927L34.547 99.5182C34.2022 99.6967 33.7807 99.5565 33.6019 99.2123L33.1294 98.2943L31.8394 95.7956L30.1408 92.5191C29.9876 92.2131 29.6172 92.0984 29.3107 92.2514L29.2596 92.2769C28.9914 92.4171 28.8764 92.7104 28.9531 92.9908C28.9658 93.0291 28.9786 93.0673 28.9914 93.1056L30.0642 95.1836V95.1964C30.1408 95.4004 30.1408 95.6171 30.0642 95.8083C29.9876 95.9868 29.8598 96.1398 29.681 96.229C29.5661 96.2928 29.4384 96.3183 29.3107 96.3183C29.0169 96.3183 28.7232 96.1525 28.5827 95.8721L28.5316 95.7701L25.7602 90.3646C25.5942 90.0331 25.1855 89.9056 24.8534 90.0713L24.8023 90.0968C24.5213 90.2371 24.3809 90.5558 24.4575 90.849C24.4703 90.9 24.483 90.9383 24.5086 90.9893L25.8751 93.6665L26.6925 95.2856L27.1523 96.1908C27.3183 96.5095 27.1906 96.9047 26.8585 97.0705L26.8075 97.096C26.4882 97.2617 26.0922 97.1342 25.9262 96.8155L23.9211 92.8506L23.9083 92.8251C23.8572 92.7358 23.7934 92.6339 23.7423 92.5319L11.8137 69.2142C10.9963 67.6079 10.9707 65.721 11.7626 64.1019L17.0245 53.3802C17.5992 52.2073 18.7997 51.4551 20.1152 51.4551H28.902L21.4434 66.6772L32.9506 89.1407L33.2826 89.8036C33.4103 90.1096 33.2826 90.4666 32.9761 90.6323L32.925 90.6578C32.6185 90.8108 32.2481 90.7088 32.0693 90.4283L30.3069 87.0244C30.2941 87.0116 30.2941 86.9989 30.2941 86.9989C30.1281 86.7311 29.7832 86.6292 29.515 86.7821L29.4639 86.8076C29.1702 86.9606 29.0552 87.3176 29.2085 87.6108L29.8854 88.8602L33.487 95.7956L34.9046 98.5366C35.0706 98.8935 34.9429 99.3143 34.5981 99.4927ZM32.8867 91.9582C32.8867 91.9709 32.8995 91.9709 32.8995 91.9837L33.1166 92.4171C33.1294 92.4299 33.1294 92.4426 33.1421 92.4554C33.2698 92.6594 33.487 92.7741 33.7169 92.7741C33.819 92.7741 33.934 92.7486 34.0234 92.6976C34.3171 92.5446 34.4576 92.2131 34.3682 91.9072C34.3554 91.8689 34.3427 91.8179 34.3171 91.7797L34.1 91.3462C34.0872 91.308 34.0617 91.2825 34.0361 91.2442C33.9084 91.0785 33.7041 90.9765 33.4997 90.9765C33.3976 90.9765 33.2826 91.002 33.1932 91.053C32.8739 91.2442 32.7334 91.6394 32.8867 91.9582ZM27.9569 97.7334C27.7909 97.4147 27.4077 97.2872 27.0757 97.4529L27.0246 97.4784C26.7053 97.6441 26.5776 98.0266 26.7436 98.3581L27.5993 100.028C27.7653 100.347 28.1485 100.474 28.4805 100.309L28.5316 100.283C28.8509 100.117 28.9786 99.735 28.8126 99.4035L27.9569 97.7334Z" fill="url(#paint0_linear_253_685)"/>
<path d="M23.7678 92.5309C17.8163 80.9167 17.3565 75.0268 21.4562 66.6635L28.9148 51.4414H20.1279C18.8125 51.4414 17.6119 52.1936 17.0372 53.3665L11.7754 64.0883C10.9835 65.7074 10.9963 67.6069 11.8264 69.2006L23.7678 92.5309Z" fill="url(#paint1_linear_253_685)"/>
<path opacity="0.36" d="M11.8137 69.2133L15.1854 75.7917C14.9555 72.018 15.8623 68.5886 17.8291 64.5855L24.2787 51.4414H20.128C18.8125 51.4414 17.612 52.1936 17.0372 53.3665L11.7754 64.0883C10.9835 65.7201 10.9963 67.6197 11.8137 69.2133Z" fill="url(#paint2_linear_253_685)"/>
<path d="M30.856 34.8939L29.3362 31.9361L32.0949 30.5338L33.6147 33.4915L33.2571 33.67L32.1332 34.2437L30.856 34.8939ZM50.3582 60.7868L39.3491 39.305L38.4168 37.4691C38.3657 37.3671 38.3146 37.2779 38.2507 37.1759L38.238 37.1504L36.9864 34.6771L36.1945 33.1345L35.722 32.2039L34.2916 32.9305L34.5981 33.5297L35.0834 34.4731L35.5176 35.3273L34.4831 35.85L33.1932 36.5002L34.4959 39.0372L32.1076 40.2484L33.1677 42.3264L32.9633 42.4284L31.8522 42.9894L30.6261 43.6141L32.1843 46.661L40.7157 63.311L33.2571 78.5332H42.0439C43.3594 78.5332 44.5599 77.781 45.1346 76.6081L50.3965 65.8863C51.2011 64.2799 51.1755 62.3804 50.3582 60.7868ZM36.9353 44.0858L35.8369 44.6467L35.2239 43.4611L36.3222 42.9001L35.2239 40.7456L37.3312 39.6747L38.4934 41.944L36.3861 43.0149L36.9353 44.0858ZM28.8764 31.3624L27.6887 31.9744L27.2034 31.031L26.8969 30.4318L28.3273 29.7051L29.1191 31.2349L28.8764 31.3624ZM30.6517 37.8898L29.8471 38.2978L28.6721 35.9903L29.4639 35.595L30.7922 34.9194L30.8177 34.9066L31.9927 37.2141H31.9799L30.6517 37.8898Z" fill="url(#paint3_linear_253_685)"/>
<path d="M38.404 37.4688C44.3555 49.0829 44.8153 54.9729 40.7157 63.3362L33.2571 78.5583H42.0439C43.3594 78.5583 44.5599 77.8061 45.1346 76.6332L50.3965 65.9114C51.1883 64.2923 51.1755 62.3927 50.3454 60.7991L38.404 37.4688Z" fill="url(#paint4_linear_253_685)"/>
<path opacity="0.35" d="M50.3582 60.7864L46.9865 54.208C47.2164 57.9817 46.3096 61.4111 44.3428 65.4142L37.8932 78.5583H42.0439C43.3594 78.5583 44.5599 77.8061 45.1346 76.6332L50.3965 65.9114C51.2011 64.2796 51.1756 62.38 50.3582 60.7864Z" fill="url(#paint5_linear_253_685)"/>
<path d="M61.546 69.6083C61.2012 69.6083 60.8691 69.4809 60.6392 69.2386C60.3966 68.9964 60.2561 68.6649 60.2561 68.3207L60.2306 54.2715H62.1718L62.2101 67.6705H74.1643L75.3265 69.6211L61.546 69.6083Z" fill="white"/>
<path d="M77.7914 69.6084V54.2588H79.7327V69.6084H77.7914Z" fill="white"/>
<path d="M100.448 69.6084L92.5936 56.4261L85.8758 67.6578H91.7379L92.9002 69.6084H82.4019L91.5975 54.2588H93.5643L102.734 69.6084H100.448Z" fill="white"/>
<path d="M109.094 69.6088L107.932 67.6582H115.174C116.706 67.6837 118.175 67.059 119.21 65.9371C120.295 64.879 120.908 63.4129 120.883 61.8958C120.883 61.1563 120.742 60.4169 120.474 59.7285C119.861 58.3133 118.737 57.1914 117.319 56.5922C116.63 56.3118 115.902 56.1715 115.148 56.1715H104.126V62.7499H102.185V54.2337H115.135C116.489 54.2082 117.817 54.5652 118.98 55.2664C120.129 55.9548 121.1 56.911 121.789 58.0584C122.479 59.2185 122.824 60.5444 122.811 61.8958C122.824 62.8264 122.658 63.7571 122.326 64.6368C122.006 65.4527 121.547 66.2176 120.972 66.8806C119.414 68.6909 117.46 69.5961 115.123 69.5961H109.094V69.6088Z" fill="white"/>
<path d="M131.981 69.6084V56.2094H124.318L123.156 54.2588H141.879L143.041 56.2094H133.973V69.6084H131.981Z" fill="white"/>
<path d="M146.668 56.1966L145.506 54.2588H163.54L164.702 56.1966H146.668ZM147.269 62.928V60.9902H160.755L161.918 62.928H147.269ZM147.269 69.6084V67.6578H163.552L164.715 69.6084H147.269Z" fill="white"/>
<path d="M173.578 69.6083C172.441 69.6083 171.522 69.4044 170.807 69.0091C170.027 68.5884 169.351 68.002 168.814 67.3008C167.69 65.7964 167.128 63.9989 167.128 61.9208C167.128 59.83 167.69 58.0069 168.801 56.528C169.913 55.0492 171.522 54.2715 173.552 54.2715H183.514L184.676 56.2093H173.655C172.543 56.1838 171.471 56.6173 170.679 57.4077C169.836 58.2874 169.274 59.3965 169.082 60.5949C169.006 61.0794 168.967 61.5638 168.967 62.0483C168.942 63.2467 169.248 64.4196 169.849 65.4522C170.219 66.1152 170.755 66.6634 171.394 67.0586C172.071 67.4793 172.863 67.696 173.667 67.6705H185.724V69.6083H173.578Z" fill="white"/>
<path d="M206.758 69.6084V62.8005H191.33V69.6084H189.376V54.2588H191.33V61.1304H206.758V54.2588H208.712V69.6084H206.758Z" fill="white"/>
<defs>
<linearGradient id="paint0_linear_253_685" x1="14.2767" y1="60.0129" x2="31.0317" y2="78.9476" gradientUnits="userSpaceOnUse">
<stop offset="0.0638298" stop-color="#450057"/>
<stop offset="1" stop-color="white"/>
</linearGradient>
<linearGradient id="paint1_linear_253_685" x1="20.0492" y1="92.5329" x2="20.0492" y2="51.4536" gradientUnits="userSpaceOnUse">
<stop stop-color="#4F006A"/>
<stop offset="0.0151656" stop-color="#570B71"/>
<stop offset="0.0902776" stop-color="#7A3E8E"/>
<stop offset="0.1708" stop-color="#996CA9"/>
<stop offset="0.255" stop-color="#B593C0"/>
<stop offset="0.3436" stop-color="#CCB5D4"/>
<stop offset="0.4381" stop-color="#DED0E3"/>
<stop offset="0.5403" stop-color="#EDE5F0"/>
<stop offset="0.6543" stop-color="#F7F4F8"/>
<stop offset="0.7895" stop-color="#FDFCFD"/>
<stop offset="1" stop-color="white"/>
</linearGradient>
<linearGradient id="paint2_linear_253_685" x1="32.9779" y1="70.1294" x2="10.6497" y2="59.1256" gradientUnits="userSpaceOnUse">
<stop stop-color="#A103FF"/>
<stop offset="0.9994" stop-color="#2D0057" stop-opacity="0"/>
</linearGradient>
<linearGradient id="paint3_linear_253_685" x1="29.4665" y1="45.6048" x2="43.8754" y2="73.7094" gradientUnits="userSpaceOnUse">
<stop offset="0.010826" stop-color="white"/>
<stop offset="0.1016" stop-color="#F0EDF6"/>
<stop offset="0.2836" stop-color="#CBBEDF"/>
<stop offset="0.5403" stop-color="#8E73B9"/>
<stop offset="0.8589" stop-color="#3A0D85"/>
<stop offset="0.8976" stop-color="#30007F"/>
</linearGradient>
<linearGradient id="paint4_linear_253_685" x1="42.125" y1="78.5439" x2="42.125" y2="37.4645" gradientUnits="userSpaceOnUse">
<stop offset="0.6046" stop-color="white"/>
<stop offset="0.9529" stop-color="#926AFF"/>
</linearGradient>
<linearGradient id="paint5_linear_253_685" x1="29.1963" y1="59.8681" x2="51.5245" y2="70.8719" gradientUnits="userSpaceOnUse">
<stop stop-color="#632AFF"/>
<stop offset="0.9994" stop-color="#2D0057" stop-opacity="0"/>
</linearGradient>
</defs>
</svg>
