<?xml version="1.0" encoding="utf-8"?>
<!-- Generator: Adobe Illustrator 27.3.1, SVG Export Plug-In . SVG Version: 6.00 Build 0)  -->
<svg version="1.1" id="Layer_1" xmlns="http://www.w3.org/2000/svg" xmlns:xlink="http://www.w3.org/1999/xlink" x="0px" y="0px"
	 viewBox="0 0 1920 1080" style="enable-background:new 0 0 1920 1080;" xml:space="preserve">
<style type="text/css">
	.st0{fill:#FFFFFF;}
	.st1{fill:url(#SVGID_1_);}
	.st2{fill:url(#SVGID_00000049213437184586855590000002379847252946903431_);}
	.st3{fill:url(#SVGID_00000095312467103788152120000001241126803636799417_);}
	.st4{opacity:0.32;fill:url(#SVGID_00000183964980050688204780000007746382833537511591_);}
	.st5{fill:url(#SVGID_00000103229083036136287700000015598689153035446199_);}
	.st6{fill:url(#SVGID_00000045584335258136823700000017494229064564930981_);}
	.st7{fill:url(#SVGID_00000026149475947170520890000013459253481526418335_);}
	.st8{opacity:0.42;fill:url(#SVGID_00000115480881807480852770000016114533657138946461_);}
</style>
<g>
	<path class="st0" d="M599.3,584.5c-2.6,0-5.1-1-7-2.9c-1.9-1.9-2.9-4.4-2.9-7l-0.2-107.4h14.8l0.3,102.4h91.2l8.8,14.9L599.3,584.5
		z"/>
	<path class="st0" d="M723.2,584.5V467.2H738v117.3H723.2z"/>
	<path class="st0" d="M896.1,584.5l-59.9-100.7L785,569.6h44.7l8.8,14.9h-80.1l70.2-117.3h15l70,117.3H896.1z"/>
	<path class="st0" d="M962.1,584.5l-8.9-14.9h55.3c11.7,0.2,22.9-4.6,30.8-13.2c8.3-8.1,13-19.2,12.8-30.9c0-5.7-1-11.3-3.1-16.5
		c-4.6-10.8-13.3-19.4-24.1-24c-5.2-2.1-10.9-3.2-16.5-3.2h-84.1v50.3h-14.8v-65.1h98.9c10.3-0.2,20.5,2.6,29.4,7.9
		c8.8,5.2,16.2,12.6,21.5,21.4c5.2,8.9,7.9,19,7.8,29.3c0.1,7.2-1.2,14.3-3.7,21c-2.4,6.3-5.9,12.1-10.3,17.2
		c-11.9,13.8-26.8,20.8-44.6,20.7H962.1z"/>
	<path class="st0" d="M1136.7,584.5V482.1h-58.5l-8.9-14.9h142.9l8.9,14.9h-69.1v102.4H1136.7z"/>
	<path class="st0" d="M1248.8,482l-8.8-14.8h137.6l8.9,14.8H1248.8z M1253.4,533.4v-14.8h102.9l8.8,14.8H1253.4z M1253.4,584.5
		v-14.9h124.2l8.9,14.9H1253.4z"/>
	<path class="st0" d="M1454.1,584.5c-8.7,0-15.7-1.6-21.2-4.6c-6-3.2-11.1-7.7-15.2-13.1c-8.6-11.5-12.8-25.2-12.8-41.2
		c0-15.9,4.3-30,12.8-41.2s20.8-17.3,36.2-17.3h76l8.8,14.8h-84.1c-8.5-0.2-16.7,3.1-22.7,9.2c-6.4,6.7-10.7,15.2-12.2,24.4
		c-0.6,3.7-0.9,7.4-0.9,11.1c-0.2,9.1,2.1,18.1,6.7,26c2.8,5,6.9,9.2,11.8,12.3c5.2,3.2,11.2,4.8,17.3,4.7h92v14.9L1454.1,584.5z"/>
	<path class="st0" d="M1707.3,584.5v-52h-117.7v52h-14.9V467.2h14.9v52.6h117.8v-52.6h14.9v117.3H1707.3z"/>
</g>
<linearGradient id="SVGID_1_" gradientUnits="userSpaceOnUse" x1="302.6488" y1="571.9644" x2="392.6193" y2="740.8743">
	<stop  offset="0" style="stop-color:#450057"/>
	<stop  offset="0.9008" style="stop-color:#FF3DC9"/>
</linearGradient>
<path class="st1" d="M376.7,800.8l-0.4,0.2c-2.6,1.3-5.8,0.3-7.2-2.3l-3.6-6.9l-9.8-18.9L342.9,748c-1.2-2.3-4-3.2-6.2-2l-0.4,0.2
	c-2,1-2.9,3.3-2.3,5.4c0.1,0.3,0.2,0.6,0.3,0.8l8.1,15.7l0,0.1c0.6,1.5,0.6,3.2,0,4.6c-0.5,1.3-1.5,2.5-2.9,3.2
	c-0.9,0.5-1.9,0.7-2.8,0.7c-2.2,0-4.4-1.2-5.5-3.4l-0.4-0.7h0l-21-40.9c-1.3-2.5-4.3-3.5-6.8-2.2l-0.4,0.2c-2.1,1.1-3.2,3.5-2.6,5.7
	c0.1,0.4,0.2,0.7,0.4,1.1l10.4,20.2l6.2,12.2l3.5,6.9c1.2,2.4,0.2,5.4-2.2,6.6l-0.4,0.2c-2.4,1.2-5.4,0.3-6.6-2.2l-15.2-30l-0.1-0.2
	c-0.4-0.7-0.8-1.5-1.2-2.2l-90.3-176.6c-6.2-12.1-6.3-26.5-0.3-38.8l39.8-81.2c4.4-8.9,13.4-14.6,23.4-14.6h66.5l-56.4,115.3
	l87,170.2l0,0l2.6,5c0,0,0,0,0,0c1,2.3,0,5.1-2.3,6.2l-0.4,0.2c-2.3,1.2-5.1,0.4-6.5-1.8l0,0l-13.3-25.8c-0.1-0.1-0.1-0.2-0.1-0.2
	c0,0,0,0,0,0c0,0,0,0,0,0c-1.2-2-3.8-2.8-5.9-1.7l-0.4,0.2c-2.2,1.2-3.1,3.9-1.9,6.1l5,9.7l27.2,52.6l10.7,20.8
	C380.3,796.3,379.3,799.5,376.7,800.8z M363.8,743.8c0,0.1,0.1,0.1,0.1,0.2l1.7,3.3c0.1,0.1,0.1,0.2,0.2,0.3l0,0
	c1,1.5,2.6,2.4,4.4,2.4c0.8,0,1.6-0.2,2.4-0.6c2.2-1.1,3.2-3.7,2.6-6c-0.1-0.3-0.2-0.6-0.4-1l-1.7-3.2c-0.1-0.3-0.3-0.5-0.5-0.8
	c-1-1.3-2.5-2-4.1-2c-0.8,0-1.6,0.2-2.3,0.6C363.6,738.4,362.6,741.3,363.8,743.8z M326.5,787.5c-1.2-2.4-4.2-3.4-6.6-2.2l-0.4,0.2
	c-2.4,1.2-3.4,4.2-2.2,6.6l6.4,12.7c1.2,2.4,4.2,3.4,6.6,2.2l0.4-0.2c2.4-1.2,3.4-4.2,2.2-6.6L326.5,787.5z"/>
<g>
	
		<linearGradient id="SVGID_00000102512507258465919510000016916657312638313605_" gradientUnits="userSpaceOnUse" x1="266.6618" y1="748.1361" x2="266.6618" y2="436.9516">
		<stop  offset="0" style="stop-color:#FF35FF"/>
		<stop  offset="1" style="stop-color:#FF36FF"/>
	</linearGradient>
	<path style="fill:url(#SVGID_00000102512507258465919510000016916657312638313605_);" d="M294.8,748.1
		c-45-88-48.5-132.6-17.5-195.9L333.7,437h-66.4c-9.9,0-19,5.7-23.4,14.6l-39.8,81.2c-6,12.2-5.9,26.6,0.3,38.8L294.8,748.1z"/>
	
		<linearGradient id="SVGID_00000068655502261682961890000004927627249190836369_" gradientUnits="userSpaceOnUse" x1="163.4247" y1="523.4955" x2="393.1695" y2="628.7032">
		<stop  offset="0" style="stop-color:#B80085"/>
		<stop  offset="1" style="stop-color:#FF36FF;stop-opacity:0"/>
	</linearGradient>
	<path style="fill:url(#SVGID_00000068655502261682961890000004927627249190836369_);" d="M294.8,748.1
		c-45-88-48.5-132.6-17.5-195.9L333.7,437h-66.4c-9.9,0-19,5.7-23.4,14.6l-39.8,81.2c-6,12.2-5.9,26.6,0.3,38.8L294.8,748.1z"/>
	
		<linearGradient id="SVGID_00000154397979440745684980000004501532259603987610_" gradientUnits="userSpaceOnUse" x1="1700.014" y1="565.7248" x2="1868.9718" y2="648.8425" gradientTransform="matrix(-1 0 0 -1 2064.4399 1144.1495)">
		<stop  offset="0" style="stop-color:#A103FF"/>
		<stop  offset="0.9994" style="stop-color:#2D0057;stop-opacity:0"/>
	</linearGradient>
	<path style="opacity:0.32;fill:url(#SVGID_00000154397979440745684980000004501532259603987610_);" d="M204.4,571.5l25.5,49.8
		c-1.7-28.5,5.2-54.6,20-84.9l48.7-99.5h-31.4c-9.9,0-19,5.7-23.4,14.6l-39.8,81.2C198.1,545,198.2,559.4,204.4,571.5z"/>
</g>
<linearGradient id="SVGID_00000027595527001691593490000003673062986472290210_" gradientUnits="userSpaceOnUse" x1="317.6294" y1="353.2271" x2="405.6421" y2="524.5912">
	<stop  offset="0.3002" style="stop-color:#A103FF"/>
	<stop  offset="0.9997" style="stop-color:#2D0057"/>
</linearGradient>
<path style="fill:url(#SVGID_00000027595527001691593490000003673062986472290210_);" d="M389.7,372.1L389.7,372.1l0.4,0.9l0,0
	L389.7,372.1z M389.7,372.1L389.7,372.1l0.4,0.9l0,0L389.7,372.1z M389.7,372.1L389.7,372.1l0.4,0.9l0,0L389.7,372.1z M389.7,372.1
	L389.7,372.1l0.4,0.9l0,0L389.7,372.1z M389.7,372.1L389.7,372.1l0.4,0.9l0,0L389.7,372.1z M389.7,372.1L389.7,372.1l0.4,0.9l0,0
	L389.7,372.1z M389.7,372.1L389.7,372.1l0.4,0.9l0,0L389.7,372.1z M389.7,372.1L389.7,372.1l0.4,0.9l0,0L389.7,372.1z M389.7,372.1
	L389.7,372.1l0.4,0.9l0,0L389.7,372.1z M389.7,372.1L389.7,372.1l0.4,0.9l0,0L389.7,372.1z M389.7,372.1L389.7,372.1l0.4,0.9l0,0
	L389.7,372.1z M389.7,372.1L389.7,372.1l0.4,0.9l0,0L389.7,372.1z M389.7,372.1L389.7,372.1l0.4,0.9l0,0L389.7,372.1z M389.7,372.1
	L389.7,372.1l0.4,0.9l0,0L389.7,372.1z M389.7,372.1L389.7,372.1l0.4,0.9l0,0L389.7,372.1z M389.7,372.1L389.7,372.1l0.4,0.9l0,0
	L389.7,372.1z M389.7,372.1L389.7,372.1l0.4,0.9l0,0L389.7,372.1z M389.7,372.1L389.7,372.1l0.4,0.9l0,0L389.7,372.1z M389.7,372.1
	L389.7,372.1l0.4,0.9l0,0L389.7,372.1z M389.7,372.1L389.7,372.1l0.4,0.9l0,0L389.7,372.1z M389.7,372.1L389.7,372.1l0.4,0.9l0,0
	L389.7,372.1z M389.7,372.1L389.7,372.1l0.4,0.9l0,0L389.7,372.1z M389.7,372.1L389.7,372.1l0.4,0.9l0,0L389.7,372.1z M348.4,311.5
	l-11.5-22.5l20.9-10.6l11.5,22.4l-2.7,1.4l-8.5,4.3L348.4,311.5z M495.8,507.6l-83.2-162.8l-7.1-13.9c-0.4-0.8-0.8-1.5-1.2-2.2
	l-0.1-0.2l-9.5-18.8l0,0l-6-11.7l0,0l-3.6-7l-10.9,5.5l2.3,4.6l3.6,7.1l0,0l3.3,6.5l-7.8,4l-9.7,5l9.8,19.2l-18,9.2l8,15.8l-1.5,0.8
	L356,373l-9.2,4.7l11.8,23.1L423,526.9l-56.4,115.3H433c9.9,0,19-5.7,23.4-14.6l39.8-81.2C502.2,534.1,502.1,519.7,495.8,507.6z
	 M394.3,381.1l-8.3,4.2l-4.6-9l8.3-4.2l-8.3-16.3l15.9-8.1l8.8,17.2l-15.9,8.1L394.3,381.1z M333.4,284.8l-9,4.6l-3.6-7.1l-2.3-4.6
	l10.9-5.5l6,11.7L333.4,284.8z M346.8,334.2l-6.1,3.1l-8.9-17.4l6-3l10.1-5.1l0.2-0.1l8.9,17.4l-0.1,0L346.8,334.2z"/>
<linearGradient id="SVGID_00000170252250575891300490000013315249348627240583_" gradientUnits="userSpaceOnUse" x1="433.5941" y1="642.1656" x2="433.5941" y2="330.9809">
	<stop  offset="0.6046" style="stop-color:#966AFF"/>
	<stop  offset="0.9529" style="stop-color:#5702CE"/>
</linearGradient>
<path style="fill:url(#SVGID_00000170252250575891300490000013315249348627240583_);" d="M405.5,331c45,88,48.5,132.6,17.5,195.9
	l-56.4,115.3H433c9.9,0,19-5.7,23.4-14.6l39.8-81.2c6-12.2,5.9-26.6-0.3-38.8L405.5,331z"/>
<linearGradient id="SVGID_00000070084613029549054220000003362613185190037651_" gradientUnits="userSpaceOnUse" x1="419.3786" y1="497.3656" x2="546.8615" y2="538.6444">
	<stop  offset="0" style="stop-color:#A26AFF"/>
	<stop  offset="0.28" style="stop-color:#B057FF;stop-opacity:0.72"/>
	<stop  offset="0.7277" style="stop-color:#C23EFF;stop-opacity:0.2723"/>
	<stop  offset="1" style="stop-color:#C935FF;stop-opacity:0"/>
</linearGradient>
<path style="fill:url(#SVGID_00000070084613029549054220000003362613185190037651_);" d="M405.5,331c45,88,48.5,132.6,17.5,195.9
	l-56.4,115.3H433c9.9,0,19-5.7,23.4-14.6l39.8-81.2c6-12.2,5.9-26.6-0.3-38.8L405.5,331z"/>
<linearGradient id="SVGID_00000081631482319753704340000008590180535979760534_" gradientUnits="userSpaceOnUse" x1="335.8299" y1="500.6925" x2="504.7876" y2="583.8102">
	<stop  offset="0" style="stop-color:#632AFF"/>
	<stop  offset="0.9994" style="stop-color:#2D0057;stop-opacity:0"/>
</linearGradient>
<path style="opacity:0.42;fill:url(#SVGID_00000081631482319753704340000008590180535979760534_);" d="M495.8,507.6l-25.5-49.8
	c1.7,28.5-5.2,54.6-20,84.9l-48.7,99.5H433c9.9,0,19-5.7,23.4-14.6l39.8-81.2C502.2,534.1,502.1,519.7,495.8,507.6z"/>
</svg>
