<svg width="323" height="305" viewBox="0 0 323 305" fill="none" xmlns="http://www.w3.org/2000/svg">
<path d="M322.5 241.332C322.5 243.314 321.521 245.169 319.884 246.287L235.469 303.954C234.472 304.636 233.292 305 232.085 305L36.5618 305C34.3661 305 32.3458 303.801 31.2944 301.873L0.732641 245.843C0.251897 244.962 5.33507e-06 243.974 5.42284e-06 242.97L2.61394e-05 5.99997C2.64291e-05 2.68625 2.68631 -2.7959e-05 6.00003 -2.76693e-05L252.082 -6.15614e-06C253.197 -6.05867e-06 254.29 0.310693 255.238 0.89718L319.656 40.7409C321.424 41.8344 322.5 43.765 322.5 45.8437L322.5 241.332Z" fill="#673DE6"/>
</svg>
