<svg width="306" height="323" viewBox="0 0 306 323" fill="none" xmlns="http://www.w3.org/2000/svg">
<path d="M64.4176 0.250005C62.4356 0.250005 60.5814 1.22887 59.4633 2.86551L1.79569 87.2808C1.11445 88.278 0.749996 89.4576 0.749996 90.6653L0.749979 286.188C0.749979 288.384 1.9493 290.404 3.87687 291.456L59.9069 322.017C60.7882 322.498 61.7761 322.75 62.78 322.75L299.75 322.75C303.064 322.75 305.75 320.064 305.75 316.75L305.75 70.6681C305.75 69.5531 305.439 68.4602 304.853 67.5119L265.009 3.09383C263.916 1.32595 261.985 0.250011 259.906 0.250011L64.4176 0.250005Z" fill="#673DE6"/>
</svg>
