<svg xmlns="http://www.w3.org/2000/svg" viewBox="0 0 319 99" fill="none">
<g filter="url(#filter0_d_188_6650)">
<rect x="89" y="25" width="206" height="46" rx="23" fill="white" shape-rendering="crispEdges"/>
<path d="M135.049 36.927C135.348 36.0057 136.652 36.0057 136.951 36.9271L138.919 42.9828C139.053 43.3948 139.437 43.6738 139.87 43.6738H146.237C147.206 43.6738 147.609 44.9134 146.825 45.4828L141.674 49.2254C141.323 49.4801 141.176 49.9314 141.31 50.3435L143.278 56.3992C143.577 57.3205 142.523 58.0866 141.739 57.5172L136.588 53.7746C136.237 53.5199 135.763 53.5199 135.412 53.7746L130.261 57.5172C129.477 58.0866 128.423 57.3205 128.722 56.3992L130.69 50.3435C130.824 49.9314 130.677 49.4801 130.326 49.2254L125.175 45.4828C124.391 44.9134 124.794 43.6738 125.763 43.6738H132.13C132.563 43.6738 132.947 43.3948 133.081 42.9828L135.049 36.927Z" fill="#FFC978"/>
<path d="M163.049 36.927C163.348 36.0057 164.652 36.0057 164.951 36.9271L166.919 42.9828C167.053 43.3948 167.437 43.6738 167.87 43.6738H174.237C175.206 43.6738 175.609 44.9134 174.825 45.4828L169.674 49.2254C169.323 49.4801 169.176 49.9314 169.31 50.3435L171.278 56.3992C171.577 57.3205 170.523 58.0866 169.739 57.5172L164.588 53.7746C164.237 53.5199 163.763 53.5199 163.412 53.7746L158.261 57.5172C157.477 58.0866 156.423 57.3205 156.722 56.3992L158.69 50.3435C158.824 49.9314 158.677 49.4801 158.326 49.2254L153.175 45.4828C152.391 44.9134 152.794 43.6738 153.763 43.6738H160.13C160.563 43.6738 160.947 43.3948 161.081 42.9828L163.049 36.927Z" fill="#FFC978"/>
<path d="M191.049 36.927C191.348 36.0057 192.652 36.0057 192.951 36.9271L194.919 42.9828C195.053 43.3948 195.437 43.6738 195.87 43.6738H202.237C203.206 43.6738 203.609 44.9134 202.825 45.4828L197.674 49.2254C197.323 49.4801 197.176 49.9314 197.31 50.3435L199.278 56.3992C199.577 57.3205 198.523 58.0866 197.739 57.5172L192.588 53.7746C192.237 53.5199 191.763 53.5199 191.412 53.7746L186.261 57.5172C185.477 58.0866 184.423 57.3205 184.722 56.3992L186.69 50.3435C186.824 49.9314 186.677 49.4801 186.326 49.2254L181.175 45.4828C180.391 44.9134 180.794 43.6738 181.763 43.6738H188.13C188.563 43.6738 188.947 43.3948 189.081 42.9828L191.049 36.927Z" fill="#FFC978"/>
<path d="M219.049 36.927C219.348 36.0057 220.652 36.0057 220.951 36.9271L222.919 42.9828C223.053 43.3948 223.437 43.6738 223.87 43.6738H230.237C231.206 43.6738 231.609 44.9134 230.825 45.4828L225.674 49.2254C225.323 49.4801 225.176 49.9314 225.31 50.3435L227.278 56.3992C227.577 57.3205 226.523 58.0866 225.739 57.5172L220.588 53.7746C220.237 53.5199 219.763 53.5199 219.412 53.7746L214.261 57.5172C213.477 58.0866 212.423 57.3205 212.722 56.3992L214.69 50.3435C214.824 49.9314 214.677 49.4801 214.326 49.2254L209.175 45.4828C208.391 44.9134 208.794 43.6738 209.763 43.6738H216.13C216.563 43.6738 216.947 43.3948 217.081 42.9828L219.049 36.927Z" fill="#FFC978"/>
<path d="M247.049 36.927C247.348 36.0057 248.652 36.0057 248.951 36.9271L250.919 42.9828C251.053 43.3948 251.437 43.6738 251.87 43.6738H258.237C259.206 43.6738 259.609 44.9134 258.825 45.4828L253.674 49.2254C253.323 49.4801 253.176 49.9314 253.31 50.3435L255.278 56.3992C255.577 57.3205 254.523 58.0866 253.739 57.5172L248.588 53.7746C248.237 53.5199 247.763 53.5199 247.412 53.7746L242.261 57.5172C241.477 58.0866 240.423 57.3205 240.722 56.3992L242.69 50.3435C242.824 49.9314 242.677 49.4801 242.326 49.2254L237.175 45.4828C236.391 44.9134 236.794 43.6738 237.763 43.6738H244.13C244.563 43.6738 244.947 43.3948 245.081 42.9828L247.049 36.927Z" fill="#FFC978"/>
</g>
<defs>
<filter id="filter0_d_188_6650" x="78.3" y="16.3" width="227.4" height="67.4" filterUnits="userSpaceOnUse" color-interpolation-filters="sRGB">
<feFlood flood-opacity="0" result="BackgroundImageFix"/>
<feColorMatrix in="SourceAlpha" type="matrix" values="0 0 0 0 0 0 0 0 0 0 0 0 0 0 0 0 0 0 127 0" result="hardAlpha"/>
<feOffset dy="2"/>
<feGaussianBlur stdDeviation="5.35"/>
<feComposite in2="hardAlpha" operator="out"/>
<feColorMatrix type="matrix" values="0 0 0 0 0 0 0 0 0 0 0 0 0 0 0 0 0 0 0.25 0"/>
<feBlend mode="normal" in2="BackgroundImageFix" result="effect1_dropShadow_188_6650"/>
<feBlend mode="normal" in="SourceGraphic" in2="effect1_dropShadow_188_6650" result="shape"/>
</filter>
</defs>
</svg>