<svg width="969" height="731" viewBox="0 0 969 731" fill="none" xmlns="http://www.w3.org/2000/svg">
<line x1="844" y1="62.5001" x2="610" y2="62.5001" stroke="#B7C1E7"/>
<line x1="214" y1="632.5" x2="448" y2="632.5" stroke="#B7C1E7"/>
<line x1="882" y1="116.5" x2="658" y2="116.5" stroke="#B7C1E7"/>
<line x1="176" y1="578.5" x2="400" y2="578.5" stroke="#B7C1E7"/>
<line x1="882" y1="163.5" x2="610" y2="163.5" stroke="#B7C1E7"/>
<line x1="176" y1="531.5" x2="448" y2="531.5" stroke="#B7C1E7"/>
<line x1="176" y1="433.5" x2="400" y2="433.5" stroke="#B7C1E7"/>
<line x1="176" y1="386.5" x2="448" y2="386.5" stroke="#B7C1E7"/>
<line x1="642" y1="307.5" x2="866" y2="307.5" stroke="#B7C1E7"/>
<line x1="642" y1="260.5" x2="914" y2="260.5" stroke="#B7C1E7"/>
<line x1="846" y1="210.5" x2="574" y2="210.5" stroke="#B7C1E7"/>
<line x1="212" y1="484.5" x2="484" y2="484.5" stroke="#B7C1E7"/>
<line y1="-0.5" x2="379.005" y2="-0.5" transform="matrix(-0.0052242 -0.999986 0.999988 -0.0049072 846 416)" stroke="#B7C1E7"/>
<line y1="-0.5" x2="379.005" y2="-0.5" transform="matrix(0.00522411 0.999986 -0.999988 0.00490712 212 279)" stroke="#B7C1E7"/>
<line x1="777.5" y1="460" x2="777.5" y2="49.0001" stroke="#B7C1E7"/>
<line x1="280.5" y1="235" x2="280.5" y2="646" stroke="#B7C1E7"/>
<line x1="717.5" y1="447" x2="717.5" y2="43.0001" stroke="#B7C1E7"/>
<line x1="340.5" y1="248" x2="340.5" y2="652" stroke="#B7C1E7"/>
<line x1="657.5" y1="400" x2="657.5" y2="49.0001" stroke="#B7C1E7"/>
<line x1="400.5" y1="295" x2="400.5" y2="646" stroke="#B7C1E7"/>
<path d="M366.068 168H779V581H325V233.275L366.068 168Z" fill="#C491FF"/>
<circle cx="779" cy="116" r="9" fill="#9256F5"/>
<circle cx="846" cy="116" r="9" fill="#9256F5"/>
<circle cx="846" cy="261" r="9" fill="#9256F5"/>
<circle cx="846" cy="308" r="9" fill="#9256F5"/>
<circle cx="280" cy="533" r="9" fill="#9256F5"/>
<circle cx="280" cy="579" r="9" fill="#9256F5"/>
<circle cx="213" cy="384" r="9" fill="#9256F5"/>
</svg>
