<svg width="45" height="45" viewBox="0 0 45 45" fill="none" xmlns="http://www.w3.org/2000/svg">
<g clip-path="url(#clip0_271_212)">
<path d="M43.4121 11.1389L42.3262 19.092L18.5566 42.8596L2.12109 26.4241L25.8867 2.65942L33.877 1.60278L43.4121 11.1389ZM34.4297 7.21411C32.5664 7.21415 31.0566 8.72621 31.0566 10.5891C31.0567 12.4522 32.5665 13.9631 34.4297 13.9631C36.292 13.9631 37.8056 12.4545 37.8057 10.5891C37.8057 8.72376 36.2921 7.21411 34.4297 7.21411Z" stroke="#673DE6" stroke-width="3"/>
<path d="M15.8188 28.4136C14.3535 29.2349 13.7012 29.8061 13.2027 29.3062C12.7921 28.8971 12.8965 28.3092 13.476 27.7297C14.1448 27.0623 14.8121 26.9881 15.4165 27.4963L16.6071 26.3042C15.3039 25.049 13.7822 25.4747 12.5751 26.6833C11.2376 28.0209 11.0452 29.5645 12.0835 30.6027C13.2508 31.77 14.3782 31.1108 15.5771 30.4434C17.0987 29.5974 17.5656 29.2925 18.0161 29.743C18.4913 30.2181 18.3787 30.9103 17.7181 31.5695C16.9532 32.3358 16.1402 32.5363 15.3437 31.7865L14.0954 33.0362C15.4083 34.3161 17.0754 34.1458 18.6286 32.5912C19.7959 31.4239 20.4881 29.7347 19.1354 28.3807C18.1781 27.4249 17.1317 27.6804 15.8188 28.4136Z" fill="#673DE6"/>
<path d="M20.9235 25.1123L23.7251 22.3115L22.7349 21.32L19.9333 24.1235L18.6865 22.8746L21.7365 19.823L20.7065 18.7931L16.4082 23.0916L22.1402 28.823L26.4949 24.4696L25.4403 23.4143L22.3326 26.5213L20.9235 25.1123Z" fill="#673DE6"/>
<path d="M24.4427 14.7831C22.7275 16.4969 22.792 18.8164 24.6117 20.6361C26.4066 22.4309 28.7411 22.4955 30.4399 20.7967C32.1223 19.1145 32.0508 16.7716 30.2628 14.9836C28.4679 13.1887 26.1168 13.1076 24.4427 14.7831ZM29.4099 19.7502C28.428 20.7157 27.0904 20.5714 25.8599 19.3397C24.6679 18.1475 24.5072 16.7798 25.4562 15.8295C26.4148 14.871 27.7593 15.0248 28.9663 16.2319C30.19 17.4555 30.359 18.8 29.4099 19.7502Z" fill="#673DE6"/>
</g>
<defs>
<clipPath id="clip0_271_212">
<rect width="45" height="45" fill="white"/>
</clipPath>
</defs>
</svg>
