<svg width="95" height="95" viewBox="0 0 95 95" fill="none" xmlns="http://www.w3.org/2000/svg">
<g clip-path="url(#clip0_176_652)">
<path d="M32.615 83.5909C32.615 84.8265 31.6135 85.828 30.3779 85.828H9.78094C9.1163 85.828 8.48612 85.5325 8.06107 85.0215C7.63625 84.5106 7.46019 83.837 7.58122 83.1836L12.8533 54.7205C14.3515 46.6317 21.4419 40.9784 30.9169 40.3178C35.3492 40.0088 39.8003 40.8909 43.4526 42.8016C47.5889 44.9655 50.5043 48.2927 51.8841 52.4237C52.0235 52.8407 52.1487 53.2723 52.2561 53.706C52.5534 54.9051 51.8224 56.1185 50.6231 56.4156C49.4242 56.712 48.2108 55.9818 47.9135 54.7825C47.8343 54.4635 47.7424 54.1469 47.6404 53.8414C45.3395 46.9525 37.7411 44.3273 31.2278 44.781C25.6275 45.1713 18.6071 48.222 17.2526 55.5353L12.4706 81.3539H30.3782C31.6135 81.3539 32.615 82.3554 32.615 83.5909ZM21.5838 30.8757C19.0402 28.2351 16.0727 23.3533 16.3819 15.0927C16.7329 5.69451 24.0054 0.836919 31.1104 0.0364918C31.5967 -0.0183166 33.7924 -0.0104868 34.3304 0.0546121C41.3857 0.90761 48.5555 5.76274 48.9048 15.0929C49.2137 23.3536 46.2462 28.2355 43.7024 30.876C40.7533 33.9376 36.8259 35.6237 32.643 35.6237C28.4605 35.6235 24.5329 33.9374 21.5838 30.8757ZM23.1775 8.7564C25.9344 9.86107 29.2093 10.5062 32.6432 10.5986C36.0774 10.5062 39.352 9.86107 42.1087 8.7564C39.8356 5.95356 36.2114 4.54689 32.6432 4.40327C29.0748 4.54689 25.4503 5.95356 23.1775 8.7564ZM24.8061 27.7718C26.904 29.9498 29.6871 31.1493 32.643 31.1493C35.5988 31.1493 38.382 29.9498 40.4801 27.7718C43.2644 24.8813 44.6317 20.5548 44.4335 15.2598C44.4004 14.3762 44.2825 13.5498 44.0919 12.7784C40.7531 14.1654 36.8013 14.9697 32.6991 15.0728C32.6806 15.0732 32.6618 15.0735 32.643 15.0735C32.6242 15.0735 32.6054 15.0732 32.5868 15.0728C28.4847 14.9697 24.5331 14.1652 21.1943 12.7784C21.0039 13.5498 20.8858 14.3759 20.8529 15.2596C20.6549 20.5548 22.0218 24.8813 24.8061 27.7718ZM78.2691 90.5259H37.0084C35.7731 90.5259 34.7713 91.5274 34.7713 92.763C34.7713 93.9985 35.7731 95 37.0084 95H78.2689C79.5042 95 80.506 93.9985 80.506 92.763C80.506 91.5274 79.5044 90.5259 78.2691 90.5259ZM38.1044 61.1365V84.2401C38.1044 85.4757 39.0784 86.4991 40.3139 86.4991H74.9631C76.1985 86.4991 77.2532 85.4757 77.2532 84.2401V80.5693C77.2532 79.3338 76.2515 78.3322 75.0162 78.3322C73.7808 78.3322 72.7791 79.3338 72.7791 80.5693V82.0247H42.5785V63.457H55.2847C56.52 63.457 57.5218 62.4555 57.5218 61.2199C57.5218 59.9844 56.52 58.9828 55.2847 58.9828H40.3139C39.0784 58.9831 38.1044 59.9009 38.1044 61.1365ZM87.4561 61.2201C87.4561 62.4557 86.4543 63.4572 85.219 63.4572H82.8455C82.6701 63.9046 82.4258 64.6201 82.1184 65.1688L83.7992 66.8068C84.6727 67.6804 84.6745 69.0969 83.8007 69.9705C83.3638 70.4074 82.7947 70.6257 82.222 70.6257C81.6493 70.6257 81.0836 70.4074 80.6467 69.9705L78.98 68.2906C78.4313 68.598 77.9241 68.8432 77.253 69.0186V71.3924C77.253 72.6279 76.2513 73.6294 75.0159 73.6294C73.7806 73.6294 72.7789 72.6279 72.7789 71.3924V69.0186C72.1077 68.8432 71.5478 68.5991 70.999 68.2918L69.2926 69.9732C68.8557 70.4098 68.2832 70.6309 67.7108 70.6309C67.1383 70.6309 66.5658 70.4177 66.1289 69.981C65.2553 69.1074 65.2553 67.7012 66.1289 66.8276L67.8092 65.1681C67.502 64.6194 67.2569 63.9042 67.0815 63.4568H64.7073C63.4717 63.4568 62.47 62.4552 62.47 61.2197C62.47 59.9842 63.4715 58.9826 64.7068 58.9826H67.0812C67.2566 58.3115 67.5034 57.7361 67.8108 57.1871L66.1325 55.4659C65.2589 54.5923 65.2618 53.1761 66.1354 52.3022C67.009 51.4284 68.4318 51.4282 69.3058 52.3018L70.9993 53.9816C71.548 53.6743 72.108 53.4291 72.7791 53.2537V50.8799C72.7791 49.6444 73.7808 48.6428 75.0162 48.6428C76.2515 48.6428 77.2532 49.6444 77.2532 50.8799V53.2537C77.9244 53.4291 78.4317 53.6772 78.9805 53.9845L80.633 52.3076C81.5064 51.4338 82.9229 51.4387 83.7969 52.3123C84.6705 53.1859 84.6707 54.6127 83.7974 55.4865L82.1178 57.1876C82.4251 57.7366 82.6703 58.3117 82.8457 58.9828H85.219C86.4543 58.9831 87.4561 59.9846 87.4561 61.2201ZM78.6843 61.1363C78.6843 59.0844 77.015 57.4151 74.9634 57.4151C72.9117 57.4151 71.2424 59.0844 71.2424 61.1363C71.2424 63.1881 72.9117 64.8574 74.9634 64.8574C77.015 64.8574 78.6843 63.1883 78.6843 61.1363Z" fill="#673DE6"/>
</g>
<defs>
<clipPath id="clip0_176_652">
<rect width="95" height="95" fill="white"/>
</clipPath>
</defs>
</svg>
