<svg width="891" height="739" viewBox="0 0 891 739" fill="none" xmlns="http://www.w3.org/2000/svg">
<line x1="334" y1="271.5" x2="62" y2="271.5" stroke="#E521D2"/>
<line x1="539" y1="545.5" x2="811" y2="545.5" stroke="#E521D2"/>
<line x1="596" y1="221.5" x2="62" y2="221.5" stroke="#E521D2"/>
<line x1="277" y1="595.5" x2="811" y2="595.5" stroke="#E521D2"/>
<line x1="569" y1="171.5" x2="62" y2="171.5" stroke="#E521D2"/>
<line x1="304" y1="645.5" x2="811" y2="645.5" stroke="#E521D2"/>
<line x1="569" y1="121.5" x2="62" y2="121.5" stroke="#E521D2"/>
<line x1="304" y1="695.5" x2="811" y2="695.5" stroke="#E521D2"/>
<line x1="87.5" y1="330" x2="87.5" y2="115" stroke="#CC21BC"/>
<line x1="785.5" y1="478" x2="785.5" y2="702" stroke="#CC21BC"/>
<line x1="337.5" y1="569" x2="337.5" y2="115" stroke="#CC21BC"/>
<line x1="535.5" y1="248" x2="535.5" y2="702" stroke="#CC21BC"/>
<line x1="137.5" y1="569" x2="137.5" y2="115" stroke="#CC21BC"/>
<line x1="735.5" y1="478" x2="735.5" y2="702" stroke="#CC21BC"/>
<line x1="387.5" y1="569" x2="387.5" y2="115" stroke="#CC21BC"/>
<line x1="485.5" y1="248" x2="485.5" y2="702" stroke="#CC21BC"/>
<line x1="187.5" y1="566" x2="187.5" y2="112" stroke="#CC21BC"/>
<line x1="685.5" y1="251" x2="685.5" y2="705" stroke="#CC21BC"/>
<line x1="437.5" y1="566" x2="437.5" y2="112" stroke="#CC21BC"/>
<line x1="435.5" y1="251" x2="435.5" y2="705" stroke="#CC21BC"/>
<line x1="237.5" y1="564" x2="237.5" y2="110" stroke="#CC21BC"/>
<line x1="635.5" y1="253" x2="635.5" y2="707" stroke="#CC21BC"/>
<line x1="487.5" y1="564" x2="487.5" y2="110" stroke="#CC21BC"/>
<line x1="385.5" y1="253" x2="385.5" y2="707" stroke="#CC21BC"/>
<line x1="287.5" y1="564" x2="287.5" y2="110" stroke="#CC21BC"/>
<line x1="585.5" y1="253" x2="585.5" y2="707" stroke="#CC21BC"/>
<line x1="537.5" y1="564" x2="537.5" y2="110" stroke="#CC21BC"/>
<path d="M207.167 587L575 587L524 622L200.914 622L166 605L207.167 587Z" fill="#9C51F1"/>
<g filter="url(#filter0_d_409_40728)">
<rect x="128" y="198" width="588" height="412" rx="10" fill="white"/>
<rect x="128.5" y="198.5" width="587" height="411" rx="9.5" stroke="#B7C1E7"/>
</g>
<line x1="730.001" y1="245.616" x2="128.2" y2="246.687" stroke="#B7C1E7"/>
<line x1="866.009" y1="182.5" x2="495.009" y2="189.5" stroke="#9C51F1"/>
<line x1="351" y1="490.5" x2="79" y2="490.5" stroke="#9C51F1"/>
<line x1="795.5" y1="288" x2="795.5" y2="84" stroke="#9C51F1"/>
<line x1="801.5" y1="715" x2="801.5" y2="347" stroke="#9C51F1"/>
<line x1="220.5" y1="198" x2="220.5" y2="141" stroke="#9C51F1"/>
<line x1="652.5" y1="619" x2="652.5" y2="676" stroke="#9C51F1"/>
<line x1="99.5" y1="599" x2="99.5" y2="542" stroke="#9C51F1"/>
<circle cx="153" cy="224" r="6.5" stroke="#9C51F1"/>
<circle cx="176" cy="224" r="6.5" stroke="#9C51F1"/>
<circle cx="198" cy="224" r="6.5" stroke="#9C51F1"/>
<path d="M362 622H79" stroke="#E521D2"/>
<path d="M153 181L153 159.07L162 159L162 181L153 181Z" fill="#C591FF"/>
<path d="M166 181L166 159.07L175 159L175 181L166 181Z" fill="#C591FF"/>
<path d="M707 636L707 657.93L698 658L698 636L707 636Z" fill="#C591FF"/>
<path d="M83 206L83 184.07L92 184L92 206L83 206Z" fill="#C591FF"/>
<path d="M333 126L333 118.025L342 118L342 126L333 126Z" fill="#C591FF"/>
<path d="M283 176L283 168.025L292 168L292 176L283 176Z" fill="#C591FF"/>
<path d="M83 309L83 287.07L92 287L92 309L83 309Z" fill="#C591FF"/>
<path d="M797 456L797 434.07L806 434L806 456L797 456Z" fill="#C591FF"/>
<path d="M430 682L430 660.07L441 660L441 682L430 682Z" fill="#C591FF"/>
<path d="M529 652L529 640.038L540 640L540 652L529 652Z" fill="#C591FF"/>
<path d="M631 702L631 690.038L642 690L642 702L631 702Z" fill="#C591FF"/>
<path d="M729 552L729 540.038L740 540L740 552L729 552Z" fill="#C591FF"/>
<path d="M797 703L797 681.07L806 681L806 703L797 703Z" fill="#C591FF"/>
<path d="M774 594L774 347.787L783 347L783 594L774 594Z" fill="#C591FF"/>
<path d="M762.742 133L778 143.965L520 144L520 133L762.742 133Z" fill="#C591FF"/>
<path d="M243 650L243 655.981L83 656L83 650L243 650Z" fill="#E521D2"/>
<path d="M399.487 467.47H151.666C148.123 467.47 145.25 469.062 145.25 471.027V471.869C145.25 473.834 148.123 475.427 151.666 475.427H399.487C403.031 475.427 405.903 473.834 405.903 471.869V471.027C405.903 469.062 403.031 467.47 399.487 467.47Z" fill="#7E57FF"/>
<path d="M679.606 535.104H453.541C450.308 535.104 447.688 536.696 447.688 538.661V539.503C447.688 541.468 450.308 543.06 453.541 543.06H679.606C682.839 543.06 685.459 541.468 685.459 539.503V538.661C685.459 536.696 682.839 535.104 679.606 535.104Z" fill="#7E57FF"/>
<path d="M658.57 275.509H542.227C540.563 275.509 539.215 277.101 539.215 279.066V279.909C539.215 281.873 540.563 283.466 542.227 283.466H658.57C660.234 283.466 661.583 281.873 661.583 279.909V279.066C661.583 277.101 660.234 275.509 658.57 275.509Z" fill="#7E57FF"/>
<path d="M399.487 483.384H151.666C148.123 483.384 145.25 484.976 145.25 486.941V487.784C145.25 489.748 148.123 491.341 151.666 491.341H399.487C403.031 491.341 405.903 489.748 405.903 487.784V486.941C405.903 484.976 403.031 483.384 399.487 483.384Z" fill="#7E57FF"/>
<path d="M679.606 551.018H453.541C450.308 551.018 447.688 552.61 447.688 554.575V555.417C447.688 557.382 450.308 558.975 453.541 558.975H679.606C682.839 558.975 685.459 557.382 685.459 555.417V554.575C685.459 552.61 682.839 551.018 679.606 551.018Z" fill="#7E57FF"/>
<path d="M658.57 291.423H542.227C540.563 291.423 539.215 293.015 539.215 294.98V295.823C539.215 297.787 540.563 299.38 542.227 299.38H658.57C660.234 299.38 661.583 297.787 661.583 295.823V294.98C661.583 293.015 660.234 291.423 658.57 291.423Z" fill="#7E57FF"/>
<path d="M399.487 499.297H151.666C148.123 499.297 145.25 500.89 145.25 502.855V503.697C145.25 505.662 148.123 507.254 151.666 507.254H399.487C403.031 507.254 405.903 505.662 405.903 503.697V502.855C405.903 500.89 403.031 499.297 399.487 499.297Z" fill="#7E57FF"/>
<path d="M679.606 566.931H453.541C450.308 566.931 447.688 568.524 447.688 570.488V571.331C447.688 573.295 450.308 574.888 453.541 574.888H679.606C682.839 574.888 685.459 573.295 685.459 571.331V570.488C685.459 568.524 682.839 566.931 679.606 566.931Z" fill="#7E57FF"/>
<path d="M658.57 307.336H542.227C540.563 307.336 539.215 308.929 539.215 310.894V311.736C539.215 313.701 540.563 315.293 542.227 315.293H658.57C660.234 315.293 661.583 313.701 661.583 311.736V310.894C661.583 308.929 660.234 307.336 658.57 307.336Z" fill="#7E57FF"/>
<path d="M410.598 266.557H158.462C151.165 266.557 145.25 270.899 145.25 276.255V435.891C145.25 441.246 151.165 445.588 158.462 445.588H410.598C417.895 445.588 423.811 441.246 423.811 435.891V276.255C423.811 270.899 417.895 266.557 410.598 266.557Z" fill="#C491FF"/>
<path d="M505.496 271.53H450.566C448.976 271.53 447.688 272.905 447.688 274.601V325.153C447.688 326.849 448.976 328.223 450.566 328.223H505.496C507.085 328.223 508.374 326.849 508.374 325.153V274.601C508.374 272.905 507.085 271.53 505.496 271.53Z" fill="#C491FF"/>
<path d="M203.058 528.141H148.128C146.538 528.141 145.25 529.516 145.25 531.212V581.763C145.25 583.459 146.538 584.834 148.128 584.834H203.058C204.648 584.834 205.936 583.459 205.936 581.763V531.212C205.936 529.516 204.648 528.141 203.058 528.141Z" fill="#C491FF"/>
<path d="M275.683 528.141H220.753C219.163 528.141 217.875 529.516 217.875 531.212V581.763C217.875 583.459 219.163 584.834 220.753 584.834H275.683C277.272 584.834 278.561 583.459 278.561 581.763V531.212C278.561 529.516 277.272 528.141 275.683 528.141Z" fill="#C491FF"/>
<path d="M348.308 527.146H293.378C291.788 527.146 290.499 528.521 290.499 530.217V580.769C290.499 582.465 291.788 583.84 293.378 583.84H348.308C349.897 583.84 351.186 582.465 351.186 580.769V530.217C351.186 528.521 349.897 527.146 348.308 527.146Z" fill="#C491FF"/>
<path d="M420.932 527.146H366.003C364.413 527.146 363.124 528.521 363.124 530.217V580.769C363.124 582.465 364.413 583.84 366.003 583.84H420.932C422.522 583.84 423.811 582.465 423.811 580.769V530.217C423.811 528.521 422.522 527.146 420.932 527.146Z" fill="#C491FF"/>
<path d="M674.182 347.121H458.965C452.737 347.121 447.688 351.005 447.688 355.795V498.58C447.688 503.371 452.737 507.254 458.965 507.254H674.182C680.41 507.254 685.459 503.371 685.459 498.58V355.795C685.459 351.005 680.41 347.121 674.182 347.121Z" fill="#C491FF"/>
<path d="M241.751 504.883L325.513 387.912L375.577 475.514L449.777 353.211L532.665 439.296L634.494 292.588" stroke="#E521D2" stroke-width="12" stroke-miterlimit="10"/>
<path d="M593.21 299.666L636.424 290.428L645.665 333.907" stroke="#E521D2" stroke-width="12" stroke-miterlimit="10"/>
<circle cx="689" cy="209" r="55" fill="#673DE6"/>
<path d="M701.975 195.025L691.662 205.337L701.975 195.025ZM701.975 182.65V195.025H714.35L726.725 182.65H714.35V170.275L701.975 182.65Z" fill="#E521D2"/>
<path d="M701.975 195.025L691.662 205.337M701.975 195.025V182.65L714.35 170.275V182.65H726.725L714.35 195.025H701.975Z" stroke="#E521D2" stroke-width="3" stroke-linecap="round" stroke-linejoin="round"/>
<path d="M689.861 171.375H688.5C681.157 171.375 673.98 173.552 667.874 177.632C661.769 181.711 657.011 187.509 654.201 194.293C651.391 201.077 650.656 208.541 652.088 215.743C653.521 222.944 657.057 229.559 662.249 234.751C667.441 239.943 674.056 243.479 681.257 244.912C688.459 246.344 695.923 245.609 702.707 242.799C709.491 239.989 715.289 235.231 719.368 229.126C723.448 223.02 725.625 215.843 725.625 208.5C725.625 208.046 725.625 207.592 725.625 207.139" stroke="white" stroke-width="7" stroke-linecap="round" stroke-linejoin="round"/>
<path d="M708.713 212.625C707.966 216.275 706.245 219.655 703.733 222.406C701.22 225.157 698.009 227.175 694.44 228.247C690.872 229.32 687.08 229.405 683.467 228.495C679.855 227.585 676.556 225.713 673.921 223.079C671.287 220.444 669.415 217.146 668.505 213.533C667.595 209.92 667.681 206.128 668.753 202.56C669.825 198.992 671.843 195.78 674.594 193.268C677.345 190.755 680.725 189.034 684.375 188.288" stroke="white" stroke-width="7" stroke-linecap="round" stroke-linejoin="round"/>
<circle cx="795.5" cy="183.5" r="4.5" fill="#E521D2"/>
<defs>
<filter id="filter0_d_409_40728" x="124" y="194" width="596" height="420" filterUnits="userSpaceOnUse" color-interpolation-filters="sRGB">
<feFlood flood-opacity="0" result="BackgroundImageFix"/>
<feColorMatrix in="SourceAlpha" type="matrix" values="0 0 0 0 0 0 0 0 0 0 0 0 0 0 0 0 0 0 127 0" result="hardAlpha"/>
<feOffset/>
<feGaussianBlur stdDeviation="2"/>
<feComposite in2="hardAlpha" operator="out"/>
<feColorMatrix type="matrix" values="0 0 0 0 0.717647 0 0 0 0 0.756863 0 0 0 0 0.905882 0 0 0 1 0"/>
<feBlend mode="normal" in2="BackgroundImageFix" result="effect1_dropShadow_409_40728"/>
<feBlend mode="normal" in="SourceGraphic" in2="effect1_dropShadow_409_40728" result="shape"/>
</filter>
</defs>
</svg>
