<svg width="819" height="608" viewBox="0 0 819 608" fill="none" xmlns="http://www.w3.org/2000/svg">
<g clip-path="url(#clip0_956_89781)">
<line x1="334" y1="271.5" x2="62" y2="271.5" stroke="#B7C1E7"/>
<line x1="508" y1="499.5" x2="780" y2="499.5" stroke="#B7C1E7"/>
<line x1="596" y1="221.5" x2="62" y2="221.5" stroke="#B7C1E7"/>
<line x1="246" y1="549.5" x2="780" y2="549.5" stroke="#B7C1E7"/>
<line x1="576" y1="174.5" x2="69" y2="174.5" stroke="#B7C1E7"/>
<line x1="273" y1="599.5" x2="780" y2="599.5" stroke="#B7C1E7"/>
<line x1="576" y1="126.5" x2="69" y2="126.5" stroke="#B7C1E7"/>
<line x1="94.5" y1="333" x2="94.5" y2="118" stroke="#B7C1E7"/>
<line x1="194.5" y1="569" x2="194.5" y2="115" stroke="#B7C1E7"/>
<line x1="654.5" y1="235" x2="654.5" y2="649" stroke="#B7C1E7"/>
<line x1="294.5" y1="567" x2="294.5" y2="113" stroke="#B7C1E7"/>
<line x1="585.5" y1="251" x2="585.5" y2="665" stroke="#B7C1E7"/>
<path d="M331.102 549L609 549L570.469 584L326.378 584L300 567L331.102 549Z" fill="#9C51F1"/>
<path d="M516.833 221L149 221L200 186L523.086 186L558 203L516.833 221Z" fill="#9C51F1"/>
<g filter="url(#filter0_d_956_89781)">
<rect x="127" y="203" width="497" height="359" rx="10" fill="white"/>
<rect x="127.5" y="203.5" width="496" height="358" rx="9.5" stroke="#B7C1E7"/>
</g>
<line x1="730.001" y1="245.616" x2="128.2" y2="246.687" stroke="#B7C1E7"/>
<line x1="351" y1="490.5" x2="79" y2="490.5" stroke="#9C51F1"/>
<line x1="721.5" y1="658" x2="721.5" y2="322" stroke="#9C51F1"/>
<line x1="99.5" y1="599" x2="99.5" y2="542" stroke="#9C51F1"/>
<circle cx="153" cy="224" r="6.5" stroke="#9C51F1"/>
<circle cx="176" cy="224" r="6.5" stroke="#9C51F1"/>
<circle cx="198" cy="224" r="6.5" stroke="#9C51F1"/>
<path d="M326 562H88" stroke="#B7C1E7"/>
<path d="M725 574L725 591.943L718 592L718 574L725 574Z" fill="#C591FF"/>
<path d="M91 212L91 194.057L99 194L99 212L91 212Z" fill="#C591FF"/>
<path d="M291 145L291 138.022L298 138L298 145L291 145Z" fill="#C591FF"/>
<path d="M191 166L191 159.022L198 159L198 166L191 166Z" fill="#C591FF"/>
<path d="M91 299L91 280.061L99 280L99 299L91 299Z" fill="#C591FF"/>
<path d="M651 422L651 404.057L658 404L658 422L651 422Z" fill="#C591FF"/>
<path d="M466 587L466 577.032L476 577L476 587L466 587Z" fill="#C591FF"/>
<path d="M718 448L718 438.032L727 438L727 448L718 448Z" fill="#C591FF"/>
<path d="M635 503L635 493.032L644 493L644 503L635 503Z" fill="#C591FF"/>
<path d="M358.584 355.282H149.416C146.425 355.282 144 356.432 144 357.85V358.458C144 359.876 146.425 361.026 149.416 361.026H358.584C361.575 361.026 364 359.876 364 358.458V357.85C364 356.432 361.575 355.282 358.584 355.282Z" fill="#7E57FF"/>
<path d="M595.052 402.051H403.948C401.215 402.051 399 403.201 399 404.619V405.227C399 406.645 401.215 407.795 403.948 407.795H595.052C597.785 407.795 600 406.645 600 405.227V404.619C600 403.201 597.785 402.051 595.052 402.051Z" fill="#7E57FF"/>
<path d="M577.44 222.359H478.56C477.146 222.359 476 223.508 476 224.927V225.535C476 226.953 477.146 228.102 478.56 228.102H577.44C578.854 228.102 580 226.953 580 225.535V224.927C580 223.508 578.854 222.359 577.44 222.359Z" fill="#7E57FF"/>
<path d="M358.584 365.949H149.416C146.425 365.949 144 367.098 144 368.516V369.125C144 370.543 146.425 371.692 149.416 371.692H358.584C361.575 371.692 364 370.543 364 369.125V368.516C364 367.098 361.575 365.949 358.584 365.949Z" fill="#7E57FF"/>
<path d="M595.052 412.718H403.948C401.215 412.718 399 413.867 399 415.285V415.894C399 417.312 401.215 418.461 403.948 418.461H595.052C597.785 418.461 600 417.312 600 415.894V415.285C600 413.867 597.785 412.718 595.052 412.718Z" fill="#7E57FF"/>
<path d="M577.44 233.846H478.56C477.146 233.846 476 234.832 476 236.047V236.568C476 237.784 477.146 238.769 478.56 238.769H577.44C578.854 238.769 580 237.784 580 236.568V236.047C580 234.832 578.854 233.846 577.44 233.846Z" fill="#7E57FF"/>
<path d="M358.584 377.436H149.416C146.425 377.436 144 378.586 144 380.004V380.612C144 382.03 146.425 383.18 149.416 383.18H358.584C361.575 383.18 364 382.03 364 380.612V380.004C364 378.586 361.575 377.436 358.584 377.436Z" fill="#7E57FF"/>
<path d="M595.052 424.205H403.948C401.215 424.205 399 425.355 399 426.773V427.381C399 428.799 401.215 429.949 403.948 429.949H595.052C597.785 429.949 600 428.799 600 427.381V426.773C600 425.355 597.785 424.205 595.052 424.205Z" fill="#7E57FF"/>
<path d="M577.44 244.513H478.56C477.146 244.513 476 245.662 476 247.08V247.689C476 249.107 477.146 250.256 478.56 250.256H577.44C578.854 250.256 580 249.107 580 247.689V247.08C580 245.662 578.854 244.513 577.44 244.513Z" fill="#7E57FF"/>
<path d="M367.854 216.615H155.146C148.99 216.615 144 219.62 144 223.326V333.802C144 337.508 148.99 340.513 155.146 340.513H367.854C374.01 340.513 379 337.508 379 333.802V223.326C379 219.62 374.01 216.615 367.854 216.615Z" fill="#C491FF"/>
<path d="M447.581 219.897H401.419C400.083 219.897 399 220.853 399 222.031V257.149C399 258.327 400.083 259.282 401.419 259.282H447.581C448.917 259.282 450 258.327 450 257.149V222.031C450 220.853 448.917 219.897 447.581 219.897Z" fill="#C491FF"/>
<path d="M192.581 397.128H146.419C145.083 397.128 144 398.084 144 399.262V434.38C144 435.558 145.083 436.513 146.419 436.513H192.581C193.917 436.513 195 435.558 195 434.38V399.262C195 398.084 193.917 397.128 192.581 397.128Z" fill="#C491FF"/>
<path d="M254.534 397.128H207.466C206.104 397.128 205 398.084 205 399.262V434.38C205 435.558 206.104 436.513 207.466 436.513H254.534C255.896 436.513 257 435.558 257 434.38V399.262C257 398.084 255.896 397.128 254.534 397.128Z" fill="#C491FF"/>
<path d="M315.581 396.308H269.419C268.083 396.308 267 397.263 267 398.441V433.559C267 434.737 268.083 435.692 269.419 435.692H315.581C316.917 435.692 318 434.737 318 433.559V398.441C318 397.263 316.917 396.308 315.581 396.308Z" fill="#C491FF"/>
<path d="M376.581 396.308H330.419C329.083 396.308 328 397.263 328 398.441V433.559C328 434.737 329.083 435.692 330.419 435.692H376.581C377.917 435.692 379 434.737 379 433.559V398.441C379 397.263 377.917 396.308 376.581 396.308Z" fill="#C491FF"/>
<path d="M590.466 271.59H408.534C403.268 271.59 399 274.296 399 277.634V377.135C399 380.473 403.268 383.18 408.534 383.18H590.466C595.732 383.18 600 380.473 600 377.135V277.634C600 274.296 595.732 271.59 590.466 271.59Z" fill="#C491FF"/>
<rect x="127" y="245" width="497" height="317" rx="10" fill="#9C51F1" fill-opacity="0.34"/>
<path d="M475.155 317.776V371.346C475.155 407.099 458.676 440.625 430.923 461.733L429.593 462.729L380.778 498.696L331.964 462.729C303.408 441.689 286.402 407.666 286.402 371.346V317.776L380.778 276.054L475.155 317.776Z" fill="white" stroke="#673DE6" stroke-width="11"/>
<path d="M352.08 383.579L375.629 407.128L428.613 354.143" stroke="#673DE6" stroke-width="11" stroke-linecap="round" stroke-linejoin="round"/>
</g>
<defs>
<filter id="filter0_d_956_89781" x="123" y="199" width="505" height="367" filterUnits="userSpaceOnUse" color-interpolation-filters="sRGB">
<feFlood flood-opacity="0" result="BackgroundImageFix"/>
<feColorMatrix in="SourceAlpha" type="matrix" values="0 0 0 0 0 0 0 0 0 0 0 0 0 0 0 0 0 0 127 0" result="hardAlpha"/>
<feOffset/>
<feGaussianBlur stdDeviation="2"/>
<feComposite in2="hardAlpha" operator="out"/>
<feColorMatrix type="matrix" values="0 0 0 0 0.717647 0 0 0 0 0.756863 0 0 0 0 0.905882 0 0 0 1 0"/>
<feBlend mode="normal" in2="BackgroundImageFix" result="effect1_dropShadow_956_89781"/>
<feBlend mode="normal" in="SourceGraphic" in2="effect1_dropShadow_956_89781" result="shape"/>
</filter>
<clipPath id="clip0_956_89781">
<rect width="971" height="608" fill="white"/>
</clipPath>
</defs>
</svg>
