<svg width="46" height="46" viewBox="0 0 46 46" fill="none" xmlns="http://www.w3.org/2000/svg">
<path d="M34.5 15.3334C37.6756 15.3334 40.25 17.9077 40.25 21.0834C40.25 24.259 37.6756 26.8334 34.5 26.8334" stroke="#673DE6" stroke-width="3" stroke-linecap="round" stroke-linejoin="round"/>
<path d="M19.167 15.3334V36.4167C19.167 37.4753 18.3089 38.3334 17.2503 38.3334H15.3337C14.2751 38.3334 13.417 37.4753 13.417 36.4167V26.8334" stroke="#673DE6" stroke-width="3" stroke-linecap="round" stroke-linejoin="round"/>
<path d="M23 15.3333V15.3333L31.671 8.10746C32.1854 7.67903 32.9011 7.58688 33.5073 7.87104C34.1134 8.15521 34.5003 8.76438 34.5 9.43379V32.7328C34.5003 33.4022 34.1134 34.0114 33.5073 34.2955C32.9011 34.5797 32.1854 34.4876 31.671 34.0591L23 26.8333H7.66667C6.60812 26.8333 5.75 25.9752 5.75 24.9166V17.25C5.75 16.1914 6.60812 15.3333 7.66667 15.3333H23" stroke="#673DE6" stroke-width="3" stroke-linecap="round" stroke-linejoin="round"/>
</svg>
