<svg width="96" height="84" viewBox="0 0 96 84" fill="none" xmlns="http://www.w3.org/2000/svg">
<path d="M53 81.3043V71.5336C53 58.0432 41.807 47.1068 28 47.1068C14.1929 47.1068 3 58.0432 3 71.5336V81.3043H53ZM53 81.3043H93V76.4189C93 62.0291 81.807 51.9922 68 51.9922C60.9335 51.9922 54.5515 55.0479 50.0045 59.9607M43 17.7947C43 25.889 36.2842 32.4508 28 32.4508C19.7158 32.4508 13 25.889 13 17.7947C13 9.70043 19.7158 3.13867 28 3.13867C36.2842 3.13867 43 9.70043 43 17.7947ZM78 27.5654C78 32.9618 73.523 37.3361 68 37.3361C62.477 37.3361 58 32.9618 58 27.5654C58 22.1692 62.477 17.7947 68 17.7947C73.523 17.7947 78 22.1692 78 27.5654Z" stroke="#673DE6" stroke-width="5" stroke-linecap="round" stroke-linejoin="round"/>
</svg>
