<svg width="60" height="60" viewBox="0 0 60 60" fill="none" xmlns="http://www.w3.org/2000/svg">
<path d="M21 34.5C21 34.5 24.375 39 30 39C35.625 39 39 34.5 39 34.5M36.75 23.25H36.7725M23.25 23.25H23.2725M52.5 30C52.5 42.4265 42.4265 52.5 30 52.5C17.5736 52.5 7.5 42.4265 7.5 30C7.5 17.5736 17.5736 7.5 30 7.5C42.4265 7.5 52.5 17.5736 52.5 30ZM37.875 23.25C37.875 23.8713 37.3712 24.375 36.75 24.375C36.1287 24.375 35.625 23.8713 35.625 23.25C35.625 22.6287 36.1287 22.125 36.75 22.125C37.3712 22.125 37.875 22.6287 37.875 23.25ZM24.375 23.25C24.375 23.8713 23.8713 24.375 23.25 24.375C22.6287 24.375 22.125 23.8713 22.125 23.25C22.125 22.6287 22.6287 22.125 23.25 22.125C23.8713 22.125 24.375 22.6287 24.375 23.25Z" stroke="white" stroke-width="5" stroke-linecap="round" stroke-linejoin="round"/>
</svg>
