<svg width="164" height="166" viewBox="0 0 164 166" fill="none" xmlns="http://www.w3.org/2000/svg">
<path d="M89 109.304V99.5336C89 86.0432 77.807 75.1068 64 75.1068C50.1929 75.1068 39 86.0432 39 99.5336V109.304H89ZM89 109.304H129V104.419C129 90.0291 117.807 79.9922 104 79.9922C96.9335 79.9922 90.5515 83.0479 86.0045 87.9607M79 45.7947C79 53.889 72.2842 60.4508 64 60.4508C55.7158 60.4508 49 53.889 49 45.7947C49 37.7004 55.7158 31.1387 64 31.1387C72.2842 31.1387 79 37.7004 79 45.7947ZM114 55.5654C114 60.9618 109.523 65.3361 104 65.3361C98.477 65.3361 94 60.9618 94 55.5654C94 50.1692 98.477 45.7947 104 45.7947C109.523 45.7947 114 50.1692 114 55.5654Z" stroke="#673DE6" stroke-width="5" stroke-linecap="round" stroke-linejoin="round"/>
</svg>
