<svg width="58" height="58" viewBox="0 0 58 58" fill="none" xmlns="http://www.w3.org/2000/svg">
<path d="M29 49.5415C26.2934 49.5415 23.4659 45.8923 21.8709 39.8748H24.1667C24.8434 39.8748 25.375 39.3432 25.375 38.6665C25.375 37.9898 24.8434 37.4582 24.1667 37.4582H21.2909C20.8075 34.9448 20.5417 32.0932 20.5417 28.9998C20.5417 25.9065 20.8317 23.0548 21.2909 20.5415H36.6609C36.9025 21.7257 37.0958 22.9823 37.2167 24.2873C37.2892 24.9398 37.8692 25.4232 38.5459 25.3748C39.1984 25.3023 39.7058 24.7223 39.6334 24.0457C39.5125 22.8373 39.3434 21.6773 39.1259 20.5415H47.6809C48.865 23.1273 49.5175 25.979 49.5175 28.9998C49.5175 29.6765 50.0492 30.2082 50.7258 30.2082C51.4025 30.2082 51.9342 29.6765 51.9342 28.9998C51.9342 16.3365 41.6392 6.0415 28.9759 6.0415C16.3125 6.0415 6.04169 16.3365 6.04169 28.9998C6.04169 41.6632 16.3367 51.9582 29 51.9582C29.6767 51.9582 30.2084 51.4265 30.2084 50.7498C30.2084 50.0732 29.6767 49.5415 29 49.5415ZM21.8709 18.1248C23.4659 12.1073 26.2934 8.45817 29 8.45817C31.8517 8.45817 34.5584 12.349 36.105 18.1248H21.8467H21.8709ZM46.4 18.1248H38.6184C37.7 14.4032 36.2984 11.3582 34.6067 9.25567C39.5609 10.6573 43.7175 13.8715 46.4 18.1248ZM23.3934 9.25567C21.7017 11.3823 20.3 14.4273 19.3817 18.1248H11.6C14.2825 13.8715 18.4392 10.6573 23.3934 9.25567ZM10.295 20.5415H18.8742C18.3909 23.1515 18.125 26.0032 18.125 28.9998C18.125 31.9965 18.3909 34.8482 18.8742 37.4582H10.295C9.11085 34.8723 8.45835 32.0207 8.45835 28.9998C8.45835 25.979 9.13502 23.1273 10.295 20.5415ZM11.6 39.8748H19.3817C20.3 43.5723 21.7017 46.6173 23.3934 48.744C18.4634 47.3423 14.2825 44.1282 11.6 39.8748Z" fill="#673DE6"/>
<path d="M41.8567 43.2823L40.6967 43.669L41.5183 39.5365C41.6633 38.7632 41.4217 37.9657 40.8175 37.434C40.2133 36.9023 39.4158 36.7332 38.6425 36.999L37.1442 37.5065C36.5158 37.724 36.1775 38.4007 36.3708 39.029C36.5883 39.6573 37.265 39.9957 37.8933 39.8023L39.0533 39.4157L38.2317 43.5482C38.0867 44.3215 38.3283 45.119 38.9325 45.6507C39.3433 46.0132 39.8508 46.2065 40.3825 46.2065C40.6242 46.2065 40.8658 46.1582 41.0833 46.0857L42.5817 45.5782C43.21 45.3607 43.5483 44.684 43.355 44.0557C43.1375 43.4273 42.4608 43.089 41.8325 43.2823H41.8567Z" fill="#673DE6"/>
<path d="M40.5517 35.984C41.2283 35.984 41.76 35.4524 41.76 34.7757C41.76 34.099 41.2283 33.5674 40.5517 33.5674H40.5275C39.8508 33.5674 39.3433 34.099 39.3433 34.7757C39.3433 35.4524 39.8992 35.984 40.5517 35.984Z" fill="#673DE6"/>
<path d="M39.875 27.7915C33.205 27.7915 27.7917 33.2048 27.7917 39.8748C27.7917 46.5448 33.205 51.9582 39.875 51.9582C46.545 51.9582 51.9583 46.5448 51.9583 39.8748C51.9583 33.2048 46.545 27.7915 39.875 27.7915ZM39.875 49.5415C34.5342 49.5415 30.2083 45.2157 30.2083 39.8748C30.2083 34.534 34.5342 30.2082 39.875 30.2082C45.2158 30.2082 49.5417 34.534 49.5417 39.8748C49.5417 45.2157 45.2158 49.5415 39.875 49.5415Z" fill="#673DE6"/>
</svg>
