<svg width="62" height="62" viewBox="0 0 62 62" fill="none" xmlns="http://www.w3.org/2000/svg">
<path d="M52.9584 40.2743V33.5835C52.9584 32.8602 52.39 32.2918 51.6667 32.2918C50.9434 32.2918 50.375 32.8602 50.375 33.5835V40.0418H40.5842C39.06 40.0418 37.6392 40.636 36.5542 41.721C35.96 42.3152 35.185 42.6252 34.3584 42.6252H27.6675C26.8409 42.6252 26.04 42.2893 25.4717 41.721C24.3867 40.636 22.9659 40.0418 21.4417 40.0418H11.6509V20.6668C11.6509 18.5227 13.3817 16.7918 15.5259 16.7918H28.4425C29.1659 16.7918 29.7342 16.2235 29.7342 15.5002C29.7342 14.7768 29.1659 14.2085 28.4425 14.2085H15.5259C11.9609 14.2085 9.06753 17.1018 9.06753 20.6668V40.2743C7.56919 40.8168 6.48419 42.2377 6.48419 43.9168C6.48419 47.4818 9.37753 50.3752 12.9425 50.3752H49.1092C52.6742 50.3752 55.5675 47.4818 55.5675 43.9168C55.5675 42.2377 54.4825 40.8168 52.9842 40.2743H52.9584ZM49.0834 47.7918H12.9167C10.7725 47.7918 9.04169 46.061 9.04169 43.9168C9.04169 43.1935 9.61003 42.6252 10.3334 42.6252H21.4159C22.2425 42.6252 23.0434 42.961 23.6117 43.5293C24.6967 44.6143 26.1175 45.2085 27.6417 45.2085H34.3325C35.8567 45.2085 37.2775 44.6143 38.3625 43.5293C38.9567 42.9352 39.7317 42.6252 40.5584 42.6252H51.6409C52.3642 42.6252 52.9325 43.1935 52.9325 43.9168C52.9325 46.061 51.2017 47.7918 49.0575 47.7918H49.0834Z" fill="#673DE6"/>
<path d="M51.6667 14.2085H36.1667C34.0225 14.2085 32.2917 15.9393 32.2917 18.0835V25.8335C32.2917 27.9776 34.0225 29.7085 36.1667 29.7085C36.89 29.7085 37.4583 30.2768 37.4583 31.0001V33.5835C37.4583 34.1001 37.7683 34.5651 38.2592 34.7718C38.4142 34.8493 38.595 34.8751 38.75 34.8751C39.0858 34.8751 39.4217 34.746 39.6542 34.4876L44.0717 30.0701C44.3042 29.8376 44.64 29.6826 44.9758 29.6826H51.6667C53.8108 29.6826 55.5417 27.9518 55.5417 25.8076V18.0576C55.5417 15.9135 53.8108 14.1826 51.6667 14.1826V14.2085ZM52.9583 25.8335C52.9583 26.5568 52.39 27.1251 51.6667 27.1251H44.9758C43.9683 27.1251 42.9608 27.5385 42.2375 28.2618L39.99 30.5093C39.7317 28.5976 38.1042 27.1251 36.1408 27.1251C35.4175 27.1251 34.8492 26.5568 34.8492 25.8335V18.0835C34.8492 17.3601 35.4175 16.7918 36.1408 16.7918H51.6408C52.3642 16.7918 52.9325 17.3601 52.9325 18.0835V25.8335H52.9583Z" fill="#673DE6"/>
</svg>
