<svg width="255" height="95" viewBox="0 0 255 95" fill="none" xmlns="http://www.w3.org/2000/svg">
<g filter="url(#filter0_d_315_226)">
<path d="M195 14H35C22.2975 14 12 24.2975 12 37C12 49.7025 22.2975 60 35 60H195C207.703 60 218 49.7025 218 37C218 24.2975 207.703 14 195 14Z" fill="white"/>
<path d="M58.049 25.927C58.348 25.0057 59.652 25.0057 59.951 25.9271L61.919 31.9828C62.053 32.3948 62.437 32.6738 62.87 32.6738H69.237C70.206 32.6738 70.609 33.9134 69.825 34.4828L64.674 38.2254C64.323 38.4801 64.176 38.9314 64.31 39.3435L66.278 45.3992C66.577 46.3205 65.523 47.0866 64.739 46.5172L59.588 42.7746C59.237 42.5199 58.763 42.5199 58.412 42.7746L53.261 46.5172C52.477 47.0866 51.423 46.3205 51.722 45.3992L53.69 39.3435C53.824 38.9314 53.677 38.4801 53.326 38.2254L48.175 34.4828C47.391 33.9134 47.794 32.6738 48.763 32.6738H55.13C55.563 32.6738 55.947 32.3948 56.081 31.9828L58.049 25.927Z" fill="#FFC978"/>
<path d="M86.049 25.927C86.348 25.0057 87.652 25.0057 87.951 25.9271L89.919 31.9828C90.053 32.3948 90.437 32.6738 90.87 32.6738H97.237C98.206 32.6738 98.609 33.9134 97.825 34.4828L92.674 38.2254C92.323 38.4801 92.176 38.9314 92.31 39.3435L94.278 45.3992C94.577 46.3205 93.523 47.0866 92.739 46.5172L87.588 42.7746C87.237 42.5199 86.763 42.5199 86.412 42.7746L81.261 46.5172C80.477 47.0866 79.423 46.3205 79.722 45.3992L81.69 39.3435C81.824 38.9314 81.677 38.4801 81.326 38.2254L76.175 34.4828C75.391 33.9134 75.794 32.6738 76.763 32.6738H83.13C83.563 32.6738 83.947 32.3948 84.081 31.9828L86.049 25.927Z" fill="#FFC978"/>
<path d="M114.049 25.927C114.348 25.0057 115.652 25.0057 115.951 25.9271L117.919 31.9828C118.053 32.3948 118.437 32.6738 118.87 32.6738H125.237C126.206 32.6738 126.609 33.9134 125.825 34.4828L120.674 38.2254C120.323 38.4801 120.176 38.9314 120.31 39.3435L122.278 45.3992C122.577 46.3205 121.523 47.0866 120.739 46.5172L115.588 42.7746C115.237 42.5199 114.763 42.5199 114.412 42.7746L109.261 46.5172C108.477 47.0866 107.423 46.3205 107.722 45.3992L109.69 39.3435C109.824 38.9314 109.677 38.4801 109.326 38.2254L104.175 34.4828C103.391 33.9134 103.794 32.6738 104.763 32.6738H111.13C111.563 32.6738 111.947 32.3948 112.081 31.9828L114.049 25.927Z" fill="#FFC978"/>
<path d="M142.049 25.927C142.348 25.0057 143.652 25.0057 143.951 25.9271L145.919 31.9828C146.053 32.3948 146.437 32.6738 146.87 32.6738H153.237C154.206 32.6738 154.609 33.9134 153.825 34.4828L148.674 38.2254C148.323 38.4801 148.176 38.9314 148.31 39.3435L150.278 45.3992C150.577 46.3205 149.523 47.0866 148.739 46.5172L143.588 42.7746C143.237 42.5199 142.763 42.5199 142.412 42.7746L137.261 46.5172C136.477 47.0866 135.423 46.3205 135.722 45.3992L137.69 39.3435C137.824 38.9314 137.677 38.4801 137.326 38.2254L132.175 34.4828C131.391 33.9134 131.794 32.6738 132.763 32.6738H139.13C139.563 32.6738 139.947 32.3948 140.081 31.9828L142.049 25.927Z" fill="#FFC978"/>
<path d="M170.049 25.927C170.348 25.0057 171.652 25.0057 171.951 25.9271L173.919 31.9828C174.053 32.3948 174.437 32.6738 174.87 32.6738H181.237C182.206 32.6738 182.609 33.9134 181.825 34.4828L176.674 38.2254C176.323 38.4801 176.176 38.9314 176.31 39.3435L178.278 45.3992C178.577 46.3205 177.523 47.0866 176.739 46.5172L171.588 42.7746C171.237 42.5199 170.763 42.5199 170.412 42.7746L165.261 46.5172C164.477 47.0866 163.423 46.3205 163.722 45.3992L165.69 39.3435C165.824 38.9314 165.677 38.4801 165.326 38.2254L160.175 34.4828C159.391 33.9134 159.794 32.6738 160.763 32.6738H167.13C167.563 32.6738 167.947 32.3948 168.081 31.9828L170.049 25.927Z" fill="#D9D9D9"/>
</g>
<mask id="mask0_315_226" style="mask-type:alpha" maskUnits="userSpaceOnUse" x="159" y="25" width="24" height="22">
<path d="M170.049 25.927C170.348 25.0057 171.652 25.0057 171.951 25.9271L173.919 31.9828C174.053 32.3948 174.437 32.6738 174.87 32.6738H181.237C182.206 32.6738 182.609 33.9134 181.825 34.4828L176.674 38.2254C176.323 38.4801 176.176 38.9314 176.31 39.3435L178.278 45.3992C178.577 46.3205 177.523 47.0866 176.739 46.5172L171.588 42.7746C171.237 42.5199 170.763 42.5199 170.412 42.7746L165.261 46.5172C164.477 47.0866 163.423 46.3205 163.722 45.3992L165.69 39.3435C165.824 38.9314 165.677 38.4801 165.326 38.2254L160.175 34.4828C159.391 33.9134 159.794 32.6738 160.763 32.6738H167.13C167.563 32.6738 167.947 32.3948 168.081 31.9828L170.049 25.927Z" fill="#D9D9D9"/>
</mask>
<g mask="url(#mask0_315_226)">
<rect x="159" y="25" width="12" height="22" fill="#FFC978"/>
</g>
<defs>
<filter id="filter0_d_315_226" x="1.3" y="5.3" width="227.4" height="67.4" filterUnits="userSpaceOnUse" color-interpolation-filters="sRGB">
<feFlood flood-opacity="0" result="BackgroundImageFix"/>
<feColorMatrix in="SourceAlpha" type="matrix" values="0 0 0 0 0 0 0 0 0 0 0 0 0 0 0 0 0 0 127 0" result="hardAlpha"/>
<feOffset dy="2"/>
<feGaussianBlur stdDeviation="5.35"/>
<feComposite in2="hardAlpha" operator="out"/>
<feColorMatrix type="matrix" values="0 0 0 0 0 0 0 0 0 0 0 0 0 0 0 0 0 0 0.25 0"/>
<feBlend mode="normal" in2="BackgroundImageFix" result="effect1_dropShadow_315_226"/>
<feBlend mode="normal" in="SourceGraphic" in2="effect1_dropShadow_315_226" result="shape"/>
</filter>
</defs>
</svg>
