<svg width="46" height="46" viewBox="0 0 46 46" fill="none" xmlns="http://www.w3.org/2000/svg">
<path d="M3.83335 44.0832H19.1667C19.675 44.0832 20.1625 43.8812 20.522 43.5218C20.8814 43.1623 21.0834 42.6748 21.0834 42.1665V3.83317C21.0834 3.32484 20.8814 2.83733 20.522 2.47788C20.1625 2.11844 19.675 1.9165 19.1667 1.9165H3.83335C3.32502 1.9165 2.83751 2.11844 2.47807 2.47788C2.11862 2.83733 1.91669 3.32484 1.91669 3.83317V42.1665C1.91669 42.6748 2.11862 43.1623 2.47807 43.5218C2.83751 43.8812 3.32502 44.0832 3.83335 44.0832ZM17.25 5.74984V40.2498H5.75002V36.4165H11.5C12.0084 36.4165 12.4959 36.2146 12.8553 35.8551C13.2148 35.4957 13.4167 35.0082 13.4167 34.4998C13.4167 33.9915 13.2148 33.504 12.8553 33.1445C12.4959 32.7851 12.0084 32.5832 11.5 32.5832H5.75002V28.7498H11.5C12.0084 28.7498 12.4959 28.5479 12.8553 28.1885C13.2148 27.829 13.4167 27.3415 13.4167 26.8332C13.4167 26.3248 13.2148 25.8373 12.8553 25.4779C12.4959 25.1184 12.0084 24.9165 11.5 24.9165H5.75002V21.0832H11.5C12.0084 21.0832 12.4959 20.8812 12.8553 20.5218C13.2148 20.1623 13.4167 19.6748 13.4167 19.1665C13.4167 18.6582 13.2148 18.1707 12.8553 17.8112C12.4959 17.4518 12.0084 17.2498 11.5 17.2498H5.75002V13.4165H11.5C12.0084 13.4165 12.4959 13.2146 12.8553 12.8551C13.2148 12.4957 13.4167 12.0082 13.4167 11.4998C13.4167 10.9915 13.2148 10.504 12.8553 10.1446C12.4959 9.78511 12.0084 9.58317 11.5 9.58317H5.75002V5.74984H17.25ZM44.0834 32.5832V3.83317C44.0834 3.32484 43.8814 2.83733 43.522 2.47788C43.1625 2.11844 42.675 1.9165 42.1667 1.9165H30.6667C30.1584 1.9165 29.6708 2.11844 29.3114 2.47788C28.952 2.83733 28.75 3.32484 28.75 3.83317V32.5832C28.7501 32.931 28.8449 33.2722 29.0241 33.5703L34.7741 43.1536C34.9445 43.437 35.1853 43.6714 35.4731 43.8342C35.761 43.997 36.086 44.0826 36.4167 44.0826C36.7474 44.0826 37.0724 43.997 37.3602 43.8342C37.6481 43.6714 37.8889 43.437 38.0593 43.1536L43.8093 33.5703C43.9885 33.2722 44.0832 32.931 44.0834 32.5832ZM40.25 5.74984V9.58317H32.5834V5.74984H40.25ZM36.4167 38.4405L32.5834 32.0523V13.4165H40.25V32.0523L36.4167 38.4405Z" fill="white"/>
</svg>
