<svg width="59" height="59" viewBox="0 0 59 59" fill="none" xmlns="http://www.w3.org/2000/svg">
<path d="M15.9792 25.8127H16.4954C18.1179 31.4668 23.305 35.646 29.5 35.646C30.4096 35.646 31.3192 35.5477 32.2042 35.3756C32.8679 35.2527 33.3104 34.5889 33.1629 33.9252C33.04 33.2614 32.3762 32.8189 31.7125 32.9664C30.9996 33.1139 30.2375 33.1877 29.5 33.1877C23.4033 33.1877 18.4375 28.2218 18.4375 22.1252V19.6668C18.4375 13.5702 23.4033 8.60433 29.5 8.60433C35.5967 8.60433 40.5625 13.5702 40.5625 19.6668V22.1252C40.5625 22.8627 40.4887 23.5756 40.3412 24.2885C40.2183 24.9522 40.6362 25.5914 41.3 25.7389C41.3491 25.7389 41.3737 25.7389 41.4229 25.7389C41.5458 25.7635 41.6442 25.8127 41.7671 25.8127H42.9962C43.9058 25.8127 44.7171 25.5422 45.4546 25.1243V27.0418C45.4546 27.7302 44.9137 28.271 44.2254 28.271H31.9337C31.2454 28.271 30.7046 28.8118 30.7046 29.5002C30.7046 30.1885 31.2454 30.7293 31.9337 30.7293H44.2254C46.2658 30.7293 47.9129 29.0822 47.9129 27.0418V20.896C47.9129 18.1918 45.7004 15.9793 42.9962 15.9793H42.48C40.8575 10.3252 35.6704 6.146 29.4754 6.146C23.2804 6.146 18.0933 10.3252 16.4708 15.9793H15.9546C13.2504 15.9793 11.0379 18.1918 11.0379 20.896C11.0379 23.6002 13.2504 25.8127 15.9546 25.8127H15.9792ZM43.0208 18.4377C44.3729 18.4377 45.4792 19.5439 45.4792 20.896C45.4792 22.2481 44.3729 23.3543 43.0208 23.3543H42.8979C42.9471 22.9364 43.0208 22.5431 43.0208 22.1252V19.6668C43.0208 19.2489 42.9962 18.831 42.9471 18.4377H43.0208ZM15.9792 18.4377H16.0529C16.0283 18.831 15.9792 19.2489 15.9792 19.6668V22.1252C15.9792 22.5431 16.0037 22.961 16.0529 23.3543H15.9792C14.6271 23.3543 13.5208 22.2481 13.5208 20.896C13.5208 19.5439 14.6271 18.4377 15.9792 18.4377Z" fill="#673DE6"/>
<path d="M49.1667 50.3956H45.4792V46.3394C45.4792 43.0698 43.66 40.0952 40.7346 38.6448L37.4404 36.9977C36.8259 36.7027 36.0884 36.9485 35.7934 37.5385C35.4984 38.1531 35.7442 38.8906 36.3342 39.1856L39.6284 40.8327C41.7179 41.8898 43.0209 43.9794 43.0209 46.3394V50.3956H15.9792V46.3394C15.9792 44.004 17.2821 41.8898 19.3717 40.8327L22.6659 39.1856C23.2804 38.8906 23.5263 38.1531 23.2067 37.5385C22.9117 36.924 22.1742 36.6781 21.5596 36.9977L18.2654 38.6448C15.34 40.1198 13.5209 43.0698 13.5209 46.3394V50.3956H9.83335C9.14502 50.3956 8.60419 50.9364 8.60419 51.6248C8.60419 52.3131 9.14502 52.8539 9.83335 52.8539H49.1667C49.855 52.8539 50.3959 52.3131 50.3959 51.6248C50.3959 50.9364 49.855 50.3956 49.1667 50.3956Z" fill="#673DE6"/>
</svg>
