<svg width="60" height="60" viewBox="0 0 60 60" fill="none" xmlns="http://www.w3.org/2000/svg">
<path d="M46.075 10.625C45.5798 10.6315 45.1065 10.8311 44.7563 11.1813C44.4063 11.5316 44.2065 12.0047 44.2 12.5V18.575L42.1 16.475C39.9275 14.2841 37.231 12.6849 34.2668 11.8293C31.3023 10.9737 28.1683 10.8901 25.1625 11.5865C22.1567 12.2828 19.3788 13.736 17.0926 15.808C14.8064 17.88 13.0878 20.5019 12.1 23.425C11.9972 23.6633 11.9456 23.9205 11.9487 24.18C11.9518 24.4396 12.0094 24.6955 12.1179 24.9313C12.2263 25.167 12.3832 25.3775 12.5782 25.5485C12.7733 25.7198 13.0022 25.848 13.25 25.925C13.4568 25.961 13.6683 25.961 13.875 25.925C14.2662 25.921 14.6465 25.7965 14.9642 25.5682C15.2819 25.34 15.5214 25.0195 15.65 24.65C16.3485 22.5752 17.5212 20.692 19.075 19.15C21.7739 16.4616 25.4283 14.9521 29.2375 14.9521C33.047 14.9521 36.7013 16.4616 39.4 19.15L41.5 21.25H35.475C34.9778 21.25 34.5008 21.4476 34.1493 21.7992C33.7975 22.1508 33.6 22.6277 33.6 23.125C33.6 23.6223 33.7975 24.0992 34.1493 24.4508C34.5008 24.8024 34.9778 25 35.475 25H46.075C46.3223 25.0033 46.5675 24.9572 46.7965 24.8641C47.0255 24.7711 47.2335 24.6331 47.4083 24.4583C47.5833 24.2835 47.7213 24.0755 47.8143 23.8465C47.9073 23.6175 47.9535 23.3722 47.95 23.125V12.5C47.95 12.0027 47.7525 11.5258 47.4008 11.1742C47.0493 10.8225 46.5723 10.625 46.075 10.625Z" fill="white"/>
<path d="M46.7 34.2001C46.4593 34.1056 46.202 34.0611 45.9435 34.0693C45.685 34.0778 45.431 34.1388 45.1968 34.2488C44.9628 34.3588 44.7538 34.5156 44.5823 34.7091C44.4108 34.9028 44.2808 35.1293 44.2 35.3751C43.5015 37.4498 42.329 39.3331 40.775 40.8751C38.0763 43.5636 34.422 45.0728 30.6125 45.0728C26.8033 45.0728 23.1489 43.5636 20.45 40.8751L18.35 38.7751H24.5251C25.0223 38.7751 25.4993 38.5776 25.8508 38.2258C26.2025 37.8743 26.4 37.3973 26.4 36.9001C26.4 36.4028 26.2025 35.9258 25.8508 35.5743C25.4993 35.2226 25.0223 35.0251 24.5251 35.0251H13.925C13.6779 35.0216 13.4326 35.0678 13.2036 35.1608C12.9746 35.2541 12.7665 35.3921 12.5917 35.5668C12.4169 35.7416 12.279 35.9496 12.1859 36.1786C12.0929 36.4076 12.0467 36.6528 12.05 36.9001V47.5001C12.05 47.9973 12.2476 48.4743 12.5992 48.8258C12.9509 49.1776 13.4278 49.3751 13.925 49.3751C14.4223 49.3751 14.8992 49.1776 15.2509 48.8258C15.6025 48.4743 15.8 47.9973 15.8 47.5001V41.4251L17.9 43.5251C20.0725 45.7161 22.769 47.3151 25.7335 48.1708C28.6978 49.0263 31.8318 49.1098 34.8375 48.4136C37.8435 47.7173 40.6213 46.2641 42.9075 44.1921C45.1938 42.1201 46.9123 39.4981 47.9 36.5751C47.9815 36.3406 48.0153 36.0921 47.9988 35.8443C47.9823 35.5966 47.916 35.3546 47.804 35.1331C47.692 34.9113 47.5365 34.7146 47.3468 34.5543C47.1573 34.3941 46.9373 34.2736 46.7 34.2001Z" fill="white"/>
</svg>
