<svg width="116" height="116" viewBox="0 0 116 116" fill="none" xmlns="http://www.w3.org/2000/svg">
<path fill-rule="evenodd" clip-rule="evenodd" d="M46.5848 80.459C47.4164 82.0178 48.2492 83.4224 49.0453 84.6669C40.5877 82.765 33.2488 77.907 28.1705 71.2351C31.5221 69.3477 35.8148 67.3912 40.9753 65.9595C42.4421 71.7122 44.5113 76.5711 46.5848 80.459ZM52.982 77.0472C51.1806 73.6701 49.3754 69.4526 48.0747 64.4554C50.8747 64.0397 53.8636 63.8 57.0338 63.8C60.2035 63.8 63.1924 64.0397 65.9919 64.4549C64.6913 69.4526 62.886 73.6701 61.0846 77.0472C59.6404 79.7553 58.2015 81.9173 57.0333 83.4992C55.8651 81.9173 54.4262 79.7553 52.982 77.0472ZM46.1583 49.3C46.1583 52.1231 46.3483 54.8027 46.6832 57.3325C49.9133 56.8371 53.3668 56.55 57.0338 56.55C60.7004 56.55 64.1538 56.8366 67.3834 57.3325C67.7184 54.8023 67.9083 52.1231 67.9083 49.3C67.9083 46.4768 67.7184 43.7977 67.3834 41.2675C64.1538 41.7629 60.7004 42.05 57.0338 42.05C53.3668 42.05 49.9133 41.7629 46.6832 41.2675C46.3483 43.7972 46.1583 46.4768 46.1583 49.3ZM39.5699 39.7725C39.1489 42.7644 38.9083 45.9428 38.9083 49.3C38.9083 52.6572 39.1489 55.8356 39.5699 58.8275C33.4147 60.48 28.3176 62.8101 24.3757 65.0523C22.0737 60.2891 20.7833 54.9453 20.7833 49.3C20.7833 43.6547 22.0737 38.3111 24.3756 33.5476C28.3171 35.7895 33.4143 38.1198 39.5699 39.7725ZM48.0747 34.1448C50.8747 34.5604 53.8636 34.8 57.0338 34.8C60.2035 34.8 63.1924 34.5604 65.9919 34.1449C64.6913 29.1476 62.886 24.93 61.0846 21.5528C59.6404 18.8449 58.2015 16.6825 57.0333 15.1009C55.8651 16.6825 54.4262 18.8449 52.982 21.5527C51.1806 24.9299 49.3754 29.1476 48.0747 34.1448ZM74.4966 39.773C74.9176 42.7648 75.1583 45.9432 75.1583 49.3C75.1583 52.6572 74.9176 55.8351 74.4966 58.827C80.6519 60.48 85.7491 62.8101 89.6912 65.0523C91.9928 60.2886 93.2833 54.9448 93.2833 49.3C93.2833 43.6551 91.9928 38.3113 89.6912 33.5478C85.7496 35.7897 80.6524 38.12 74.4966 39.773ZM85.8961 27.3653C82.5441 29.2528 78.2517 31.2091 73.0916 32.6408C71.6247 26.888 69.5555 22.0288 67.482 18.141C66.6502 16.582 65.8174 15.1779 65.0214 13.933C73.4792 15.8351 80.8182 20.6932 85.8961 27.3653ZM40.9753 32.6407C35.815 31.2089 31.5225 29.2526 28.1705 27.365C33.2488 20.6931 40.5877 15.8351 49.0448 13.933C48.2492 15.1779 47.4164 16.582 46.5848 18.1409C44.5113 22.0287 42.4421 26.8879 40.9753 32.6407ZM73.0916 65.959C71.6247 71.7122 69.5555 76.5711 67.482 80.459C66.6502 82.0178 65.8174 83.4224 65.0214 84.6669C73.4792 82.765 80.8182 77.9066 85.8965 71.2346C82.5446 69.3472 78.2521 67.3912 73.0916 65.959ZM57.0333 92.8C81.0579 92.8 100.533 73.3246 100.533 49.3C100.533 25.2756 81.0579 5.79999 57.0333 5.79999C33.009 5.79999 13.5333 25.2756 13.5333 49.3C13.5333 73.3246 33.009 92.8 57.0333 92.8Z" fill="#673DE6"/>
</svg>
